%TF.GenerationSoftware,KiCad,Pcbnew,10.0.1*%
%TF.CreationDate,2026-06-01T10:24:52+02:00*%
%TF.ProjectId,powerBoardv1_routed5_copperPour1,706f7765-7242-46f6-9172-6476315f726f,rev?*%
%TF.SameCoordinates,Original*%
%TF.FileFunction,Legend,Top*%
%TF.FilePolarity,Positive*%
%FSLAX46Y46*%
G04 Gerber Fmt 4.6, Leading zero omitted, Abs format (unit mm)*
G04 Created by KiCad (PCBNEW 10.0.1) date 2026-06-01 10:24:52*
%MOMM*%
%LPD*%
G01*
G04 APERTURE LIST*
%ADD10C,0.100000*%
%ADD11C,0.150000*%
%ADD12C,0.120000*%
%ADD13C,0.152400*%
%ADD14C,0.508000*%
G04 APERTURE END LIST*
D10*
X149303884Y-61762475D02*
X149303884Y-60762475D01*
X149303884Y-61238665D02*
X149875312Y-61238665D01*
X149875312Y-61762475D02*
X149875312Y-60762475D01*
X150494360Y-61762475D02*
X150399122Y-61714856D01*
X150399122Y-61714856D02*
X150351503Y-61667236D01*
X150351503Y-61667236D02*
X150303884Y-61571998D01*
X150303884Y-61571998D02*
X150303884Y-61286284D01*
X150303884Y-61286284D02*
X150351503Y-61191046D01*
X150351503Y-61191046D02*
X150399122Y-61143427D01*
X150399122Y-61143427D02*
X150494360Y-61095808D01*
X150494360Y-61095808D02*
X150637217Y-61095808D01*
X150637217Y-61095808D02*
X150732455Y-61143427D01*
X150732455Y-61143427D02*
X150780074Y-61191046D01*
X150780074Y-61191046D02*
X150827693Y-61286284D01*
X150827693Y-61286284D02*
X150827693Y-61571998D01*
X150827693Y-61571998D02*
X150780074Y-61667236D01*
X150780074Y-61667236D02*
X150732455Y-61714856D01*
X150732455Y-61714856D02*
X150637217Y-61762475D01*
X150637217Y-61762475D02*
X150494360Y-61762475D01*
X151208646Y-61714856D02*
X151303884Y-61762475D01*
X151303884Y-61762475D02*
X151494360Y-61762475D01*
X151494360Y-61762475D02*
X151589598Y-61714856D01*
X151589598Y-61714856D02*
X151637217Y-61619617D01*
X151637217Y-61619617D02*
X151637217Y-61571998D01*
X151637217Y-61571998D02*
X151589598Y-61476760D01*
X151589598Y-61476760D02*
X151494360Y-61429141D01*
X151494360Y-61429141D02*
X151351503Y-61429141D01*
X151351503Y-61429141D02*
X151256265Y-61381522D01*
X151256265Y-61381522D02*
X151208646Y-61286284D01*
X151208646Y-61286284D02*
X151208646Y-61238665D01*
X151208646Y-61238665D02*
X151256265Y-61143427D01*
X151256265Y-61143427D02*
X151351503Y-61095808D01*
X151351503Y-61095808D02*
X151494360Y-61095808D01*
X151494360Y-61095808D02*
X151589598Y-61143427D01*
X152018170Y-61714856D02*
X152113408Y-61762475D01*
X152113408Y-61762475D02*
X152303884Y-61762475D01*
X152303884Y-61762475D02*
X152399122Y-61714856D01*
X152399122Y-61714856D02*
X152446741Y-61619617D01*
X152446741Y-61619617D02*
X152446741Y-61571998D01*
X152446741Y-61571998D02*
X152399122Y-61476760D01*
X152399122Y-61476760D02*
X152303884Y-61429141D01*
X152303884Y-61429141D02*
X152161027Y-61429141D01*
X152161027Y-61429141D02*
X152065789Y-61381522D01*
X152065789Y-61381522D02*
X152018170Y-61286284D01*
X152018170Y-61286284D02*
X152018170Y-61238665D01*
X152018170Y-61238665D02*
X152065789Y-61143427D01*
X152065789Y-61143427D02*
X152161027Y-61095808D01*
X152161027Y-61095808D02*
X152303884Y-61095808D01*
X152303884Y-61095808D02*
X152399122Y-61143427D01*
X153303884Y-61762475D02*
X153303884Y-61238665D01*
X153303884Y-61238665D02*
X153256265Y-61143427D01*
X153256265Y-61143427D02*
X153161027Y-61095808D01*
X153161027Y-61095808D02*
X152970551Y-61095808D01*
X152970551Y-61095808D02*
X152875313Y-61143427D01*
X153303884Y-61714856D02*
X153208646Y-61762475D01*
X153208646Y-61762475D02*
X152970551Y-61762475D01*
X152970551Y-61762475D02*
X152875313Y-61714856D01*
X152875313Y-61714856D02*
X152827694Y-61619617D01*
X152827694Y-61619617D02*
X152827694Y-61524379D01*
X152827694Y-61524379D02*
X152875313Y-61429141D01*
X152875313Y-61429141D02*
X152970551Y-61381522D01*
X152970551Y-61381522D02*
X153208646Y-61381522D01*
X153208646Y-61381522D02*
X153303884Y-61333903D01*
X153780075Y-61762475D02*
X153780075Y-61095808D01*
X153780075Y-60762475D02*
X153732456Y-60810094D01*
X153732456Y-60810094D02*
X153780075Y-60857713D01*
X153780075Y-60857713D02*
X153827694Y-60810094D01*
X153827694Y-60810094D02*
X153780075Y-60762475D01*
X153780075Y-60762475D02*
X153780075Y-60857713D01*
X154256265Y-61095808D02*
X154256265Y-61762475D01*
X154256265Y-61191046D02*
X154303884Y-61143427D01*
X154303884Y-61143427D02*
X154399122Y-61095808D01*
X154399122Y-61095808D02*
X154541979Y-61095808D01*
X154541979Y-61095808D02*
X154637217Y-61143427D01*
X154637217Y-61143427D02*
X154684836Y-61238665D01*
X154684836Y-61238665D02*
X154684836Y-61762475D01*
X155875313Y-61476760D02*
X156351503Y-61476760D01*
X155780075Y-61762475D02*
X156113408Y-60762475D01*
X156113408Y-60762475D02*
X156446741Y-61762475D01*
X156780075Y-61762475D02*
X156780075Y-60762475D01*
X156780075Y-61143427D02*
X156875313Y-61095808D01*
X156875313Y-61095808D02*
X157065789Y-61095808D01*
X157065789Y-61095808D02*
X157161027Y-61143427D01*
X157161027Y-61143427D02*
X157208646Y-61191046D01*
X157208646Y-61191046D02*
X157256265Y-61286284D01*
X157256265Y-61286284D02*
X157256265Y-61571998D01*
X157256265Y-61571998D02*
X157208646Y-61667236D01*
X157208646Y-61667236D02*
X157161027Y-61714856D01*
X157161027Y-61714856D02*
X157065789Y-61762475D01*
X157065789Y-61762475D02*
X156875313Y-61762475D01*
X156875313Y-61762475D02*
X156780075Y-61714856D01*
X158065789Y-61714856D02*
X157970551Y-61762475D01*
X157970551Y-61762475D02*
X157780075Y-61762475D01*
X157780075Y-61762475D02*
X157684837Y-61714856D01*
X157684837Y-61714856D02*
X157637218Y-61619617D01*
X157637218Y-61619617D02*
X157637218Y-61238665D01*
X157637218Y-61238665D02*
X157684837Y-61143427D01*
X157684837Y-61143427D02*
X157780075Y-61095808D01*
X157780075Y-61095808D02*
X157970551Y-61095808D01*
X157970551Y-61095808D02*
X158065789Y-61143427D01*
X158065789Y-61143427D02*
X158113408Y-61238665D01*
X158113408Y-61238665D02*
X158113408Y-61333903D01*
X158113408Y-61333903D02*
X157637218Y-61429141D01*
X158922932Y-61714856D02*
X158827694Y-61762475D01*
X158827694Y-61762475D02*
X158637218Y-61762475D01*
X158637218Y-61762475D02*
X158541980Y-61714856D01*
X158541980Y-61714856D02*
X158494361Y-61619617D01*
X158494361Y-61619617D02*
X158494361Y-61238665D01*
X158494361Y-61238665D02*
X158541980Y-61143427D01*
X158541980Y-61143427D02*
X158637218Y-61095808D01*
X158637218Y-61095808D02*
X158827694Y-61095808D01*
X158827694Y-61095808D02*
X158922932Y-61143427D01*
X158922932Y-61143427D02*
X158970551Y-61238665D01*
X158970551Y-61238665D02*
X158970551Y-61333903D01*
X158970551Y-61333903D02*
X158494361Y-61429141D01*
X159399123Y-61762475D02*
X159399123Y-61095808D01*
X159399123Y-61286284D02*
X159446742Y-61191046D01*
X159446742Y-61191046D02*
X159494361Y-61143427D01*
X159494361Y-61143427D02*
X159589599Y-61095808D01*
X159589599Y-61095808D02*
X159684837Y-61095808D01*
X149303884Y-63372419D02*
X149303884Y-62372419D01*
X149303884Y-62848609D02*
X149875312Y-62848609D01*
X149875312Y-63372419D02*
X149875312Y-62372419D01*
X150303884Y-63086704D02*
X150780074Y-63086704D01*
X150208646Y-63372419D02*
X150541979Y-62372419D01*
X150541979Y-62372419D02*
X150875312Y-63372419D01*
X151208646Y-63372419D02*
X151208646Y-62372419D01*
X151208646Y-62372419D02*
X151780074Y-63372419D01*
X151780074Y-63372419D02*
X151780074Y-62372419D01*
X152970551Y-63324800D02*
X153113408Y-63372419D01*
X153113408Y-63372419D02*
X153351503Y-63372419D01*
X153351503Y-63372419D02*
X153446741Y-63324800D01*
X153446741Y-63324800D02*
X153494360Y-63277180D01*
X153494360Y-63277180D02*
X153541979Y-63181942D01*
X153541979Y-63181942D02*
X153541979Y-63086704D01*
X153541979Y-63086704D02*
X153494360Y-62991466D01*
X153494360Y-62991466D02*
X153446741Y-62943847D01*
X153446741Y-62943847D02*
X153351503Y-62896228D01*
X153351503Y-62896228D02*
X153161027Y-62848609D01*
X153161027Y-62848609D02*
X153065789Y-62800990D01*
X153065789Y-62800990D02*
X153018170Y-62753371D01*
X153018170Y-62753371D02*
X152970551Y-62658133D01*
X152970551Y-62658133D02*
X152970551Y-62562895D01*
X152970551Y-62562895D02*
X153018170Y-62467657D01*
X153018170Y-62467657D02*
X153065789Y-62420038D01*
X153065789Y-62420038D02*
X153161027Y-62372419D01*
X153161027Y-62372419D02*
X153399122Y-62372419D01*
X153399122Y-62372419D02*
X153541979Y-62420038D01*
X154399122Y-62372419D02*
X154208646Y-62372419D01*
X154208646Y-62372419D02*
X154113408Y-62420038D01*
X154113408Y-62420038D02*
X154065789Y-62467657D01*
X154065789Y-62467657D02*
X153970551Y-62610514D01*
X153970551Y-62610514D02*
X153922932Y-62800990D01*
X153922932Y-62800990D02*
X153922932Y-63181942D01*
X153922932Y-63181942D02*
X153970551Y-63277180D01*
X153970551Y-63277180D02*
X154018170Y-63324800D01*
X154018170Y-63324800D02*
X154113408Y-63372419D01*
X154113408Y-63372419D02*
X154303884Y-63372419D01*
X154303884Y-63372419D02*
X154399122Y-63324800D01*
X154399122Y-63324800D02*
X154446741Y-63277180D01*
X154446741Y-63277180D02*
X154494360Y-63181942D01*
X154494360Y-63181942D02*
X154494360Y-62943847D01*
X154494360Y-62943847D02*
X154446741Y-62848609D01*
X154446741Y-62848609D02*
X154399122Y-62800990D01*
X154399122Y-62800990D02*
X154303884Y-62753371D01*
X154303884Y-62753371D02*
X154113408Y-62753371D01*
X154113408Y-62753371D02*
X154018170Y-62800990D01*
X154018170Y-62800990D02*
X153970551Y-62848609D01*
X153970551Y-62848609D02*
X153922932Y-62943847D01*
X155684837Y-63372419D02*
X155684837Y-62372419D01*
X155684837Y-62372419D02*
X156065789Y-62372419D01*
X156065789Y-62372419D02*
X156161027Y-62420038D01*
X156161027Y-62420038D02*
X156208646Y-62467657D01*
X156208646Y-62467657D02*
X156256265Y-62562895D01*
X156256265Y-62562895D02*
X156256265Y-62705752D01*
X156256265Y-62705752D02*
X156208646Y-62800990D01*
X156208646Y-62800990D02*
X156161027Y-62848609D01*
X156161027Y-62848609D02*
X156065789Y-62896228D01*
X156065789Y-62896228D02*
X155684837Y-62896228D01*
X156684837Y-63372419D02*
X156684837Y-62705752D01*
X156684837Y-62896228D02*
X156732456Y-62800990D01*
X156732456Y-62800990D02*
X156780075Y-62753371D01*
X156780075Y-62753371D02*
X156875313Y-62705752D01*
X156875313Y-62705752D02*
X156970551Y-62705752D01*
X157446742Y-63372419D02*
X157351504Y-63324800D01*
X157351504Y-63324800D02*
X157303885Y-63277180D01*
X157303885Y-63277180D02*
X157256266Y-63181942D01*
X157256266Y-63181942D02*
X157256266Y-62896228D01*
X157256266Y-62896228D02*
X157303885Y-62800990D01*
X157303885Y-62800990D02*
X157351504Y-62753371D01*
X157351504Y-62753371D02*
X157446742Y-62705752D01*
X157446742Y-62705752D02*
X157589599Y-62705752D01*
X157589599Y-62705752D02*
X157684837Y-62753371D01*
X157684837Y-62753371D02*
X157732456Y-62800990D01*
X157732456Y-62800990D02*
X157780075Y-62896228D01*
X157780075Y-62896228D02*
X157780075Y-63181942D01*
X157780075Y-63181942D02*
X157732456Y-63277180D01*
X157732456Y-63277180D02*
X157684837Y-63324800D01*
X157684837Y-63324800D02*
X157589599Y-63372419D01*
X157589599Y-63372419D02*
X157446742Y-63372419D01*
X158208647Y-62705752D02*
X158208647Y-63562895D01*
X158208647Y-63562895D02*
X158161028Y-63658133D01*
X158161028Y-63658133D02*
X158065790Y-63705752D01*
X158065790Y-63705752D02*
X158018171Y-63705752D01*
X158208647Y-62372419D02*
X158161028Y-62420038D01*
X158161028Y-62420038D02*
X158208647Y-62467657D01*
X158208647Y-62467657D02*
X158256266Y-62420038D01*
X158256266Y-62420038D02*
X158208647Y-62372419D01*
X158208647Y-62372419D02*
X158208647Y-62467657D01*
X159065789Y-63324800D02*
X158970551Y-63372419D01*
X158970551Y-63372419D02*
X158780075Y-63372419D01*
X158780075Y-63372419D02*
X158684837Y-63324800D01*
X158684837Y-63324800D02*
X158637218Y-63229561D01*
X158637218Y-63229561D02*
X158637218Y-62848609D01*
X158637218Y-62848609D02*
X158684837Y-62753371D01*
X158684837Y-62753371D02*
X158780075Y-62705752D01*
X158780075Y-62705752D02*
X158970551Y-62705752D01*
X158970551Y-62705752D02*
X159065789Y-62753371D01*
X159065789Y-62753371D02*
X159113408Y-62848609D01*
X159113408Y-62848609D02*
X159113408Y-62943847D01*
X159113408Y-62943847D02*
X158637218Y-63039085D01*
X159970551Y-63324800D02*
X159875313Y-63372419D01*
X159875313Y-63372419D02*
X159684837Y-63372419D01*
X159684837Y-63372419D02*
X159589599Y-63324800D01*
X159589599Y-63324800D02*
X159541980Y-63277180D01*
X159541980Y-63277180D02*
X159494361Y-63181942D01*
X159494361Y-63181942D02*
X159494361Y-62896228D01*
X159494361Y-62896228D02*
X159541980Y-62800990D01*
X159541980Y-62800990D02*
X159589599Y-62753371D01*
X159589599Y-62753371D02*
X159684837Y-62705752D01*
X159684837Y-62705752D02*
X159875313Y-62705752D01*
X159875313Y-62705752D02*
X159970551Y-62753371D01*
X160256266Y-62705752D02*
X160637218Y-62705752D01*
X160399123Y-62372419D02*
X160399123Y-63229561D01*
X160399123Y-63229561D02*
X160446742Y-63324800D01*
X160446742Y-63324800D02*
X160541980Y-63372419D01*
X160541980Y-63372419D02*
X160637218Y-63372419D01*
X172327693Y-61762475D02*
X171756265Y-61762475D01*
X172041979Y-61762475D02*
X172041979Y-60762475D01*
X172041979Y-60762475D02*
X171946741Y-60905332D01*
X171946741Y-60905332D02*
X171851503Y-61000570D01*
X171851503Y-61000570D02*
X171756265Y-61048189D01*
X172946741Y-60762475D02*
X173041979Y-60762475D01*
X173041979Y-60762475D02*
X173137217Y-60810094D01*
X173137217Y-60810094D02*
X173184836Y-60857713D01*
X173184836Y-60857713D02*
X173232455Y-60952951D01*
X173232455Y-60952951D02*
X173280074Y-61143427D01*
X173280074Y-61143427D02*
X173280074Y-61381522D01*
X173280074Y-61381522D02*
X173232455Y-61571998D01*
X173232455Y-61571998D02*
X173184836Y-61667236D01*
X173184836Y-61667236D02*
X173137217Y-61714856D01*
X173137217Y-61714856D02*
X173041979Y-61762475D01*
X173041979Y-61762475D02*
X172946741Y-61762475D01*
X172946741Y-61762475D02*
X172851503Y-61714856D01*
X172851503Y-61714856D02*
X172803884Y-61667236D01*
X172803884Y-61667236D02*
X172756265Y-61571998D01*
X172756265Y-61571998D02*
X172708646Y-61381522D01*
X172708646Y-61381522D02*
X172708646Y-61143427D01*
X172708646Y-61143427D02*
X172756265Y-60952951D01*
X172756265Y-60952951D02*
X172803884Y-60857713D01*
X172803884Y-60857713D02*
X172851503Y-60810094D01*
X172851503Y-60810094D02*
X172946741Y-60762475D01*
X173708646Y-61381522D02*
X174470551Y-61381522D01*
X175375312Y-61714856D02*
X175280074Y-61762475D01*
X175280074Y-61762475D02*
X175089598Y-61762475D01*
X175089598Y-61762475D02*
X174994360Y-61714856D01*
X174994360Y-61714856D02*
X174946741Y-61667236D01*
X174946741Y-61667236D02*
X174899122Y-61571998D01*
X174899122Y-61571998D02*
X174899122Y-61286284D01*
X174899122Y-61286284D02*
X174946741Y-61191046D01*
X174946741Y-61191046D02*
X174994360Y-61143427D01*
X174994360Y-61143427D02*
X175089598Y-61095808D01*
X175089598Y-61095808D02*
X175280074Y-61095808D01*
X175280074Y-61095808D02*
X175375312Y-61143427D01*
X176184836Y-61714856D02*
X176089598Y-61762475D01*
X176089598Y-61762475D02*
X175899122Y-61762475D01*
X175899122Y-61762475D02*
X175803884Y-61714856D01*
X175803884Y-61714856D02*
X175756265Y-61619617D01*
X175756265Y-61619617D02*
X175756265Y-61238665D01*
X175756265Y-61238665D02*
X175803884Y-61143427D01*
X175803884Y-61143427D02*
X175899122Y-61095808D01*
X175899122Y-61095808D02*
X176089598Y-61095808D01*
X176089598Y-61095808D02*
X176184836Y-61143427D01*
X176184836Y-61143427D02*
X176232455Y-61238665D01*
X176232455Y-61238665D02*
X176232455Y-61333903D01*
X176232455Y-61333903D02*
X175756265Y-61429141D01*
X176803884Y-61762475D02*
X176708646Y-61714856D01*
X176708646Y-61714856D02*
X176661027Y-61619617D01*
X176661027Y-61619617D02*
X176661027Y-60762475D01*
X177327694Y-61762475D02*
X177232456Y-61714856D01*
X177232456Y-61714856D02*
X177184837Y-61619617D01*
X177184837Y-61619617D02*
X177184837Y-60762475D01*
X178470552Y-61762475D02*
X178470552Y-60762475D01*
X178470552Y-60762475D02*
X179041980Y-61762475D01*
X179041980Y-61762475D02*
X179041980Y-60762475D01*
X179518171Y-61762475D02*
X179518171Y-61095808D01*
X179518171Y-60762475D02*
X179470552Y-60810094D01*
X179470552Y-60810094D02*
X179518171Y-60857713D01*
X179518171Y-60857713D02*
X179565790Y-60810094D01*
X179565790Y-60810094D02*
X179518171Y-60762475D01*
X179518171Y-60762475D02*
X179518171Y-60857713D01*
X179994361Y-61381522D02*
X180756266Y-61381522D01*
X181232456Y-61762475D02*
X181232456Y-60762475D01*
X181232456Y-60762475D02*
X181565789Y-61476760D01*
X181565789Y-61476760D02*
X181899122Y-60762475D01*
X181899122Y-60762475D02*
X181899122Y-61762475D01*
X182375313Y-61762475D02*
X182375313Y-60762475D01*
X182375313Y-61238665D02*
X182946741Y-61238665D01*
X182946741Y-61762475D02*
X182946741Y-60762475D01*
X184708646Y-61762475D02*
X184137218Y-61762475D01*
X184422932Y-61762475D02*
X184422932Y-60762475D01*
X184422932Y-60762475D02*
X184327694Y-60905332D01*
X184327694Y-60905332D02*
X184232456Y-61000570D01*
X184232456Y-61000570D02*
X184137218Y-61048189D01*
X185089599Y-60857713D02*
X185137218Y-60810094D01*
X185137218Y-60810094D02*
X185232456Y-60762475D01*
X185232456Y-60762475D02*
X185470551Y-60762475D01*
X185470551Y-60762475D02*
X185565789Y-60810094D01*
X185565789Y-60810094D02*
X185613408Y-60857713D01*
X185613408Y-60857713D02*
X185661027Y-60952951D01*
X185661027Y-60952951D02*
X185661027Y-61048189D01*
X185661027Y-61048189D02*
X185613408Y-61191046D01*
X185613408Y-61191046D02*
X185041980Y-61762475D01*
X185041980Y-61762475D02*
X185661027Y-61762475D01*
X185946742Y-60762475D02*
X186280075Y-61762475D01*
X186280075Y-61762475D02*
X186613408Y-60762475D01*
X188041980Y-61238665D02*
X188184837Y-61286284D01*
X188184837Y-61286284D02*
X188232456Y-61333903D01*
X188232456Y-61333903D02*
X188280075Y-61429141D01*
X188280075Y-61429141D02*
X188280075Y-61571998D01*
X188280075Y-61571998D02*
X188232456Y-61667236D01*
X188232456Y-61667236D02*
X188184837Y-61714856D01*
X188184837Y-61714856D02*
X188089599Y-61762475D01*
X188089599Y-61762475D02*
X187708647Y-61762475D01*
X187708647Y-61762475D02*
X187708647Y-60762475D01*
X187708647Y-60762475D02*
X188041980Y-60762475D01*
X188041980Y-60762475D02*
X188137218Y-60810094D01*
X188137218Y-60810094D02*
X188184837Y-60857713D01*
X188184837Y-60857713D02*
X188232456Y-60952951D01*
X188232456Y-60952951D02*
X188232456Y-61048189D01*
X188232456Y-61048189D02*
X188184837Y-61143427D01*
X188184837Y-61143427D02*
X188137218Y-61191046D01*
X188137218Y-61191046D02*
X188041980Y-61238665D01*
X188041980Y-61238665D02*
X187708647Y-61238665D01*
X189137218Y-61762475D02*
X189137218Y-61238665D01*
X189137218Y-61238665D02*
X189089599Y-61143427D01*
X189089599Y-61143427D02*
X188994361Y-61095808D01*
X188994361Y-61095808D02*
X188803885Y-61095808D01*
X188803885Y-61095808D02*
X188708647Y-61143427D01*
X189137218Y-61714856D02*
X189041980Y-61762475D01*
X189041980Y-61762475D02*
X188803885Y-61762475D01*
X188803885Y-61762475D02*
X188708647Y-61714856D01*
X188708647Y-61714856D02*
X188661028Y-61619617D01*
X188661028Y-61619617D02*
X188661028Y-61524379D01*
X188661028Y-61524379D02*
X188708647Y-61429141D01*
X188708647Y-61429141D02*
X188803885Y-61381522D01*
X188803885Y-61381522D02*
X189041980Y-61381522D01*
X189041980Y-61381522D02*
X189137218Y-61333903D01*
X189470552Y-61095808D02*
X189851504Y-61095808D01*
X189613409Y-60762475D02*
X189613409Y-61619617D01*
X189613409Y-61619617D02*
X189661028Y-61714856D01*
X189661028Y-61714856D02*
X189756266Y-61762475D01*
X189756266Y-61762475D02*
X189851504Y-61762475D01*
X190041981Y-61095808D02*
X190422933Y-61095808D01*
X190184838Y-60762475D02*
X190184838Y-61619617D01*
X190184838Y-61619617D02*
X190232457Y-61714856D01*
X190232457Y-61714856D02*
X190327695Y-61762475D01*
X190327695Y-61762475D02*
X190422933Y-61762475D01*
X191137219Y-61714856D02*
X191041981Y-61762475D01*
X191041981Y-61762475D02*
X190851505Y-61762475D01*
X190851505Y-61762475D02*
X190756267Y-61714856D01*
X190756267Y-61714856D02*
X190708648Y-61619617D01*
X190708648Y-61619617D02*
X190708648Y-61238665D01*
X190708648Y-61238665D02*
X190756267Y-61143427D01*
X190756267Y-61143427D02*
X190851505Y-61095808D01*
X190851505Y-61095808D02*
X191041981Y-61095808D01*
X191041981Y-61095808D02*
X191137219Y-61143427D01*
X191137219Y-61143427D02*
X191184838Y-61238665D01*
X191184838Y-61238665D02*
X191184838Y-61333903D01*
X191184838Y-61333903D02*
X190708648Y-61429141D01*
X191613410Y-61762475D02*
X191613410Y-61095808D01*
X191613410Y-61286284D02*
X191661029Y-61191046D01*
X191661029Y-61191046D02*
X191708648Y-61143427D01*
X191708648Y-61143427D02*
X191803886Y-61095808D01*
X191803886Y-61095808D02*
X191899124Y-61095808D01*
X192137220Y-61095808D02*
X192375315Y-61762475D01*
X192613410Y-61095808D02*
X192375315Y-61762475D01*
X192375315Y-61762475D02*
X192280077Y-62000570D01*
X192280077Y-62000570D02*
X192232458Y-62048189D01*
X192232458Y-62048189D02*
X192137220Y-62095808D01*
X171803884Y-62372419D02*
X171803884Y-63181942D01*
X171803884Y-63181942D02*
X171851503Y-63277180D01*
X171851503Y-63277180D02*
X171899122Y-63324800D01*
X171899122Y-63324800D02*
X171994360Y-63372419D01*
X171994360Y-63372419D02*
X172184836Y-63372419D01*
X172184836Y-63372419D02*
X172280074Y-63324800D01*
X172280074Y-63324800D02*
X172327693Y-63277180D01*
X172327693Y-63277180D02*
X172375312Y-63181942D01*
X172375312Y-63181942D02*
X172375312Y-62372419D01*
X172803884Y-63324800D02*
X172946741Y-63372419D01*
X172946741Y-63372419D02*
X173184836Y-63372419D01*
X173184836Y-63372419D02*
X173280074Y-63324800D01*
X173280074Y-63324800D02*
X173327693Y-63277180D01*
X173327693Y-63277180D02*
X173375312Y-63181942D01*
X173375312Y-63181942D02*
X173375312Y-63086704D01*
X173375312Y-63086704D02*
X173327693Y-62991466D01*
X173327693Y-62991466D02*
X173280074Y-62943847D01*
X173280074Y-62943847D02*
X173184836Y-62896228D01*
X173184836Y-62896228D02*
X172994360Y-62848609D01*
X172994360Y-62848609D02*
X172899122Y-62800990D01*
X172899122Y-62800990D02*
X172851503Y-62753371D01*
X172851503Y-62753371D02*
X172803884Y-62658133D01*
X172803884Y-62658133D02*
X172803884Y-62562895D01*
X172803884Y-62562895D02*
X172851503Y-62467657D01*
X172851503Y-62467657D02*
X172899122Y-62420038D01*
X172899122Y-62420038D02*
X172994360Y-62372419D01*
X172994360Y-62372419D02*
X173232455Y-62372419D01*
X173232455Y-62372419D02*
X173375312Y-62420038D01*
X174137217Y-62848609D02*
X174280074Y-62896228D01*
X174280074Y-62896228D02*
X174327693Y-62943847D01*
X174327693Y-62943847D02*
X174375312Y-63039085D01*
X174375312Y-63039085D02*
X174375312Y-63181942D01*
X174375312Y-63181942D02*
X174327693Y-63277180D01*
X174327693Y-63277180D02*
X174280074Y-63324800D01*
X174280074Y-63324800D02*
X174184836Y-63372419D01*
X174184836Y-63372419D02*
X173803884Y-63372419D01*
X173803884Y-63372419D02*
X173803884Y-62372419D01*
X173803884Y-62372419D02*
X174137217Y-62372419D01*
X174137217Y-62372419D02*
X174232455Y-62420038D01*
X174232455Y-62420038D02*
X174280074Y-62467657D01*
X174280074Y-62467657D02*
X174327693Y-62562895D01*
X174327693Y-62562895D02*
X174327693Y-62658133D01*
X174327693Y-62658133D02*
X174280074Y-62753371D01*
X174280074Y-62753371D02*
X174232455Y-62800990D01*
X174232455Y-62800990D02*
X174137217Y-62848609D01*
X174137217Y-62848609D02*
X173803884Y-62848609D01*
X174803884Y-62991466D02*
X175565789Y-62991466D01*
X176613407Y-63277180D02*
X176565788Y-63324800D01*
X176565788Y-63324800D02*
X176422931Y-63372419D01*
X176422931Y-63372419D02*
X176327693Y-63372419D01*
X176327693Y-63372419D02*
X176184836Y-63324800D01*
X176184836Y-63324800D02*
X176089598Y-63229561D01*
X176089598Y-63229561D02*
X176041979Y-63134323D01*
X176041979Y-63134323D02*
X175994360Y-62943847D01*
X175994360Y-62943847D02*
X175994360Y-62800990D01*
X175994360Y-62800990D02*
X176041979Y-62610514D01*
X176041979Y-62610514D02*
X176089598Y-62515276D01*
X176089598Y-62515276D02*
X176184836Y-62420038D01*
X176184836Y-62420038D02*
X176327693Y-62372419D01*
X176327693Y-62372419D02*
X176422931Y-62372419D01*
X176422931Y-62372419D02*
X176565788Y-62420038D01*
X176565788Y-62420038D02*
X176613407Y-62467657D01*
X178089598Y-63705752D02*
X177851503Y-63705752D01*
X177851503Y-63705752D02*
X177851503Y-62277180D01*
X177851503Y-62277180D02*
X178089598Y-62277180D01*
X178946741Y-62372419D02*
X178470551Y-62372419D01*
X178470551Y-62372419D02*
X178422932Y-62848609D01*
X178422932Y-62848609D02*
X178470551Y-62800990D01*
X178470551Y-62800990D02*
X178565789Y-62753371D01*
X178565789Y-62753371D02*
X178803884Y-62753371D01*
X178803884Y-62753371D02*
X178899122Y-62800990D01*
X178899122Y-62800990D02*
X178946741Y-62848609D01*
X178946741Y-62848609D02*
X178994360Y-62943847D01*
X178994360Y-62943847D02*
X178994360Y-63181942D01*
X178994360Y-63181942D02*
X178946741Y-63277180D01*
X178946741Y-63277180D02*
X178899122Y-63324800D01*
X178899122Y-63324800D02*
X178803884Y-63372419D01*
X178803884Y-63372419D02*
X178565789Y-63372419D01*
X178565789Y-63372419D02*
X178470551Y-63324800D01*
X178470551Y-63324800D02*
X178422932Y-63277180D01*
X179280075Y-62372419D02*
X179613408Y-63372419D01*
X179613408Y-63372419D02*
X179946741Y-62372419D01*
X181565789Y-63372419D02*
X180994361Y-63372419D01*
X181280075Y-63372419D02*
X181280075Y-62372419D01*
X181280075Y-62372419D02*
X181184837Y-62515276D01*
X181184837Y-62515276D02*
X181089599Y-62610514D01*
X181089599Y-62610514D02*
X180994361Y-62658133D01*
X181994361Y-63277180D02*
X182041980Y-63324800D01*
X182041980Y-63324800D02*
X181994361Y-63372419D01*
X181994361Y-63372419D02*
X181946742Y-63324800D01*
X181946742Y-63324800D02*
X181994361Y-63277180D01*
X181994361Y-63277180D02*
X181994361Y-63372419D01*
X182946741Y-62372419D02*
X182470551Y-62372419D01*
X182470551Y-62372419D02*
X182422932Y-62848609D01*
X182422932Y-62848609D02*
X182470551Y-62800990D01*
X182470551Y-62800990D02*
X182565789Y-62753371D01*
X182565789Y-62753371D02*
X182803884Y-62753371D01*
X182803884Y-62753371D02*
X182899122Y-62800990D01*
X182899122Y-62800990D02*
X182946741Y-62848609D01*
X182946741Y-62848609D02*
X182994360Y-62943847D01*
X182994360Y-62943847D02*
X182994360Y-63181942D01*
X182994360Y-63181942D02*
X182946741Y-63277180D01*
X182946741Y-63277180D02*
X182899122Y-63324800D01*
X182899122Y-63324800D02*
X182803884Y-63372419D01*
X182803884Y-63372419D02*
X182565789Y-63372419D01*
X182565789Y-63372419D02*
X182470551Y-63324800D01*
X182470551Y-63324800D02*
X182422932Y-63277180D01*
X183375313Y-63086704D02*
X183851503Y-63086704D01*
X183280075Y-63372419D02*
X183613408Y-62372419D01*
X183613408Y-62372419D02*
X183946741Y-63372419D01*
X184184837Y-63705752D02*
X184422932Y-63705752D01*
X184422932Y-63705752D02*
X184422932Y-62277180D01*
X184422932Y-62277180D02*
X184184837Y-62277180D01*
X185708647Y-62991466D02*
X186470552Y-62991466D01*
X186946742Y-62705752D02*
X187708647Y-62991466D01*
X187708647Y-62991466D02*
X186946742Y-63277180D01*
X188946742Y-63372419D02*
X188946742Y-62372419D01*
X188946742Y-62372419D02*
X189184837Y-62372419D01*
X189184837Y-62372419D02*
X189327694Y-62420038D01*
X189327694Y-62420038D02*
X189422932Y-62515276D01*
X189422932Y-62515276D02*
X189470551Y-62610514D01*
X189470551Y-62610514D02*
X189518170Y-62800990D01*
X189518170Y-62800990D02*
X189518170Y-62943847D01*
X189518170Y-62943847D02*
X189470551Y-63134323D01*
X189470551Y-63134323D02*
X189422932Y-63229561D01*
X189422932Y-63229561D02*
X189327694Y-63324800D01*
X189327694Y-63324800D02*
X189184837Y-63372419D01*
X189184837Y-63372419D02*
X188946742Y-63372419D01*
X189899123Y-63324800D02*
X189994361Y-63372419D01*
X189994361Y-63372419D02*
X190184837Y-63372419D01*
X190184837Y-63372419D02*
X190280075Y-63324800D01*
X190280075Y-63324800D02*
X190327694Y-63229561D01*
X190327694Y-63229561D02*
X190327694Y-63181942D01*
X190327694Y-63181942D02*
X190280075Y-63086704D01*
X190280075Y-63086704D02*
X190184837Y-63039085D01*
X190184837Y-63039085D02*
X190041980Y-63039085D01*
X190041980Y-63039085D02*
X189946742Y-62991466D01*
X189946742Y-62991466D02*
X189899123Y-62896228D01*
X189899123Y-62896228D02*
X189899123Y-62848609D01*
X189899123Y-62848609D02*
X189946742Y-62753371D01*
X189946742Y-62753371D02*
X190041980Y-62705752D01*
X190041980Y-62705752D02*
X190184837Y-62705752D01*
X190184837Y-62705752D02*
X190280075Y-62753371D01*
X191184837Y-62705752D02*
X191184837Y-63372419D01*
X190756266Y-62705752D02*
X190756266Y-63229561D01*
X190756266Y-63229561D02*
X190803885Y-63324800D01*
X190803885Y-63324800D02*
X190899123Y-63372419D01*
X190899123Y-63372419D02*
X191041980Y-63372419D01*
X191041980Y-63372419D02*
X191137218Y-63324800D01*
X191137218Y-63324800D02*
X191184837Y-63277180D01*
X191661028Y-63372419D02*
X191661028Y-62372419D01*
X191661028Y-62753371D02*
X191756266Y-62705752D01*
X191756266Y-62705752D02*
X191946742Y-62705752D01*
X191946742Y-62705752D02*
X192041980Y-62753371D01*
X192041980Y-62753371D02*
X192089599Y-62800990D01*
X192089599Y-62800990D02*
X192137218Y-62896228D01*
X192137218Y-62896228D02*
X192137218Y-63181942D01*
X192137218Y-63181942D02*
X192089599Y-63277180D01*
X192089599Y-63277180D02*
X192041980Y-63324800D01*
X192041980Y-63324800D02*
X191946742Y-63372419D01*
X191946742Y-63372419D02*
X191756266Y-63372419D01*
X191756266Y-63372419D02*
X191661028Y-63324800D01*
X192565790Y-62991466D02*
X193327695Y-62991466D01*
X194327694Y-63372419D02*
X193756266Y-63372419D01*
X194041980Y-63372419D02*
X194041980Y-62372419D01*
X194041980Y-62372419D02*
X193946742Y-62515276D01*
X193946742Y-62515276D02*
X193851504Y-62610514D01*
X193851504Y-62610514D02*
X193756266Y-62658133D01*
X194661028Y-62372419D02*
X195327694Y-62372419D01*
X195327694Y-62372419D02*
X194899123Y-63372419D01*
X195613409Y-62705752D02*
X195803885Y-63372419D01*
X195803885Y-63372419D02*
X195994361Y-62896228D01*
X195994361Y-62896228D02*
X196184837Y-63372419D01*
X196184837Y-63372419D02*
X196375313Y-62705752D01*
X196708647Y-62467657D02*
X196756266Y-62420038D01*
X196756266Y-62420038D02*
X196851504Y-62372419D01*
X196851504Y-62372419D02*
X197089599Y-62372419D01*
X197089599Y-62372419D02*
X197184837Y-62420038D01*
X197184837Y-62420038D02*
X197232456Y-62467657D01*
X197232456Y-62467657D02*
X197280075Y-62562895D01*
X197280075Y-62562895D02*
X197280075Y-62658133D01*
X197280075Y-62658133D02*
X197232456Y-62800990D01*
X197232456Y-62800990D02*
X196661028Y-63372419D01*
X196661028Y-63372419D02*
X197280075Y-63372419D01*
X198756266Y-63705752D02*
X198518171Y-63705752D01*
X198518171Y-63705752D02*
X198518171Y-62277180D01*
X198518171Y-62277180D02*
X198756266Y-62277180D01*
X199661028Y-63372419D02*
X199089600Y-63372419D01*
X199375314Y-63372419D02*
X199375314Y-62372419D01*
X199375314Y-62372419D02*
X199280076Y-62515276D01*
X199280076Y-62515276D02*
X199184838Y-62610514D01*
X199184838Y-62610514D02*
X199089600Y-62658133D01*
X200041981Y-62467657D02*
X200089600Y-62420038D01*
X200089600Y-62420038D02*
X200184838Y-62372419D01*
X200184838Y-62372419D02*
X200422933Y-62372419D01*
X200422933Y-62372419D02*
X200518171Y-62420038D01*
X200518171Y-62420038D02*
X200565790Y-62467657D01*
X200565790Y-62467657D02*
X200613409Y-62562895D01*
X200613409Y-62562895D02*
X200613409Y-62658133D01*
X200613409Y-62658133D02*
X200565790Y-62800990D01*
X200565790Y-62800990D02*
X199994362Y-63372419D01*
X199994362Y-63372419D02*
X200613409Y-63372419D01*
X200899124Y-62372419D02*
X201232457Y-63372419D01*
X201232457Y-63372419D02*
X201565790Y-62372419D01*
X202565791Y-62372419D02*
X203184838Y-62372419D01*
X203184838Y-62372419D02*
X202851505Y-62753371D01*
X202851505Y-62753371D02*
X202994362Y-62753371D01*
X202994362Y-62753371D02*
X203089600Y-62800990D01*
X203089600Y-62800990D02*
X203137219Y-62848609D01*
X203137219Y-62848609D02*
X203184838Y-62943847D01*
X203184838Y-62943847D02*
X203184838Y-63181942D01*
X203184838Y-63181942D02*
X203137219Y-63277180D01*
X203137219Y-63277180D02*
X203089600Y-63324800D01*
X203089600Y-63324800D02*
X202994362Y-63372419D01*
X202994362Y-63372419D02*
X202708648Y-63372419D01*
X202708648Y-63372419D02*
X202613410Y-63324800D01*
X202613410Y-63324800D02*
X202565791Y-63277180D01*
X204089600Y-62372419D02*
X203613410Y-62372419D01*
X203613410Y-62372419D02*
X203565791Y-62848609D01*
X203565791Y-62848609D02*
X203613410Y-62800990D01*
X203613410Y-62800990D02*
X203708648Y-62753371D01*
X203708648Y-62753371D02*
X203946743Y-62753371D01*
X203946743Y-62753371D02*
X204041981Y-62800990D01*
X204041981Y-62800990D02*
X204089600Y-62848609D01*
X204089600Y-62848609D02*
X204137219Y-62943847D01*
X204137219Y-62943847D02*
X204137219Y-63181942D01*
X204137219Y-63181942D02*
X204089600Y-63277180D01*
X204089600Y-63277180D02*
X204041981Y-63324800D01*
X204041981Y-63324800D02*
X203946743Y-63372419D01*
X203946743Y-63372419D02*
X203708648Y-63372419D01*
X203708648Y-63372419D02*
X203613410Y-63324800D01*
X203613410Y-63324800D02*
X203565791Y-63277180D01*
X204756267Y-62372419D02*
X204851505Y-62372419D01*
X204851505Y-62372419D02*
X204946743Y-62420038D01*
X204946743Y-62420038D02*
X204994362Y-62467657D01*
X204994362Y-62467657D02*
X205041981Y-62562895D01*
X205041981Y-62562895D02*
X205089600Y-62753371D01*
X205089600Y-62753371D02*
X205089600Y-62991466D01*
X205089600Y-62991466D02*
X205041981Y-63181942D01*
X205041981Y-63181942D02*
X204994362Y-63277180D01*
X204994362Y-63277180D02*
X204946743Y-63324800D01*
X204946743Y-63324800D02*
X204851505Y-63372419D01*
X204851505Y-63372419D02*
X204756267Y-63372419D01*
X204756267Y-63372419D02*
X204661029Y-63324800D01*
X204661029Y-63324800D02*
X204613410Y-63277180D01*
X204613410Y-63277180D02*
X204565791Y-63181942D01*
X204565791Y-63181942D02*
X204518172Y-62991466D01*
X204518172Y-62991466D02*
X204518172Y-62753371D01*
X204518172Y-62753371D02*
X204565791Y-62562895D01*
X204565791Y-62562895D02*
X204613410Y-62467657D01*
X204613410Y-62467657D02*
X204661029Y-62420038D01*
X204661029Y-62420038D02*
X204756267Y-62372419D01*
X205518172Y-63372419D02*
X205518172Y-62705752D01*
X205518172Y-62800990D02*
X205565791Y-62753371D01*
X205565791Y-62753371D02*
X205661029Y-62705752D01*
X205661029Y-62705752D02*
X205803886Y-62705752D01*
X205803886Y-62705752D02*
X205899124Y-62753371D01*
X205899124Y-62753371D02*
X205946743Y-62848609D01*
X205946743Y-62848609D02*
X205946743Y-63372419D01*
X205946743Y-62848609D02*
X205994362Y-62753371D01*
X205994362Y-62753371D02*
X206089600Y-62705752D01*
X206089600Y-62705752D02*
X206232457Y-62705752D01*
X206232457Y-62705752D02*
X206327696Y-62753371D01*
X206327696Y-62753371D02*
X206375315Y-62848609D01*
X206375315Y-62848609D02*
X206375315Y-63372419D01*
X206803886Y-63086704D02*
X207280076Y-63086704D01*
X206708648Y-63372419D02*
X207041981Y-62372419D01*
X207041981Y-62372419D02*
X207375314Y-63372419D01*
X207613410Y-63705752D02*
X207851505Y-63705752D01*
X207851505Y-63705752D02*
X207851505Y-62277180D01*
X207851505Y-62277180D02*
X207613410Y-62277180D01*
D11*
X148941428Y-69814819D02*
X148608095Y-69338628D01*
X148370000Y-69814819D02*
X148370000Y-68814819D01*
X148370000Y-68814819D02*
X148750952Y-68814819D01*
X148750952Y-68814819D02*
X148846190Y-68862438D01*
X148846190Y-68862438D02*
X148893809Y-68910057D01*
X148893809Y-68910057D02*
X148941428Y-69005295D01*
X148941428Y-69005295D02*
X148941428Y-69148152D01*
X148941428Y-69148152D02*
X148893809Y-69243390D01*
X148893809Y-69243390D02*
X148846190Y-69291009D01*
X148846190Y-69291009D02*
X148750952Y-69338628D01*
X148750952Y-69338628D02*
X148370000Y-69338628D01*
X149512857Y-69243390D02*
X149417619Y-69195771D01*
X149417619Y-69195771D02*
X149370000Y-69148152D01*
X149370000Y-69148152D02*
X149322381Y-69052914D01*
X149322381Y-69052914D02*
X149322381Y-69005295D01*
X149322381Y-69005295D02*
X149370000Y-68910057D01*
X149370000Y-68910057D02*
X149417619Y-68862438D01*
X149417619Y-68862438D02*
X149512857Y-68814819D01*
X149512857Y-68814819D02*
X149703333Y-68814819D01*
X149703333Y-68814819D02*
X149798571Y-68862438D01*
X149798571Y-68862438D02*
X149846190Y-68910057D01*
X149846190Y-68910057D02*
X149893809Y-69005295D01*
X149893809Y-69005295D02*
X149893809Y-69052914D01*
X149893809Y-69052914D02*
X149846190Y-69148152D01*
X149846190Y-69148152D02*
X149798571Y-69195771D01*
X149798571Y-69195771D02*
X149703333Y-69243390D01*
X149703333Y-69243390D02*
X149512857Y-69243390D01*
X149512857Y-69243390D02*
X149417619Y-69291009D01*
X149417619Y-69291009D02*
X149370000Y-69338628D01*
X149370000Y-69338628D02*
X149322381Y-69433866D01*
X149322381Y-69433866D02*
X149322381Y-69624342D01*
X149322381Y-69624342D02*
X149370000Y-69719580D01*
X149370000Y-69719580D02*
X149417619Y-69767200D01*
X149417619Y-69767200D02*
X149512857Y-69814819D01*
X149512857Y-69814819D02*
X149703333Y-69814819D01*
X149703333Y-69814819D02*
X149798571Y-69767200D01*
X149798571Y-69767200D02*
X149846190Y-69719580D01*
X149846190Y-69719580D02*
X149893809Y-69624342D01*
X149893809Y-69624342D02*
X149893809Y-69433866D01*
X149893809Y-69433866D02*
X149846190Y-69338628D01*
X149846190Y-69338628D02*
X149798571Y-69291009D01*
X149798571Y-69291009D02*
X149703333Y-69243390D01*
X150084286Y-69910057D02*
X150846190Y-69910057D01*
X151084286Y-69814819D02*
X151084286Y-68814819D01*
X151084286Y-68814819D02*
X151655714Y-69814819D01*
X151655714Y-69814819D02*
X151655714Y-68814819D01*
X151989048Y-68814819D02*
X152560476Y-68814819D01*
X152274762Y-69814819D02*
X152274762Y-68814819D01*
X153465238Y-69719580D02*
X153417619Y-69767200D01*
X153417619Y-69767200D02*
X153274762Y-69814819D01*
X153274762Y-69814819D02*
X153179524Y-69814819D01*
X153179524Y-69814819D02*
X153036667Y-69767200D01*
X153036667Y-69767200D02*
X152941429Y-69671961D01*
X152941429Y-69671961D02*
X152893810Y-69576723D01*
X152893810Y-69576723D02*
X152846191Y-69386247D01*
X152846191Y-69386247D02*
X152846191Y-69243390D01*
X152846191Y-69243390D02*
X152893810Y-69052914D01*
X152893810Y-69052914D02*
X152941429Y-68957676D01*
X152941429Y-68957676D02*
X153036667Y-68862438D01*
X153036667Y-68862438D02*
X153179524Y-68814819D01*
X153179524Y-68814819D02*
X153274762Y-68814819D01*
X153274762Y-68814819D02*
X153417619Y-68862438D01*
X153417619Y-68862438D02*
X153465238Y-68910057D01*
X154417619Y-69814819D02*
X153846191Y-69814819D01*
X154131905Y-69814819D02*
X154131905Y-68814819D01*
X154131905Y-68814819D02*
X154036667Y-68957676D01*
X154036667Y-68957676D02*
X153941429Y-69052914D01*
X153941429Y-69052914D02*
X153846191Y-69100533D01*
X200867261Y-98679580D02*
X200819642Y-98727200D01*
X200819642Y-98727200D02*
X200676785Y-98774819D01*
X200676785Y-98774819D02*
X200581547Y-98774819D01*
X200581547Y-98774819D02*
X200438690Y-98727200D01*
X200438690Y-98727200D02*
X200343452Y-98631961D01*
X200343452Y-98631961D02*
X200295833Y-98536723D01*
X200295833Y-98536723D02*
X200248214Y-98346247D01*
X200248214Y-98346247D02*
X200248214Y-98203390D01*
X200248214Y-98203390D02*
X200295833Y-98012914D01*
X200295833Y-98012914D02*
X200343452Y-97917676D01*
X200343452Y-97917676D02*
X200438690Y-97822438D01*
X200438690Y-97822438D02*
X200581547Y-97774819D01*
X200581547Y-97774819D02*
X200676785Y-97774819D01*
X200676785Y-97774819D02*
X200819642Y-97822438D01*
X200819642Y-97822438D02*
X200867261Y-97870057D01*
X201200595Y-97774819D02*
X201819642Y-97774819D01*
X201819642Y-97774819D02*
X201486309Y-98155771D01*
X201486309Y-98155771D02*
X201629166Y-98155771D01*
X201629166Y-98155771D02*
X201724404Y-98203390D01*
X201724404Y-98203390D02*
X201772023Y-98251009D01*
X201772023Y-98251009D02*
X201819642Y-98346247D01*
X201819642Y-98346247D02*
X201819642Y-98584342D01*
X201819642Y-98584342D02*
X201772023Y-98679580D01*
X201772023Y-98679580D02*
X201724404Y-98727200D01*
X201724404Y-98727200D02*
X201629166Y-98774819D01*
X201629166Y-98774819D02*
X201343452Y-98774819D01*
X201343452Y-98774819D02*
X201248214Y-98727200D01*
X201248214Y-98727200D02*
X201200595Y-98679580D01*
X202010119Y-98870057D02*
X202772023Y-98870057D01*
X203581547Y-98679580D02*
X203533928Y-98727200D01*
X203533928Y-98727200D02*
X203391071Y-98774819D01*
X203391071Y-98774819D02*
X203295833Y-98774819D01*
X203295833Y-98774819D02*
X203152976Y-98727200D01*
X203152976Y-98727200D02*
X203057738Y-98631961D01*
X203057738Y-98631961D02*
X203010119Y-98536723D01*
X203010119Y-98536723D02*
X202962500Y-98346247D01*
X202962500Y-98346247D02*
X202962500Y-98203390D01*
X202962500Y-98203390D02*
X203010119Y-98012914D01*
X203010119Y-98012914D02*
X203057738Y-97917676D01*
X203057738Y-97917676D02*
X203152976Y-97822438D01*
X203152976Y-97822438D02*
X203295833Y-97774819D01*
X203295833Y-97774819D02*
X203391071Y-97774819D01*
X203391071Y-97774819D02*
X203533928Y-97822438D01*
X203533928Y-97822438D02*
X203581547Y-97870057D01*
X203867262Y-98108152D02*
X204248214Y-98108152D01*
X204010119Y-98774819D02*
X204010119Y-97917676D01*
X204010119Y-97917676D02*
X204057738Y-97822438D01*
X204057738Y-97822438D02*
X204152976Y-97774819D01*
X204152976Y-97774819D02*
X204248214Y-97774819D01*
X204438691Y-98108152D02*
X204819643Y-98108152D01*
X204581548Y-98774819D02*
X204581548Y-97917676D01*
X204581548Y-97917676D02*
X204629167Y-97822438D01*
X204629167Y-97822438D02*
X204724405Y-97774819D01*
X204724405Y-97774819D02*
X204819643Y-97774819D01*
X205676786Y-98774819D02*
X205105358Y-98774819D01*
X205391072Y-98774819D02*
X205391072Y-97774819D01*
X205391072Y-97774819D02*
X205295834Y-97917676D01*
X205295834Y-97917676D02*
X205200596Y-98012914D01*
X205200596Y-98012914D02*
X205105358Y-98060533D01*
X160059580Y-114276786D02*
X160107200Y-114324405D01*
X160107200Y-114324405D02*
X160154819Y-114467262D01*
X160154819Y-114467262D02*
X160154819Y-114562500D01*
X160154819Y-114562500D02*
X160107200Y-114705357D01*
X160107200Y-114705357D02*
X160011961Y-114800595D01*
X160011961Y-114800595D02*
X159916723Y-114848214D01*
X159916723Y-114848214D02*
X159726247Y-114895833D01*
X159726247Y-114895833D02*
X159583390Y-114895833D01*
X159583390Y-114895833D02*
X159392914Y-114848214D01*
X159392914Y-114848214D02*
X159297676Y-114800595D01*
X159297676Y-114800595D02*
X159202438Y-114705357D01*
X159202438Y-114705357D02*
X159154819Y-114562500D01*
X159154819Y-114562500D02*
X159154819Y-114467262D01*
X159154819Y-114467262D02*
X159202438Y-114324405D01*
X159202438Y-114324405D02*
X159250057Y-114276786D01*
X159250057Y-113895833D02*
X159202438Y-113848214D01*
X159202438Y-113848214D02*
X159154819Y-113752976D01*
X159154819Y-113752976D02*
X159154819Y-113514881D01*
X159154819Y-113514881D02*
X159202438Y-113419643D01*
X159202438Y-113419643D02*
X159250057Y-113372024D01*
X159250057Y-113372024D02*
X159345295Y-113324405D01*
X159345295Y-113324405D02*
X159440533Y-113324405D01*
X159440533Y-113324405D02*
X159583390Y-113372024D01*
X159583390Y-113372024D02*
X160154819Y-113943452D01*
X160154819Y-113943452D02*
X160154819Y-113324405D01*
X160250057Y-113133929D02*
X160250057Y-112372024D01*
X160059580Y-111562500D02*
X160107200Y-111610119D01*
X160107200Y-111610119D02*
X160154819Y-111752976D01*
X160154819Y-111752976D02*
X160154819Y-111848214D01*
X160154819Y-111848214D02*
X160107200Y-111991071D01*
X160107200Y-111991071D02*
X160011961Y-112086309D01*
X160011961Y-112086309D02*
X159916723Y-112133928D01*
X159916723Y-112133928D02*
X159726247Y-112181547D01*
X159726247Y-112181547D02*
X159583390Y-112181547D01*
X159583390Y-112181547D02*
X159392914Y-112133928D01*
X159392914Y-112133928D02*
X159297676Y-112086309D01*
X159297676Y-112086309D02*
X159202438Y-111991071D01*
X159202438Y-111991071D02*
X159154819Y-111848214D01*
X159154819Y-111848214D02*
X159154819Y-111752976D01*
X159154819Y-111752976D02*
X159202438Y-111610119D01*
X159202438Y-111610119D02*
X159250057Y-111562500D01*
X160154819Y-110991071D02*
X160107200Y-111086309D01*
X160107200Y-111086309D02*
X160059580Y-111133928D01*
X160059580Y-111133928D02*
X159964342Y-111181547D01*
X159964342Y-111181547D02*
X159678628Y-111181547D01*
X159678628Y-111181547D02*
X159583390Y-111133928D01*
X159583390Y-111133928D02*
X159535771Y-111086309D01*
X159535771Y-111086309D02*
X159488152Y-110991071D01*
X159488152Y-110991071D02*
X159488152Y-110848214D01*
X159488152Y-110848214D02*
X159535771Y-110752976D01*
X159535771Y-110752976D02*
X159583390Y-110705357D01*
X159583390Y-110705357D02*
X159678628Y-110657738D01*
X159678628Y-110657738D02*
X159964342Y-110657738D01*
X159964342Y-110657738D02*
X160059580Y-110705357D01*
X160059580Y-110705357D02*
X160107200Y-110752976D01*
X160107200Y-110752976D02*
X160154819Y-110848214D01*
X160154819Y-110848214D02*
X160154819Y-110991071D01*
X159488152Y-109800595D02*
X160154819Y-109800595D01*
X159488152Y-110229166D02*
X160011961Y-110229166D01*
X160011961Y-110229166D02*
X160107200Y-110181547D01*
X160107200Y-110181547D02*
X160154819Y-110086309D01*
X160154819Y-110086309D02*
X160154819Y-109943452D01*
X160154819Y-109943452D02*
X160107200Y-109848214D01*
X160107200Y-109848214D02*
X160059580Y-109800595D01*
X159488152Y-109467261D02*
X159488152Y-109086309D01*
X159154819Y-109324404D02*
X160011961Y-109324404D01*
X160011961Y-109324404D02*
X160107200Y-109276785D01*
X160107200Y-109276785D02*
X160154819Y-109181547D01*
X160154819Y-109181547D02*
X160154819Y-109086309D01*
X160154819Y-108229166D02*
X160154819Y-108800594D01*
X160154819Y-108514880D02*
X159154819Y-108514880D01*
X159154819Y-108514880D02*
X159297676Y-108610118D01*
X159297676Y-108610118D02*
X159392914Y-108705356D01*
X159392914Y-108705356D02*
X159440533Y-108800594D01*
X126547619Y-122004819D02*
X126547619Y-121004819D01*
X126547619Y-121004819D02*
X126880952Y-121719104D01*
X126880952Y-121719104D02*
X127214285Y-121004819D01*
X127214285Y-121004819D02*
X127214285Y-122004819D01*
X127833333Y-122004819D02*
X127738095Y-121957200D01*
X127738095Y-121957200D02*
X127690476Y-121909580D01*
X127690476Y-121909580D02*
X127642857Y-121814342D01*
X127642857Y-121814342D02*
X127642857Y-121528628D01*
X127642857Y-121528628D02*
X127690476Y-121433390D01*
X127690476Y-121433390D02*
X127738095Y-121385771D01*
X127738095Y-121385771D02*
X127833333Y-121338152D01*
X127833333Y-121338152D02*
X127976190Y-121338152D01*
X127976190Y-121338152D02*
X128071428Y-121385771D01*
X128071428Y-121385771D02*
X128119047Y-121433390D01*
X128119047Y-121433390D02*
X128166666Y-121528628D01*
X128166666Y-121528628D02*
X128166666Y-121814342D01*
X128166666Y-121814342D02*
X128119047Y-121909580D01*
X128119047Y-121909580D02*
X128071428Y-121957200D01*
X128071428Y-121957200D02*
X127976190Y-122004819D01*
X127976190Y-122004819D02*
X127833333Y-122004819D01*
X129023809Y-121338152D02*
X129023809Y-122004819D01*
X128595238Y-121338152D02*
X128595238Y-121861961D01*
X128595238Y-121861961D02*
X128642857Y-121957200D01*
X128642857Y-121957200D02*
X128738095Y-122004819D01*
X128738095Y-122004819D02*
X128880952Y-122004819D01*
X128880952Y-122004819D02*
X128976190Y-121957200D01*
X128976190Y-121957200D02*
X129023809Y-121909580D01*
X129500000Y-121338152D02*
X129500000Y-122004819D01*
X129500000Y-121433390D02*
X129547619Y-121385771D01*
X129547619Y-121385771D02*
X129642857Y-121338152D01*
X129642857Y-121338152D02*
X129785714Y-121338152D01*
X129785714Y-121338152D02*
X129880952Y-121385771D01*
X129880952Y-121385771D02*
X129928571Y-121481009D01*
X129928571Y-121481009D02*
X129928571Y-122004819D01*
X130261905Y-121338152D02*
X130642857Y-121338152D01*
X130404762Y-121004819D02*
X130404762Y-121861961D01*
X130404762Y-121861961D02*
X130452381Y-121957200D01*
X130452381Y-121957200D02*
X130547619Y-122004819D01*
X130547619Y-122004819D02*
X130642857Y-122004819D01*
X131404762Y-121338152D02*
X131404762Y-122004819D01*
X131166667Y-120957200D02*
X130928572Y-121671485D01*
X130928572Y-121671485D02*
X131547619Y-121671485D01*
X168904761Y-101179580D02*
X168857142Y-101227200D01*
X168857142Y-101227200D02*
X168714285Y-101274819D01*
X168714285Y-101274819D02*
X168619047Y-101274819D01*
X168619047Y-101274819D02*
X168476190Y-101227200D01*
X168476190Y-101227200D02*
X168380952Y-101131961D01*
X168380952Y-101131961D02*
X168333333Y-101036723D01*
X168333333Y-101036723D02*
X168285714Y-100846247D01*
X168285714Y-100846247D02*
X168285714Y-100703390D01*
X168285714Y-100703390D02*
X168333333Y-100512914D01*
X168333333Y-100512914D02*
X168380952Y-100417676D01*
X168380952Y-100417676D02*
X168476190Y-100322438D01*
X168476190Y-100322438D02*
X168619047Y-100274819D01*
X168619047Y-100274819D02*
X168714285Y-100274819D01*
X168714285Y-100274819D02*
X168857142Y-100322438D01*
X168857142Y-100322438D02*
X168904761Y-100370057D01*
X169095238Y-101370057D02*
X169857142Y-101370057D01*
X170571428Y-101274819D02*
X170095238Y-101274819D01*
X170095238Y-101274819D02*
X170095238Y-100274819D01*
X170904762Y-101274819D02*
X170904762Y-100274819D01*
X170904762Y-100274819D02*
X171238095Y-100989104D01*
X171238095Y-100989104D02*
X171571428Y-100274819D01*
X171571428Y-100274819D02*
X171571428Y-101274819D01*
X171809524Y-101370057D02*
X172571428Y-101370057D01*
X172952381Y-101274819D02*
X172857143Y-101227200D01*
X172857143Y-101227200D02*
X172809524Y-101179580D01*
X172809524Y-101179580D02*
X172761905Y-101084342D01*
X172761905Y-101084342D02*
X172761905Y-100798628D01*
X172761905Y-100798628D02*
X172809524Y-100703390D01*
X172809524Y-100703390D02*
X172857143Y-100655771D01*
X172857143Y-100655771D02*
X172952381Y-100608152D01*
X172952381Y-100608152D02*
X173095238Y-100608152D01*
X173095238Y-100608152D02*
X173190476Y-100655771D01*
X173190476Y-100655771D02*
X173238095Y-100703390D01*
X173238095Y-100703390D02*
X173285714Y-100798628D01*
X173285714Y-100798628D02*
X173285714Y-101084342D01*
X173285714Y-101084342D02*
X173238095Y-101179580D01*
X173238095Y-101179580D02*
X173190476Y-101227200D01*
X173190476Y-101227200D02*
X173095238Y-101274819D01*
X173095238Y-101274819D02*
X172952381Y-101274819D01*
X174142857Y-100608152D02*
X174142857Y-101274819D01*
X173714286Y-100608152D02*
X173714286Y-101131961D01*
X173714286Y-101131961D02*
X173761905Y-101227200D01*
X173761905Y-101227200D02*
X173857143Y-101274819D01*
X173857143Y-101274819D02*
X174000000Y-101274819D01*
X174000000Y-101274819D02*
X174095238Y-101227200D01*
X174095238Y-101227200D02*
X174142857Y-101179580D01*
X174476191Y-100608152D02*
X174857143Y-100608152D01*
X174619048Y-100274819D02*
X174619048Y-101131961D01*
X174619048Y-101131961D02*
X174666667Y-101227200D01*
X174666667Y-101227200D02*
X174761905Y-101274819D01*
X174761905Y-101274819D02*
X174857143Y-101274819D01*
X175714286Y-101274819D02*
X175142858Y-101274819D01*
X175428572Y-101274819D02*
X175428572Y-100274819D01*
X175428572Y-100274819D02*
X175333334Y-100417676D01*
X175333334Y-100417676D02*
X175238096Y-100512914D01*
X175238096Y-100512914D02*
X175142858Y-100560533D01*
X169354819Y-116611428D02*
X170164342Y-116611428D01*
X170164342Y-116611428D02*
X170259580Y-116563809D01*
X170259580Y-116563809D02*
X170307200Y-116516190D01*
X170307200Y-116516190D02*
X170354819Y-116420952D01*
X170354819Y-116420952D02*
X170354819Y-116230476D01*
X170354819Y-116230476D02*
X170307200Y-116135238D01*
X170307200Y-116135238D02*
X170259580Y-116087619D01*
X170259580Y-116087619D02*
X170164342Y-116040000D01*
X170164342Y-116040000D02*
X169354819Y-116040000D01*
X170450057Y-115801905D02*
X170450057Y-115040000D01*
X170354819Y-114325714D02*
X170354819Y-114801904D01*
X170354819Y-114801904D02*
X169354819Y-114801904D01*
X170354819Y-113992380D02*
X169354819Y-113992380D01*
X169354819Y-113992380D02*
X170069104Y-113659047D01*
X170069104Y-113659047D02*
X169354819Y-113325714D01*
X169354819Y-113325714D02*
X170354819Y-113325714D01*
X169354819Y-112944761D02*
X169354819Y-112325714D01*
X169354819Y-112325714D02*
X169735771Y-112659047D01*
X169735771Y-112659047D02*
X169735771Y-112516190D01*
X169735771Y-112516190D02*
X169783390Y-112420952D01*
X169783390Y-112420952D02*
X169831009Y-112373333D01*
X169831009Y-112373333D02*
X169926247Y-112325714D01*
X169926247Y-112325714D02*
X170164342Y-112325714D01*
X170164342Y-112325714D02*
X170259580Y-112373333D01*
X170259580Y-112373333D02*
X170307200Y-112420952D01*
X170307200Y-112420952D02*
X170354819Y-112516190D01*
X170354819Y-112516190D02*
X170354819Y-112801904D01*
X170354819Y-112801904D02*
X170307200Y-112897142D01*
X170307200Y-112897142D02*
X170259580Y-112944761D01*
X170354819Y-111373333D02*
X170354819Y-111944761D01*
X170354819Y-111659047D02*
X169354819Y-111659047D01*
X169354819Y-111659047D02*
X169497676Y-111754285D01*
X169497676Y-111754285D02*
X169592914Y-111849523D01*
X169592914Y-111849523D02*
X169640533Y-111944761D01*
X169354819Y-111039999D02*
X169354819Y-110373333D01*
X169354819Y-110373333D02*
X170354819Y-110801904D01*
X165869999Y-69814819D02*
X165536666Y-69338628D01*
X165298571Y-69814819D02*
X165298571Y-68814819D01*
X165298571Y-68814819D02*
X165679523Y-68814819D01*
X165679523Y-68814819D02*
X165774761Y-68862438D01*
X165774761Y-68862438D02*
X165822380Y-68910057D01*
X165822380Y-68910057D02*
X165869999Y-69005295D01*
X165869999Y-69005295D02*
X165869999Y-69148152D01*
X165869999Y-69148152D02*
X165822380Y-69243390D01*
X165822380Y-69243390D02*
X165774761Y-69291009D01*
X165774761Y-69291009D02*
X165679523Y-69338628D01*
X165679523Y-69338628D02*
X165298571Y-69338628D01*
X166060476Y-69910057D02*
X166822380Y-69910057D01*
X166917619Y-68814819D02*
X167489047Y-68814819D01*
X167203333Y-69814819D02*
X167203333Y-68814819D01*
X167822381Y-69814819D02*
X167822381Y-68814819D01*
X167822381Y-68814819D02*
X168155714Y-69529104D01*
X168155714Y-69529104D02*
X168489047Y-68814819D01*
X168489047Y-68814819D02*
X168489047Y-69814819D01*
X168917619Y-68910057D02*
X168965238Y-68862438D01*
X168965238Y-68862438D02*
X169060476Y-68814819D01*
X169060476Y-68814819D02*
X169298571Y-68814819D01*
X169298571Y-68814819D02*
X169393809Y-68862438D01*
X169393809Y-68862438D02*
X169441428Y-68910057D01*
X169441428Y-68910057D02*
X169489047Y-69005295D01*
X169489047Y-69005295D02*
X169489047Y-69100533D01*
X169489047Y-69100533D02*
X169441428Y-69243390D01*
X169441428Y-69243390D02*
X168870000Y-69814819D01*
X168870000Y-69814819D02*
X169489047Y-69814819D01*
X190348570Y-91084819D02*
X190015237Y-90608628D01*
X189777142Y-91084819D02*
X189777142Y-90084819D01*
X189777142Y-90084819D02*
X190158094Y-90084819D01*
X190158094Y-90084819D02*
X190253332Y-90132438D01*
X190253332Y-90132438D02*
X190300951Y-90180057D01*
X190300951Y-90180057D02*
X190348570Y-90275295D01*
X190348570Y-90275295D02*
X190348570Y-90418152D01*
X190348570Y-90418152D02*
X190300951Y-90513390D01*
X190300951Y-90513390D02*
X190253332Y-90561009D01*
X190253332Y-90561009D02*
X190158094Y-90608628D01*
X190158094Y-90608628D02*
X189777142Y-90608628D01*
X191205713Y-90418152D02*
X191205713Y-91084819D01*
X190967618Y-90037200D02*
X190729523Y-90751485D01*
X190729523Y-90751485D02*
X191348570Y-90751485D01*
X191491428Y-91180057D02*
X192253332Y-91180057D01*
X193062856Y-91084819D02*
X192729523Y-90608628D01*
X192491428Y-91084819D02*
X192491428Y-90084819D01*
X192491428Y-90084819D02*
X192872380Y-90084819D01*
X192872380Y-90084819D02*
X192967618Y-90132438D01*
X192967618Y-90132438D02*
X193015237Y-90180057D01*
X193015237Y-90180057D02*
X193062856Y-90275295D01*
X193062856Y-90275295D02*
X193062856Y-90418152D01*
X193062856Y-90418152D02*
X193015237Y-90513390D01*
X193015237Y-90513390D02*
X192967618Y-90561009D01*
X192967618Y-90561009D02*
X192872380Y-90608628D01*
X192872380Y-90608628D02*
X192491428Y-90608628D01*
X193348571Y-90418152D02*
X193729523Y-90418152D01*
X193491428Y-91084819D02*
X193491428Y-90227676D01*
X193491428Y-90227676D02*
X193539047Y-90132438D01*
X193539047Y-90132438D02*
X193634285Y-90084819D01*
X193634285Y-90084819D02*
X193729523Y-90084819D01*
X194062857Y-91084819D02*
X194062857Y-90084819D01*
X194062857Y-90465771D02*
X194158095Y-90418152D01*
X194158095Y-90418152D02*
X194348571Y-90418152D01*
X194348571Y-90418152D02*
X194443809Y-90465771D01*
X194443809Y-90465771D02*
X194491428Y-90513390D01*
X194491428Y-90513390D02*
X194539047Y-90608628D01*
X194539047Y-90608628D02*
X194539047Y-90894342D01*
X194539047Y-90894342D02*
X194491428Y-90989580D01*
X194491428Y-90989580D02*
X194443809Y-91037200D01*
X194443809Y-91037200D02*
X194348571Y-91084819D01*
X194348571Y-91084819D02*
X194158095Y-91084819D01*
X194158095Y-91084819D02*
X194062857Y-91037200D01*
X194729524Y-91180057D02*
X195491428Y-91180057D01*
X196158095Y-91084819D02*
X196158095Y-90084819D01*
X196158095Y-91037200D02*
X196062857Y-91084819D01*
X196062857Y-91084819D02*
X195872381Y-91084819D01*
X195872381Y-91084819D02*
X195777143Y-91037200D01*
X195777143Y-91037200D02*
X195729524Y-90989580D01*
X195729524Y-90989580D02*
X195681905Y-90894342D01*
X195681905Y-90894342D02*
X195681905Y-90608628D01*
X195681905Y-90608628D02*
X195729524Y-90513390D01*
X195729524Y-90513390D02*
X195777143Y-90465771D01*
X195777143Y-90465771D02*
X195872381Y-90418152D01*
X195872381Y-90418152D02*
X196062857Y-90418152D01*
X196062857Y-90418152D02*
X196158095Y-90465771D01*
X196539048Y-90418152D02*
X196729524Y-91084819D01*
X196729524Y-91084819D02*
X196920000Y-90608628D01*
X196920000Y-90608628D02*
X197110476Y-91084819D01*
X197110476Y-91084819D02*
X197300952Y-90418152D01*
X197681905Y-90418152D02*
X197681905Y-91084819D01*
X197681905Y-90513390D02*
X197729524Y-90465771D01*
X197729524Y-90465771D02*
X197824762Y-90418152D01*
X197824762Y-90418152D02*
X197967619Y-90418152D01*
X197967619Y-90418152D02*
X198062857Y-90465771D01*
X198062857Y-90465771D02*
X198110476Y-90561009D01*
X198110476Y-90561009D02*
X198110476Y-91084819D01*
X199110476Y-91084819D02*
X198539048Y-91084819D01*
X198824762Y-91084819D02*
X198824762Y-90084819D01*
X198824762Y-90084819D02*
X198729524Y-90227676D01*
X198729524Y-90227676D02*
X198634286Y-90322914D01*
X198634286Y-90322914D02*
X198539048Y-90370533D01*
X212547619Y-121004819D02*
X212547619Y-120004819D01*
X212547619Y-120004819D02*
X212880952Y-120719104D01*
X212880952Y-120719104D02*
X213214285Y-120004819D01*
X213214285Y-120004819D02*
X213214285Y-121004819D01*
X213833333Y-121004819D02*
X213738095Y-120957200D01*
X213738095Y-120957200D02*
X213690476Y-120909580D01*
X213690476Y-120909580D02*
X213642857Y-120814342D01*
X213642857Y-120814342D02*
X213642857Y-120528628D01*
X213642857Y-120528628D02*
X213690476Y-120433390D01*
X213690476Y-120433390D02*
X213738095Y-120385771D01*
X213738095Y-120385771D02*
X213833333Y-120338152D01*
X213833333Y-120338152D02*
X213976190Y-120338152D01*
X213976190Y-120338152D02*
X214071428Y-120385771D01*
X214071428Y-120385771D02*
X214119047Y-120433390D01*
X214119047Y-120433390D02*
X214166666Y-120528628D01*
X214166666Y-120528628D02*
X214166666Y-120814342D01*
X214166666Y-120814342D02*
X214119047Y-120909580D01*
X214119047Y-120909580D02*
X214071428Y-120957200D01*
X214071428Y-120957200D02*
X213976190Y-121004819D01*
X213976190Y-121004819D02*
X213833333Y-121004819D01*
X215023809Y-120338152D02*
X215023809Y-121004819D01*
X214595238Y-120338152D02*
X214595238Y-120861961D01*
X214595238Y-120861961D02*
X214642857Y-120957200D01*
X214642857Y-120957200D02*
X214738095Y-121004819D01*
X214738095Y-121004819D02*
X214880952Y-121004819D01*
X214880952Y-121004819D02*
X214976190Y-120957200D01*
X214976190Y-120957200D02*
X215023809Y-120909580D01*
X215500000Y-120338152D02*
X215500000Y-121004819D01*
X215500000Y-120433390D02*
X215547619Y-120385771D01*
X215547619Y-120385771D02*
X215642857Y-120338152D01*
X215642857Y-120338152D02*
X215785714Y-120338152D01*
X215785714Y-120338152D02*
X215880952Y-120385771D01*
X215880952Y-120385771D02*
X215928571Y-120481009D01*
X215928571Y-120481009D02*
X215928571Y-121004819D01*
X216261905Y-120338152D02*
X216642857Y-120338152D01*
X216404762Y-120004819D02*
X216404762Y-120861961D01*
X216404762Y-120861961D02*
X216452381Y-120957200D01*
X216452381Y-120957200D02*
X216547619Y-121004819D01*
X216547619Y-121004819D02*
X216642857Y-121004819D01*
X216880953Y-120004819D02*
X217500000Y-120004819D01*
X217500000Y-120004819D02*
X217166667Y-120385771D01*
X217166667Y-120385771D02*
X217309524Y-120385771D01*
X217309524Y-120385771D02*
X217404762Y-120433390D01*
X217404762Y-120433390D02*
X217452381Y-120481009D01*
X217452381Y-120481009D02*
X217500000Y-120576247D01*
X217500000Y-120576247D02*
X217500000Y-120814342D01*
X217500000Y-120814342D02*
X217452381Y-120909580D01*
X217452381Y-120909580D02*
X217404762Y-120957200D01*
X217404762Y-120957200D02*
X217309524Y-121004819D01*
X217309524Y-121004819D02*
X217023810Y-121004819D01*
X217023810Y-121004819D02*
X216928572Y-120957200D01*
X216928572Y-120957200D02*
X216880953Y-120909580D01*
X212547619Y-60504819D02*
X212547619Y-59504819D01*
X212547619Y-59504819D02*
X212880952Y-60219104D01*
X212880952Y-60219104D02*
X213214285Y-59504819D01*
X213214285Y-59504819D02*
X213214285Y-60504819D01*
X213833333Y-60504819D02*
X213738095Y-60457200D01*
X213738095Y-60457200D02*
X213690476Y-60409580D01*
X213690476Y-60409580D02*
X213642857Y-60314342D01*
X213642857Y-60314342D02*
X213642857Y-60028628D01*
X213642857Y-60028628D02*
X213690476Y-59933390D01*
X213690476Y-59933390D02*
X213738095Y-59885771D01*
X213738095Y-59885771D02*
X213833333Y-59838152D01*
X213833333Y-59838152D02*
X213976190Y-59838152D01*
X213976190Y-59838152D02*
X214071428Y-59885771D01*
X214071428Y-59885771D02*
X214119047Y-59933390D01*
X214119047Y-59933390D02*
X214166666Y-60028628D01*
X214166666Y-60028628D02*
X214166666Y-60314342D01*
X214166666Y-60314342D02*
X214119047Y-60409580D01*
X214119047Y-60409580D02*
X214071428Y-60457200D01*
X214071428Y-60457200D02*
X213976190Y-60504819D01*
X213976190Y-60504819D02*
X213833333Y-60504819D01*
X215023809Y-59838152D02*
X215023809Y-60504819D01*
X214595238Y-59838152D02*
X214595238Y-60361961D01*
X214595238Y-60361961D02*
X214642857Y-60457200D01*
X214642857Y-60457200D02*
X214738095Y-60504819D01*
X214738095Y-60504819D02*
X214880952Y-60504819D01*
X214880952Y-60504819D02*
X214976190Y-60457200D01*
X214976190Y-60457200D02*
X215023809Y-60409580D01*
X215500000Y-59838152D02*
X215500000Y-60504819D01*
X215500000Y-59933390D02*
X215547619Y-59885771D01*
X215547619Y-59885771D02*
X215642857Y-59838152D01*
X215642857Y-59838152D02*
X215785714Y-59838152D01*
X215785714Y-59838152D02*
X215880952Y-59885771D01*
X215880952Y-59885771D02*
X215928571Y-59981009D01*
X215928571Y-59981009D02*
X215928571Y-60504819D01*
X216261905Y-59838152D02*
X216642857Y-59838152D01*
X216404762Y-59504819D02*
X216404762Y-60361961D01*
X216404762Y-60361961D02*
X216452381Y-60457200D01*
X216452381Y-60457200D02*
X216547619Y-60504819D01*
X216547619Y-60504819D02*
X216642857Y-60504819D01*
X216928572Y-59600057D02*
X216976191Y-59552438D01*
X216976191Y-59552438D02*
X217071429Y-59504819D01*
X217071429Y-59504819D02*
X217309524Y-59504819D01*
X217309524Y-59504819D02*
X217404762Y-59552438D01*
X217404762Y-59552438D02*
X217452381Y-59600057D01*
X217452381Y-59600057D02*
X217500000Y-59695295D01*
X217500000Y-59695295D02*
X217500000Y-59790533D01*
X217500000Y-59790533D02*
X217452381Y-59933390D01*
X217452381Y-59933390D02*
X216880953Y-60504819D01*
X216880953Y-60504819D02*
X217500000Y-60504819D01*
X183713095Y-76419819D02*
X183713095Y-77229342D01*
X183713095Y-77229342D02*
X183760714Y-77324580D01*
X183760714Y-77324580D02*
X183808333Y-77372200D01*
X183808333Y-77372200D02*
X183903571Y-77419819D01*
X183903571Y-77419819D02*
X184094047Y-77419819D01*
X184094047Y-77419819D02*
X184189285Y-77372200D01*
X184189285Y-77372200D02*
X184236904Y-77324580D01*
X184236904Y-77324580D02*
X184284523Y-77229342D01*
X184284523Y-77229342D02*
X184284523Y-76419819D01*
X184713095Y-76515057D02*
X184760714Y-76467438D01*
X184760714Y-76467438D02*
X184855952Y-76419819D01*
X184855952Y-76419819D02*
X185094047Y-76419819D01*
X185094047Y-76419819D02*
X185189285Y-76467438D01*
X185189285Y-76467438D02*
X185236904Y-76515057D01*
X185236904Y-76515057D02*
X185284523Y-76610295D01*
X185284523Y-76610295D02*
X185284523Y-76705533D01*
X185284523Y-76705533D02*
X185236904Y-76848390D01*
X185236904Y-76848390D02*
X184665476Y-77419819D01*
X184665476Y-77419819D02*
X185284523Y-77419819D01*
X126547619Y-60504819D02*
X126547619Y-59504819D01*
X126547619Y-59504819D02*
X126880952Y-60219104D01*
X126880952Y-60219104D02*
X127214285Y-59504819D01*
X127214285Y-59504819D02*
X127214285Y-60504819D01*
X127833333Y-60504819D02*
X127738095Y-60457200D01*
X127738095Y-60457200D02*
X127690476Y-60409580D01*
X127690476Y-60409580D02*
X127642857Y-60314342D01*
X127642857Y-60314342D02*
X127642857Y-60028628D01*
X127642857Y-60028628D02*
X127690476Y-59933390D01*
X127690476Y-59933390D02*
X127738095Y-59885771D01*
X127738095Y-59885771D02*
X127833333Y-59838152D01*
X127833333Y-59838152D02*
X127976190Y-59838152D01*
X127976190Y-59838152D02*
X128071428Y-59885771D01*
X128071428Y-59885771D02*
X128119047Y-59933390D01*
X128119047Y-59933390D02*
X128166666Y-60028628D01*
X128166666Y-60028628D02*
X128166666Y-60314342D01*
X128166666Y-60314342D02*
X128119047Y-60409580D01*
X128119047Y-60409580D02*
X128071428Y-60457200D01*
X128071428Y-60457200D02*
X127976190Y-60504819D01*
X127976190Y-60504819D02*
X127833333Y-60504819D01*
X129023809Y-59838152D02*
X129023809Y-60504819D01*
X128595238Y-59838152D02*
X128595238Y-60361961D01*
X128595238Y-60361961D02*
X128642857Y-60457200D01*
X128642857Y-60457200D02*
X128738095Y-60504819D01*
X128738095Y-60504819D02*
X128880952Y-60504819D01*
X128880952Y-60504819D02*
X128976190Y-60457200D01*
X128976190Y-60457200D02*
X129023809Y-60409580D01*
X129500000Y-59838152D02*
X129500000Y-60504819D01*
X129500000Y-59933390D02*
X129547619Y-59885771D01*
X129547619Y-59885771D02*
X129642857Y-59838152D01*
X129642857Y-59838152D02*
X129785714Y-59838152D01*
X129785714Y-59838152D02*
X129880952Y-59885771D01*
X129880952Y-59885771D02*
X129928571Y-59981009D01*
X129928571Y-59981009D02*
X129928571Y-60504819D01*
X130261905Y-59838152D02*
X130642857Y-59838152D01*
X130404762Y-59504819D02*
X130404762Y-60361961D01*
X130404762Y-60361961D02*
X130452381Y-60457200D01*
X130452381Y-60457200D02*
X130547619Y-60504819D01*
X130547619Y-60504819D02*
X130642857Y-60504819D01*
X131500000Y-60504819D02*
X130928572Y-60504819D01*
X131214286Y-60504819D02*
X131214286Y-59504819D01*
X131214286Y-59504819D02*
X131119048Y-59647676D01*
X131119048Y-59647676D02*
X131023810Y-59742914D01*
X131023810Y-59742914D02*
X130928572Y-59790533D01*
X212982380Y-70814819D02*
X212649047Y-70338628D01*
X212410952Y-70814819D02*
X212410952Y-69814819D01*
X212410952Y-69814819D02*
X212791904Y-69814819D01*
X212791904Y-69814819D02*
X212887142Y-69862438D01*
X212887142Y-69862438D02*
X212934761Y-69910057D01*
X212934761Y-69910057D02*
X212982380Y-70005295D01*
X212982380Y-70005295D02*
X212982380Y-70148152D01*
X212982380Y-70148152D02*
X212934761Y-70243390D01*
X212934761Y-70243390D02*
X212887142Y-70291009D01*
X212887142Y-70291009D02*
X212791904Y-70338628D01*
X212791904Y-70338628D02*
X212410952Y-70338628D01*
X213172857Y-70910057D02*
X213934761Y-70910057D01*
X214744285Y-70719580D02*
X214696666Y-70767200D01*
X214696666Y-70767200D02*
X214553809Y-70814819D01*
X214553809Y-70814819D02*
X214458571Y-70814819D01*
X214458571Y-70814819D02*
X214315714Y-70767200D01*
X214315714Y-70767200D02*
X214220476Y-70671961D01*
X214220476Y-70671961D02*
X214172857Y-70576723D01*
X214172857Y-70576723D02*
X214125238Y-70386247D01*
X214125238Y-70386247D02*
X214125238Y-70243390D01*
X214125238Y-70243390D02*
X214172857Y-70052914D01*
X214172857Y-70052914D02*
X214220476Y-69957676D01*
X214220476Y-69957676D02*
X214315714Y-69862438D01*
X214315714Y-69862438D02*
X214458571Y-69814819D01*
X214458571Y-69814819D02*
X214553809Y-69814819D01*
X214553809Y-69814819D02*
X214696666Y-69862438D01*
X214696666Y-69862438D02*
X214744285Y-69910057D01*
X215744285Y-70719580D02*
X215696666Y-70767200D01*
X215696666Y-70767200D02*
X215553809Y-70814819D01*
X215553809Y-70814819D02*
X215458571Y-70814819D01*
X215458571Y-70814819D02*
X215315714Y-70767200D01*
X215315714Y-70767200D02*
X215220476Y-70671961D01*
X215220476Y-70671961D02*
X215172857Y-70576723D01*
X215172857Y-70576723D02*
X215125238Y-70386247D01*
X215125238Y-70386247D02*
X215125238Y-70243390D01*
X215125238Y-70243390D02*
X215172857Y-70052914D01*
X215172857Y-70052914D02*
X215220476Y-69957676D01*
X215220476Y-69957676D02*
X215315714Y-69862438D01*
X215315714Y-69862438D02*
X215458571Y-69814819D01*
X215458571Y-69814819D02*
X215553809Y-69814819D01*
X215553809Y-69814819D02*
X215696666Y-69862438D01*
X215696666Y-69862438D02*
X215744285Y-69910057D01*
X216696666Y-70814819D02*
X216125238Y-70814819D01*
X216410952Y-70814819D02*
X216410952Y-69814819D01*
X216410952Y-69814819D02*
X216315714Y-69957676D01*
X216315714Y-69957676D02*
X216220476Y-70052914D01*
X216220476Y-70052914D02*
X216125238Y-70100533D01*
X175824762Y-90984819D02*
X175824762Y-89984819D01*
X175824762Y-89984819D02*
X176062857Y-89984819D01*
X176062857Y-89984819D02*
X176205714Y-90032438D01*
X176205714Y-90032438D02*
X176300952Y-90127676D01*
X176300952Y-90127676D02*
X176348571Y-90222914D01*
X176348571Y-90222914D02*
X176396190Y-90413390D01*
X176396190Y-90413390D02*
X176396190Y-90556247D01*
X176396190Y-90556247D02*
X176348571Y-90746723D01*
X176348571Y-90746723D02*
X176300952Y-90841961D01*
X176300952Y-90841961D02*
X176205714Y-90937200D01*
X176205714Y-90937200D02*
X176062857Y-90984819D01*
X176062857Y-90984819D02*
X175824762Y-90984819D01*
X176586667Y-91080057D02*
X177348571Y-91080057D01*
X178062857Y-90984819D02*
X177586667Y-90984819D01*
X177586667Y-90984819D02*
X177586667Y-89984819D01*
X178396191Y-90984819D02*
X178396191Y-89984819D01*
X178396191Y-89984819D02*
X178729524Y-90699104D01*
X178729524Y-90699104D02*
X179062857Y-89984819D01*
X179062857Y-89984819D02*
X179062857Y-90984819D01*
X180062857Y-90984819D02*
X179491429Y-90984819D01*
X179777143Y-90984819D02*
X179777143Y-89984819D01*
X179777143Y-89984819D02*
X179681905Y-90127676D01*
X179681905Y-90127676D02*
X179586667Y-90222914D01*
X179586667Y-90222914D02*
X179491429Y-90270533D01*
X172578095Y-91354819D02*
X172578095Y-90354819D01*
X173149523Y-91354819D02*
X172720952Y-90783390D01*
X173149523Y-90354819D02*
X172578095Y-90926247D01*
X181484819Y-114818094D02*
X180484819Y-114818094D01*
X180484819Y-114818094D02*
X180484819Y-114579999D01*
X180484819Y-114579999D02*
X180532438Y-114437142D01*
X180532438Y-114437142D02*
X180627676Y-114341904D01*
X180627676Y-114341904D02*
X180722914Y-114294285D01*
X180722914Y-114294285D02*
X180913390Y-114246666D01*
X180913390Y-114246666D02*
X181056247Y-114246666D01*
X181056247Y-114246666D02*
X181246723Y-114294285D01*
X181246723Y-114294285D02*
X181341961Y-114341904D01*
X181341961Y-114341904D02*
X181437200Y-114437142D01*
X181437200Y-114437142D02*
X181484819Y-114579999D01*
X181484819Y-114579999D02*
X181484819Y-114818094D01*
X181484819Y-113294285D02*
X181484819Y-113865713D01*
X181484819Y-113579999D02*
X180484819Y-113579999D01*
X180484819Y-113579999D02*
X180627676Y-113675237D01*
X180627676Y-113675237D02*
X180722914Y-113770475D01*
X180722914Y-113770475D02*
X180770533Y-113865713D01*
X181854819Y-119421904D02*
X180854819Y-119421904D01*
X181854819Y-118850476D02*
X181283390Y-119279047D01*
X180854819Y-118850476D02*
X181426247Y-119421904D01*
X213954819Y-106533333D02*
X214669104Y-106533333D01*
X214669104Y-106533333D02*
X214811961Y-106580952D01*
X214811961Y-106580952D02*
X214907200Y-106676190D01*
X214907200Y-106676190D02*
X214954819Y-106819047D01*
X214954819Y-106819047D02*
X214954819Y-106914285D01*
X214050057Y-106104761D02*
X214002438Y-106057142D01*
X214002438Y-106057142D02*
X213954819Y-105961904D01*
X213954819Y-105961904D02*
X213954819Y-105723809D01*
X213954819Y-105723809D02*
X214002438Y-105628571D01*
X214002438Y-105628571D02*
X214050057Y-105580952D01*
X214050057Y-105580952D02*
X214145295Y-105533333D01*
X214145295Y-105533333D02*
X214240533Y-105533333D01*
X214240533Y-105533333D02*
X214383390Y-105580952D01*
X214383390Y-105580952D02*
X214954819Y-106152380D01*
X214954819Y-106152380D02*
X214954819Y-105533333D01*
X158396190Y-96584819D02*
X158062857Y-96108628D01*
X157824762Y-96584819D02*
X157824762Y-95584819D01*
X157824762Y-95584819D02*
X158205714Y-95584819D01*
X158205714Y-95584819D02*
X158300952Y-95632438D01*
X158300952Y-95632438D02*
X158348571Y-95680057D01*
X158348571Y-95680057D02*
X158396190Y-95775295D01*
X158396190Y-95775295D02*
X158396190Y-95918152D01*
X158396190Y-95918152D02*
X158348571Y-96013390D01*
X158348571Y-96013390D02*
X158300952Y-96061009D01*
X158300952Y-96061009D02*
X158205714Y-96108628D01*
X158205714Y-96108628D02*
X157824762Y-96108628D01*
X158777143Y-95680057D02*
X158824762Y-95632438D01*
X158824762Y-95632438D02*
X158920000Y-95584819D01*
X158920000Y-95584819D02*
X159158095Y-95584819D01*
X159158095Y-95584819D02*
X159253333Y-95632438D01*
X159253333Y-95632438D02*
X159300952Y-95680057D01*
X159300952Y-95680057D02*
X159348571Y-95775295D01*
X159348571Y-95775295D02*
X159348571Y-95870533D01*
X159348571Y-95870533D02*
X159300952Y-96013390D01*
X159300952Y-96013390D02*
X158729524Y-96584819D01*
X158729524Y-96584819D02*
X159348571Y-96584819D01*
X159539048Y-96680057D02*
X160300952Y-96680057D01*
X161110476Y-96489580D02*
X161062857Y-96537200D01*
X161062857Y-96537200D02*
X160920000Y-96584819D01*
X160920000Y-96584819D02*
X160824762Y-96584819D01*
X160824762Y-96584819D02*
X160681905Y-96537200D01*
X160681905Y-96537200D02*
X160586667Y-96441961D01*
X160586667Y-96441961D02*
X160539048Y-96346723D01*
X160539048Y-96346723D02*
X160491429Y-96156247D01*
X160491429Y-96156247D02*
X160491429Y-96013390D01*
X160491429Y-96013390D02*
X160539048Y-95822914D01*
X160539048Y-95822914D02*
X160586667Y-95727676D01*
X160586667Y-95727676D02*
X160681905Y-95632438D01*
X160681905Y-95632438D02*
X160824762Y-95584819D01*
X160824762Y-95584819D02*
X160920000Y-95584819D01*
X160920000Y-95584819D02*
X161062857Y-95632438D01*
X161062857Y-95632438D02*
X161110476Y-95680057D01*
X162110476Y-96489580D02*
X162062857Y-96537200D01*
X162062857Y-96537200D02*
X161920000Y-96584819D01*
X161920000Y-96584819D02*
X161824762Y-96584819D01*
X161824762Y-96584819D02*
X161681905Y-96537200D01*
X161681905Y-96537200D02*
X161586667Y-96441961D01*
X161586667Y-96441961D02*
X161539048Y-96346723D01*
X161539048Y-96346723D02*
X161491429Y-96156247D01*
X161491429Y-96156247D02*
X161491429Y-96013390D01*
X161491429Y-96013390D02*
X161539048Y-95822914D01*
X161539048Y-95822914D02*
X161586667Y-95727676D01*
X161586667Y-95727676D02*
X161681905Y-95632438D01*
X161681905Y-95632438D02*
X161824762Y-95584819D01*
X161824762Y-95584819D02*
X161920000Y-95584819D01*
X161920000Y-95584819D02*
X162062857Y-95632438D01*
X162062857Y-95632438D02*
X162110476Y-95680057D01*
X162491429Y-95680057D02*
X162539048Y-95632438D01*
X162539048Y-95632438D02*
X162634286Y-95584819D01*
X162634286Y-95584819D02*
X162872381Y-95584819D01*
X162872381Y-95584819D02*
X162967619Y-95632438D01*
X162967619Y-95632438D02*
X163015238Y-95680057D01*
X163015238Y-95680057D02*
X163062857Y-95775295D01*
X163062857Y-95775295D02*
X163062857Y-95870533D01*
X163062857Y-95870533D02*
X163015238Y-96013390D01*
X163015238Y-96013390D02*
X162443810Y-96584819D01*
X162443810Y-96584819D02*
X163062857Y-96584819D01*
X212560476Y-79814819D02*
X212227143Y-79338628D01*
X211989048Y-79814819D02*
X211989048Y-78814819D01*
X211989048Y-78814819D02*
X212370000Y-78814819D01*
X212370000Y-78814819D02*
X212465238Y-78862438D01*
X212465238Y-78862438D02*
X212512857Y-78910057D01*
X212512857Y-78910057D02*
X212560476Y-79005295D01*
X212560476Y-79005295D02*
X212560476Y-79148152D01*
X212560476Y-79148152D02*
X212512857Y-79243390D01*
X212512857Y-79243390D02*
X212465238Y-79291009D01*
X212465238Y-79291009D02*
X212370000Y-79338628D01*
X212370000Y-79338628D02*
X211989048Y-79338628D01*
X213036667Y-79814819D02*
X213227143Y-79814819D01*
X213227143Y-79814819D02*
X213322381Y-79767200D01*
X213322381Y-79767200D02*
X213370000Y-79719580D01*
X213370000Y-79719580D02*
X213465238Y-79576723D01*
X213465238Y-79576723D02*
X213512857Y-79386247D01*
X213512857Y-79386247D02*
X213512857Y-79005295D01*
X213512857Y-79005295D02*
X213465238Y-78910057D01*
X213465238Y-78910057D02*
X213417619Y-78862438D01*
X213417619Y-78862438D02*
X213322381Y-78814819D01*
X213322381Y-78814819D02*
X213131905Y-78814819D01*
X213131905Y-78814819D02*
X213036667Y-78862438D01*
X213036667Y-78862438D02*
X212989048Y-78910057D01*
X212989048Y-78910057D02*
X212941429Y-79005295D01*
X212941429Y-79005295D02*
X212941429Y-79243390D01*
X212941429Y-79243390D02*
X212989048Y-79338628D01*
X212989048Y-79338628D02*
X213036667Y-79386247D01*
X213036667Y-79386247D02*
X213131905Y-79433866D01*
X213131905Y-79433866D02*
X213322381Y-79433866D01*
X213322381Y-79433866D02*
X213417619Y-79386247D01*
X213417619Y-79386247D02*
X213465238Y-79338628D01*
X213465238Y-79338628D02*
X213512857Y-79243390D01*
X213703334Y-79910057D02*
X214465238Y-79910057D01*
X214703334Y-79814819D02*
X214703334Y-78814819D01*
X215179524Y-79814819D02*
X215179524Y-78814819D01*
X215179524Y-78814819D02*
X215750952Y-79814819D01*
X215750952Y-79814819D02*
X215750952Y-78814819D01*
X216227143Y-79814819D02*
X216227143Y-78814819D01*
X216227143Y-79291009D02*
X216798571Y-79291009D01*
X216798571Y-79814819D02*
X216798571Y-78814819D01*
X217798571Y-79814819D02*
X217227143Y-79814819D01*
X217512857Y-79814819D02*
X217512857Y-78814819D01*
X217512857Y-78814819D02*
X217417619Y-78957676D01*
X217417619Y-78957676D02*
X217322381Y-79052914D01*
X217322381Y-79052914D02*
X217227143Y-79100533D01*
X133466781Y-92147380D02*
X134466781Y-92147380D01*
X134466781Y-92147380D02*
X134466781Y-92385475D01*
X134466781Y-92385475D02*
X134419162Y-92528332D01*
X134419162Y-92528332D02*
X134323924Y-92623570D01*
X134323924Y-92623570D02*
X134228686Y-92671189D01*
X134228686Y-92671189D02*
X134038210Y-92718808D01*
X134038210Y-92718808D02*
X133895353Y-92718808D01*
X133895353Y-92718808D02*
X133704877Y-92671189D01*
X133704877Y-92671189D02*
X133609639Y-92623570D01*
X133609639Y-92623570D02*
X133514401Y-92528332D01*
X133514401Y-92528332D02*
X133466781Y-92385475D01*
X133466781Y-92385475D02*
X133466781Y-92147380D01*
X133514401Y-93099761D02*
X133466781Y-93194999D01*
X133466781Y-93194999D02*
X133466781Y-93385475D01*
X133466781Y-93385475D02*
X133514401Y-93480713D01*
X133514401Y-93480713D02*
X133609639Y-93528332D01*
X133609639Y-93528332D02*
X133657258Y-93528332D01*
X133657258Y-93528332D02*
X133752496Y-93480713D01*
X133752496Y-93480713D02*
X133800115Y-93385475D01*
X133800115Y-93385475D02*
X133800115Y-93242618D01*
X133800115Y-93242618D02*
X133847734Y-93147380D01*
X133847734Y-93147380D02*
X133942972Y-93099761D01*
X133942972Y-93099761D02*
X133990591Y-93099761D01*
X133990591Y-93099761D02*
X134085829Y-93147380D01*
X134085829Y-93147380D02*
X134133448Y-93242618D01*
X134133448Y-93242618D02*
X134133448Y-93385475D01*
X134133448Y-93385475D02*
X134085829Y-93480713D01*
X134133448Y-94385475D02*
X133466781Y-94385475D01*
X134133448Y-93956904D02*
X133609639Y-93956904D01*
X133609639Y-93956904D02*
X133514401Y-94004523D01*
X133514401Y-94004523D02*
X133466781Y-94099761D01*
X133466781Y-94099761D02*
X133466781Y-94242618D01*
X133466781Y-94242618D02*
X133514401Y-94337856D01*
X133514401Y-94337856D02*
X133562020Y-94385475D01*
X133466781Y-94861666D02*
X134466781Y-94861666D01*
X134085829Y-94861666D02*
X134133448Y-94956904D01*
X134133448Y-94956904D02*
X134133448Y-95147380D01*
X134133448Y-95147380D02*
X134085829Y-95242618D01*
X134085829Y-95242618D02*
X134038210Y-95290237D01*
X134038210Y-95290237D02*
X133942972Y-95337856D01*
X133942972Y-95337856D02*
X133657258Y-95337856D01*
X133657258Y-95337856D02*
X133562020Y-95290237D01*
X133562020Y-95290237D02*
X133514401Y-95242618D01*
X133514401Y-95242618D02*
X133466781Y-95147380D01*
X133466781Y-95147380D02*
X133466781Y-94956904D01*
X133466781Y-94956904D02*
X133514401Y-94861666D01*
X133466781Y-96290237D02*
X133466781Y-95718809D01*
X133466781Y-96004523D02*
X134466781Y-96004523D01*
X134466781Y-96004523D02*
X134323924Y-95909285D01*
X134323924Y-95909285D02*
X134228686Y-95814047D01*
X134228686Y-95814047D02*
X134181067Y-95718809D01*
X189334819Y-109166666D02*
X189334819Y-109642856D01*
X189334819Y-109642856D02*
X188334819Y-109642856D01*
X189334819Y-108309523D02*
X189334819Y-108880951D01*
X189334819Y-108595237D02*
X188334819Y-108595237D01*
X188334819Y-108595237D02*
X188477676Y-108690475D01*
X188477676Y-108690475D02*
X188572914Y-108785713D01*
X188572914Y-108785713D02*
X188620533Y-108880951D01*
X165869999Y-79314819D02*
X165536666Y-78838628D01*
X165298571Y-79314819D02*
X165298571Y-78314819D01*
X165298571Y-78314819D02*
X165679523Y-78314819D01*
X165679523Y-78314819D02*
X165774761Y-78362438D01*
X165774761Y-78362438D02*
X165822380Y-78410057D01*
X165822380Y-78410057D02*
X165869999Y-78505295D01*
X165869999Y-78505295D02*
X165869999Y-78648152D01*
X165869999Y-78648152D02*
X165822380Y-78743390D01*
X165822380Y-78743390D02*
X165774761Y-78791009D01*
X165774761Y-78791009D02*
X165679523Y-78838628D01*
X165679523Y-78838628D02*
X165298571Y-78838628D01*
X166060476Y-79410057D02*
X166822380Y-79410057D01*
X166917619Y-78314819D02*
X167489047Y-78314819D01*
X167203333Y-79314819D02*
X167203333Y-78314819D01*
X167822381Y-79314819D02*
X167822381Y-78314819D01*
X167822381Y-78314819D02*
X168155714Y-79029104D01*
X168155714Y-79029104D02*
X168489047Y-78314819D01*
X168489047Y-78314819D02*
X168489047Y-79314819D01*
X169489047Y-79314819D02*
X168917619Y-79314819D01*
X169203333Y-79314819D02*
X169203333Y-78314819D01*
X169203333Y-78314819D02*
X169108095Y-78457676D01*
X169108095Y-78457676D02*
X169012857Y-78552914D01*
X169012857Y-78552914D02*
X168917619Y-78600533D01*
X147250951Y-79314819D02*
X146917618Y-78838628D01*
X146679523Y-79314819D02*
X146679523Y-78314819D01*
X146679523Y-78314819D02*
X147060475Y-78314819D01*
X147060475Y-78314819D02*
X147155713Y-78362438D01*
X147155713Y-78362438D02*
X147203332Y-78410057D01*
X147203332Y-78410057D02*
X147250951Y-78505295D01*
X147250951Y-78505295D02*
X147250951Y-78648152D01*
X147250951Y-78648152D02*
X147203332Y-78743390D01*
X147203332Y-78743390D02*
X147155713Y-78791009D01*
X147155713Y-78791009D02*
X147060475Y-78838628D01*
X147060475Y-78838628D02*
X146679523Y-78838628D01*
X147584285Y-78314819D02*
X148250951Y-78314819D01*
X148250951Y-78314819D02*
X147822380Y-79314819D01*
X148393809Y-79410057D02*
X149155713Y-79410057D01*
X149393809Y-79314819D02*
X149393809Y-78314819D01*
X149393809Y-78695771D02*
X149489047Y-78648152D01*
X149489047Y-78648152D02*
X149679523Y-78648152D01*
X149679523Y-78648152D02*
X149774761Y-78695771D01*
X149774761Y-78695771D02*
X149822380Y-78743390D01*
X149822380Y-78743390D02*
X149869999Y-78838628D01*
X149869999Y-78838628D02*
X149869999Y-79124342D01*
X149869999Y-79124342D02*
X149822380Y-79219580D01*
X149822380Y-79219580D02*
X149774761Y-79267200D01*
X149774761Y-79267200D02*
X149679523Y-79314819D01*
X149679523Y-79314819D02*
X149489047Y-79314819D01*
X149489047Y-79314819D02*
X149393809Y-79267200D01*
X150441428Y-79314819D02*
X150346190Y-79267200D01*
X150346190Y-79267200D02*
X150298571Y-79219580D01*
X150298571Y-79219580D02*
X150250952Y-79124342D01*
X150250952Y-79124342D02*
X150250952Y-78838628D01*
X150250952Y-78838628D02*
X150298571Y-78743390D01*
X150298571Y-78743390D02*
X150346190Y-78695771D01*
X150346190Y-78695771D02*
X150441428Y-78648152D01*
X150441428Y-78648152D02*
X150584285Y-78648152D01*
X150584285Y-78648152D02*
X150679523Y-78695771D01*
X150679523Y-78695771D02*
X150727142Y-78743390D01*
X150727142Y-78743390D02*
X150774761Y-78838628D01*
X150774761Y-78838628D02*
X150774761Y-79124342D01*
X150774761Y-79124342D02*
X150727142Y-79219580D01*
X150727142Y-79219580D02*
X150679523Y-79267200D01*
X150679523Y-79267200D02*
X150584285Y-79314819D01*
X150584285Y-79314819D02*
X150441428Y-79314819D01*
X151060476Y-78648152D02*
X151441428Y-78648152D01*
X151203333Y-78314819D02*
X151203333Y-79171961D01*
X151203333Y-79171961D02*
X151250952Y-79267200D01*
X151250952Y-79267200D02*
X151346190Y-79314819D01*
X151346190Y-79314819D02*
X151441428Y-79314819D01*
X151631905Y-78648152D02*
X152012857Y-78648152D01*
X151774762Y-78314819D02*
X151774762Y-79171961D01*
X151774762Y-79171961D02*
X151822381Y-79267200D01*
X151822381Y-79267200D02*
X151917619Y-79314819D01*
X151917619Y-79314819D02*
X152012857Y-79314819D01*
X152489048Y-79314819D02*
X152393810Y-79267200D01*
X152393810Y-79267200D02*
X152346191Y-79219580D01*
X152346191Y-79219580D02*
X152298572Y-79124342D01*
X152298572Y-79124342D02*
X152298572Y-78838628D01*
X152298572Y-78838628D02*
X152346191Y-78743390D01*
X152346191Y-78743390D02*
X152393810Y-78695771D01*
X152393810Y-78695771D02*
X152489048Y-78648152D01*
X152489048Y-78648152D02*
X152631905Y-78648152D01*
X152631905Y-78648152D02*
X152727143Y-78695771D01*
X152727143Y-78695771D02*
X152774762Y-78743390D01*
X152774762Y-78743390D02*
X152822381Y-78838628D01*
X152822381Y-78838628D02*
X152822381Y-79124342D01*
X152822381Y-79124342D02*
X152774762Y-79219580D01*
X152774762Y-79219580D02*
X152727143Y-79267200D01*
X152727143Y-79267200D02*
X152631905Y-79314819D01*
X152631905Y-79314819D02*
X152489048Y-79314819D01*
X153250953Y-79314819D02*
X153250953Y-78648152D01*
X153250953Y-78743390D02*
X153298572Y-78695771D01*
X153298572Y-78695771D02*
X153393810Y-78648152D01*
X153393810Y-78648152D02*
X153536667Y-78648152D01*
X153536667Y-78648152D02*
X153631905Y-78695771D01*
X153631905Y-78695771D02*
X153679524Y-78791009D01*
X153679524Y-78791009D02*
X153679524Y-79314819D01*
X153679524Y-78791009D02*
X153727143Y-78695771D01*
X153727143Y-78695771D02*
X153822381Y-78648152D01*
X153822381Y-78648152D02*
X153965238Y-78648152D01*
X153965238Y-78648152D02*
X154060477Y-78695771D01*
X154060477Y-78695771D02*
X154108096Y-78791009D01*
X154108096Y-78791009D02*
X154108096Y-79314819D01*
X155108095Y-79314819D02*
X154536667Y-79314819D01*
X154822381Y-79314819D02*
X154822381Y-78314819D01*
X154822381Y-78314819D02*
X154727143Y-78457676D01*
X154727143Y-78457676D02*
X154631905Y-78552914D01*
X154631905Y-78552914D02*
X154536667Y-78600533D01*
X150396190Y-120824819D02*
X150062857Y-120348628D01*
X149824762Y-120824819D02*
X149824762Y-119824819D01*
X149824762Y-119824819D02*
X150205714Y-119824819D01*
X150205714Y-119824819D02*
X150300952Y-119872438D01*
X150300952Y-119872438D02*
X150348571Y-119920057D01*
X150348571Y-119920057D02*
X150396190Y-120015295D01*
X150396190Y-120015295D02*
X150396190Y-120158152D01*
X150396190Y-120158152D02*
X150348571Y-120253390D01*
X150348571Y-120253390D02*
X150300952Y-120301009D01*
X150300952Y-120301009D02*
X150205714Y-120348628D01*
X150205714Y-120348628D02*
X149824762Y-120348628D01*
X150586667Y-120920057D02*
X151348571Y-120920057D01*
X151539048Y-120777200D02*
X151681905Y-120824819D01*
X151681905Y-120824819D02*
X151920000Y-120824819D01*
X151920000Y-120824819D02*
X152015238Y-120777200D01*
X152015238Y-120777200D02*
X152062857Y-120729580D01*
X152062857Y-120729580D02*
X152110476Y-120634342D01*
X152110476Y-120634342D02*
X152110476Y-120539104D01*
X152110476Y-120539104D02*
X152062857Y-120443866D01*
X152062857Y-120443866D02*
X152015238Y-120396247D01*
X152015238Y-120396247D02*
X151920000Y-120348628D01*
X151920000Y-120348628D02*
X151729524Y-120301009D01*
X151729524Y-120301009D02*
X151634286Y-120253390D01*
X151634286Y-120253390D02*
X151586667Y-120205771D01*
X151586667Y-120205771D02*
X151539048Y-120110533D01*
X151539048Y-120110533D02*
X151539048Y-120015295D01*
X151539048Y-120015295D02*
X151586667Y-119920057D01*
X151586667Y-119920057D02*
X151634286Y-119872438D01*
X151634286Y-119872438D02*
X151729524Y-119824819D01*
X151729524Y-119824819D02*
X151967619Y-119824819D01*
X151967619Y-119824819D02*
X152110476Y-119872438D01*
X152539048Y-120824819D02*
X152539048Y-119824819D01*
X152539048Y-119824819D02*
X153110476Y-120824819D01*
X153110476Y-120824819D02*
X153110476Y-119824819D01*
X153539048Y-120777200D02*
X153681905Y-120824819D01*
X153681905Y-120824819D02*
X153920000Y-120824819D01*
X153920000Y-120824819D02*
X154015238Y-120777200D01*
X154015238Y-120777200D02*
X154062857Y-120729580D01*
X154062857Y-120729580D02*
X154110476Y-120634342D01*
X154110476Y-120634342D02*
X154110476Y-120539104D01*
X154110476Y-120539104D02*
X154062857Y-120443866D01*
X154062857Y-120443866D02*
X154015238Y-120396247D01*
X154015238Y-120396247D02*
X153920000Y-120348628D01*
X153920000Y-120348628D02*
X153729524Y-120301009D01*
X153729524Y-120301009D02*
X153634286Y-120253390D01*
X153634286Y-120253390D02*
X153586667Y-120205771D01*
X153586667Y-120205771D02*
X153539048Y-120110533D01*
X153539048Y-120110533D02*
X153539048Y-120015295D01*
X153539048Y-120015295D02*
X153586667Y-119920057D01*
X153586667Y-119920057D02*
X153634286Y-119872438D01*
X153634286Y-119872438D02*
X153729524Y-119824819D01*
X153729524Y-119824819D02*
X153967619Y-119824819D01*
X153967619Y-119824819D02*
X154110476Y-119872438D01*
X155062857Y-120824819D02*
X154491429Y-120824819D01*
X154777143Y-120824819D02*
X154777143Y-119824819D01*
X154777143Y-119824819D02*
X154681905Y-119967676D01*
X154681905Y-119967676D02*
X154586667Y-120062914D01*
X154586667Y-120062914D02*
X154491429Y-120110533D01*
X144619047Y-91299819D02*
X144619047Y-90299819D01*
X144619047Y-90299819D02*
X145190475Y-91299819D01*
X145190475Y-91299819D02*
X145190475Y-90299819D01*
X145523809Y-90299819D02*
X146095237Y-90299819D01*
X145809523Y-91299819D02*
X145809523Y-90299819D01*
X146999999Y-91204580D02*
X146952380Y-91252200D01*
X146952380Y-91252200D02*
X146809523Y-91299819D01*
X146809523Y-91299819D02*
X146714285Y-91299819D01*
X146714285Y-91299819D02*
X146571428Y-91252200D01*
X146571428Y-91252200D02*
X146476190Y-91156961D01*
X146476190Y-91156961D02*
X146428571Y-91061723D01*
X146428571Y-91061723D02*
X146380952Y-90871247D01*
X146380952Y-90871247D02*
X146380952Y-90728390D01*
X146380952Y-90728390D02*
X146428571Y-90537914D01*
X146428571Y-90537914D02*
X146476190Y-90442676D01*
X146476190Y-90442676D02*
X146571428Y-90347438D01*
X146571428Y-90347438D02*
X146714285Y-90299819D01*
X146714285Y-90299819D02*
X146809523Y-90299819D01*
X146809523Y-90299819D02*
X146952380Y-90347438D01*
X146952380Y-90347438D02*
X146999999Y-90395057D01*
X147190476Y-91395057D02*
X147952380Y-91395057D01*
X148190476Y-91299819D02*
X148190476Y-90299819D01*
X148190476Y-90776009D02*
X148761904Y-90776009D01*
X148761904Y-91299819D02*
X148761904Y-90299819D01*
X149619047Y-91252200D02*
X149523809Y-91299819D01*
X149523809Y-91299819D02*
X149333333Y-91299819D01*
X149333333Y-91299819D02*
X149238095Y-91252200D01*
X149238095Y-91252200D02*
X149190476Y-91156961D01*
X149190476Y-91156961D02*
X149190476Y-90776009D01*
X149190476Y-90776009D02*
X149238095Y-90680771D01*
X149238095Y-90680771D02*
X149333333Y-90633152D01*
X149333333Y-90633152D02*
X149523809Y-90633152D01*
X149523809Y-90633152D02*
X149619047Y-90680771D01*
X149619047Y-90680771D02*
X149666666Y-90776009D01*
X149666666Y-90776009D02*
X149666666Y-90871247D01*
X149666666Y-90871247D02*
X149190476Y-90966485D01*
X150523809Y-91299819D02*
X150523809Y-90776009D01*
X150523809Y-90776009D02*
X150476190Y-90680771D01*
X150476190Y-90680771D02*
X150380952Y-90633152D01*
X150380952Y-90633152D02*
X150190476Y-90633152D01*
X150190476Y-90633152D02*
X150095238Y-90680771D01*
X150523809Y-91252200D02*
X150428571Y-91299819D01*
X150428571Y-91299819D02*
X150190476Y-91299819D01*
X150190476Y-91299819D02*
X150095238Y-91252200D01*
X150095238Y-91252200D02*
X150047619Y-91156961D01*
X150047619Y-91156961D02*
X150047619Y-91061723D01*
X150047619Y-91061723D02*
X150095238Y-90966485D01*
X150095238Y-90966485D02*
X150190476Y-90918866D01*
X150190476Y-90918866D02*
X150428571Y-90918866D01*
X150428571Y-90918866D02*
X150523809Y-90871247D01*
X151428571Y-91299819D02*
X151428571Y-90299819D01*
X151428571Y-91252200D02*
X151333333Y-91299819D01*
X151333333Y-91299819D02*
X151142857Y-91299819D01*
X151142857Y-91299819D02*
X151047619Y-91252200D01*
X151047619Y-91252200D02*
X151000000Y-91204580D01*
X151000000Y-91204580D02*
X150952381Y-91109342D01*
X150952381Y-91109342D02*
X150952381Y-90823628D01*
X150952381Y-90823628D02*
X151000000Y-90728390D01*
X151000000Y-90728390D02*
X151047619Y-90680771D01*
X151047619Y-90680771D02*
X151142857Y-90633152D01*
X151142857Y-90633152D02*
X151333333Y-90633152D01*
X151333333Y-90633152D02*
X151428571Y-90680771D01*
X152428571Y-91299819D02*
X151857143Y-91299819D01*
X152142857Y-91299819D02*
X152142857Y-90299819D01*
X152142857Y-90299819D02*
X152047619Y-90442676D01*
X152047619Y-90442676D02*
X151952381Y-90537914D01*
X151952381Y-90537914D02*
X151857143Y-90585533D01*
X202388095Y-105004819D02*
X202388095Y-105814342D01*
X202388095Y-105814342D02*
X202435714Y-105909580D01*
X202435714Y-105909580D02*
X202483333Y-105957200D01*
X202483333Y-105957200D02*
X202578571Y-106004819D01*
X202578571Y-106004819D02*
X202769047Y-106004819D01*
X202769047Y-106004819D02*
X202864285Y-105957200D01*
X202864285Y-105957200D02*
X202911904Y-105909580D01*
X202911904Y-105909580D02*
X202959523Y-105814342D01*
X202959523Y-105814342D02*
X202959523Y-105004819D01*
X203959523Y-106004819D02*
X203388095Y-106004819D01*
X203673809Y-106004819D02*
X203673809Y-105004819D01*
X203673809Y-105004819D02*
X203578571Y-105147676D01*
X203578571Y-105147676D02*
X203483333Y-105242914D01*
X203483333Y-105242914D02*
X203388095Y-105290533D01*
X158396190Y-88084819D02*
X158062857Y-87608628D01*
X157824762Y-88084819D02*
X157824762Y-87084819D01*
X157824762Y-87084819D02*
X158205714Y-87084819D01*
X158205714Y-87084819D02*
X158300952Y-87132438D01*
X158300952Y-87132438D02*
X158348571Y-87180057D01*
X158348571Y-87180057D02*
X158396190Y-87275295D01*
X158396190Y-87275295D02*
X158396190Y-87418152D01*
X158396190Y-87418152D02*
X158348571Y-87513390D01*
X158348571Y-87513390D02*
X158300952Y-87561009D01*
X158300952Y-87561009D02*
X158205714Y-87608628D01*
X158205714Y-87608628D02*
X157824762Y-87608628D01*
X159348571Y-88084819D02*
X158777143Y-88084819D01*
X159062857Y-88084819D02*
X159062857Y-87084819D01*
X159062857Y-87084819D02*
X158967619Y-87227676D01*
X158967619Y-87227676D02*
X158872381Y-87322914D01*
X158872381Y-87322914D02*
X158777143Y-87370533D01*
X159539048Y-88180057D02*
X160300952Y-88180057D01*
X161110476Y-87989580D02*
X161062857Y-88037200D01*
X161062857Y-88037200D02*
X160920000Y-88084819D01*
X160920000Y-88084819D02*
X160824762Y-88084819D01*
X160824762Y-88084819D02*
X160681905Y-88037200D01*
X160681905Y-88037200D02*
X160586667Y-87941961D01*
X160586667Y-87941961D02*
X160539048Y-87846723D01*
X160539048Y-87846723D02*
X160491429Y-87656247D01*
X160491429Y-87656247D02*
X160491429Y-87513390D01*
X160491429Y-87513390D02*
X160539048Y-87322914D01*
X160539048Y-87322914D02*
X160586667Y-87227676D01*
X160586667Y-87227676D02*
X160681905Y-87132438D01*
X160681905Y-87132438D02*
X160824762Y-87084819D01*
X160824762Y-87084819D02*
X160920000Y-87084819D01*
X160920000Y-87084819D02*
X161062857Y-87132438D01*
X161062857Y-87132438D02*
X161110476Y-87180057D01*
X162110476Y-87989580D02*
X162062857Y-88037200D01*
X162062857Y-88037200D02*
X161920000Y-88084819D01*
X161920000Y-88084819D02*
X161824762Y-88084819D01*
X161824762Y-88084819D02*
X161681905Y-88037200D01*
X161681905Y-88037200D02*
X161586667Y-87941961D01*
X161586667Y-87941961D02*
X161539048Y-87846723D01*
X161539048Y-87846723D02*
X161491429Y-87656247D01*
X161491429Y-87656247D02*
X161491429Y-87513390D01*
X161491429Y-87513390D02*
X161539048Y-87322914D01*
X161539048Y-87322914D02*
X161586667Y-87227676D01*
X161586667Y-87227676D02*
X161681905Y-87132438D01*
X161681905Y-87132438D02*
X161824762Y-87084819D01*
X161824762Y-87084819D02*
X161920000Y-87084819D01*
X161920000Y-87084819D02*
X162062857Y-87132438D01*
X162062857Y-87132438D02*
X162110476Y-87180057D01*
X163062857Y-88084819D02*
X162491429Y-88084819D01*
X162777143Y-88084819D02*
X162777143Y-87084819D01*
X162777143Y-87084819D02*
X162681905Y-87227676D01*
X162681905Y-87227676D02*
X162586667Y-87322914D01*
X162586667Y-87322914D02*
X162491429Y-87370533D01*
X196727619Y-67724819D02*
X196727619Y-66724819D01*
X196727619Y-66724819D02*
X196965714Y-66724819D01*
X196965714Y-66724819D02*
X197108571Y-66772438D01*
X197108571Y-66772438D02*
X197203809Y-66867676D01*
X197203809Y-66867676D02*
X197251428Y-66962914D01*
X197251428Y-66962914D02*
X197299047Y-67153390D01*
X197299047Y-67153390D02*
X197299047Y-67296247D01*
X197299047Y-67296247D02*
X197251428Y-67486723D01*
X197251428Y-67486723D02*
X197203809Y-67581961D01*
X197203809Y-67581961D02*
X197108571Y-67677200D01*
X197108571Y-67677200D02*
X196965714Y-67724819D01*
X196965714Y-67724819D02*
X196727619Y-67724819D01*
X197680000Y-66820057D02*
X197727619Y-66772438D01*
X197727619Y-66772438D02*
X197822857Y-66724819D01*
X197822857Y-66724819D02*
X198060952Y-66724819D01*
X198060952Y-66724819D02*
X198156190Y-66772438D01*
X198156190Y-66772438D02*
X198203809Y-66820057D01*
X198203809Y-66820057D02*
X198251428Y-66915295D01*
X198251428Y-66915295D02*
X198251428Y-67010533D01*
X198251428Y-67010533D02*
X198203809Y-67153390D01*
X198203809Y-67153390D02*
X197632381Y-67724819D01*
X197632381Y-67724819D02*
X198251428Y-67724819D01*
X198441905Y-67820057D02*
X199203809Y-67820057D01*
X199918095Y-67724819D02*
X199441905Y-67724819D01*
X199441905Y-67724819D02*
X199441905Y-66724819D01*
X200251429Y-67201009D02*
X200584762Y-67201009D01*
X200727619Y-67724819D02*
X200251429Y-67724819D01*
X200251429Y-67724819D02*
X200251429Y-66724819D01*
X200251429Y-66724819D02*
X200727619Y-66724819D01*
X201156191Y-67724819D02*
X201156191Y-66724819D01*
X201156191Y-66724819D02*
X201394286Y-66724819D01*
X201394286Y-66724819D02*
X201537143Y-66772438D01*
X201537143Y-66772438D02*
X201632381Y-66867676D01*
X201632381Y-66867676D02*
X201680000Y-66962914D01*
X201680000Y-66962914D02*
X201727619Y-67153390D01*
X201727619Y-67153390D02*
X201727619Y-67296247D01*
X201727619Y-67296247D02*
X201680000Y-67486723D01*
X201680000Y-67486723D02*
X201632381Y-67581961D01*
X201632381Y-67581961D02*
X201537143Y-67677200D01*
X201537143Y-67677200D02*
X201394286Y-67724819D01*
X201394286Y-67724819D02*
X201156191Y-67724819D01*
X202680000Y-67724819D02*
X202108572Y-67724819D01*
X202394286Y-67724819D02*
X202394286Y-66724819D01*
X202394286Y-66724819D02*
X202299048Y-66867676D01*
X202299048Y-66867676D02*
X202203810Y-66962914D01*
X202203810Y-66962914D02*
X202108572Y-67010533D01*
X149253809Y-105990057D02*
X149158571Y-105942438D01*
X149158571Y-105942438D02*
X149063333Y-105847200D01*
X149063333Y-105847200D02*
X148920476Y-105704342D01*
X148920476Y-105704342D02*
X148825238Y-105656723D01*
X148825238Y-105656723D02*
X148730000Y-105656723D01*
X148777619Y-105894819D02*
X148682381Y-105847200D01*
X148682381Y-105847200D02*
X148587143Y-105751961D01*
X148587143Y-105751961D02*
X148539524Y-105561485D01*
X148539524Y-105561485D02*
X148539524Y-105228152D01*
X148539524Y-105228152D02*
X148587143Y-105037676D01*
X148587143Y-105037676D02*
X148682381Y-104942438D01*
X148682381Y-104942438D02*
X148777619Y-104894819D01*
X148777619Y-104894819D02*
X148968095Y-104894819D01*
X148968095Y-104894819D02*
X149063333Y-104942438D01*
X149063333Y-104942438D02*
X149158571Y-105037676D01*
X149158571Y-105037676D02*
X149206190Y-105228152D01*
X149206190Y-105228152D02*
X149206190Y-105561485D01*
X149206190Y-105561485D02*
X149158571Y-105751961D01*
X149158571Y-105751961D02*
X149063333Y-105847200D01*
X149063333Y-105847200D02*
X148968095Y-105894819D01*
X148968095Y-105894819D02*
X148777619Y-105894819D01*
X150158571Y-105894819D02*
X149587143Y-105894819D01*
X149872857Y-105894819D02*
X149872857Y-104894819D01*
X149872857Y-104894819D02*
X149777619Y-105037676D01*
X149777619Y-105037676D02*
X149682381Y-105132914D01*
X149682381Y-105132914D02*
X149587143Y-105180533D01*
X150349048Y-105990057D02*
X151110952Y-105990057D01*
X151349048Y-105894819D02*
X151349048Y-104894819D01*
X151349048Y-104894819D02*
X151730000Y-104894819D01*
X151730000Y-104894819D02*
X151825238Y-104942438D01*
X151825238Y-104942438D02*
X151872857Y-104990057D01*
X151872857Y-104990057D02*
X151920476Y-105085295D01*
X151920476Y-105085295D02*
X151920476Y-105228152D01*
X151920476Y-105228152D02*
X151872857Y-105323390D01*
X151872857Y-105323390D02*
X151825238Y-105371009D01*
X151825238Y-105371009D02*
X151730000Y-105418628D01*
X151730000Y-105418628D02*
X151349048Y-105418628D01*
X152349048Y-105894819D02*
X152349048Y-104894819D01*
X152349048Y-104894819D02*
X152920476Y-105894819D01*
X152920476Y-105894819D02*
X152920476Y-104894819D01*
X153396667Y-105894819D02*
X153396667Y-104894819D01*
X153396667Y-104894819D02*
X153777619Y-104894819D01*
X153777619Y-104894819D02*
X153872857Y-104942438D01*
X153872857Y-104942438D02*
X153920476Y-104990057D01*
X153920476Y-104990057D02*
X153968095Y-105085295D01*
X153968095Y-105085295D02*
X153968095Y-105228152D01*
X153968095Y-105228152D02*
X153920476Y-105323390D01*
X153920476Y-105323390D02*
X153872857Y-105371009D01*
X153872857Y-105371009D02*
X153777619Y-105418628D01*
X153777619Y-105418628D02*
X153396667Y-105418628D01*
X154920476Y-105894819D02*
X154349048Y-105894819D01*
X154634762Y-105894819D02*
X154634762Y-104894819D01*
X154634762Y-104894819D02*
X154539524Y-105037676D01*
X154539524Y-105037676D02*
X154444286Y-105132914D01*
X154444286Y-105132914D02*
X154349048Y-105180533D01*
X197149047Y-79314819D02*
X196815714Y-78838628D01*
X196577619Y-79314819D02*
X196577619Y-78314819D01*
X196577619Y-78314819D02*
X196958571Y-78314819D01*
X196958571Y-78314819D02*
X197053809Y-78362438D01*
X197053809Y-78362438D02*
X197101428Y-78410057D01*
X197101428Y-78410057D02*
X197149047Y-78505295D01*
X197149047Y-78505295D02*
X197149047Y-78648152D01*
X197149047Y-78648152D02*
X197101428Y-78743390D01*
X197101428Y-78743390D02*
X197053809Y-78791009D01*
X197053809Y-78791009D02*
X196958571Y-78838628D01*
X196958571Y-78838628D02*
X196577619Y-78838628D01*
X198053809Y-78314819D02*
X197577619Y-78314819D01*
X197577619Y-78314819D02*
X197530000Y-78791009D01*
X197530000Y-78791009D02*
X197577619Y-78743390D01*
X197577619Y-78743390D02*
X197672857Y-78695771D01*
X197672857Y-78695771D02*
X197910952Y-78695771D01*
X197910952Y-78695771D02*
X198006190Y-78743390D01*
X198006190Y-78743390D02*
X198053809Y-78791009D01*
X198053809Y-78791009D02*
X198101428Y-78886247D01*
X198101428Y-78886247D02*
X198101428Y-79124342D01*
X198101428Y-79124342D02*
X198053809Y-79219580D01*
X198053809Y-79219580D02*
X198006190Y-79267200D01*
X198006190Y-79267200D02*
X197910952Y-79314819D01*
X197910952Y-79314819D02*
X197672857Y-79314819D01*
X197672857Y-79314819D02*
X197577619Y-79267200D01*
X197577619Y-79267200D02*
X197530000Y-79219580D01*
X198291905Y-79410057D02*
X199053809Y-79410057D01*
X199768095Y-79314819D02*
X199291905Y-79314819D01*
X199291905Y-79314819D02*
X199291905Y-78314819D01*
X200101429Y-78791009D02*
X200434762Y-78791009D01*
X200577619Y-79314819D02*
X200101429Y-79314819D01*
X200101429Y-79314819D02*
X200101429Y-78314819D01*
X200101429Y-78314819D02*
X200577619Y-78314819D01*
X201006191Y-79314819D02*
X201006191Y-78314819D01*
X201006191Y-78314819D02*
X201244286Y-78314819D01*
X201244286Y-78314819D02*
X201387143Y-78362438D01*
X201387143Y-78362438D02*
X201482381Y-78457676D01*
X201482381Y-78457676D02*
X201530000Y-78552914D01*
X201530000Y-78552914D02*
X201577619Y-78743390D01*
X201577619Y-78743390D02*
X201577619Y-78886247D01*
X201577619Y-78886247D02*
X201530000Y-79076723D01*
X201530000Y-79076723D02*
X201482381Y-79171961D01*
X201482381Y-79171961D02*
X201387143Y-79267200D01*
X201387143Y-79267200D02*
X201244286Y-79314819D01*
X201244286Y-79314819D02*
X201006191Y-79314819D01*
X202530000Y-79314819D02*
X201958572Y-79314819D01*
X202244286Y-79314819D02*
X202244286Y-78314819D01*
X202244286Y-78314819D02*
X202149048Y-78457676D01*
X202149048Y-78457676D02*
X202053810Y-78552914D01*
X202053810Y-78552914D02*
X201958572Y-78600533D01*
X200723214Y-116509580D02*
X200675595Y-116557200D01*
X200675595Y-116557200D02*
X200532738Y-116604819D01*
X200532738Y-116604819D02*
X200437500Y-116604819D01*
X200437500Y-116604819D02*
X200294643Y-116557200D01*
X200294643Y-116557200D02*
X200199405Y-116461961D01*
X200199405Y-116461961D02*
X200151786Y-116366723D01*
X200151786Y-116366723D02*
X200104167Y-116176247D01*
X200104167Y-116176247D02*
X200104167Y-116033390D01*
X200104167Y-116033390D02*
X200151786Y-115842914D01*
X200151786Y-115842914D02*
X200199405Y-115747676D01*
X200199405Y-115747676D02*
X200294643Y-115652438D01*
X200294643Y-115652438D02*
X200437500Y-115604819D01*
X200437500Y-115604819D02*
X200532738Y-115604819D01*
X200532738Y-115604819D02*
X200675595Y-115652438D01*
X200675595Y-115652438D02*
X200723214Y-115700057D01*
X201675595Y-116604819D02*
X201104167Y-116604819D01*
X201389881Y-116604819D02*
X201389881Y-115604819D01*
X201389881Y-115604819D02*
X201294643Y-115747676D01*
X201294643Y-115747676D02*
X201199405Y-115842914D01*
X201199405Y-115842914D02*
X201104167Y-115890533D01*
X201866072Y-116700057D02*
X202627976Y-116700057D01*
X203437500Y-116509580D02*
X203389881Y-116557200D01*
X203389881Y-116557200D02*
X203247024Y-116604819D01*
X203247024Y-116604819D02*
X203151786Y-116604819D01*
X203151786Y-116604819D02*
X203008929Y-116557200D01*
X203008929Y-116557200D02*
X202913691Y-116461961D01*
X202913691Y-116461961D02*
X202866072Y-116366723D01*
X202866072Y-116366723D02*
X202818453Y-116176247D01*
X202818453Y-116176247D02*
X202818453Y-116033390D01*
X202818453Y-116033390D02*
X202866072Y-115842914D01*
X202866072Y-115842914D02*
X202913691Y-115747676D01*
X202913691Y-115747676D02*
X203008929Y-115652438D01*
X203008929Y-115652438D02*
X203151786Y-115604819D01*
X203151786Y-115604819D02*
X203247024Y-115604819D01*
X203247024Y-115604819D02*
X203389881Y-115652438D01*
X203389881Y-115652438D02*
X203437500Y-115700057D01*
X203866072Y-116604819D02*
X203866072Y-115938152D01*
X203866072Y-115604819D02*
X203818453Y-115652438D01*
X203818453Y-115652438D02*
X203866072Y-115700057D01*
X203866072Y-115700057D02*
X203913691Y-115652438D01*
X203913691Y-115652438D02*
X203866072Y-115604819D01*
X203866072Y-115604819D02*
X203866072Y-115700057D01*
X204342262Y-115938152D02*
X204342262Y-116604819D01*
X204342262Y-116033390D02*
X204389881Y-115985771D01*
X204389881Y-115985771D02*
X204485119Y-115938152D01*
X204485119Y-115938152D02*
X204627976Y-115938152D01*
X204627976Y-115938152D02*
X204723214Y-115985771D01*
X204723214Y-115985771D02*
X204770833Y-116081009D01*
X204770833Y-116081009D02*
X204770833Y-116604819D01*
X205770833Y-116604819D02*
X205199405Y-116604819D01*
X205485119Y-116604819D02*
X205485119Y-115604819D01*
X205485119Y-115604819D02*
X205389881Y-115747676D01*
X205389881Y-115747676D02*
X205294643Y-115842914D01*
X205294643Y-115842914D02*
X205199405Y-115890533D01*
X182155713Y-69814819D02*
X181822380Y-69338628D01*
X181584285Y-69814819D02*
X181584285Y-68814819D01*
X181584285Y-68814819D02*
X181965237Y-68814819D01*
X181965237Y-68814819D02*
X182060475Y-68862438D01*
X182060475Y-68862438D02*
X182108094Y-68910057D01*
X182108094Y-68910057D02*
X182155713Y-69005295D01*
X182155713Y-69005295D02*
X182155713Y-69148152D01*
X182155713Y-69148152D02*
X182108094Y-69243390D01*
X182108094Y-69243390D02*
X182060475Y-69291009D01*
X182060475Y-69291009D02*
X181965237Y-69338628D01*
X181965237Y-69338628D02*
X181584285Y-69338628D01*
X183012856Y-68814819D02*
X182822380Y-68814819D01*
X182822380Y-68814819D02*
X182727142Y-68862438D01*
X182727142Y-68862438D02*
X182679523Y-68910057D01*
X182679523Y-68910057D02*
X182584285Y-69052914D01*
X182584285Y-69052914D02*
X182536666Y-69243390D01*
X182536666Y-69243390D02*
X182536666Y-69624342D01*
X182536666Y-69624342D02*
X182584285Y-69719580D01*
X182584285Y-69719580D02*
X182631904Y-69767200D01*
X182631904Y-69767200D02*
X182727142Y-69814819D01*
X182727142Y-69814819D02*
X182917618Y-69814819D01*
X182917618Y-69814819D02*
X183012856Y-69767200D01*
X183012856Y-69767200D02*
X183060475Y-69719580D01*
X183060475Y-69719580D02*
X183108094Y-69624342D01*
X183108094Y-69624342D02*
X183108094Y-69386247D01*
X183108094Y-69386247D02*
X183060475Y-69291009D01*
X183060475Y-69291009D02*
X183012856Y-69243390D01*
X183012856Y-69243390D02*
X182917618Y-69195771D01*
X182917618Y-69195771D02*
X182727142Y-69195771D01*
X182727142Y-69195771D02*
X182631904Y-69243390D01*
X182631904Y-69243390D02*
X182584285Y-69291009D01*
X182584285Y-69291009D02*
X182536666Y-69386247D01*
X183298571Y-69910057D02*
X184060475Y-69910057D01*
X184155714Y-69148152D02*
X184536666Y-69148152D01*
X184298571Y-68814819D02*
X184298571Y-69671961D01*
X184298571Y-69671961D02*
X184346190Y-69767200D01*
X184346190Y-69767200D02*
X184441428Y-69814819D01*
X184441428Y-69814819D02*
X184536666Y-69814819D01*
X185012857Y-69814819D02*
X184917619Y-69767200D01*
X184917619Y-69767200D02*
X184870000Y-69719580D01*
X184870000Y-69719580D02*
X184822381Y-69624342D01*
X184822381Y-69624342D02*
X184822381Y-69338628D01*
X184822381Y-69338628D02*
X184870000Y-69243390D01*
X184870000Y-69243390D02*
X184917619Y-69195771D01*
X184917619Y-69195771D02*
X185012857Y-69148152D01*
X185012857Y-69148152D02*
X185155714Y-69148152D01*
X185155714Y-69148152D02*
X185250952Y-69195771D01*
X185250952Y-69195771D02*
X185298571Y-69243390D01*
X185298571Y-69243390D02*
X185346190Y-69338628D01*
X185346190Y-69338628D02*
X185346190Y-69624342D01*
X185346190Y-69624342D02*
X185298571Y-69719580D01*
X185298571Y-69719580D02*
X185250952Y-69767200D01*
X185250952Y-69767200D02*
X185155714Y-69814819D01*
X185155714Y-69814819D02*
X185012857Y-69814819D01*
X185774762Y-69148152D02*
X185774762Y-70148152D01*
X185774762Y-69195771D02*
X185870000Y-69148152D01*
X185870000Y-69148152D02*
X186060476Y-69148152D01*
X186060476Y-69148152D02*
X186155714Y-69195771D01*
X186155714Y-69195771D02*
X186203333Y-69243390D01*
X186203333Y-69243390D02*
X186250952Y-69338628D01*
X186250952Y-69338628D02*
X186250952Y-69624342D01*
X186250952Y-69624342D02*
X186203333Y-69719580D01*
X186203333Y-69719580D02*
X186155714Y-69767200D01*
X186155714Y-69767200D02*
X186060476Y-69814819D01*
X186060476Y-69814819D02*
X185870000Y-69814819D01*
X185870000Y-69814819D02*
X185774762Y-69767200D01*
X187203333Y-69814819D02*
X186631905Y-69814819D01*
X186917619Y-69814819D02*
X186917619Y-68814819D01*
X186917619Y-68814819D02*
X186822381Y-68957676D01*
X186822381Y-68957676D02*
X186727143Y-69052914D01*
X186727143Y-69052914D02*
X186631905Y-69100533D01*
X205872380Y-91084819D02*
X205539047Y-90608628D01*
X205300952Y-91084819D02*
X205300952Y-90084819D01*
X205300952Y-90084819D02*
X205681904Y-90084819D01*
X205681904Y-90084819D02*
X205777142Y-90132438D01*
X205777142Y-90132438D02*
X205824761Y-90180057D01*
X205824761Y-90180057D02*
X205872380Y-90275295D01*
X205872380Y-90275295D02*
X205872380Y-90418152D01*
X205872380Y-90418152D02*
X205824761Y-90513390D01*
X205824761Y-90513390D02*
X205777142Y-90561009D01*
X205777142Y-90561009D02*
X205681904Y-90608628D01*
X205681904Y-90608628D02*
X205300952Y-90608628D01*
X206205714Y-90084819D02*
X206824761Y-90084819D01*
X206824761Y-90084819D02*
X206491428Y-90465771D01*
X206491428Y-90465771D02*
X206634285Y-90465771D01*
X206634285Y-90465771D02*
X206729523Y-90513390D01*
X206729523Y-90513390D02*
X206777142Y-90561009D01*
X206777142Y-90561009D02*
X206824761Y-90656247D01*
X206824761Y-90656247D02*
X206824761Y-90894342D01*
X206824761Y-90894342D02*
X206777142Y-90989580D01*
X206777142Y-90989580D02*
X206729523Y-91037200D01*
X206729523Y-91037200D02*
X206634285Y-91084819D01*
X206634285Y-91084819D02*
X206348571Y-91084819D01*
X206348571Y-91084819D02*
X206253333Y-91037200D01*
X206253333Y-91037200D02*
X206205714Y-90989580D01*
X207015238Y-91180057D02*
X207777142Y-91180057D01*
X208586666Y-91084819D02*
X208253333Y-90608628D01*
X208015238Y-91084819D02*
X208015238Y-90084819D01*
X208015238Y-90084819D02*
X208396190Y-90084819D01*
X208396190Y-90084819D02*
X208491428Y-90132438D01*
X208491428Y-90132438D02*
X208539047Y-90180057D01*
X208539047Y-90180057D02*
X208586666Y-90275295D01*
X208586666Y-90275295D02*
X208586666Y-90418152D01*
X208586666Y-90418152D02*
X208539047Y-90513390D01*
X208539047Y-90513390D02*
X208491428Y-90561009D01*
X208491428Y-90561009D02*
X208396190Y-90608628D01*
X208396190Y-90608628D02*
X208015238Y-90608628D01*
X208872381Y-90418152D02*
X209253333Y-90418152D01*
X209015238Y-91084819D02*
X209015238Y-90227676D01*
X209015238Y-90227676D02*
X209062857Y-90132438D01*
X209062857Y-90132438D02*
X209158095Y-90084819D01*
X209158095Y-90084819D02*
X209253333Y-90084819D01*
X209586667Y-91084819D02*
X209586667Y-90084819D01*
X209586667Y-90465771D02*
X209681905Y-90418152D01*
X209681905Y-90418152D02*
X209872381Y-90418152D01*
X209872381Y-90418152D02*
X209967619Y-90465771D01*
X209967619Y-90465771D02*
X210015238Y-90513390D01*
X210015238Y-90513390D02*
X210062857Y-90608628D01*
X210062857Y-90608628D02*
X210062857Y-90894342D01*
X210062857Y-90894342D02*
X210015238Y-90989580D01*
X210015238Y-90989580D02*
X209967619Y-91037200D01*
X209967619Y-91037200D02*
X209872381Y-91084819D01*
X209872381Y-91084819D02*
X209681905Y-91084819D01*
X209681905Y-91084819D02*
X209586667Y-91037200D01*
X210253334Y-91180057D02*
X211015238Y-91180057D01*
X211681905Y-90418152D02*
X211681905Y-91084819D01*
X211253334Y-90418152D02*
X211253334Y-90941961D01*
X211253334Y-90941961D02*
X211300953Y-91037200D01*
X211300953Y-91037200D02*
X211396191Y-91084819D01*
X211396191Y-91084819D02*
X211539048Y-91084819D01*
X211539048Y-91084819D02*
X211634286Y-91037200D01*
X211634286Y-91037200D02*
X211681905Y-90989580D01*
X212158096Y-90418152D02*
X212158096Y-91418152D01*
X212158096Y-90465771D02*
X212253334Y-90418152D01*
X212253334Y-90418152D02*
X212443810Y-90418152D01*
X212443810Y-90418152D02*
X212539048Y-90465771D01*
X212539048Y-90465771D02*
X212586667Y-90513390D01*
X212586667Y-90513390D02*
X212634286Y-90608628D01*
X212634286Y-90608628D02*
X212634286Y-90894342D01*
X212634286Y-90894342D02*
X212586667Y-90989580D01*
X212586667Y-90989580D02*
X212539048Y-91037200D01*
X212539048Y-91037200D02*
X212443810Y-91084819D01*
X212443810Y-91084819D02*
X212253334Y-91084819D01*
X212253334Y-91084819D02*
X212158096Y-91037200D01*
X213586667Y-91084819D02*
X213015239Y-91084819D01*
X213300953Y-91084819D02*
X213300953Y-90084819D01*
X213300953Y-90084819D02*
X213205715Y-90227676D01*
X213205715Y-90227676D02*
X213110477Y-90322914D01*
X213110477Y-90322914D02*
X213015239Y-90370533D01*
X178367261Y-101179580D02*
X178319642Y-101227200D01*
X178319642Y-101227200D02*
X178176785Y-101274819D01*
X178176785Y-101274819D02*
X178081547Y-101274819D01*
X178081547Y-101274819D02*
X177938690Y-101227200D01*
X177938690Y-101227200D02*
X177843452Y-101131961D01*
X177843452Y-101131961D02*
X177795833Y-101036723D01*
X177795833Y-101036723D02*
X177748214Y-100846247D01*
X177748214Y-100846247D02*
X177748214Y-100703390D01*
X177748214Y-100703390D02*
X177795833Y-100512914D01*
X177795833Y-100512914D02*
X177843452Y-100417676D01*
X177843452Y-100417676D02*
X177938690Y-100322438D01*
X177938690Y-100322438D02*
X178081547Y-100274819D01*
X178081547Y-100274819D02*
X178176785Y-100274819D01*
X178176785Y-100274819D02*
X178319642Y-100322438D01*
X178319642Y-100322438D02*
X178367261Y-100370057D01*
X178557738Y-101370057D02*
X179319642Y-101370057D01*
X180033928Y-101274819D02*
X179557738Y-101274819D01*
X179557738Y-101274819D02*
X179557738Y-100274819D01*
X180367262Y-101274819D02*
X180367262Y-100274819D01*
X180367262Y-100274819D02*
X180700595Y-100989104D01*
X180700595Y-100989104D02*
X181033928Y-100274819D01*
X181033928Y-100274819D02*
X181033928Y-101274819D01*
X181272024Y-101370057D02*
X182033928Y-101370057D01*
X182272024Y-101274819D02*
X182272024Y-100608152D01*
X182272024Y-100274819D02*
X182224405Y-100322438D01*
X182224405Y-100322438D02*
X182272024Y-100370057D01*
X182272024Y-100370057D02*
X182319643Y-100322438D01*
X182319643Y-100322438D02*
X182272024Y-100274819D01*
X182272024Y-100274819D02*
X182272024Y-100370057D01*
X182748214Y-100608152D02*
X182748214Y-101274819D01*
X182748214Y-100703390D02*
X182795833Y-100655771D01*
X182795833Y-100655771D02*
X182891071Y-100608152D01*
X182891071Y-100608152D02*
X183033928Y-100608152D01*
X183033928Y-100608152D02*
X183129166Y-100655771D01*
X183129166Y-100655771D02*
X183176785Y-100751009D01*
X183176785Y-100751009D02*
X183176785Y-101274819D01*
X184176785Y-101274819D02*
X183605357Y-101274819D01*
X183891071Y-101274819D02*
X183891071Y-100274819D01*
X183891071Y-100274819D02*
X183795833Y-100417676D01*
X183795833Y-100417676D02*
X183700595Y-100512914D01*
X183700595Y-100512914D02*
X183605357Y-100560533D01*
%TO.C,R8_NTC1*%
D12*
X147330000Y-71730000D02*
X148100000Y-71730000D01*
X155410000Y-71730000D02*
X154640000Y-71730000D01*
X148100000Y-70360000D02*
X154640000Y-70360000D01*
X154640000Y-73100000D01*
X148100000Y-73100000D01*
X148100000Y-70360000D01*
%TO.C,C3_Cff1*%
X202701248Y-99265000D02*
X203223752Y-99265000D01*
X202701248Y-100735000D02*
X203223752Y-100735000D01*
%TO.C,C2_Cout1*%
X160640000Y-112273752D02*
X160640000Y-110851248D01*
X163360000Y-112273752D02*
X163360000Y-110851248D01*
%TO.C,C_LM_out1*%
X171776248Y-101765000D02*
X172298752Y-101765000D01*
X171776248Y-103235000D02*
X172298752Y-103235000D01*
%TO.C,U_LM317*%
X170740000Y-108430000D02*
X175360000Y-108430000D01*
X170740000Y-111690000D02*
X172120000Y-111690000D01*
X170740000Y-115390000D02*
X172120000Y-115390000D01*
X170740000Y-118650000D02*
X170740000Y-108430000D01*
X172120000Y-118650000D02*
X172120000Y-108430000D01*
X175360000Y-108430000D02*
X175360000Y-118650000D01*
X175360000Y-118650000D02*
X170740000Y-118650000D01*
%TO.C,R_TM2*%
X163330000Y-71730000D02*
X164100000Y-71730000D01*
X171410000Y-71730000D02*
X170640000Y-71730000D01*
X164100000Y-70360000D02*
X170640000Y-70360000D01*
X170640000Y-73100000D01*
X164100000Y-73100000D01*
X164100000Y-70360000D01*
%TO.C,R4_Rfb_dwn1*%
X190380000Y-93000000D02*
X191150000Y-93000000D01*
X198460000Y-93000000D02*
X197690000Y-93000000D01*
X191150000Y-91630000D02*
X197690000Y-91630000D01*
X197690000Y-94370000D01*
X191150000Y-94370000D01*
X191150000Y-91630000D01*
%TO.C,U2*%
X182415000Y-77805000D02*
X186535000Y-77805000D01*
X182415000Y-77900000D02*
X182415000Y-77805000D01*
X182415000Y-82925000D02*
X182415000Y-82830000D01*
X186535000Y-77805000D02*
X186535000Y-77900000D01*
X186535000Y-82830000D02*
X186535000Y-82925000D01*
X186535000Y-82925000D02*
X182415000Y-82925000D01*
X181875000Y-77895000D02*
X181635000Y-77565000D01*
X182115000Y-77565000D01*
X181875000Y-77895000D01*
G36*
X181875000Y-77895000D02*
G01*
X181635000Y-77565000D01*
X182115000Y-77565000D01*
X181875000Y-77895000D01*
G37*
%TO.C,R_CC1*%
X210490000Y-72730000D02*
X211260000Y-72730000D01*
X218570000Y-72730000D02*
X217800000Y-72730000D01*
X211260000Y-71360000D02*
X217800000Y-71360000D01*
X217800000Y-74100000D01*
X211260000Y-74100000D01*
X211260000Y-71360000D01*
%TO.C,D_LM1*%
X174180000Y-93000000D02*
X175200000Y-93000000D01*
X175980000Y-91530000D02*
X175980000Y-94470000D01*
X176100000Y-91530000D02*
X176100000Y-94470000D01*
X176220000Y-91530000D02*
X176220000Y-94470000D01*
X181660000Y-93000000D02*
X180640000Y-93000000D01*
X175200000Y-91530000D02*
X180640000Y-91530000D01*
X180640000Y-94470000D01*
X175200000Y-94470000D01*
X175200000Y-91530000D01*
%TO.C,D1*%
X182030000Y-115780000D02*
X184970000Y-115780000D01*
X182030000Y-115900000D02*
X184970000Y-115900000D01*
X182030000Y-116020000D02*
X184970000Y-116020000D01*
X183500000Y-110340000D02*
X183500000Y-111360000D01*
X183500000Y-117820000D02*
X183500000Y-116800000D01*
X182030000Y-111360000D02*
X184970000Y-111360000D01*
X184970000Y-116800000D01*
X182030000Y-116800000D01*
X182030000Y-111360000D01*
%TO.C,J2*%
X214325000Y-101710000D02*
X212625000Y-101710000D01*
X214325000Y-111050000D02*
X212625000Y-111050000D01*
%TO.C,R2_CC2*%
X156380000Y-98500000D02*
X157150000Y-98500000D01*
X164460000Y-98500000D02*
X163690000Y-98500000D01*
X157150000Y-97130000D02*
X163690000Y-97130000D01*
X163690000Y-99870000D01*
X157150000Y-99870000D01*
X157150000Y-97130000D01*
%TO.C,R9_INH1*%
X210830000Y-81730000D02*
X211600000Y-81730000D01*
X218910000Y-81730000D02*
X218140000Y-81730000D01*
X211600000Y-80360000D02*
X218140000Y-80360000D01*
X218140000Y-83100000D01*
X211600000Y-83100000D01*
X211600000Y-80360000D01*
%TO.C,Dsub1*%
D13*
X127546201Y-67563099D02*
X127546201Y-120826899D01*
X127546201Y-120826899D02*
X140297001Y-120826899D01*
X140297001Y-67563099D02*
X127546201Y-67563099D01*
X140297001Y-120826899D02*
X140297001Y-67563099D01*
D14*
X135721000Y-66420099D02*
G75*
G02*
X134959000Y-66420099I-381000J0D01*
G01*
X134959000Y-66420099D02*
G75*
G02*
X135721000Y-66420099I381000J0D01*
G01*
%TO.C,L1*%
D12*
X192000000Y-102620000D02*
X192000000Y-104130000D01*
X192000000Y-115380000D02*
X192000000Y-113870000D01*
X189880000Y-104130000D02*
X194120000Y-104130000D01*
X194120000Y-113870000D01*
X189880000Y-113870000D01*
X189880000Y-104130000D01*
%TO.C,R_TM1*%
X163330000Y-81230000D02*
X164100000Y-81230000D01*
X171410000Y-81230000D02*
X170640000Y-81230000D01*
X164100000Y-79860000D02*
X170640000Y-79860000D01*
X170640000Y-82600000D01*
X164100000Y-82600000D01*
X164100000Y-79860000D01*
%TO.C,R7_bottom1*%
X146830000Y-81230000D02*
X147600000Y-81230000D01*
X154910000Y-81230000D02*
X154140000Y-81230000D01*
X147600000Y-79860000D02*
X154140000Y-79860000D01*
X154140000Y-82600000D01*
X147600000Y-82600000D01*
X147600000Y-79860000D01*
%TO.C,R_SNS1*%
X148380000Y-118000000D02*
X149150000Y-118000000D01*
X156460000Y-118000000D02*
X155690000Y-118000000D01*
X149150000Y-116630000D02*
X155690000Y-116630000D01*
X155690000Y-119370000D01*
X149150000Y-119370000D01*
X149150000Y-116630000D01*
%TO.C,NTC_Head1*%
X147120000Y-91845000D02*
X148500000Y-91845000D01*
X147120000Y-93225000D02*
X147120000Y-91845000D01*
X147120000Y-94495000D02*
X147120000Y-97145000D01*
X147120000Y-94495000D02*
X149880000Y-94495000D01*
X147120000Y-97145000D02*
X149880000Y-97145000D01*
X149880000Y-94495000D02*
X149880000Y-97145000D01*
%TO.C,U1*%
X202250000Y-110060000D02*
X204050000Y-110060000D01*
X203250000Y-106840000D02*
X202450000Y-106840000D01*
X203250000Y-106840000D02*
X204050000Y-106840000D01*
X201950000Y-106890000D02*
X201710000Y-106560000D01*
X202190000Y-106560000D01*
X201950000Y-106890000D01*
G36*
X201950000Y-106890000D02*
G01*
X201710000Y-106560000D01*
X202190000Y-106560000D01*
X201950000Y-106890000D01*
G37*
%TO.C,R1_CC1*%
X156380000Y-90000000D02*
X157150000Y-90000000D01*
X164460000Y-90000000D02*
X163690000Y-90000000D01*
X157150000Y-88630000D02*
X163690000Y-88630000D01*
X163690000Y-91370000D01*
X157150000Y-91370000D01*
X157150000Y-88630000D01*
%TO.C,D2_LED1*%
X197120000Y-69685000D02*
X197120000Y-72775000D01*
X197120000Y-69685170D02*
G75*
G02*
X202670000Y-71230000I2560000J-1544830D01*
G01*
X202670000Y-71230000D02*
G75*
G02*
X197120000Y-72774830I-2990000J0D01*
G01*
X202180000Y-71230000D02*
G75*
G02*
X197180000Y-71230000I-2500000J0D01*
G01*
X197180000Y-71230000D02*
G75*
G02*
X202180000Y-71230000I2500000J0D01*
G01*
%TO.C,Q1_PNP1*%
X149930000Y-110850000D02*
X153530000Y-110850000D01*
X149891522Y-110838478D02*
G75*
G02*
X151730000Y-106399999I1838478J1838478D01*
G01*
X151730000Y-106400000D02*
G75*
G02*
X153568478Y-110838478I0J-2600000D01*
G01*
%TO.C,R5_LED1*%
X195490000Y-81230000D02*
X196260000Y-81230000D01*
X203570000Y-81230000D02*
X202800000Y-81230000D01*
X196260000Y-79860000D02*
X202800000Y-79860000D01*
X202800000Y-82600000D01*
X196260000Y-82600000D01*
X196260000Y-79860000D01*
%TO.C,C1_Cin1*%
X202226248Y-117090000D02*
X203648752Y-117090000D01*
X202226248Y-118910000D02*
X203648752Y-118910000D01*
%TO.C,R6_top1*%
X180330000Y-71730000D02*
X181100000Y-71730000D01*
X188410000Y-71730000D02*
X187640000Y-71730000D01*
X181100000Y-70360000D02*
X187640000Y-70360000D01*
X187640000Y-73100000D01*
X181100000Y-73100000D01*
X181100000Y-70360000D01*
%TO.C,R3_Rfb_up1*%
X205380000Y-93000000D02*
X206150000Y-93000000D01*
X213460000Y-93000000D02*
X212690000Y-93000000D01*
X206150000Y-91630000D02*
X212690000Y-91630000D01*
X212690000Y-94370000D01*
X206150000Y-94370000D01*
X206150000Y-91630000D01*
%TO.C,C_LM_in1*%
X180701248Y-101765000D02*
X181223752Y-101765000D01*
X180701248Y-103235000D02*
X181223752Y-103235000D01*
%TD*%
M02*
