%TF.GenerationSoftware,KiCad,Pcbnew,10.0.1*%
%TF.CreationDate,2026-06-01T10:24:52+02:00*%
%TF.ProjectId,powerBoardv1_routed5_copperPour1,706f7765-7242-46f6-9172-6476315f726f,rev?*%
%TF.SameCoordinates,Original*%
%TF.FileFunction,Copper,L2,Bot*%
%TF.FilePolarity,Positive*%
%FSLAX46Y46*%
G04 Gerber Fmt 4.6, Leading zero omitted, Abs format (unit mm)*
G04 Created by KiCad (PCBNEW 10.0.1) date 2026-06-01 10:24:52*
%MOMM*%
%LPD*%
G01*
G04 APERTURE LIST*
G04 Aperture macros list*
%AMRoundRect*
0 Rectangle with rounded corners*
0 $1 Rounding radius*
0 $2 $3 $4 $5 $6 $7 $8 $9 X,Y pos of 4 corners*
0 Add a 4 corners polygon primitive as box body*
4,1,4,$2,$3,$4,$5,$6,$7,$8,$9,$2,$3,0*
0 Add four circle primitives for the rounded corners*
1,1,$1+$1,$2,$3*
1,1,$1+$1,$4,$5*
1,1,$1+$1,$6,$7*
1,1,$1+$1,$8,$9*
0 Add four rect primitives between the rounded corners*
20,1,$1+$1,$2,$3,$4,$5,0*
20,1,$1+$1,$4,$5,$6,$7,0*
20,1,$1+$1,$6,$7,$8,$9,0*
20,1,$1+$1,$8,$9,$2,$3,0*%
G04 Aperture macros list end*
%TA.AperFunction,ComponentPad*%
%ADD10C,1.600000*%
%TD*%
%TA.AperFunction,ComponentPad*%
%ADD11R,2.000000X1.905000*%
%TD*%
%TA.AperFunction,ComponentPad*%
%ADD12O,2.000000X1.905000*%
%TD*%
%TA.AperFunction,ComponentPad*%
%ADD13RoundRect,0.249999X-0.850001X-0.850001X0.850001X-0.850001X0.850001X0.850001X-0.850001X0.850001X0*%
%TD*%
%TA.AperFunction,ComponentPad*%
%ADD14C,2.200000*%
%TD*%
%TA.AperFunction,ComponentPad*%
%ADD15RoundRect,0.249999X0.850001X-0.850001X0.850001X0.850001X-0.850001X0.850001X-0.850001X-0.850001X0*%
%TD*%
%TA.AperFunction,ComponentPad*%
%ADD16O,2.100000X1.000000*%
%TD*%
%TA.AperFunction,ComponentPad*%
%ADD17O,1.800000X1.000000*%
%TD*%
%TA.AperFunction,ComponentPad*%
%ADD18C,1.498600*%
%TD*%
%TA.AperFunction,ComponentPad*%
%ADD19C,2.000000*%
%TD*%
%TA.AperFunction,ComponentPad*%
%ADD20R,1.700000X1.700000*%
%TD*%
%TA.AperFunction,ComponentPad*%
%ADD21C,1.700000*%
%TD*%
%TA.AperFunction,ComponentPad*%
%ADD22R,1.800000X1.800000*%
%TD*%
%TA.AperFunction,ComponentPad*%
%ADD23C,1.800000*%
%TD*%
%TA.AperFunction,ComponentPad*%
%ADD24R,1.050000X1.500000*%
%TD*%
%TA.AperFunction,ComponentPad*%
%ADD25O,1.050000X1.500000*%
%TD*%
%TA.AperFunction,ViaPad*%
%ADD26C,0.600000*%
%TD*%
%TA.AperFunction,Conductor*%
%ADD27C,0.250000*%
%TD*%
%TA.AperFunction,Conductor*%
%ADD28C,0.500000*%
%TD*%
%TA.AperFunction,Conductor*%
%ADD29C,0.300000*%
%TD*%
G04 APERTURE END LIST*
D10*
%TO.P,R8_NTC1,1*%
%TO.N,Net-(NTC_Head1-Pin_1)*%
X146290000Y-71730000D03*
%TO.P,R8_NTC1,2*%
%TO.N,Net-(U1-EN)*%
X156450000Y-71730000D03*
%TD*%
D11*
%TO.P,U_LM317,1,ADJ_1*%
%TO.N,Net-(U_LM317-ADJ)*%
X174000000Y-116080000D03*
D12*
%TO.P,U_LM317,2,VO_2*%
%TO.N,Net-(D_LM1-A)*%
X174000000Y-113540000D03*
%TO.P,U_LM317,3,VI_3*%
%TO.N,Net-(D1-K)*%
X174000000Y-111000000D03*
%TD*%
D10*
%TO.P,R_TM2,1*%
%TO.N,GND*%
X162290000Y-71730000D03*
%TO.P,R_TM2,2*%
%TO.N,Net-(U2-TM)*%
X172450000Y-71730000D03*
%TD*%
%TO.P,R4_Rfb_dwn1,1*%
%TO.N,Net-(U1-FB)*%
X189340000Y-93000000D03*
%TO.P,R4_Rfb_dwn1,2*%
%TO.N,GND*%
X199500000Y-93000000D03*
%TD*%
%TO.P,R_CC1,1*%
%TO.N,Net-(Q1_PNP1-B)*%
X209450000Y-72730000D03*
%TO.P,R_CC1,2*%
%TO.N,Net-(U2-CC)*%
X219610000Y-72730000D03*
%TD*%
D13*
%TO.P,D_LM1,1,K_1*%
%TO.N,Net-(D1-K)*%
X172840000Y-93000000D03*
D14*
%TO.P,D_LM1,2,A_2*%
%TO.N,Net-(D_LM1-A)*%
X183000000Y-93000000D03*
%TD*%
D15*
%TO.P,D1,1,K_1*%
%TO.N,Net-(D1-K)*%
X183500000Y-119160000D03*
D14*
%TO.P,D1,2,A_2*%
%TO.N,Net-(D1-A)*%
X183500000Y-109000000D03*
%TD*%
D16*
%TO.P,J2,SH,SHIELD_SH*%
%TO.N,GND*%
X211320000Y-110700000D03*
D17*
X215500000Y-110700000D03*
D16*
X211320000Y-102060000D03*
D17*
X215500000Y-102060000D03*
%TD*%
D10*
%TO.P,R2_CC2,1*%
%TO.N,Net-(J2-CC2)*%
X155340000Y-98500000D03*
%TO.P,R2_CC2,2*%
%TO.N,GND*%
X165500000Y-98500000D03*
%TD*%
%TO.P,R9_INH1,1*%
%TO.N,Net-(U2-INH)*%
X209790000Y-81730000D03*
%TO.P,R9_INH1,2*%
%TO.N,GND*%
X219950000Y-81730000D03*
%TD*%
D18*
%TO.P,Dsub1,1,1_1*%
%TO.N,Net-(Q1_PNP1-C)*%
X135340000Y-85885000D03*
%TO.P,Dsub1,2,2_2*%
%TO.N,GND*%
X135340000Y-88655000D03*
%TO.P,Dsub1,3,3_3*%
%TO.N,unconnected-(Dsub1-Pad3)*%
X135340000Y-91424999D03*
%TO.P,Dsub1,4,4_4*%
%TO.N,unconnected-(Dsub1-Pad4)*%
X135340000Y-94194999D03*
%TO.P,Dsub1,5,5_5*%
%TO.N,unconnected-(Dsub1-Pad5)*%
X135340000Y-96964999D03*
%TO.P,Dsub1,6,6_6*%
%TO.N,unconnected-(Dsub1-Pad6)*%
X135340000Y-99734998D03*
%TO.P,Dsub1,7,7_7*%
%TO.N,unconnected-(Dsub1-Pad7)*%
X135340000Y-102504998D03*
%TO.P,Dsub1,8,8_8*%
%TO.N,unconnected-(Dsub1-Pad8)*%
X132500001Y-84500002D03*
%TO.P,Dsub1,9,P9_9*%
%TO.N,unconnected-(Dsub1-P9-Pad9)*%
X132500001Y-87270001D03*
%TO.P,Dsub1,10,P10_10*%
%TO.N,unconnected-(Dsub1-P10-Pad10)*%
X132500001Y-90040001D03*
%TO.P,Dsub1,11,P111_11*%
%TO.N,unconnected-(Dsub1-P111-Pad11)*%
X132500001Y-92810000D03*
%TO.P,Dsub1,12,P12_12*%
%TO.N,unconnected-(Dsub1-P12-Pad12)*%
X132500001Y-95580000D03*
%TO.P,Dsub1,13,P13_13*%
%TO.N,unconnected-(Dsub1-P13-Pad13)*%
X132500001Y-98350000D03*
%TO.P,Dsub1,14,P14_14*%
%TO.N,unconnected-(Dsub1-P14-Pad14)*%
X132500001Y-101119999D03*
%TO.P,Dsub1,15,P15_15*%
%TO.N,unconnected-(Dsub1-P15-Pad15)*%
X132500001Y-103889999D03*
%TD*%
D19*
%TO.P,L1,1*%
%TO.N,Net-(D1-A)*%
X192000000Y-116620000D03*
%TO.P,L1,2*%
%TO.N,Net-(U1-EN)*%
X192000000Y-101380000D03*
%TD*%
D10*
%TO.P,R_TM1,1*%
%TO.N,Net-(U1-EN)*%
X162290000Y-81230000D03*
%TO.P,R_TM1,2*%
%TO.N,Net-(U2-TM)*%
X172450000Y-81230000D03*
%TD*%
%TO.P,R7_bottom1,1*%
%TO.N,Net-(U2-BAT)*%
X145790000Y-81230000D03*
%TO.P,R7_bottom1,2*%
%TO.N,GND*%
X155950000Y-81230000D03*
%TD*%
%TO.P,R_SNS1,1*%
%TO.N,Net-(U_LM317-ADJ)*%
X157500000Y-118000000D03*
%TO.P,R_SNS1,2*%
%TO.N,Net-(D_LM1-A)*%
X147340000Y-118000000D03*
%TD*%
D20*
%TO.P,NTC_Head1,1,Pin_1_1*%
%TO.N,Net-(NTC_Head1-Pin_1)*%
X148500000Y-93225000D03*
D21*
%TO.P,NTC_Head1,2,Pin_2_2*%
%TO.N,GND*%
X148500000Y-95765000D03*
%TD*%
D10*
%TO.P,R1_CC1,1*%
%TO.N,GND*%
X155340000Y-90000000D03*
%TO.P,R1_CC1,2*%
%TO.N,Net-(J2-CC1)*%
X165500000Y-90000000D03*
%TD*%
D22*
%TO.P,D2_LED1,1,K_1*%
%TO.N,Net-(D2_LED1-K)*%
X198410000Y-71230000D03*
D23*
%TO.P,D2_LED1,2,A_2*%
%TO.N,Net-(D2_LED1-A)*%
X200950000Y-71230000D03*
%TD*%
D24*
%TO.P,Q1_PNP1,1,C_1*%
%TO.N,Net-(Q1_PNP1-C)*%
X150460000Y-109000000D03*
D25*
%TO.P,Q1_PNP1,2,B_2*%
%TO.N,Net-(Q1_PNP1-B)*%
X151730000Y-109000000D03*
%TO.P,Q1_PNP1,3,E_3*%
%TO.N,Net-(D_LM1-A)*%
X153000000Y-109000000D03*
%TD*%
D10*
%TO.P,R5_LED1,1*%
%TO.N,Net-(D2_LED1-A)*%
X194450000Y-81230000D03*
%TO.P,R5_LED1,2*%
%TO.N,Net-(U1-EN)*%
X204610000Y-81230000D03*
%TD*%
%TO.P,R6_top1,1*%
%TO.N,Net-(Q1_PNP1-C)*%
X179290000Y-71730000D03*
%TO.P,R6_top1,2*%
%TO.N,Net-(U2-BAT)*%
X189450000Y-71730000D03*
%TD*%
%TO.P,R3_Rfb_up1,1*%
%TO.N,Net-(D1-K)*%
X204340000Y-93000000D03*
%TO.P,R3_Rfb_up1,2*%
%TO.N,Net-(U1-FB)*%
X214500000Y-93000000D03*
%TD*%
D26*
%TO.N,Net-(NTC_Head1-Pin_1)*%
X183882400Y-82341900D03*
%TO.N,Net-(U1-FB)*%
X202132100Y-110825100D03*
%TO.N,Net-(D2_LED1-K)*%
X183984900Y-78104200D03*
%TO.N,Net-(J2-CC1)*%
X209108200Y-107762400D03*
%TO.N,Net-(J2-CC2)*%
X206892400Y-108209300D03*
%TD*%
%TO.N,Net-(NTC_Head1-Pin_1)*%
D27*
X181598600Y-80058100D02*
X183882400Y-82341900D01*
X149676700Y-93225000D02*
X149676700Y-92195400D01*
X148500000Y-93225000D02*
X149676700Y-93225000D01*
X149676700Y-92195400D02*
X161814000Y-80058100D01*
X161814000Y-80058100D02*
X181598600Y-80058100D01*
%TO.N,Net-(U1-EN)*%
D28*
X164874900Y-83814900D02*
X181974900Y-83814900D01*
X162290000Y-81230000D02*
X164874900Y-83814900D01*
X192000000Y-101380000D02*
X192000000Y-93840000D01*
X181974900Y-83814900D02*
X192000000Y-93840000D01*
X192000000Y-93840000D02*
X204610000Y-81230000D01*
%TO.N,Net-(D1-K)*%
D29*
X172840000Y-108535800D02*
X174000000Y-109695800D01*
X172840000Y-93000000D02*
X172840000Y-108535800D01*
X174000000Y-111000000D02*
X174000000Y-109695800D01*
%TO.N,Net-(U1-FB)*%
D27*
X214500000Y-93000000D02*
X213687300Y-93812700D01*
X206944000Y-110825100D02*
X202132100Y-110825100D01*
X213687300Y-104081800D02*
X206944000Y-110825100D01*
X213687300Y-93812700D02*
X213687300Y-104081800D01*
%TO.N,GND*%
X208560000Y-102060000D02*
X211320000Y-102060000D01*
X165500000Y-98500000D02*
X163840000Y-98500000D01*
X135340000Y-88655000D02*
X141390000Y-88655000D01*
X141390000Y-88655000D02*
X148500000Y-95765000D01*
X215500000Y-110700000D02*
X215500000Y-102060000D01*
X163840000Y-98500000D02*
X155340000Y-90000000D01*
X199500000Y-93000000D02*
X208560000Y-102060000D01*
%TO.N,Net-(D2_LED1-K)*%
X197183300Y-71230000D02*
X190309100Y-78104200D01*
X190309100Y-78104200D02*
X183984900Y-78104200D01*
X198410000Y-71230000D02*
X197183300Y-71230000D01*
%TO.N,Net-(U2-BAT)*%
X182145400Y-79034600D02*
X147985400Y-79034600D01*
X147985400Y-79034600D02*
X145790000Y-81230000D01*
X189450000Y-71730000D02*
X182145400Y-79034600D01*
%TO.N,Net-(J2-CC1)*%
X177167200Y-90000000D02*
X194749800Y-107582600D01*
X194749800Y-107582600D02*
X208928400Y-107582600D01*
X208928400Y-107582600D02*
X209108200Y-107762400D01*
X165500000Y-90000000D02*
X177167200Y-90000000D01*
%TO.N,Net-(J2-CC2)*%
X155340000Y-98500000D02*
X155340000Y-99882500D01*
X172816700Y-117359200D02*
X188670600Y-117359200D01*
X197820500Y-108209300D02*
X206892400Y-108209300D01*
X155340000Y-99882500D02*
X172816700Y-117359200D01*
X188670600Y-117359200D02*
X197820500Y-108209300D01*
%TO.N,Net-(D2_LED1-A)*%
X200950000Y-71230000D02*
X200950000Y-74730000D01*
X200950000Y-74730000D02*
X194450000Y-81230000D01*
%TD*%
%TA.AperFunction,Conductor*%
%TO.N,GND*%
G36*
X222442539Y-59520185D02*
G01*
X222488294Y-59572989D01*
X222499500Y-59624500D01*
X222499500Y-128875500D01*
X222479815Y-128942539D01*
X222427011Y-128988294D01*
X222375500Y-128999500D01*
X123624500Y-128999500D01*
X123557461Y-128979815D01*
X123511706Y-128927011D01*
X123500500Y-128875500D01*
X123500500Y-124881902D01*
X127499500Y-124881902D01*
X127499500Y-125118097D01*
X127536446Y-125351368D01*
X127609433Y-125575996D01*
X127716657Y-125786433D01*
X127855483Y-125977510D01*
X128022490Y-126144517D01*
X128213567Y-126283343D01*
X128312991Y-126334002D01*
X128424003Y-126390566D01*
X128424005Y-126390566D01*
X128424008Y-126390568D01*
X128544412Y-126429689D01*
X128648631Y-126463553D01*
X128881903Y-126500500D01*
X128881908Y-126500500D01*
X129118097Y-126500500D01*
X129351368Y-126463553D01*
X129575992Y-126390568D01*
X129786433Y-126283343D01*
X129977510Y-126144517D01*
X130144517Y-125977510D01*
X130283343Y-125786433D01*
X130390568Y-125575992D01*
X130463553Y-125351368D01*
X130496315Y-125144517D01*
X130500500Y-125118097D01*
X130500500Y-124881902D01*
X130463553Y-124648631D01*
X130390566Y-124424003D01*
X130283342Y-124213566D01*
X130144517Y-124022490D01*
X130003929Y-123881902D01*
X213499500Y-123881902D01*
X213499500Y-124118097D01*
X213536446Y-124351368D01*
X213609433Y-124575996D01*
X213716657Y-124786433D01*
X213855483Y-124977510D01*
X214022490Y-125144517D01*
X214213567Y-125283343D01*
X214312991Y-125334002D01*
X214424003Y-125390566D01*
X214424005Y-125390566D01*
X214424008Y-125390568D01*
X214544412Y-125429689D01*
X214648631Y-125463553D01*
X214881903Y-125500500D01*
X214881908Y-125500500D01*
X215118097Y-125500500D01*
X215351368Y-125463553D01*
X215575992Y-125390568D01*
X215786433Y-125283343D01*
X215977510Y-125144517D01*
X216144517Y-124977510D01*
X216283343Y-124786433D01*
X216390568Y-124575992D01*
X216463553Y-124351368D01*
X216500500Y-124118097D01*
X216500500Y-123881902D01*
X216463553Y-123648631D01*
X216390566Y-123424003D01*
X216283342Y-123213566D01*
X216144517Y-123022490D01*
X215977510Y-122855483D01*
X215786433Y-122716657D01*
X215575996Y-122609433D01*
X215351368Y-122536446D01*
X215118097Y-122499500D01*
X215118092Y-122499500D01*
X214881908Y-122499500D01*
X214881903Y-122499500D01*
X214648631Y-122536446D01*
X214424003Y-122609433D01*
X214213566Y-122716657D01*
X214104550Y-122795862D01*
X214022490Y-122855483D01*
X214022488Y-122855485D01*
X214022487Y-122855485D01*
X213855485Y-123022487D01*
X213855485Y-123022488D01*
X213855483Y-123022490D01*
X213795862Y-123104550D01*
X213716657Y-123213566D01*
X213609433Y-123424003D01*
X213536446Y-123648631D01*
X213499500Y-123881902D01*
X130003929Y-123881902D01*
X129977510Y-123855483D01*
X129786433Y-123716657D01*
X129575996Y-123609433D01*
X129351368Y-123536446D01*
X129118097Y-123499500D01*
X129118092Y-123499500D01*
X128881908Y-123499500D01*
X128881903Y-123499500D01*
X128648631Y-123536446D01*
X128424003Y-123609433D01*
X128213566Y-123716657D01*
X128104550Y-123795862D01*
X128022490Y-123855483D01*
X128022488Y-123855485D01*
X128022487Y-123855485D01*
X127855485Y-124022487D01*
X127855485Y-124022488D01*
X127855483Y-124022490D01*
X127795862Y-124104550D01*
X127716657Y-124213566D01*
X127609433Y-124424003D01*
X127536446Y-124648631D01*
X127499500Y-124881902D01*
X123500500Y-124881902D01*
X123500500Y-117897648D01*
X146039500Y-117897648D01*
X146039500Y-118102352D01*
X146043878Y-118129995D01*
X146071522Y-118304534D01*
X146134781Y-118499223D01*
X146227715Y-118681613D01*
X146348028Y-118847213D01*
X146492786Y-118991971D01*
X146647749Y-119104556D01*
X146658390Y-119112287D01*
X146774607Y-119171503D01*
X146840776Y-119205218D01*
X146840778Y-119205218D01*
X146840781Y-119205220D01*
X146945137Y-119239127D01*
X147035465Y-119268477D01*
X147136557Y-119284488D01*
X147237648Y-119300500D01*
X147237649Y-119300500D01*
X147442351Y-119300500D01*
X147442352Y-119300500D01*
X147644534Y-119268477D01*
X147839219Y-119205220D01*
X148021610Y-119112287D01*
X148114590Y-119044732D01*
X148187213Y-118991971D01*
X148187215Y-118991968D01*
X148187219Y-118991966D01*
X148331966Y-118847219D01*
X148331968Y-118847215D01*
X148331971Y-118847213D01*
X148384732Y-118774590D01*
X148452287Y-118681610D01*
X148545220Y-118499219D01*
X148608477Y-118304534D01*
X148640500Y-118102352D01*
X148640500Y-117897648D01*
X156199500Y-117897648D01*
X156199500Y-118102352D01*
X156203878Y-118129995D01*
X156231522Y-118304534D01*
X156294781Y-118499223D01*
X156387715Y-118681613D01*
X156508028Y-118847213D01*
X156652786Y-118991971D01*
X156807749Y-119104556D01*
X156818390Y-119112287D01*
X156934607Y-119171503D01*
X157000776Y-119205218D01*
X157000778Y-119205218D01*
X157000781Y-119205220D01*
X157105137Y-119239127D01*
X157195465Y-119268477D01*
X157296557Y-119284488D01*
X157397648Y-119300500D01*
X157397649Y-119300500D01*
X157602351Y-119300500D01*
X157602352Y-119300500D01*
X157804534Y-119268477D01*
X157999219Y-119205220D01*
X158181610Y-119112287D01*
X158274590Y-119044732D01*
X158347213Y-118991971D01*
X158347215Y-118991968D01*
X158347219Y-118991966D01*
X158491966Y-118847219D01*
X158491968Y-118847215D01*
X158491971Y-118847213D01*
X158544732Y-118774590D01*
X158612287Y-118681610D01*
X158705220Y-118499219D01*
X158768477Y-118304534D01*
X158800500Y-118102352D01*
X158800500Y-117897648D01*
X158778371Y-117757933D01*
X158768477Y-117695465D01*
X158705218Y-117500776D01*
X158657147Y-117406433D01*
X158612287Y-117318390D01*
X158604556Y-117307749D01*
X158491971Y-117152786D01*
X158347213Y-117008028D01*
X158181613Y-116887715D01*
X158181612Y-116887714D01*
X158181610Y-116887713D01*
X158124653Y-116858691D01*
X157999223Y-116794781D01*
X157804534Y-116731522D01*
X157629995Y-116703878D01*
X157602352Y-116699500D01*
X157397648Y-116699500D01*
X157373329Y-116703351D01*
X157195465Y-116731522D01*
X157000776Y-116794781D01*
X156818386Y-116887715D01*
X156652786Y-117008028D01*
X156508028Y-117152786D01*
X156387715Y-117318386D01*
X156294781Y-117500776D01*
X156231522Y-117695465D01*
X156202409Y-117879284D01*
X156199500Y-117897648D01*
X148640500Y-117897648D01*
X148618371Y-117757933D01*
X148608477Y-117695465D01*
X148545218Y-117500776D01*
X148497147Y-117406433D01*
X148452287Y-117318390D01*
X148444556Y-117307749D01*
X148331971Y-117152786D01*
X148187213Y-117008028D01*
X148021613Y-116887715D01*
X148021612Y-116887714D01*
X148021610Y-116887713D01*
X147964653Y-116858691D01*
X147839223Y-116794781D01*
X147644534Y-116731522D01*
X147469995Y-116703878D01*
X147442352Y-116699500D01*
X147237648Y-116699500D01*
X147213329Y-116703351D01*
X147035465Y-116731522D01*
X146840776Y-116794781D01*
X146658386Y-116887715D01*
X146492786Y-117008028D01*
X146348028Y-117152786D01*
X146227715Y-117318386D01*
X146134781Y-117500776D01*
X146071522Y-117695465D01*
X146042409Y-117879284D01*
X146039500Y-117897648D01*
X123500500Y-117897648D01*
X123500500Y-108202135D01*
X149434500Y-108202135D01*
X149434500Y-109797870D01*
X149434501Y-109797876D01*
X149440908Y-109857483D01*
X149491202Y-109992328D01*
X149491206Y-109992335D01*
X149577452Y-110107544D01*
X149577455Y-110107547D01*
X149692664Y-110193793D01*
X149692671Y-110193797D01*
X149827517Y-110244091D01*
X149827516Y-110244091D01*
X149834444Y-110244835D01*
X149887127Y-110250500D01*
X151032872Y-110250499D01*
X151092483Y-110244091D01*
X151227331Y-110193796D01*
X151228430Y-110192972D01*
X151229717Y-110192492D01*
X151235112Y-110189547D01*
X151235535Y-110190322D01*
X151293887Y-110168552D01*
X151350198Y-110177673D01*
X151430873Y-110211091D01*
X151596777Y-110244091D01*
X151628992Y-110250499D01*
X151628996Y-110250500D01*
X151628997Y-110250500D01*
X151831004Y-110250500D01*
X151831005Y-110250499D01*
X152029127Y-110211091D01*
X152215756Y-110133786D01*
X152296110Y-110080094D01*
X152362786Y-110059217D01*
X152430166Y-110077701D01*
X152433865Y-110080078D01*
X152514244Y-110133786D01*
X152700873Y-110211091D01*
X152866777Y-110244091D01*
X152898992Y-110250499D01*
X152898996Y-110250500D01*
X152898997Y-110250500D01*
X153101004Y-110250500D01*
X153101005Y-110250499D01*
X153299127Y-110211091D01*
X153485756Y-110133786D01*
X153653718Y-110021558D01*
X153796558Y-109878718D01*
X153908786Y-109710756D01*
X153986091Y-109524127D01*
X154025500Y-109326003D01*
X154025500Y-108673997D01*
X153986091Y-108475873D01*
X153908786Y-108289244D01*
X153908784Y-108289241D01*
X153908782Y-108289237D01*
X153796558Y-108121281D01*
X153653718Y-107978441D01*
X153485762Y-107866217D01*
X153485752Y-107866212D01*
X153299127Y-107788909D01*
X153299119Y-107788907D01*
X153101007Y-107749500D01*
X153101003Y-107749500D01*
X152898997Y-107749500D01*
X152898992Y-107749500D01*
X152700880Y-107788907D01*
X152700872Y-107788909D01*
X152514244Y-107866213D01*
X152433891Y-107919904D01*
X152367213Y-107940782D01*
X152299833Y-107922297D01*
X152296109Y-107919904D01*
X152215755Y-107866213D01*
X152029127Y-107788909D01*
X152029119Y-107788907D01*
X151831007Y-107749500D01*
X151831003Y-107749500D01*
X151628997Y-107749500D01*
X151628992Y-107749500D01*
X151430880Y-107788907D01*
X151430868Y-107788910D01*
X151350198Y-107822325D01*
X151280729Y-107829794D01*
X151235342Y-107810036D01*
X151235114Y-107810454D01*
X151230447Y-107807905D01*
X151228432Y-107807028D01*
X151227331Y-107806204D01*
X151227330Y-107806203D01*
X151227328Y-107806202D01*
X151092482Y-107755908D01*
X151092483Y-107755908D01*
X151032883Y-107749501D01*
X151032881Y-107749500D01*
X151032873Y-107749500D01*
X151032864Y-107749500D01*
X149887129Y-107749500D01*
X149887123Y-107749501D01*
X149827516Y-107755908D01*
X149692671Y-107806202D01*
X149692664Y-107806206D01*
X149577455Y-107892452D01*
X149577452Y-107892455D01*
X149491206Y-108007664D01*
X149491202Y-108007671D01*
X149440908Y-108142517D01*
X149434501Y-108202116D01*
X149434500Y-108202135D01*
X123500500Y-108202135D01*
X123500500Y-103791632D01*
X131250201Y-103791632D01*
X131250201Y-103988365D01*
X131280974Y-104182661D01*
X131341767Y-104369760D01*
X131431076Y-104545037D01*
X131546707Y-104704189D01*
X131685811Y-104843293D01*
X131844963Y-104958924D01*
X131927775Y-105001119D01*
X132020239Y-105048232D01*
X132020241Y-105048232D01*
X132020244Y-105048234D01*
X132120531Y-105080819D01*
X132207338Y-105109025D01*
X132401635Y-105139799D01*
X132401640Y-105139799D01*
X132598367Y-105139799D01*
X132792663Y-105109025D01*
X132979758Y-105048234D01*
X133155039Y-104958924D01*
X133314191Y-104843293D01*
X133453295Y-104704189D01*
X133568926Y-104545037D01*
X133658236Y-104369756D01*
X133719027Y-104182661D01*
X133725244Y-104143406D01*
X133749801Y-103988365D01*
X133749801Y-103791632D01*
X133719027Y-103597336D01*
X133673847Y-103458289D01*
X133658236Y-103410242D01*
X133658234Y-103410239D01*
X133658234Y-103410237D01*
X133568925Y-103234960D01*
X133453295Y-103075809D01*
X133314191Y-102936705D01*
X133155039Y-102821074D01*
X132979762Y-102731765D01*
X132792663Y-102670972D01*
X132598367Y-102640199D01*
X132598362Y-102640199D01*
X132401640Y-102640199D01*
X132401635Y-102640199D01*
X132207338Y-102670972D01*
X132020239Y-102731765D01*
X131844962Y-102821074D01*
X131763170Y-102880500D01*
X131685811Y-102936705D01*
X131685809Y-102936707D01*
X131685808Y-102936707D01*
X131546709Y-103075806D01*
X131546709Y-103075807D01*
X131546707Y-103075809D01*
X131508552Y-103128325D01*
X131431076Y-103234960D01*
X131341767Y-103410237D01*
X131280974Y-103597336D01*
X131250201Y-103791632D01*
X123500500Y-103791632D01*
X123500500Y-102406631D01*
X134090200Y-102406631D01*
X134090200Y-102603364D01*
X134120973Y-102797660D01*
X134181766Y-102984759D01*
X134271075Y-103160036D01*
X134386706Y-103319188D01*
X134525810Y-103458292D01*
X134684962Y-103573923D01*
X134730913Y-103597336D01*
X134860238Y-103663231D01*
X134860240Y-103663231D01*
X134860243Y-103663233D01*
X134960530Y-103695818D01*
X135047337Y-103724024D01*
X135241634Y-103754798D01*
X135241639Y-103754798D01*
X135438366Y-103754798D01*
X135632662Y-103724024D01*
X135669252Y-103712135D01*
X135819757Y-103663233D01*
X135995038Y-103573923D01*
X136154190Y-103458292D01*
X136293294Y-103319188D01*
X136408925Y-103160036D01*
X136498235Y-102984755D01*
X136559026Y-102797660D01*
X136574896Y-102697462D01*
X136589800Y-102603364D01*
X136589800Y-102406631D01*
X136559026Y-102212335D01*
X136498233Y-102025236D01*
X136451120Y-101932772D01*
X136408925Y-101849960D01*
X136293294Y-101690808D01*
X136154190Y-101551704D01*
X135995038Y-101436073D01*
X135968472Y-101422537D01*
X135819761Y-101346764D01*
X135632662Y-101285971D01*
X135438366Y-101255198D01*
X135438361Y-101255198D01*
X135241639Y-101255198D01*
X135241634Y-101255198D01*
X135047337Y-101285971D01*
X134860238Y-101346764D01*
X134684961Y-101436073D01*
X134594159Y-101502045D01*
X134525810Y-101551704D01*
X134525808Y-101551706D01*
X134525807Y-101551706D01*
X134386708Y-101690805D01*
X134386708Y-101690806D01*
X134386706Y-101690808D01*
X134345012Y-101748195D01*
X134271075Y-101849959D01*
X134181766Y-102025236D01*
X134120973Y-102212335D01*
X134090200Y-102406631D01*
X123500500Y-102406631D01*
X123500500Y-101021632D01*
X131250201Y-101021632D01*
X131250201Y-101218365D01*
X131280974Y-101412661D01*
X131341767Y-101599760D01*
X131417399Y-101748195D01*
X131431076Y-101775037D01*
X131546707Y-101934189D01*
X131685811Y-102073293D01*
X131844963Y-102188924D01*
X131890910Y-102212335D01*
X132020239Y-102278232D01*
X132020241Y-102278232D01*
X132020244Y-102278234D01*
X132118009Y-102310000D01*
X132207338Y-102339025D01*
X132401635Y-102369799D01*
X132401640Y-102369799D01*
X132598367Y-102369799D01*
X132792663Y-102339025D01*
X132979758Y-102278234D01*
X133155039Y-102188924D01*
X133314191Y-102073293D01*
X133453295Y-101934189D01*
X133568926Y-101775037D01*
X133658236Y-101599756D01*
X133719027Y-101412661D01*
X133729464Y-101346763D01*
X133749801Y-101218365D01*
X133749801Y-101021632D01*
X133719027Y-100827336D01*
X133658234Y-100640237D01*
X133568925Y-100464960D01*
X133453295Y-100305809D01*
X133314191Y-100166705D01*
X133155039Y-100051074D01*
X132979762Y-99961765D01*
X132792663Y-99900972D01*
X132598367Y-99870199D01*
X132598362Y-99870199D01*
X132401640Y-99870199D01*
X132401635Y-99870199D01*
X132207338Y-99900972D01*
X132020239Y-99961765D01*
X131844962Y-100051074D01*
X131767043Y-100107686D01*
X131685811Y-100166705D01*
X131685809Y-100166707D01*
X131685808Y-100166707D01*
X131546709Y-100305806D01*
X131546709Y-100305807D01*
X131546707Y-100305809D01*
X131501262Y-100368358D01*
X131431076Y-100464960D01*
X131341767Y-100640237D01*
X131280974Y-100827336D01*
X131250201Y-101021632D01*
X123500500Y-101021632D01*
X123500500Y-99636631D01*
X134090200Y-99636631D01*
X134090200Y-99833364D01*
X134120973Y-100027660D01*
X134181766Y-100214759D01*
X134263742Y-100375644D01*
X134271075Y-100390036D01*
X134386706Y-100549188D01*
X134525810Y-100688292D01*
X134684962Y-100803923D01*
X134730913Y-100827336D01*
X134860238Y-100893231D01*
X134860240Y-100893231D01*
X134860243Y-100893233D01*
X134960530Y-100925818D01*
X135047337Y-100954024D01*
X135241634Y-100984798D01*
X135241639Y-100984798D01*
X135438366Y-100984798D01*
X135632662Y-100954024D01*
X135819757Y-100893233D01*
X135995038Y-100803923D01*
X136154190Y-100688292D01*
X136293294Y-100549188D01*
X136408925Y-100390036D01*
X136498235Y-100214755D01*
X136559026Y-100027660D01*
X136572259Y-99944111D01*
X136589800Y-99833364D01*
X136589800Y-99636631D01*
X136559026Y-99442335D01*
X136498233Y-99255236D01*
X136408924Y-99079959D01*
X136293294Y-98920808D01*
X136154190Y-98781704D01*
X135995038Y-98666073D01*
X135972117Y-98654394D01*
X135819761Y-98576764D01*
X135632662Y-98515972D01*
X135628098Y-98515249D01*
X135438366Y-98485198D01*
X135438361Y-98485198D01*
X135241639Y-98485198D01*
X135241634Y-98485198D01*
X135047337Y-98515971D01*
X134860238Y-98576764D01*
X134684961Y-98666073D01*
X134594159Y-98732045D01*
X134525810Y-98781704D01*
X134525808Y-98781706D01*
X134525807Y-98781706D01*
X134386708Y-98920805D01*
X134386708Y-98920806D01*
X134386706Y-98920808D01*
X134337047Y-98989157D01*
X134271075Y-99079959D01*
X134181766Y-99255236D01*
X134120973Y-99442335D01*
X134090200Y-99636631D01*
X123500500Y-99636631D01*
X123500500Y-98251633D01*
X131250201Y-98251633D01*
X131250201Y-98448366D01*
X131280974Y-98642662D01*
X131341767Y-98829761D01*
X131428015Y-98999031D01*
X131431076Y-99005038D01*
X131546707Y-99164190D01*
X131685811Y-99303294D01*
X131844963Y-99418925D01*
X131890908Y-99442335D01*
X132020239Y-99508233D01*
X132020241Y-99508233D01*
X132020244Y-99508235D01*
X132120531Y-99540820D01*
X132207338Y-99569026D01*
X132401635Y-99599800D01*
X132401640Y-99599800D01*
X132598367Y-99599800D01*
X132792663Y-99569026D01*
X132820568Y-99559959D01*
X132979758Y-99508235D01*
X133155039Y-99418925D01*
X133314191Y-99303294D01*
X133453295Y-99164190D01*
X133568926Y-99005038D01*
X133658236Y-98829757D01*
X133719027Y-98642662D01*
X133749801Y-98448366D01*
X133749801Y-98397648D01*
X154039500Y-98397648D01*
X154039500Y-98602351D01*
X154071522Y-98804534D01*
X154134781Y-98999223D01*
X154198691Y-99124653D01*
X154227585Y-99181359D01*
X154227715Y-99181613D01*
X154348028Y-99347213D01*
X154348034Y-99347219D01*
X154492781Y-99491966D01*
X154658390Y-99612287D01*
X154658394Y-99612289D01*
X154662332Y-99615150D01*
X154661111Y-99616829D01*
X154702155Y-99662177D01*
X154714500Y-99716114D01*
X154714500Y-99944111D01*
X154738535Y-100064944D01*
X154738540Y-100064961D01*
X154785685Y-100178780D01*
X154785687Y-100178783D01*
X154785688Y-100178786D01*
X154819915Y-100230009D01*
X154854142Y-100281233D01*
X154941267Y-100368358D01*
X154941270Y-100368360D01*
X154948554Y-100375644D01*
X172327716Y-117754806D01*
X172327745Y-117754837D01*
X172417963Y-117845055D01*
X172417967Y-117845058D01*
X172520407Y-117913507D01*
X172520411Y-117913509D01*
X172520414Y-117913511D01*
X172634248Y-117960663D01*
X172694671Y-117972681D01*
X172755093Y-117984700D01*
X172755094Y-117984700D01*
X181795443Y-117984700D01*
X181862482Y-118004385D01*
X181908237Y-118057189D01*
X181918181Y-118126347D01*
X181913148Y-118147706D01*
X181910001Y-118157201D01*
X181910000Y-118157203D01*
X181899500Y-118259982D01*
X181899500Y-120060017D01*
X181910000Y-120162796D01*
X181910001Y-120162798D01*
X181965186Y-120329335D01*
X182057288Y-120478656D01*
X182181344Y-120602712D01*
X182330665Y-120694814D01*
X182497202Y-120749999D01*
X182599990Y-120760500D01*
X182599995Y-120760500D01*
X184400005Y-120760500D01*
X184400010Y-120760500D01*
X184502798Y-120749999D01*
X184669335Y-120694814D01*
X184818656Y-120602712D01*
X184942712Y-120478656D01*
X185034814Y-120329335D01*
X185089999Y-120162798D01*
X185100500Y-120060010D01*
X185100500Y-118259990D01*
X185089999Y-118157202D01*
X185086851Y-118147704D01*
X185084449Y-118077878D01*
X185120179Y-118017835D01*
X185182699Y-117986642D01*
X185204557Y-117984700D01*
X188732207Y-117984700D01*
X188792629Y-117972681D01*
X188853052Y-117960663D01*
X188886392Y-117946852D01*
X188966886Y-117913512D01*
X189018109Y-117879284D01*
X189069333Y-117845058D01*
X189156458Y-117757933D01*
X189156458Y-117757931D01*
X189166666Y-117747724D01*
X189166668Y-117747721D01*
X190287819Y-116626570D01*
X190349142Y-116593085D01*
X190418834Y-116598069D01*
X190474767Y-116639941D01*
X190499184Y-116705405D01*
X190499500Y-116714251D01*
X190499500Y-116738097D01*
X190536446Y-116971368D01*
X190609433Y-117195996D01*
X190716657Y-117406433D01*
X190855483Y-117597510D01*
X191022490Y-117764517D01*
X191213567Y-117903343D01*
X191293416Y-117944028D01*
X191424003Y-118010566D01*
X191424005Y-118010566D01*
X191424008Y-118010568D01*
X191544412Y-118049689D01*
X191648631Y-118083553D01*
X191881903Y-118120500D01*
X191881908Y-118120500D01*
X192118097Y-118120500D01*
X192351368Y-118083553D01*
X192368834Y-118077878D01*
X192575992Y-118010568D01*
X192786433Y-117903343D01*
X192977510Y-117764517D01*
X193144517Y-117597510D01*
X193283343Y-117406433D01*
X193390568Y-117195992D01*
X193463553Y-116971368D01*
X193500500Y-116738097D01*
X193500500Y-116501902D01*
X193463553Y-116268631D01*
X193390566Y-116044003D01*
X193329975Y-115925087D01*
X193283343Y-115833567D01*
X193144517Y-115642490D01*
X192977510Y-115475483D01*
X192786433Y-115336657D01*
X192575996Y-115229433D01*
X192351368Y-115156446D01*
X192118097Y-115119500D01*
X192118092Y-115119500D01*
X192094251Y-115119500D01*
X192027212Y-115099815D01*
X191981457Y-115047011D01*
X191971513Y-114977853D01*
X192000538Y-114914297D01*
X192006570Y-114907819D01*
X193488744Y-113425646D01*
X198043272Y-108871119D01*
X198104595Y-108837634D01*
X198130953Y-108834800D01*
X206350050Y-108834800D01*
X206417089Y-108854485D01*
X206418941Y-108855698D01*
X206513221Y-108918694D01*
X206513223Y-108918695D01*
X206513227Y-108918697D01*
X206658898Y-108979035D01*
X206658903Y-108979037D01*
X206813553Y-109009799D01*
X206813556Y-109009800D01*
X206813558Y-109009800D01*
X206971244Y-109009800D01*
X206971245Y-109009799D01*
X207125897Y-108979037D01*
X207271579Y-108918694D01*
X207402689Y-108831089D01*
X207514189Y-108719589D01*
X207601794Y-108588479D01*
X207662137Y-108442797D01*
X207683501Y-108335394D01*
X207688969Y-108307908D01*
X207721354Y-108245997D01*
X207782070Y-108211423D01*
X207810586Y-108208100D01*
X208376974Y-108208100D01*
X208384969Y-108210447D01*
X208393203Y-108209167D01*
X208417997Y-108220145D01*
X208444013Y-108227785D01*
X208451124Y-108234814D01*
X208457090Y-108237456D01*
X208480509Y-108263861D01*
X208480538Y-108263905D01*
X208500995Y-108330713D01*
X208482085Y-108397975D01*
X208464684Y-108419825D01*
X206721229Y-110163281D01*
X206659906Y-110196766D01*
X206633548Y-110199600D01*
X202674450Y-110199600D01*
X202607411Y-110179915D01*
X202605559Y-110178702D01*
X202511284Y-110115709D01*
X202511272Y-110115702D01*
X202365601Y-110055364D01*
X202365589Y-110055361D01*
X202210945Y-110024600D01*
X202210942Y-110024600D01*
X202053258Y-110024600D01*
X202053255Y-110024600D01*
X201898610Y-110055361D01*
X201898598Y-110055364D01*
X201752927Y-110115702D01*
X201752914Y-110115709D01*
X201621811Y-110203310D01*
X201621807Y-110203313D01*
X201510313Y-110314807D01*
X201510310Y-110314811D01*
X201422709Y-110445914D01*
X201422702Y-110445927D01*
X201362364Y-110591598D01*
X201362361Y-110591610D01*
X201331600Y-110746253D01*
X201331600Y-110903946D01*
X201362361Y-111058589D01*
X201362364Y-111058601D01*
X201422702Y-111204272D01*
X201422709Y-111204285D01*
X201510310Y-111335388D01*
X201510313Y-111335392D01*
X201621807Y-111446886D01*
X201621811Y-111446889D01*
X201752914Y-111534490D01*
X201752927Y-111534497D01*
X201877715Y-111586185D01*
X201898603Y-111594837D01*
X202053253Y-111625599D01*
X202053256Y-111625600D01*
X202053258Y-111625600D01*
X202210944Y-111625600D01*
X202210945Y-111625599D01*
X202365597Y-111594837D01*
X202511279Y-111534494D01*
X202605559Y-111471498D01*
X202672236Y-111450620D01*
X202674450Y-111450600D01*
X207005607Y-111450600D01*
X207066029Y-111438581D01*
X207126452Y-111426563D01*
X207159792Y-111412752D01*
X207240286Y-111379412D01*
X207306169Y-111335389D01*
X207342733Y-111310958D01*
X207429858Y-111223833D01*
X207429859Y-111223831D01*
X207436925Y-111216765D01*
X207436928Y-111216761D01*
X208203689Y-110450000D01*
X209800138Y-110450000D01*
X210603012Y-110450000D01*
X210585795Y-110459940D01*
X210529940Y-110515795D01*
X210490444Y-110584204D01*
X210470000Y-110660504D01*
X210470000Y-110739496D01*
X210490444Y-110815796D01*
X210529940Y-110884205D01*
X210585795Y-110940060D01*
X210603012Y-110950000D01*
X209800138Y-110950000D01*
X209808430Y-110991690D01*
X209808430Y-110991692D01*
X209883807Y-111173671D01*
X209883814Y-111173684D01*
X209993248Y-111337462D01*
X209993251Y-111337466D01*
X210132533Y-111476748D01*
X210132537Y-111476751D01*
X210296315Y-111586185D01*
X210296328Y-111586192D01*
X210478306Y-111661569D01*
X210478318Y-111661572D01*
X210671504Y-111699999D01*
X210671508Y-111700000D01*
X211070000Y-111700000D01*
X211070000Y-111000000D01*
X211570000Y-111000000D01*
X211570000Y-111700000D01*
X211968492Y-111700000D01*
X211968495Y-111699999D01*
X212161681Y-111661572D01*
X212161693Y-111661569D01*
X212343671Y-111586192D01*
X212343684Y-111586185D01*
X212507462Y-111476751D01*
X212507466Y-111476748D01*
X212646748Y-111337466D01*
X212646751Y-111337462D01*
X212756185Y-111173684D01*
X212756192Y-111173671D01*
X212831569Y-110991692D01*
X212831569Y-110991690D01*
X212839862Y-110950000D01*
X212036988Y-110950000D01*
X212054205Y-110940060D01*
X212110060Y-110884205D01*
X212149556Y-110815796D01*
X212170000Y-110739496D01*
X212170000Y-110660504D01*
X212149556Y-110584204D01*
X212110060Y-110515795D01*
X212054205Y-110459940D01*
X212036988Y-110450000D01*
X212839862Y-110450000D01*
X214130138Y-110450000D01*
X214933012Y-110450000D01*
X214915795Y-110459940D01*
X214859940Y-110515795D01*
X214820444Y-110584204D01*
X214800000Y-110660504D01*
X214800000Y-110739496D01*
X214820444Y-110815796D01*
X214859940Y-110884205D01*
X214915795Y-110940060D01*
X214933012Y-110950000D01*
X214130138Y-110950000D01*
X214138430Y-110991690D01*
X214138430Y-110991692D01*
X214213807Y-111173671D01*
X214213814Y-111173684D01*
X214323248Y-111337462D01*
X214323251Y-111337466D01*
X214462533Y-111476748D01*
X214462537Y-111476751D01*
X214626315Y-111586185D01*
X214626328Y-111586192D01*
X214808306Y-111661569D01*
X214808318Y-111661572D01*
X215001504Y-111699999D01*
X215001508Y-111700000D01*
X215250000Y-111700000D01*
X215250000Y-111000000D01*
X215750000Y-111000000D01*
X215750000Y-111700000D01*
X215998492Y-111700000D01*
X215998495Y-111699999D01*
X216191681Y-111661572D01*
X216191693Y-111661569D01*
X216373671Y-111586192D01*
X216373684Y-111586185D01*
X216537462Y-111476751D01*
X216537466Y-111476748D01*
X216676748Y-111337466D01*
X216676751Y-111337462D01*
X216786185Y-111173684D01*
X216786192Y-111173671D01*
X216861569Y-110991692D01*
X216861569Y-110991690D01*
X216869862Y-110950000D01*
X216066988Y-110950000D01*
X216084205Y-110940060D01*
X216140060Y-110884205D01*
X216179556Y-110815796D01*
X216200000Y-110739496D01*
X216200000Y-110660504D01*
X216179556Y-110584204D01*
X216140060Y-110515795D01*
X216084205Y-110459940D01*
X216066988Y-110450000D01*
X216869862Y-110450000D01*
X216861569Y-110408309D01*
X216861569Y-110408307D01*
X216786192Y-110226328D01*
X216786185Y-110226315D01*
X216676751Y-110062537D01*
X216676748Y-110062533D01*
X216537466Y-109923251D01*
X216537462Y-109923248D01*
X216373684Y-109813814D01*
X216373671Y-109813807D01*
X216191693Y-109738430D01*
X216191681Y-109738427D01*
X215998495Y-109700000D01*
X215750000Y-109700000D01*
X215750000Y-110400000D01*
X215250000Y-110400000D01*
X215250000Y-109700000D01*
X215001504Y-109700000D01*
X214808318Y-109738427D01*
X214808306Y-109738430D01*
X214626328Y-109813807D01*
X214626315Y-109813814D01*
X214462537Y-109923248D01*
X214462533Y-109923251D01*
X214323251Y-110062533D01*
X214323248Y-110062537D01*
X214213814Y-110226315D01*
X214213807Y-110226328D01*
X214138430Y-110408307D01*
X214138430Y-110408309D01*
X214130138Y-110450000D01*
X212839862Y-110450000D01*
X212831569Y-110408309D01*
X212831569Y-110408307D01*
X212756192Y-110226328D01*
X212756185Y-110226315D01*
X212646751Y-110062537D01*
X212646748Y-110062533D01*
X212507466Y-109923251D01*
X212507462Y-109923248D01*
X212343684Y-109813814D01*
X212343674Y-109813809D01*
X212334157Y-109809867D01*
X212279754Y-109766026D01*
X212257689Y-109699731D01*
X212274969Y-109632032D01*
X212278648Y-109626597D01*
X212280512Y-109623367D01*
X212280515Y-109623365D01*
X212356281Y-109492135D01*
X212395500Y-109345766D01*
X212395500Y-109194234D01*
X212356281Y-109047865D01*
X212280515Y-108916635D01*
X212173365Y-108809485D01*
X212107750Y-108771602D01*
X212042136Y-108733719D01*
X211968950Y-108714109D01*
X211895766Y-108694500D01*
X211744234Y-108694500D01*
X211597863Y-108733719D01*
X211466635Y-108809485D01*
X211466632Y-108809487D01*
X211359487Y-108916632D01*
X211359485Y-108916635D01*
X211283719Y-109047863D01*
X211244500Y-109194234D01*
X211244500Y-109345765D01*
X211283719Y-109492136D01*
X211321602Y-109557750D01*
X211359485Y-109623365D01*
X211466635Y-109730515D01*
X211508000Y-109754397D01*
X211556216Y-109804964D01*
X211570000Y-109861784D01*
X211570000Y-110400000D01*
X211070000Y-110400000D01*
X211070000Y-109700000D01*
X210671504Y-109700000D01*
X210478318Y-109738427D01*
X210478306Y-109738430D01*
X210296328Y-109813807D01*
X210296315Y-109813814D01*
X210132537Y-109923248D01*
X210132533Y-109923251D01*
X209993251Y-110062533D01*
X209993248Y-110062537D01*
X209883814Y-110226315D01*
X209883807Y-110226328D01*
X209808430Y-110408307D01*
X209808430Y-110408309D01*
X209800138Y-110450000D01*
X208203689Y-110450000D01*
X214086029Y-104567660D01*
X214086033Y-104567658D01*
X214173158Y-104480533D01*
X214241611Y-104378086D01*
X214288763Y-104264252D01*
X214312800Y-104143406D01*
X214312800Y-102968688D01*
X214332485Y-102901649D01*
X214385289Y-102855894D01*
X214454447Y-102845950D01*
X214505691Y-102865586D01*
X214626315Y-102946185D01*
X214626328Y-102946192D01*
X214808306Y-103021569D01*
X214808318Y-103021572D01*
X215001504Y-103059999D01*
X215001508Y-103060000D01*
X215250000Y-103060000D01*
X215250000Y-102360000D01*
X215750000Y-102360000D01*
X215750000Y-103060000D01*
X215998492Y-103060000D01*
X215998495Y-103059999D01*
X216191681Y-103021572D01*
X216191693Y-103021569D01*
X216373671Y-102946192D01*
X216373684Y-102946185D01*
X216537462Y-102836751D01*
X216537466Y-102836748D01*
X216676748Y-102697466D01*
X216676751Y-102697462D01*
X216786185Y-102533684D01*
X216786192Y-102533671D01*
X216861569Y-102351692D01*
X216861569Y-102351690D01*
X216869862Y-102310000D01*
X216066988Y-102310000D01*
X216084205Y-102300060D01*
X216140060Y-102244205D01*
X216179556Y-102175796D01*
X216200000Y-102099496D01*
X216200000Y-102020504D01*
X216179556Y-101944204D01*
X216140060Y-101875795D01*
X216084205Y-101819940D01*
X216066988Y-101810000D01*
X216869862Y-101810000D01*
X216861569Y-101768309D01*
X216861569Y-101768307D01*
X216786192Y-101586328D01*
X216786185Y-101586315D01*
X216676751Y-101422537D01*
X216676748Y-101422533D01*
X216537466Y-101283251D01*
X216537462Y-101283248D01*
X216373684Y-101173814D01*
X216373671Y-101173807D01*
X216191693Y-101098430D01*
X216191681Y-101098427D01*
X215998495Y-101060000D01*
X215750000Y-101060000D01*
X215750000Y-101760000D01*
X215250000Y-101760000D01*
X215250000Y-101060000D01*
X215001504Y-101060000D01*
X214808318Y-101098427D01*
X214808306Y-101098430D01*
X214626328Y-101173807D01*
X214626310Y-101173817D01*
X214505690Y-101254413D01*
X214439013Y-101275291D01*
X214371633Y-101256806D01*
X214324943Y-101204827D01*
X214312800Y-101151311D01*
X214312800Y-94424500D01*
X214332485Y-94357461D01*
X214385289Y-94311706D01*
X214436800Y-94300500D01*
X214602351Y-94300500D01*
X214602352Y-94300500D01*
X214804534Y-94268477D01*
X214999219Y-94205220D01*
X215181610Y-94112287D01*
X215296210Y-94029026D01*
X215347213Y-93991971D01*
X215347215Y-93991968D01*
X215347219Y-93991966D01*
X215491966Y-93847219D01*
X215491968Y-93847215D01*
X215491971Y-93847213D01*
X215544732Y-93774590D01*
X215612287Y-93681610D01*
X215705220Y-93499219D01*
X215768477Y-93304534D01*
X215800500Y-93102352D01*
X215800500Y-92897648D01*
X215768477Y-92695465D01*
X215732010Y-92583232D01*
X215705220Y-92500781D01*
X215705218Y-92500778D01*
X215705218Y-92500776D01*
X215671503Y-92434607D01*
X215612287Y-92318390D01*
X215580092Y-92274077D01*
X215491971Y-92152786D01*
X215347213Y-92008028D01*
X215181613Y-91887715D01*
X215181612Y-91887714D01*
X215181610Y-91887713D01*
X215103453Y-91847890D01*
X214999223Y-91794781D01*
X214804534Y-91731522D01*
X214629995Y-91703878D01*
X214602352Y-91699500D01*
X214397648Y-91699500D01*
X214373329Y-91703351D01*
X214195465Y-91731522D01*
X214000776Y-91794781D01*
X213818386Y-91887715D01*
X213652786Y-92008028D01*
X213508028Y-92152786D01*
X213387715Y-92318386D01*
X213294781Y-92500776D01*
X213231522Y-92695465D01*
X213199500Y-92897648D01*
X213199500Y-93102352D01*
X213203239Y-93125961D01*
X213232285Y-93309346D01*
X213230252Y-93309667D01*
X213227165Y-93370834D01*
X213203818Y-93408044D01*
X213205303Y-93409263D01*
X213201442Y-93413966D01*
X213180850Y-93444785D01*
X213180849Y-93444784D01*
X213132989Y-93516412D01*
X213132985Y-93516419D01*
X213123234Y-93539960D01*
X213123235Y-93539961D01*
X213110227Y-93571367D01*
X213088347Y-93624190D01*
X213085837Y-93630249D01*
X213072070Y-93699464D01*
X213071633Y-93701659D01*
X213071627Y-93701686D01*
X213061800Y-93751089D01*
X213061800Y-101700743D01*
X213042115Y-101767782D01*
X212989311Y-101813537D01*
X212920153Y-101823481D01*
X212856597Y-101794456D01*
X212823239Y-101748195D01*
X212756192Y-101586328D01*
X212756185Y-101586315D01*
X212646751Y-101422537D01*
X212646748Y-101422533D01*
X212507466Y-101283251D01*
X212507462Y-101283248D01*
X212343684Y-101173814D01*
X212343671Y-101173807D01*
X212161693Y-101098430D01*
X212161681Y-101098427D01*
X211968495Y-101060000D01*
X211570000Y-101060000D01*
X211570000Y-101760000D01*
X211070000Y-101760000D01*
X211070000Y-101060000D01*
X210671504Y-101060000D01*
X210478318Y-101098427D01*
X210478306Y-101098430D01*
X210296328Y-101173807D01*
X210296315Y-101173814D01*
X210132537Y-101283248D01*
X210132533Y-101283251D01*
X209993251Y-101422533D01*
X209993248Y-101422537D01*
X209883814Y-101586315D01*
X209883807Y-101586328D01*
X209808430Y-101768307D01*
X209808430Y-101768309D01*
X209800138Y-101810000D01*
X210603012Y-101810000D01*
X210585795Y-101819940D01*
X210529940Y-101875795D01*
X210490444Y-101944204D01*
X210470000Y-102020504D01*
X210470000Y-102099496D01*
X210490444Y-102175796D01*
X210529940Y-102244205D01*
X210585795Y-102300060D01*
X210603012Y-102310000D01*
X209800138Y-102310000D01*
X209808430Y-102351690D01*
X209808430Y-102351692D01*
X209883807Y-102533671D01*
X209883814Y-102533684D01*
X209993248Y-102697462D01*
X209993251Y-102697466D01*
X210132533Y-102836748D01*
X210132537Y-102836751D01*
X210296315Y-102946185D01*
X210296328Y-102946192D01*
X210478306Y-103021569D01*
X210478318Y-103021572D01*
X210671504Y-103059999D01*
X210671508Y-103060000D01*
X211070000Y-103060000D01*
X211070000Y-102360000D01*
X211570000Y-102360000D01*
X211570000Y-102898215D01*
X211550315Y-102965254D01*
X211508002Y-103005601D01*
X211466638Y-103029483D01*
X211466632Y-103029487D01*
X211359487Y-103136632D01*
X211359485Y-103136635D01*
X211283719Y-103267863D01*
X211245571Y-103410237D01*
X211244500Y-103414234D01*
X211244500Y-103565766D01*
X211246686Y-103573923D01*
X211283719Y-103712136D01*
X211317906Y-103771348D01*
X211359485Y-103843365D01*
X211466635Y-103950515D01*
X211597865Y-104026281D01*
X211744234Y-104065500D01*
X211744236Y-104065500D01*
X211895764Y-104065500D01*
X211895766Y-104065500D01*
X212042135Y-104026281D01*
X212173365Y-103950515D01*
X212280515Y-103843365D01*
X212356281Y-103712135D01*
X212395500Y-103565766D01*
X212395500Y-103414234D01*
X212356281Y-103267865D01*
X212280515Y-103136635D01*
X212280513Y-103136633D01*
X212276451Y-103129597D01*
X212278654Y-103128325D01*
X212258041Y-103075022D01*
X212272073Y-103006576D01*
X212320882Y-102956582D01*
X212334163Y-102950129D01*
X212343682Y-102946186D01*
X212343684Y-102946185D01*
X212507462Y-102836751D01*
X212507466Y-102836748D01*
X212646748Y-102697466D01*
X212646751Y-102697462D01*
X212756185Y-102533684D01*
X212756192Y-102533671D01*
X212823239Y-102371804D01*
X212867079Y-102317400D01*
X212933374Y-102295335D01*
X213001073Y-102312614D01*
X213048684Y-102363751D01*
X213061800Y-102419256D01*
X213061800Y-103771348D01*
X213042115Y-103838387D01*
X213025481Y-103859029D01*
X209765625Y-107118884D01*
X209704302Y-107152369D01*
X209634610Y-107147385D01*
X209609053Y-107134305D01*
X209487385Y-107053009D01*
X209487372Y-107053002D01*
X209341701Y-106992664D01*
X209341689Y-106992661D01*
X209187045Y-106961900D01*
X209187042Y-106961900D01*
X209029358Y-106961900D01*
X209026353Y-106961900D01*
X209002165Y-106959518D01*
X208990007Y-106957100D01*
X208990006Y-106957100D01*
X195060253Y-106957100D01*
X194993214Y-106937415D01*
X194972572Y-106920781D01*
X188945022Y-100893231D01*
X182863970Y-94812180D01*
X182830486Y-94750858D01*
X182835470Y-94681166D01*
X182877342Y-94625233D01*
X182942806Y-94600816D01*
X182951652Y-94600500D01*
X183125961Y-94600500D01*
X183125962Y-94600500D01*
X183374785Y-94561090D01*
X183614379Y-94483241D01*
X183838845Y-94368870D01*
X184042656Y-94220793D01*
X184220793Y-94042656D01*
X184368870Y-93838845D01*
X184483241Y-93614379D01*
X184561090Y-93374785D01*
X184600500Y-93125962D01*
X184600500Y-92874038D01*
X184561090Y-92625215D01*
X184483241Y-92385621D01*
X184483239Y-92385618D01*
X184483239Y-92385616D01*
X184441747Y-92304184D01*
X184368870Y-92161155D01*
X184324425Y-92099982D01*
X184220798Y-91957350D01*
X184220794Y-91957345D01*
X184042654Y-91779205D01*
X184042649Y-91779201D01*
X183838848Y-91631132D01*
X183838847Y-91631131D01*
X183838845Y-91631130D01*
X183760032Y-91590973D01*
X183614383Y-91516760D01*
X183374785Y-91438910D01*
X183125962Y-91399500D01*
X182874038Y-91399500D01*
X182807738Y-91410001D01*
X182625214Y-91438910D01*
X182385616Y-91516760D01*
X182161151Y-91631132D01*
X181957350Y-91779201D01*
X181957345Y-91779205D01*
X181779205Y-91957345D01*
X181779201Y-91957350D01*
X181631132Y-92161151D01*
X181516760Y-92385616D01*
X181438910Y-92625214D01*
X181399500Y-92874038D01*
X181399500Y-93048347D01*
X181379815Y-93115386D01*
X181327011Y-93161141D01*
X181257853Y-93171085D01*
X181194297Y-93142060D01*
X181187819Y-93136028D01*
X177656096Y-89604305D01*
X177656095Y-89604304D01*
X177653060Y-89601269D01*
X177653058Y-89601267D01*
X177565933Y-89514142D01*
X177514709Y-89479915D01*
X177463486Y-89445688D01*
X177463483Y-89445686D01*
X177463482Y-89445686D01*
X177463481Y-89445685D01*
X177374052Y-89408643D01*
X177374045Y-89408641D01*
X177365776Y-89405216D01*
X177349652Y-89398537D01*
X177281409Y-89384963D01*
X177228807Y-89374500D01*
X177228806Y-89374500D01*
X166716115Y-89374500D01*
X166649076Y-89354815D01*
X166616393Y-89321428D01*
X166615151Y-89322331D01*
X166491971Y-89152786D01*
X166347213Y-89008028D01*
X166181613Y-88887715D01*
X166181612Y-88887714D01*
X166181610Y-88887713D01*
X166100095Y-88846179D01*
X165999223Y-88794781D01*
X165804534Y-88731522D01*
X165629995Y-88703878D01*
X165602352Y-88699500D01*
X165397648Y-88699500D01*
X165373329Y-88703351D01*
X165195465Y-88731522D01*
X165000776Y-88794781D01*
X164818386Y-88887715D01*
X164652786Y-89008028D01*
X164508028Y-89152786D01*
X164387715Y-89318386D01*
X164294781Y-89500776D01*
X164231522Y-89695465D01*
X164199500Y-89897648D01*
X164199500Y-90102351D01*
X164231522Y-90304534D01*
X164294781Y-90499223D01*
X164351637Y-90610807D01*
X164387585Y-90681359D01*
X164387715Y-90681613D01*
X164508028Y-90847213D01*
X164652786Y-90991971D01*
X164773226Y-91079474D01*
X164818390Y-91112287D01*
X164934607Y-91171503D01*
X165000776Y-91205218D01*
X165000778Y-91205218D01*
X165000781Y-91205220D01*
X165105137Y-91239127D01*
X165195465Y-91268477D01*
X165296557Y-91284488D01*
X165397648Y-91300500D01*
X165397649Y-91300500D01*
X165602351Y-91300500D01*
X165602352Y-91300500D01*
X165804534Y-91268477D01*
X165999219Y-91205220D01*
X166181610Y-91112287D01*
X166274590Y-91044732D01*
X166347213Y-90991971D01*
X166347215Y-90991968D01*
X166347219Y-90991966D01*
X166491966Y-90847219D01*
X166491968Y-90847215D01*
X166491971Y-90847213D01*
X166615151Y-90677669D01*
X166616823Y-90678884D01*
X166662208Y-90637831D01*
X166716115Y-90625500D01*
X176856748Y-90625500D01*
X176923787Y-90645185D01*
X176944428Y-90661818D01*
X194263941Y-107981332D01*
X194263942Y-107981333D01*
X194351067Y-108068458D01*
X194351068Y-108068459D01*
X194453507Y-108136907D01*
X194453513Y-108136910D01*
X194453514Y-108136911D01*
X194567348Y-108184063D01*
X194627771Y-108196081D01*
X194688193Y-108208100D01*
X194688194Y-108208100D01*
X196637747Y-108208100D01*
X196704786Y-108227785D01*
X196750541Y-108280589D01*
X196760485Y-108349747D01*
X196731460Y-108413303D01*
X196725428Y-108419781D01*
X188447829Y-116697381D01*
X188386506Y-116730866D01*
X188360148Y-116733700D01*
X175624500Y-116733700D01*
X175557461Y-116714015D01*
X175511706Y-116661211D01*
X175500500Y-116609700D01*
X175500499Y-115079629D01*
X175500498Y-115079623D01*
X175500497Y-115079616D01*
X175494091Y-115020017D01*
X175443796Y-114885169D01*
X175443795Y-114885168D01*
X175443793Y-114885164D01*
X175357547Y-114769955D01*
X175357544Y-114769952D01*
X175242335Y-114683706D01*
X175242328Y-114683702D01*
X175214459Y-114673308D01*
X175158525Y-114631437D01*
X175134108Y-114565973D01*
X175148960Y-114497700D01*
X175157460Y-114484260D01*
X175290217Y-114301538D01*
X175394048Y-114097758D01*
X175464722Y-113880245D01*
X175500500Y-113654354D01*
X175500500Y-113425646D01*
X175464722Y-113199755D01*
X175464721Y-113199751D01*
X175464721Y-113199750D01*
X175394049Y-112982244D01*
X175290216Y-112778461D01*
X175155786Y-112593434D01*
X174994066Y-112431714D01*
X174909559Y-112370316D01*
X174866896Y-112314988D01*
X174860917Y-112245375D01*
X174893523Y-112183580D01*
X174909556Y-112169685D01*
X174994066Y-112108286D01*
X175155786Y-111946566D01*
X175290217Y-111761538D01*
X175394048Y-111557758D01*
X175420370Y-111476748D01*
X175464721Y-111340249D01*
X175464721Y-111340248D01*
X175464722Y-111340245D01*
X175500500Y-111114354D01*
X175500500Y-110885646D01*
X175464722Y-110659755D01*
X175464721Y-110659751D01*
X175464721Y-110659750D01*
X175394049Y-110442244D01*
X175356663Y-110368870D01*
X175290217Y-110238462D01*
X175155786Y-110053434D01*
X174994066Y-109891714D01*
X174809038Y-109757283D01*
X174809037Y-109757282D01*
X174809035Y-109757281D01*
X174713998Y-109708856D01*
X174663203Y-109660881D01*
X174648677Y-109622564D01*
X174625502Y-109506061D01*
X174625501Y-109506060D01*
X174625501Y-109506056D01*
X174576465Y-109387673D01*
X174548464Y-109345766D01*
X174548464Y-109345765D01*
X174505275Y-109281128D01*
X174098185Y-108874038D01*
X181899500Y-108874038D01*
X181899500Y-109125962D01*
X181934314Y-109345765D01*
X181938910Y-109374785D01*
X182016760Y-109614383D01*
X182079966Y-109738430D01*
X182114616Y-109806435D01*
X182131132Y-109838848D01*
X182279201Y-110042649D01*
X182279205Y-110042654D01*
X182457345Y-110220794D01*
X182457350Y-110220798D01*
X182498232Y-110250500D01*
X182661155Y-110368870D01*
X182762375Y-110420444D01*
X182885616Y-110483239D01*
X182885618Y-110483239D01*
X182885621Y-110483241D01*
X183125215Y-110561090D01*
X183374038Y-110600500D01*
X183374039Y-110600500D01*
X183625961Y-110600500D01*
X183625962Y-110600500D01*
X183874785Y-110561090D01*
X184114379Y-110483241D01*
X184338845Y-110368870D01*
X184542656Y-110220793D01*
X184720793Y-110042656D01*
X184868870Y-109838845D01*
X184983241Y-109614379D01*
X185061090Y-109374785D01*
X185100500Y-109125962D01*
X185100500Y-108874038D01*
X185061090Y-108625215D01*
X184983241Y-108385621D01*
X184983239Y-108385618D01*
X184983239Y-108385616D01*
X184934136Y-108289247D01*
X184868870Y-108161155D01*
X184757358Y-108007671D01*
X184720798Y-107957350D01*
X184720794Y-107957345D01*
X184542654Y-107779205D01*
X184542649Y-107779201D01*
X184338848Y-107631132D01*
X184338847Y-107631131D01*
X184338845Y-107631130D01*
X184268747Y-107595413D01*
X184114383Y-107516760D01*
X183874785Y-107438910D01*
X183625962Y-107399500D01*
X183374038Y-107399500D01*
X183249626Y-107419205D01*
X183125214Y-107438910D01*
X182885616Y-107516760D01*
X182661151Y-107631132D01*
X182457350Y-107779201D01*
X182457345Y-107779205D01*
X182279205Y-107957345D01*
X182279201Y-107957350D01*
X182131132Y-108161151D01*
X182016760Y-108385616D01*
X181938910Y-108625214D01*
X181905715Y-108834800D01*
X181899500Y-108874038D01*
X174098185Y-108874038D01*
X173526819Y-108302672D01*
X173493334Y-108241349D01*
X173490500Y-108214991D01*
X173490500Y-94724500D01*
X173510185Y-94657461D01*
X173562989Y-94611706D01*
X173614500Y-94600500D01*
X173740005Y-94600500D01*
X173740010Y-94600500D01*
X173842798Y-94589999D01*
X174009335Y-94534814D01*
X174158656Y-94442712D01*
X174282712Y-94318656D01*
X174374814Y-94169335D01*
X174429999Y-94002798D01*
X174440500Y-93900010D01*
X174440500Y-92099990D01*
X174429999Y-91997202D01*
X174374814Y-91830665D01*
X174282712Y-91681344D01*
X174158656Y-91557288D01*
X174009335Y-91465186D01*
X173842798Y-91410001D01*
X173842796Y-91410000D01*
X173740017Y-91399500D01*
X173740010Y-91399500D01*
X171939990Y-91399500D01*
X171939982Y-91399500D01*
X171837203Y-91410000D01*
X171837202Y-91410001D01*
X171754669Y-91437349D01*
X171670667Y-91465185D01*
X171670662Y-91465187D01*
X171521342Y-91557289D01*
X171397289Y-91681342D01*
X171305187Y-91830662D01*
X171305186Y-91830665D01*
X171250001Y-91997202D01*
X171250001Y-91997203D01*
X171250000Y-91997203D01*
X171239500Y-92099982D01*
X171239500Y-93900017D01*
X171250000Y-94002796D01*
X171305185Y-94169332D01*
X171305187Y-94169337D01*
X171325475Y-94202229D01*
X171397288Y-94318656D01*
X171521344Y-94442712D01*
X171670665Y-94534814D01*
X171837202Y-94589999D01*
X171939990Y-94600500D01*
X172065500Y-94600500D01*
X172132539Y-94620185D01*
X172178294Y-94672989D01*
X172189500Y-94724500D01*
X172189500Y-108599869D01*
X172208141Y-108693580D01*
X172213315Y-108719592D01*
X172214499Y-108725544D01*
X172249268Y-108809485D01*
X172263535Y-108843927D01*
X172313492Y-108918694D01*
X172334726Y-108950473D01*
X173059673Y-109675420D01*
X173093158Y-109736743D01*
X173088174Y-109806435D01*
X173046302Y-109862368D01*
X173044879Y-109863418D01*
X173005934Y-109891713D01*
X172844216Y-110053431D01*
X172844216Y-110053432D01*
X172844214Y-110053434D01*
X172786480Y-110132896D01*
X172709783Y-110238461D01*
X172605950Y-110442244D01*
X172535278Y-110659750D01*
X172535278Y-110659753D01*
X172499500Y-110885646D01*
X172499500Y-111114353D01*
X172535278Y-111340246D01*
X172535278Y-111340249D01*
X172605950Y-111557755D01*
X172640519Y-111625600D01*
X172709783Y-111761538D01*
X172844214Y-111946566D01*
X173005934Y-112108286D01*
X173075423Y-112158773D01*
X173090438Y-112169682D01*
X173133103Y-112225013D01*
X173139082Y-112294626D01*
X173106476Y-112356421D01*
X173090438Y-112370318D01*
X173005932Y-112431715D01*
X172844216Y-112593431D01*
X172844216Y-112593432D01*
X172844214Y-112593434D01*
X172786480Y-112672896D01*
X172709783Y-112778461D01*
X172605950Y-112982244D01*
X172535278Y-113199750D01*
X172535278Y-113199753D01*
X172499500Y-113425646D01*
X172499500Y-113654353D01*
X172535278Y-113880246D01*
X172535278Y-113880249D01*
X172605950Y-114097755D01*
X172605952Y-114097758D01*
X172709783Y-114301538D01*
X172842525Y-114484242D01*
X172866005Y-114550046D01*
X172850180Y-114618100D01*
X172800074Y-114666795D01*
X172785541Y-114673308D01*
X172757670Y-114683703D01*
X172757664Y-114683706D01*
X172642455Y-114769952D01*
X172642452Y-114769955D01*
X172556206Y-114885164D01*
X172556202Y-114885171D01*
X172505908Y-115020017D01*
X172499501Y-115079616D01*
X172499501Y-115079623D01*
X172499500Y-115079635D01*
X172499500Y-115858048D01*
X172479815Y-115925087D01*
X172427011Y-115970842D01*
X172357853Y-115980786D01*
X172294297Y-115951761D01*
X172287819Y-115945729D01*
X156085331Y-99743241D01*
X156078184Y-99730152D01*
X156067145Y-99720122D01*
X156061776Y-99700103D01*
X156051846Y-99681918D01*
X156052909Y-99667043D01*
X156049046Y-99652637D01*
X156055351Y-99632895D01*
X156056830Y-99612226D01*
X156066124Y-99599170D01*
X156070306Y-99586080D01*
X156089787Y-99565933D01*
X156094041Y-99559959D01*
X156097013Y-99557503D01*
X156187219Y-99491966D01*
X156331966Y-99347219D01*
X156331968Y-99347215D01*
X156331971Y-99347213D01*
X156398795Y-99255236D01*
X156452287Y-99181610D01*
X156545220Y-98999219D01*
X156608477Y-98804534D01*
X156640500Y-98602352D01*
X156640500Y-98397682D01*
X164200000Y-98397682D01*
X164200000Y-98602317D01*
X164232009Y-98804417D01*
X164295244Y-98999031D01*
X164388141Y-99181350D01*
X164388147Y-99181359D01*
X164420523Y-99225921D01*
X164420524Y-99225922D01*
X165100000Y-98546446D01*
X165100000Y-98552661D01*
X165127259Y-98654394D01*
X165179920Y-98745606D01*
X165254394Y-98820080D01*
X165345606Y-98872741D01*
X165447339Y-98900000D01*
X165453553Y-98900000D01*
X164774076Y-99579474D01*
X164818650Y-99611859D01*
X165000968Y-99704755D01*
X165195582Y-99767990D01*
X165397683Y-99800000D01*
X165602317Y-99800000D01*
X165804417Y-99767990D01*
X165999031Y-99704755D01*
X166181349Y-99611859D01*
X166225921Y-99579474D01*
X165546447Y-98900000D01*
X165552661Y-98900000D01*
X165654394Y-98872741D01*
X165745606Y-98820080D01*
X165820080Y-98745606D01*
X165872741Y-98654394D01*
X165900000Y-98552661D01*
X165900000Y-98546447D01*
X166579474Y-99225921D01*
X166611859Y-99181349D01*
X166704755Y-98999031D01*
X166767990Y-98804417D01*
X166800000Y-98602317D01*
X166800000Y-98397682D01*
X166767990Y-98195582D01*
X166704755Y-98000968D01*
X166611859Y-97818650D01*
X166579474Y-97774077D01*
X166579474Y-97774076D01*
X165900000Y-98453551D01*
X165900000Y-98447339D01*
X165872741Y-98345606D01*
X165820080Y-98254394D01*
X165745606Y-98179920D01*
X165654394Y-98127259D01*
X165552661Y-98100000D01*
X165546446Y-98100000D01*
X166225922Y-97420524D01*
X166225921Y-97420523D01*
X166181359Y-97388147D01*
X166181350Y-97388141D01*
X165999031Y-97295244D01*
X165804417Y-97232009D01*
X165602317Y-97200000D01*
X165397683Y-97200000D01*
X165195582Y-97232009D01*
X165000968Y-97295244D01*
X164818644Y-97388143D01*
X164774077Y-97420523D01*
X164774077Y-97420524D01*
X165453554Y-98100000D01*
X165447339Y-98100000D01*
X165345606Y-98127259D01*
X165254394Y-98179920D01*
X165179920Y-98254394D01*
X165127259Y-98345606D01*
X165100000Y-98447339D01*
X165100000Y-98453553D01*
X164420524Y-97774077D01*
X164420523Y-97774077D01*
X164388143Y-97818644D01*
X164295244Y-98000968D01*
X164232009Y-98195582D01*
X164200000Y-98397682D01*
X156640500Y-98397682D01*
X156640500Y-98397648D01*
X156632257Y-98345606D01*
X156608477Y-98195465D01*
X156555988Y-98033923D01*
X156545220Y-98000781D01*
X156545218Y-98000778D01*
X156545218Y-98000776D01*
X156478707Y-97870243D01*
X156452287Y-97818390D01*
X156444556Y-97807749D01*
X156331971Y-97652786D01*
X156187213Y-97508028D01*
X156021613Y-97387715D01*
X156021612Y-97387714D01*
X156021610Y-97387713D01*
X155964653Y-97358691D01*
X155839223Y-97294781D01*
X155644534Y-97231522D01*
X155469995Y-97203878D01*
X155442352Y-97199500D01*
X155237648Y-97199500D01*
X155213329Y-97203351D01*
X155035465Y-97231522D01*
X154840776Y-97294781D01*
X154658386Y-97387715D01*
X154492786Y-97508028D01*
X154348028Y-97652786D01*
X154227715Y-97818386D01*
X154134781Y-98000776D01*
X154071522Y-98195465D01*
X154039500Y-98397648D01*
X133749801Y-98397648D01*
X133749801Y-98251633D01*
X133719027Y-98057337D01*
X133658234Y-97870238D01*
X133568925Y-97694961D01*
X133538283Y-97652786D01*
X133453295Y-97535810D01*
X133314191Y-97396706D01*
X133155039Y-97281075D01*
X132979762Y-97191766D01*
X132792663Y-97130973D01*
X132598367Y-97100200D01*
X132598362Y-97100200D01*
X132401640Y-97100200D01*
X132401635Y-97100200D01*
X132207338Y-97130973D01*
X132020239Y-97191766D01*
X131844962Y-97281075D01*
X131754160Y-97347047D01*
X131685811Y-97396706D01*
X131685809Y-97396708D01*
X131685808Y-97396708D01*
X131546709Y-97535807D01*
X131546709Y-97535808D01*
X131546707Y-97535810D01*
X131497048Y-97604159D01*
X131431076Y-97694961D01*
X131341767Y-97870238D01*
X131280974Y-98057337D01*
X131250201Y-98251633D01*
X123500500Y-98251633D01*
X123500500Y-96866632D01*
X134090200Y-96866632D01*
X134090200Y-97063365D01*
X134120973Y-97257661D01*
X134181766Y-97444760D01*
X134228158Y-97535808D01*
X134271075Y-97620037D01*
X134386706Y-97779189D01*
X134525810Y-97918293D01*
X134684962Y-98033924D01*
X134730913Y-98057337D01*
X134860238Y-98123232D01*
X134860240Y-98123232D01*
X134860243Y-98123234D01*
X134931682Y-98146446D01*
X135047337Y-98184025D01*
X135241634Y-98214799D01*
X135241639Y-98214799D01*
X135438366Y-98214799D01*
X135632662Y-98184025D01*
X135645296Y-98179920D01*
X135819757Y-98123234D01*
X135995038Y-98033924D01*
X136154190Y-97918293D01*
X136293294Y-97779189D01*
X136408925Y-97620037D01*
X136498235Y-97444756D01*
X136559026Y-97257661D01*
X136569463Y-97191765D01*
X136589800Y-97063365D01*
X136589800Y-96866633D01*
X136587547Y-96852410D01*
X136587547Y-96852409D01*
X136559026Y-96672336D01*
X136498233Y-96485237D01*
X136408924Y-96309960D01*
X136389494Y-96283217D01*
X136293294Y-96150809D01*
X136154190Y-96011705D01*
X135995038Y-95896074D01*
X135819761Y-95806765D01*
X135712186Y-95771812D01*
X135632662Y-95745972D01*
X135438366Y-95715199D01*
X135438361Y-95715199D01*
X135241639Y-95715199D01*
X135241634Y-95715199D01*
X135047337Y-95745972D01*
X134860238Y-95806765D01*
X134684961Y-95896074D01*
X134599738Y-95957993D01*
X134525810Y-96011705D01*
X134525808Y-96011707D01*
X134525807Y-96011707D01*
X134386708Y-96150806D01*
X134386708Y-96150807D01*
X134386706Y-96150809D01*
X134376324Y-96165099D01*
X134271075Y-96309960D01*
X134181766Y-96485237D01*
X134120973Y-96672336D01*
X134090200Y-96866632D01*
X123500500Y-96866632D01*
X123500500Y-95481633D01*
X131250201Y-95481633D01*
X131250201Y-95678366D01*
X131280974Y-95872662D01*
X131341767Y-96059761D01*
X131388158Y-96150807D01*
X131431076Y-96235038D01*
X131546707Y-96394190D01*
X131685811Y-96533294D01*
X131844963Y-96648925D01*
X131890910Y-96672336D01*
X132020239Y-96738233D01*
X132020241Y-96738233D01*
X132020244Y-96738235D01*
X132120531Y-96770820D01*
X132207338Y-96799026D01*
X132401635Y-96829800D01*
X132401640Y-96829800D01*
X132598367Y-96829800D01*
X132792663Y-96799026D01*
X132979758Y-96738235D01*
X133155039Y-96648925D01*
X133314191Y-96533294D01*
X133453295Y-96394190D01*
X133568926Y-96235038D01*
X133658236Y-96059757D01*
X133719027Y-95872662D01*
X133736079Y-95764999D01*
X133749801Y-95678366D01*
X133749801Y-95481633D01*
X133719027Y-95287337D01*
X133658234Y-95100238D01*
X133568925Y-94924961D01*
X133453295Y-94765810D01*
X133314191Y-94626706D01*
X133155039Y-94511075D01*
X132979762Y-94421766D01*
X132792663Y-94360973D01*
X132598367Y-94330200D01*
X132598362Y-94330200D01*
X132401640Y-94330200D01*
X132401635Y-94330200D01*
X132207338Y-94360973D01*
X132020239Y-94421766D01*
X131844962Y-94511075D01*
X131812289Y-94534814D01*
X131685811Y-94626706D01*
X131685809Y-94626708D01*
X131685808Y-94626708D01*
X131546709Y-94765807D01*
X131546709Y-94765808D01*
X131546707Y-94765810D01*
X131497048Y-94834159D01*
X131431076Y-94924961D01*
X131341767Y-95100238D01*
X131280974Y-95287337D01*
X131250201Y-95481633D01*
X123500500Y-95481633D01*
X123500500Y-94096632D01*
X134090200Y-94096632D01*
X134090200Y-94293365D01*
X134120973Y-94487661D01*
X134181766Y-94674760D01*
X134228158Y-94765808D01*
X134271075Y-94850037D01*
X134386706Y-95009189D01*
X134525810Y-95148293D01*
X134684962Y-95263924D01*
X134730913Y-95287337D01*
X134860238Y-95353232D01*
X134860240Y-95353232D01*
X134860243Y-95353234D01*
X134960530Y-95385819D01*
X135047337Y-95414025D01*
X135241634Y-95444799D01*
X135241639Y-95444799D01*
X135438366Y-95444799D01*
X135632662Y-95414025D01*
X135640599Y-95411446D01*
X135819757Y-95353234D01*
X135995038Y-95263924D01*
X136154190Y-95148293D01*
X136293294Y-95009189D01*
X136408925Y-94850037D01*
X136498235Y-94674756D01*
X136559026Y-94487661D01*
X136566145Y-94442712D01*
X136589800Y-94293365D01*
X136589800Y-94096632D01*
X136559026Y-93902336D01*
X136501705Y-93725922D01*
X136498235Y-93715242D01*
X136498233Y-93715239D01*
X136498233Y-93715237D01*
X136408924Y-93539960D01*
X136395361Y-93521292D01*
X136293294Y-93380809D01*
X136154190Y-93241705D01*
X135995038Y-93126074D01*
X135974062Y-93115386D01*
X135819761Y-93036765D01*
X135632662Y-92975972D01*
X135438366Y-92945199D01*
X135438361Y-92945199D01*
X135241639Y-92945199D01*
X135241634Y-92945199D01*
X135047337Y-92975972D01*
X134860238Y-93036765D01*
X134684961Y-93126074D01*
X134623010Y-93171085D01*
X134525810Y-93241705D01*
X134525808Y-93241707D01*
X134525807Y-93241707D01*
X134386708Y-93380806D01*
X134386708Y-93380807D01*
X134386706Y-93380809D01*
X134340225Y-93444784D01*
X134271075Y-93539960D01*
X134181766Y-93715237D01*
X134120973Y-93902336D01*
X134090200Y-94096632D01*
X123500500Y-94096632D01*
X123500500Y-92711633D01*
X131250201Y-92711633D01*
X131250201Y-92908366D01*
X131280974Y-93102662D01*
X131341767Y-93289761D01*
X131428251Y-93459494D01*
X131431076Y-93465038D01*
X131546707Y-93624190D01*
X131685811Y-93763294D01*
X131844963Y-93878925D01*
X131890910Y-93902336D01*
X132020239Y-93968233D01*
X132020241Y-93968233D01*
X132020244Y-93968235D01*
X132093296Y-93991971D01*
X132207338Y-94029026D01*
X132401635Y-94059800D01*
X132401640Y-94059800D01*
X132598367Y-94059800D01*
X132792663Y-94029026D01*
X132979758Y-93968235D01*
X133155039Y-93878925D01*
X133314191Y-93763294D01*
X133453295Y-93624190D01*
X133568926Y-93465038D01*
X133658236Y-93289757D01*
X133719027Y-93102662D01*
X133719082Y-93102317D01*
X133749801Y-92908366D01*
X133749801Y-92711633D01*
X133719027Y-92517337D01*
X133658234Y-92330238D01*
X133568925Y-92154961D01*
X133567341Y-92152781D01*
X133453295Y-91995810D01*
X133314191Y-91856706D01*
X133155039Y-91741075D01*
X133136290Y-91731522D01*
X132979762Y-91651766D01*
X132792663Y-91590973D01*
X132598367Y-91560200D01*
X132598362Y-91560200D01*
X132401640Y-91560200D01*
X132401635Y-91560200D01*
X132207338Y-91590973D01*
X132020239Y-91651766D01*
X131844962Y-91741075D01*
X131768450Y-91796665D01*
X131685811Y-91856706D01*
X131685809Y-91856708D01*
X131685808Y-91856708D01*
X131546709Y-91995807D01*
X131546709Y-91995808D01*
X131546707Y-91995810D01*
X131537826Y-92008034D01*
X131431076Y-92154961D01*
X131341767Y-92330238D01*
X131280974Y-92517337D01*
X131250201Y-92711633D01*
X123500500Y-92711633D01*
X123500500Y-91326632D01*
X134090200Y-91326632D01*
X134090200Y-91523365D01*
X134120973Y-91717661D01*
X134181766Y-91904760D01*
X134239186Y-92017452D01*
X134271075Y-92080037D01*
X134386706Y-92239189D01*
X134525810Y-92378293D01*
X134684962Y-92493924D01*
X134730913Y-92517337D01*
X134860238Y-92583232D01*
X134860240Y-92583232D01*
X134860243Y-92583234D01*
X134960530Y-92615819D01*
X135047337Y-92644025D01*
X135241634Y-92674799D01*
X135241639Y-92674799D01*
X135438366Y-92674799D01*
X135632662Y-92644025D01*
X135684262Y-92627259D01*
X135819757Y-92583234D01*
X135995038Y-92493924D01*
X136154190Y-92378293D01*
X136293294Y-92239189D01*
X136408925Y-92080037D01*
X136498235Y-91904756D01*
X136559026Y-91717661D01*
X136572731Y-91631130D01*
X136589800Y-91523365D01*
X136589800Y-91326632D01*
X136559026Y-91132336D01*
X136513418Y-90991971D01*
X136498235Y-90945242D01*
X136498233Y-90945239D01*
X136498233Y-90945237D01*
X136408924Y-90769960D01*
X136293294Y-90610809D01*
X136154190Y-90471705D01*
X135995038Y-90356074D01*
X135990090Y-90353553D01*
X135819761Y-90266765D01*
X135632662Y-90205972D01*
X135438366Y-90175199D01*
X135438361Y-90175199D01*
X135241639Y-90175199D01*
X135241634Y-90175199D01*
X135047337Y-90205972D01*
X134860238Y-90266765D01*
X134684961Y-90356074D01*
X134624503Y-90400000D01*
X134525810Y-90471705D01*
X134525808Y-90471707D01*
X134525807Y-90471707D01*
X134386708Y-90610806D01*
X134386708Y-90610807D01*
X134386706Y-90610809D01*
X134349645Y-90661819D01*
X134271075Y-90769960D01*
X134181766Y-90945237D01*
X134120973Y-91132336D01*
X134090200Y-91326632D01*
X123500500Y-91326632D01*
X123500500Y-89941634D01*
X131250201Y-89941634D01*
X131250201Y-90138367D01*
X131280974Y-90332663D01*
X131341767Y-90519762D01*
X131422845Y-90678884D01*
X131431076Y-90695039D01*
X131546707Y-90854191D01*
X131685811Y-90993295D01*
X131844963Y-91108926D01*
X131890908Y-91132336D01*
X132020239Y-91198234D01*
X132020241Y-91198234D01*
X132020244Y-91198236D01*
X132120531Y-91230821D01*
X132207338Y-91259027D01*
X132401635Y-91289801D01*
X132401640Y-91289801D01*
X132598367Y-91289801D01*
X132792663Y-91259027D01*
X132979758Y-91198236D01*
X133155039Y-91108926D01*
X133314191Y-90993295D01*
X133453295Y-90854191D01*
X133568926Y-90695039D01*
X133658236Y-90519758D01*
X133719027Y-90332663D01*
X133729464Y-90266765D01*
X133749801Y-90138367D01*
X133749801Y-89941634D01*
X133719027Y-89747338D01*
X133700148Y-89689236D01*
X133686245Y-89646446D01*
X133658236Y-89560244D01*
X133658234Y-89560241D01*
X133658234Y-89560239D01*
X133599865Y-89445685D01*
X133568926Y-89384963D01*
X133453295Y-89225811D01*
X133314191Y-89086707D01*
X133155039Y-88971076D01*
X133108859Y-88947546D01*
X132979762Y-88881767D01*
X132792663Y-88820974D01*
X132598367Y-88790201D01*
X132598362Y-88790201D01*
X132401640Y-88790201D01*
X132401635Y-88790201D01*
X132207338Y-88820974D01*
X132020239Y-88881767D01*
X131844962Y-88971076D01*
X131793380Y-89008553D01*
X131685811Y-89086707D01*
X131685809Y-89086709D01*
X131685808Y-89086709D01*
X131546709Y-89225808D01*
X131546709Y-89225809D01*
X131546707Y-89225811D01*
X131511640Y-89274076D01*
X131431076Y-89384962D01*
X131341767Y-89560239D01*
X131280974Y-89747338D01*
X131250201Y-89941634D01*
X123500500Y-89941634D01*
X123500500Y-88556678D01*
X134090700Y-88556678D01*
X134090700Y-88753321D01*
X134121462Y-88947546D01*
X134182226Y-89134562D01*
X134182227Y-89134565D01*
X134271502Y-89309775D01*
X134296822Y-89344623D01*
X134296822Y-89344624D01*
X134860874Y-88780572D01*
X134878454Y-88846179D01*
X134943661Y-88959121D01*
X135035879Y-89051339D01*
X135148821Y-89116546D01*
X135214427Y-89134125D01*
X134650375Y-89698176D01*
X134650375Y-89698177D01*
X134685223Y-89723496D01*
X134860434Y-89812772D01*
X134860437Y-89812773D01*
X135047453Y-89873537D01*
X135241679Y-89904300D01*
X135438321Y-89904300D01*
X135632546Y-89873537D01*
X135819562Y-89812773D01*
X135819575Y-89812767D01*
X135994769Y-89723500D01*
X135994774Y-89723497D01*
X136029624Y-89698176D01*
X135465573Y-89134125D01*
X135531179Y-89116546D01*
X135644121Y-89051339D01*
X135736339Y-88959121D01*
X135801546Y-88846179D01*
X135819125Y-88780572D01*
X136383176Y-89344623D01*
X136408497Y-89309774D01*
X136408500Y-89309769D01*
X136497767Y-89134575D01*
X136497773Y-89134562D01*
X136558537Y-88947546D01*
X136589300Y-88753321D01*
X136589300Y-88556678D01*
X136558537Y-88362453D01*
X136497773Y-88175437D01*
X136497772Y-88175434D01*
X136408496Y-88000223D01*
X136383176Y-87965375D01*
X135819124Y-88529426D01*
X135801546Y-88463821D01*
X135736339Y-88350879D01*
X135644121Y-88258661D01*
X135531179Y-88193454D01*
X135465572Y-88175874D01*
X136029624Y-87611822D01*
X135994775Y-87586502D01*
X135819565Y-87497227D01*
X135819562Y-87497226D01*
X135632546Y-87436462D01*
X135438321Y-87405700D01*
X135241679Y-87405700D01*
X135047453Y-87436462D01*
X134860437Y-87497226D01*
X134860434Y-87497227D01*
X134685220Y-87586505D01*
X134650375Y-87611821D01*
X134650375Y-87611823D01*
X135214428Y-88175874D01*
X135148821Y-88193454D01*
X135035879Y-88258661D01*
X134943661Y-88350879D01*
X134878454Y-88463821D01*
X134860874Y-88529427D01*
X134296823Y-87965375D01*
X134296821Y-87965375D01*
X134271505Y-88000220D01*
X134182227Y-88175434D01*
X134182226Y-88175437D01*
X134121462Y-88362453D01*
X134090700Y-88556678D01*
X123500500Y-88556678D01*
X123500500Y-87171634D01*
X131250201Y-87171634D01*
X131250201Y-87368367D01*
X131280974Y-87562663D01*
X131341767Y-87749762D01*
X131431076Y-87925039D01*
X131546707Y-88084191D01*
X131685811Y-88223295D01*
X131844963Y-88338926D01*
X131927775Y-88381121D01*
X132020239Y-88428234D01*
X132020241Y-88428234D01*
X132020244Y-88428236D01*
X132120531Y-88460821D01*
X132207338Y-88489027D01*
X132401635Y-88519801D01*
X132401640Y-88519801D01*
X132598367Y-88519801D01*
X132792663Y-88489027D01*
X132979758Y-88428236D01*
X133155039Y-88338926D01*
X133314191Y-88223295D01*
X133453295Y-88084191D01*
X133568926Y-87925039D01*
X133658236Y-87749758D01*
X133719027Y-87562663D01*
X133729391Y-87497226D01*
X133749801Y-87368367D01*
X133749801Y-87171634D01*
X133719027Y-86977338D01*
X133658234Y-86790239D01*
X133568925Y-86614962D01*
X133453295Y-86455811D01*
X133314191Y-86316707D01*
X133155039Y-86201076D01*
X132979762Y-86111767D01*
X132792663Y-86050974D01*
X132598367Y-86020201D01*
X132598362Y-86020201D01*
X132401640Y-86020201D01*
X132401635Y-86020201D01*
X132207338Y-86050974D01*
X132020239Y-86111767D01*
X131844962Y-86201076D01*
X131754160Y-86267048D01*
X131685811Y-86316707D01*
X131685809Y-86316709D01*
X131685808Y-86316709D01*
X131546709Y-86455808D01*
X131546709Y-86455809D01*
X131546707Y-86455811D01*
X131497048Y-86524160D01*
X131431076Y-86614962D01*
X131341767Y-86790239D01*
X131280974Y-86977338D01*
X131250201Y-87171634D01*
X123500500Y-87171634D01*
X123500500Y-85786633D01*
X134090200Y-85786633D01*
X134090200Y-85983366D01*
X134120973Y-86177662D01*
X134181766Y-86364761D01*
X134228158Y-86455809D01*
X134271075Y-86540038D01*
X134386706Y-86699190D01*
X134525810Y-86838294D01*
X134684962Y-86953925D01*
X134730913Y-86977338D01*
X134860238Y-87043233D01*
X134860240Y-87043233D01*
X134860243Y-87043235D01*
X134960530Y-87075820D01*
X135047337Y-87104026D01*
X135241634Y-87134800D01*
X135241639Y-87134800D01*
X135438366Y-87134800D01*
X135632662Y-87104026D01*
X135819757Y-87043235D01*
X135995038Y-86953925D01*
X136154190Y-86838294D01*
X136293294Y-86699190D01*
X136408925Y-86540038D01*
X136498235Y-86364757D01*
X136559026Y-86177662D01*
X136569463Y-86111766D01*
X136589800Y-85983366D01*
X136589800Y-85786633D01*
X136559026Y-85592337D01*
X136498233Y-85405238D01*
X136408924Y-85229961D01*
X136293294Y-85070810D01*
X136154190Y-84931706D01*
X135995038Y-84816075D01*
X135819761Y-84726766D01*
X135632662Y-84665973D01*
X135438366Y-84635200D01*
X135438361Y-84635200D01*
X135241639Y-84635200D01*
X135241634Y-84635200D01*
X135047337Y-84665973D01*
X134860238Y-84726766D01*
X134684961Y-84816075D01*
X134594159Y-84882047D01*
X134525810Y-84931706D01*
X134525808Y-84931708D01*
X134525807Y-84931708D01*
X134386708Y-85070807D01*
X134386708Y-85070808D01*
X134386706Y-85070810D01*
X134337047Y-85139159D01*
X134271075Y-85229961D01*
X134181766Y-85405238D01*
X134120973Y-85592337D01*
X134090200Y-85786633D01*
X123500500Y-85786633D01*
X123500500Y-84401635D01*
X131250201Y-84401635D01*
X131250201Y-84598368D01*
X131280974Y-84792664D01*
X131341767Y-84979763D01*
X131431076Y-85155040D01*
X131546707Y-85314192D01*
X131685811Y-85453296D01*
X131844963Y-85568927D01*
X131890908Y-85592337D01*
X132020239Y-85658235D01*
X132020241Y-85658235D01*
X132020244Y-85658237D01*
X132120531Y-85690822D01*
X132207338Y-85719028D01*
X132401635Y-85749802D01*
X132401640Y-85749802D01*
X132598367Y-85749802D01*
X132792663Y-85719028D01*
X132979758Y-85658237D01*
X133155039Y-85568927D01*
X133314191Y-85453296D01*
X133453295Y-85314192D01*
X133568926Y-85155040D01*
X133658236Y-84979759D01*
X133719027Y-84792664D01*
X133729464Y-84726766D01*
X133749801Y-84598368D01*
X133749801Y-84401635D01*
X133719027Y-84207339D01*
X133658234Y-84020240D01*
X133568925Y-83844963D01*
X133453295Y-83685812D01*
X133314191Y-83546708D01*
X133155039Y-83431077D01*
X132979762Y-83341768D01*
X132792663Y-83280975D01*
X132598367Y-83250202D01*
X132598362Y-83250202D01*
X132401640Y-83250202D01*
X132401635Y-83250202D01*
X132207338Y-83280975D01*
X132020239Y-83341768D01*
X131844962Y-83431077D01*
X131754160Y-83497049D01*
X131685811Y-83546708D01*
X131685809Y-83546710D01*
X131685808Y-83546710D01*
X131546709Y-83685809D01*
X131546709Y-83685810D01*
X131546707Y-83685812D01*
X131497048Y-83754161D01*
X131431076Y-83844963D01*
X131341767Y-84020240D01*
X131280974Y-84207339D01*
X131250201Y-84401635D01*
X123500500Y-84401635D01*
X123500500Y-81127648D01*
X144489500Y-81127648D01*
X144489500Y-81332351D01*
X144521522Y-81534534D01*
X144584781Y-81729223D01*
X144612010Y-81782661D01*
X144677585Y-81911359D01*
X144677715Y-81911613D01*
X144798028Y-82077213D01*
X144942786Y-82221971D01*
X145063226Y-82309474D01*
X145108390Y-82342287D01*
X145223022Y-82400695D01*
X145290776Y-82435218D01*
X145290778Y-82435218D01*
X145290781Y-82435220D01*
X145373257Y-82462018D01*
X145485465Y-82498477D01*
X145569564Y-82511797D01*
X145687648Y-82530500D01*
X145687649Y-82530500D01*
X145892351Y-82530500D01*
X145892352Y-82530500D01*
X146094534Y-82498477D01*
X146289219Y-82435220D01*
X146471610Y-82342287D01*
X146580660Y-82263058D01*
X146637213Y-82221971D01*
X146637215Y-82221968D01*
X146637219Y-82221966D01*
X146781966Y-82077219D01*
X146781968Y-82077215D01*
X146781971Y-82077213D01*
X146834732Y-82004590D01*
X146902287Y-81911610D01*
X146995220Y-81729219D01*
X147058477Y-81534534D01*
X147090500Y-81332352D01*
X147090500Y-81127682D01*
X154650000Y-81127682D01*
X154650000Y-81332317D01*
X154682009Y-81534417D01*
X154745244Y-81729031D01*
X154838141Y-81911350D01*
X154838147Y-81911359D01*
X154870523Y-81955921D01*
X154870524Y-81955922D01*
X155550000Y-81276446D01*
X155550000Y-81282661D01*
X155577259Y-81384394D01*
X155629920Y-81475606D01*
X155704394Y-81550080D01*
X155795606Y-81602741D01*
X155897339Y-81630000D01*
X155903553Y-81630000D01*
X155224076Y-82309474D01*
X155268650Y-82341859D01*
X155450968Y-82434755D01*
X155645582Y-82497990D01*
X155847683Y-82530000D01*
X156052317Y-82530000D01*
X156254417Y-82497990D01*
X156449031Y-82434755D01*
X156631349Y-82341859D01*
X156675921Y-82309474D01*
X155996447Y-81630000D01*
X156002661Y-81630000D01*
X156104394Y-81602741D01*
X156195606Y-81550080D01*
X156270080Y-81475606D01*
X156322741Y-81384394D01*
X156350000Y-81282661D01*
X156350000Y-81276448D01*
X157029474Y-81955922D01*
X157029474Y-81955921D01*
X157061859Y-81911349D01*
X157154755Y-81729031D01*
X157217990Y-81534417D01*
X157250000Y-81332317D01*
X157250000Y-81127682D01*
X157217990Y-80925582D01*
X157154755Y-80730968D01*
X157061859Y-80548650D01*
X157029474Y-80504077D01*
X157029474Y-80504076D01*
X156350000Y-81183551D01*
X156350000Y-81177339D01*
X156322741Y-81075606D01*
X156270080Y-80984394D01*
X156195606Y-80909920D01*
X156104394Y-80857259D01*
X156002661Y-80830000D01*
X155996446Y-80830000D01*
X156675922Y-80150524D01*
X156675921Y-80150523D01*
X156631359Y-80118147D01*
X156631350Y-80118141D01*
X156449031Y-80025244D01*
X156254417Y-79962009D01*
X156052317Y-79930000D01*
X155847683Y-79930000D01*
X155645582Y-79962009D01*
X155450968Y-80025244D01*
X155268644Y-80118143D01*
X155224077Y-80150523D01*
X155224077Y-80150524D01*
X155903554Y-80830000D01*
X155897339Y-80830000D01*
X155795606Y-80857259D01*
X155704394Y-80909920D01*
X155629920Y-80984394D01*
X155577259Y-81075606D01*
X155550000Y-81177339D01*
X155550000Y-81183553D01*
X154870524Y-80504077D01*
X154870523Y-80504077D01*
X154838143Y-80548644D01*
X154745244Y-80730968D01*
X154682009Y-80925582D01*
X154650000Y-81127682D01*
X147090500Y-81127682D01*
X147090500Y-81127648D01*
X147058477Y-80925466D01*
X147058249Y-80924765D01*
X147057367Y-80919085D01*
X147061305Y-80889305D01*
X147062784Y-80859304D01*
X147065939Y-80854271D01*
X147066529Y-80849818D01*
X147075021Y-80839790D01*
X147092215Y-80812373D01*
X148208172Y-79696419D01*
X148269495Y-79662934D01*
X148295853Y-79660100D01*
X161028048Y-79660100D01*
X161095087Y-79679785D01*
X161140842Y-79732589D01*
X161150786Y-79801747D01*
X161121761Y-79865303D01*
X161115729Y-79871780D01*
X155004148Y-85983361D01*
X149277970Y-91709539D01*
X149190844Y-91796664D01*
X149190843Y-91796665D01*
X149190842Y-91796667D01*
X149175656Y-91819393D01*
X149122045Y-91864196D01*
X149072556Y-91874500D01*
X147602129Y-91874500D01*
X147602123Y-91874501D01*
X147542516Y-91880908D01*
X147407671Y-91931202D01*
X147407664Y-91931206D01*
X147292455Y-92017452D01*
X147292452Y-92017455D01*
X147206206Y-92132664D01*
X147206202Y-92132671D01*
X147155908Y-92267517D01*
X147149501Y-92327116D01*
X147149500Y-92327135D01*
X147149500Y-94122870D01*
X147149501Y-94122876D01*
X147155908Y-94182483D01*
X147206202Y-94317328D01*
X147206206Y-94317335D01*
X147292452Y-94432544D01*
X147292455Y-94432547D01*
X147407664Y-94518793D01*
X147407671Y-94518797D01*
X147452618Y-94535561D01*
X147542517Y-94569091D01*
X147602127Y-94575500D01*
X147612685Y-94575499D01*
X147679723Y-94595179D01*
X147700372Y-94611818D01*
X148370591Y-95282037D01*
X148307007Y-95299075D01*
X148192993Y-95364901D01*
X148099901Y-95457993D01*
X148034075Y-95572007D01*
X148017037Y-95635591D01*
X147384728Y-95003282D01*
X147384727Y-95003282D01*
X147345380Y-95057439D01*
X147248904Y-95246782D01*
X147183242Y-95448869D01*
X147183242Y-95448872D01*
X147150000Y-95658753D01*
X147150000Y-95871246D01*
X147183242Y-96081127D01*
X147183242Y-96081130D01*
X147248904Y-96283217D01*
X147345375Y-96472550D01*
X147384728Y-96526716D01*
X148017037Y-95894408D01*
X148034075Y-95957993D01*
X148099901Y-96072007D01*
X148192993Y-96165099D01*
X148307007Y-96230925D01*
X148370590Y-96247962D01*
X147738282Y-96880269D01*
X147738282Y-96880270D01*
X147792449Y-96919624D01*
X147981782Y-97016095D01*
X148183870Y-97081757D01*
X148393754Y-97115000D01*
X148606246Y-97115000D01*
X148816127Y-97081757D01*
X148816130Y-97081757D01*
X149018217Y-97016095D01*
X149207554Y-96919622D01*
X149261716Y-96880270D01*
X149261717Y-96880270D01*
X148629408Y-96247962D01*
X148692993Y-96230925D01*
X148807007Y-96165099D01*
X148900099Y-96072007D01*
X148965925Y-95957993D01*
X148982962Y-95894408D01*
X149615270Y-96526717D01*
X149615270Y-96526716D01*
X149654622Y-96472554D01*
X149751095Y-96283217D01*
X149816757Y-96081130D01*
X149816757Y-96081127D01*
X149850000Y-95871246D01*
X149850000Y-95658753D01*
X149816757Y-95448872D01*
X149816757Y-95448869D01*
X149751095Y-95246782D01*
X149654624Y-95057449D01*
X149615270Y-95003282D01*
X149615269Y-95003282D01*
X148982962Y-95635590D01*
X148965925Y-95572007D01*
X148900099Y-95457993D01*
X148807007Y-95364901D01*
X148692993Y-95299075D01*
X148629409Y-95282037D01*
X149299627Y-94611818D01*
X149360950Y-94578333D01*
X149387307Y-94575499D01*
X149397872Y-94575499D01*
X149457483Y-94569091D01*
X149592331Y-94518796D01*
X149707546Y-94432546D01*
X149793796Y-94317331D01*
X149844091Y-94182483D01*
X149850500Y-94122873D01*
X149850499Y-93912901D01*
X149870183Y-93845862D01*
X149922987Y-93800107D01*
X149927047Y-93798340D01*
X149972979Y-93779314D01*
X149972979Y-93779313D01*
X149972986Y-93779311D01*
X150075433Y-93710858D01*
X150162558Y-93623733D01*
X150231011Y-93521286D01*
X150278163Y-93407452D01*
X150302200Y-93286606D01*
X150302200Y-92505851D01*
X150321885Y-92438812D01*
X150338514Y-92418175D01*
X152859007Y-89897682D01*
X154040000Y-89897682D01*
X154040000Y-90102317D01*
X154072009Y-90304417D01*
X154135244Y-90499031D01*
X154228141Y-90681350D01*
X154228147Y-90681359D01*
X154260523Y-90725921D01*
X154260524Y-90725922D01*
X154940000Y-90046446D01*
X154940000Y-90052661D01*
X154967259Y-90154394D01*
X155019920Y-90245606D01*
X155094394Y-90320080D01*
X155185606Y-90372741D01*
X155287339Y-90400000D01*
X155293553Y-90400000D01*
X154614076Y-91079474D01*
X154658650Y-91111859D01*
X154840968Y-91204755D01*
X155035582Y-91267990D01*
X155237683Y-91300000D01*
X155442317Y-91300000D01*
X155644417Y-91267990D01*
X155839031Y-91204755D01*
X156021349Y-91111859D01*
X156065921Y-91079474D01*
X155386447Y-90400000D01*
X155392661Y-90400000D01*
X155494394Y-90372741D01*
X155585606Y-90320080D01*
X155660080Y-90245606D01*
X155712741Y-90154394D01*
X155740000Y-90052661D01*
X155740000Y-90046448D01*
X156419474Y-90725922D01*
X156419474Y-90725921D01*
X156451859Y-90681349D01*
X156544755Y-90499031D01*
X156607990Y-90304417D01*
X156640000Y-90102317D01*
X156640000Y-89897682D01*
X156607990Y-89695582D01*
X156544755Y-89500968D01*
X156451859Y-89318650D01*
X156419474Y-89274077D01*
X156419474Y-89274076D01*
X155740000Y-89953551D01*
X155740000Y-89947339D01*
X155712741Y-89845606D01*
X155660080Y-89754394D01*
X155585606Y-89679920D01*
X155494394Y-89627259D01*
X155392661Y-89600000D01*
X155386446Y-89600000D01*
X156065922Y-88920524D01*
X156065921Y-88920523D01*
X156021359Y-88888147D01*
X156021350Y-88888141D01*
X155839031Y-88795244D01*
X155644417Y-88732009D01*
X155442317Y-88700000D01*
X155237683Y-88700000D01*
X155035582Y-88732009D01*
X154840968Y-88795244D01*
X154658644Y-88888143D01*
X154614077Y-88920523D01*
X154614077Y-88920524D01*
X155293554Y-89600000D01*
X155287339Y-89600000D01*
X155185606Y-89627259D01*
X155094394Y-89679920D01*
X155019920Y-89754394D01*
X154967259Y-89845606D01*
X154940000Y-89947339D01*
X154940000Y-89953553D01*
X154260524Y-89274077D01*
X154260523Y-89274077D01*
X154228143Y-89318644D01*
X154135244Y-89500968D01*
X154072009Y-89695582D01*
X154040000Y-89897682D01*
X152859007Y-89897682D01*
X160944754Y-81811934D01*
X161006075Y-81778451D01*
X161075767Y-81783435D01*
X161131700Y-81825307D01*
X161142917Y-81843321D01*
X161177713Y-81911611D01*
X161298028Y-82077213D01*
X161442786Y-82221971D01*
X161563226Y-82309474D01*
X161608390Y-82342287D01*
X161723022Y-82400695D01*
X161790776Y-82435218D01*
X161790778Y-82435218D01*
X161790781Y-82435220D01*
X161873257Y-82462018D01*
X161985465Y-82498477D01*
X162069564Y-82511797D01*
X162187648Y-82530500D01*
X162187649Y-82530500D01*
X162392350Y-82530500D01*
X162392352Y-82530500D01*
X162448027Y-82521681D01*
X162517319Y-82530635D01*
X162555106Y-82556473D01*
X164396485Y-84397852D01*
X164420329Y-84413783D01*
X164433242Y-84422412D01*
X164433245Y-84422413D01*
X164437273Y-84425105D01*
X164519405Y-84479984D01*
X164575980Y-84503418D01*
X164655988Y-84536559D01*
X164772141Y-84559663D01*
X164791368Y-84563487D01*
X164800981Y-84565400D01*
X164800982Y-84565400D01*
X164800983Y-84565400D01*
X164948818Y-84565400D01*
X181612670Y-84565400D01*
X181679709Y-84585085D01*
X181700351Y-84601719D01*
X185258332Y-88159700D01*
X188754964Y-91656331D01*
X188788449Y-91717654D01*
X188783465Y-91787346D01*
X188741593Y-91843279D01*
X188723579Y-91854496D01*
X188658388Y-91887713D01*
X188492786Y-92008028D01*
X188348028Y-92152786D01*
X188227715Y-92318386D01*
X188134781Y-92500776D01*
X188071522Y-92695465D01*
X188039500Y-92897648D01*
X188039500Y-93102351D01*
X188071522Y-93304534D01*
X188134781Y-93499223D01*
X188193457Y-93614379D01*
X188227585Y-93681359D01*
X188227715Y-93681613D01*
X188348028Y-93847213D01*
X188492786Y-93991971D01*
X188636851Y-94096638D01*
X188658390Y-94112287D01*
X188770347Y-94169332D01*
X188840776Y-94205218D01*
X188840778Y-94205218D01*
X188840781Y-94205220D01*
X188945137Y-94239127D01*
X189035465Y-94268477D01*
X189136557Y-94284488D01*
X189237648Y-94300500D01*
X189237649Y-94300500D01*
X189442351Y-94300500D01*
X189442352Y-94300500D01*
X189644534Y-94268477D01*
X189839219Y-94205220D01*
X190021610Y-94112287D01*
X190136210Y-94029026D01*
X190187213Y-93991971D01*
X190187215Y-93991968D01*
X190187219Y-93991966D01*
X190331966Y-93847219D01*
X190331968Y-93847215D01*
X190331971Y-93847213D01*
X190452286Y-93681611D01*
X190452415Y-93681359D01*
X190485502Y-93616422D01*
X190533476Y-93565625D01*
X190601297Y-93548830D01*
X190667432Y-93571367D01*
X190683668Y-93585035D01*
X191213181Y-94114548D01*
X191246666Y-94175871D01*
X191249500Y-94202229D01*
X191249500Y-100007368D01*
X191229815Y-100074407D01*
X191198386Y-100107686D01*
X191022488Y-100235484D01*
X190855485Y-100402487D01*
X190855485Y-100402488D01*
X190855483Y-100402490D01*
X190810096Y-100464960D01*
X190716657Y-100593566D01*
X190609433Y-100804003D01*
X190536446Y-101028631D01*
X190499500Y-101261902D01*
X190499500Y-101498097D01*
X190536446Y-101731368D01*
X190609433Y-101955996D01*
X190682551Y-102099496D01*
X190716657Y-102166433D01*
X190855483Y-102357510D01*
X191022490Y-102524517D01*
X191213567Y-102663343D01*
X191312991Y-102714002D01*
X191424003Y-102770566D01*
X191424005Y-102770566D01*
X191424008Y-102770568D01*
X191544412Y-102809689D01*
X191648631Y-102843553D01*
X191881903Y-102880500D01*
X191881908Y-102880500D01*
X192118097Y-102880500D01*
X192351368Y-102843553D01*
X192372302Y-102836751D01*
X192575992Y-102770568D01*
X192786433Y-102663343D01*
X192977510Y-102524517D01*
X193144517Y-102357510D01*
X193283343Y-102166433D01*
X193390568Y-101955992D01*
X193439625Y-101805011D01*
X193463552Y-101731372D01*
X193463552Y-101731371D01*
X193463553Y-101731368D01*
X193482588Y-101611184D01*
X193500500Y-101498097D01*
X193500500Y-101261902D01*
X193463553Y-101028631D01*
X193398148Y-100827337D01*
X193390568Y-100804008D01*
X193390566Y-100804005D01*
X193390566Y-100804003D01*
X193307125Y-100640242D01*
X193283343Y-100593567D01*
X193144517Y-100402490D01*
X192977510Y-100235483D01*
X192899465Y-100178780D01*
X192801614Y-100107686D01*
X192758949Y-100052355D01*
X192750500Y-100007368D01*
X192750500Y-94202229D01*
X192759144Y-94172788D01*
X192765668Y-94142802D01*
X192769422Y-94137786D01*
X192770185Y-94135190D01*
X192786814Y-94114553D01*
X194003685Y-92897682D01*
X198200000Y-92897682D01*
X198200000Y-93102317D01*
X198232009Y-93304417D01*
X198295244Y-93499031D01*
X198388141Y-93681350D01*
X198388147Y-93681359D01*
X198420523Y-93725921D01*
X198420524Y-93725922D01*
X199100000Y-93046446D01*
X199100000Y-93052661D01*
X199127259Y-93154394D01*
X199179920Y-93245606D01*
X199254394Y-93320080D01*
X199345606Y-93372741D01*
X199447339Y-93400000D01*
X199453553Y-93400000D01*
X198774076Y-94079474D01*
X198818650Y-94111859D01*
X199000968Y-94204755D01*
X199195582Y-94267990D01*
X199397683Y-94300000D01*
X199602317Y-94300000D01*
X199804417Y-94267990D01*
X199999031Y-94204755D01*
X200181349Y-94111859D01*
X200225921Y-94079474D01*
X199546447Y-93400000D01*
X199552661Y-93400000D01*
X199654394Y-93372741D01*
X199745606Y-93320080D01*
X199820080Y-93245606D01*
X199872741Y-93154394D01*
X199900000Y-93052661D01*
X199900000Y-93046447D01*
X200579474Y-93725921D01*
X200611859Y-93681349D01*
X200704755Y-93499031D01*
X200767990Y-93304417D01*
X200800000Y-93102317D01*
X200800000Y-92897682D01*
X200799995Y-92897648D01*
X203039500Y-92897648D01*
X203039500Y-93102351D01*
X203071522Y-93304534D01*
X203134781Y-93499223D01*
X203193457Y-93614379D01*
X203227585Y-93681359D01*
X203227715Y-93681613D01*
X203348028Y-93847213D01*
X203492786Y-93991971D01*
X203636851Y-94096638D01*
X203658390Y-94112287D01*
X203770347Y-94169332D01*
X203840776Y-94205218D01*
X203840778Y-94205218D01*
X203840781Y-94205220D01*
X203945137Y-94239127D01*
X204035465Y-94268477D01*
X204136557Y-94284488D01*
X204237648Y-94300500D01*
X204237649Y-94300500D01*
X204442351Y-94300500D01*
X204442352Y-94300500D01*
X204644534Y-94268477D01*
X204839219Y-94205220D01*
X205021610Y-94112287D01*
X205136210Y-94029026D01*
X205187213Y-93991971D01*
X205187215Y-93991968D01*
X205187219Y-93991966D01*
X205331966Y-93847219D01*
X205331968Y-93847215D01*
X205331971Y-93847213D01*
X205384732Y-93774590D01*
X205452287Y-93681610D01*
X205545220Y-93499219D01*
X205608477Y-93304534D01*
X205640500Y-93102352D01*
X205640500Y-92897648D01*
X205608477Y-92695465D01*
X205572010Y-92583232D01*
X205545220Y-92500781D01*
X205545218Y-92500778D01*
X205545218Y-92500776D01*
X205511503Y-92434607D01*
X205452287Y-92318390D01*
X205420092Y-92274077D01*
X205331971Y-92152786D01*
X205187213Y-92008028D01*
X205021613Y-91887715D01*
X205021612Y-91887714D01*
X205021610Y-91887713D01*
X204943453Y-91847890D01*
X204839223Y-91794781D01*
X204644534Y-91731522D01*
X204469995Y-91703878D01*
X204442352Y-91699500D01*
X204237648Y-91699500D01*
X204213329Y-91703351D01*
X204035465Y-91731522D01*
X203840776Y-91794781D01*
X203658386Y-91887715D01*
X203492786Y-92008028D01*
X203348028Y-92152786D01*
X203227715Y-92318386D01*
X203134781Y-92500776D01*
X203071522Y-92695465D01*
X203039500Y-92897648D01*
X200799995Y-92897648D01*
X200767990Y-92695582D01*
X200704755Y-92500968D01*
X200611859Y-92318650D01*
X200579474Y-92274077D01*
X200579474Y-92274076D01*
X199900000Y-92953551D01*
X199900000Y-92947339D01*
X199872741Y-92845606D01*
X199820080Y-92754394D01*
X199745606Y-92679920D01*
X199654394Y-92627259D01*
X199552661Y-92600000D01*
X199546446Y-92600000D01*
X200225922Y-91920524D01*
X200225921Y-91920523D01*
X200181359Y-91888147D01*
X200181350Y-91888141D01*
X199999031Y-91795244D01*
X199804417Y-91732009D01*
X199602317Y-91700000D01*
X199397683Y-91700000D01*
X199195582Y-91732009D01*
X199000968Y-91795244D01*
X198818644Y-91888143D01*
X198774077Y-91920523D01*
X198774077Y-91920524D01*
X199453554Y-92600000D01*
X199447339Y-92600000D01*
X199345606Y-92627259D01*
X199254394Y-92679920D01*
X199179920Y-92754394D01*
X199127259Y-92845606D01*
X199100000Y-92947339D01*
X199100000Y-92953553D01*
X198420524Y-92274077D01*
X198420523Y-92274077D01*
X198388143Y-92318644D01*
X198295244Y-92500968D01*
X198232009Y-92695582D01*
X198200000Y-92897682D01*
X194003685Y-92897682D01*
X204344895Y-82556471D01*
X204406216Y-82522988D01*
X204451971Y-82521681D01*
X204507648Y-82530500D01*
X204507649Y-82530500D01*
X204712351Y-82530500D01*
X204712352Y-82530500D01*
X204914534Y-82498477D01*
X205109219Y-82435220D01*
X205291610Y-82342287D01*
X205400660Y-82263058D01*
X205457213Y-82221971D01*
X205457215Y-82221968D01*
X205457219Y-82221966D01*
X205601966Y-82077219D01*
X205601968Y-82077215D01*
X205601971Y-82077213D01*
X205654732Y-82004590D01*
X205722287Y-81911610D01*
X205815220Y-81729219D01*
X205848222Y-81627648D01*
X208489500Y-81627648D01*
X208489500Y-81832351D01*
X208521522Y-82034534D01*
X208584781Y-82229223D01*
X208642391Y-82342287D01*
X208677585Y-82411359D01*
X208677715Y-82411613D01*
X208798028Y-82577213D01*
X208942786Y-82721971D01*
X209063226Y-82809474D01*
X209108390Y-82842287D01*
X209224607Y-82901503D01*
X209290776Y-82935218D01*
X209290778Y-82935218D01*
X209290781Y-82935220D01*
X209378400Y-82963689D01*
X209485465Y-82998477D01*
X209586557Y-83014488D01*
X209687648Y-83030500D01*
X209687649Y-83030500D01*
X209892351Y-83030500D01*
X209892352Y-83030500D01*
X210094534Y-82998477D01*
X210289219Y-82935220D01*
X210471610Y-82842287D01*
X210564590Y-82774732D01*
X210637213Y-82721971D01*
X210637215Y-82721968D01*
X210637219Y-82721966D01*
X210781966Y-82577219D01*
X210781968Y-82577215D01*
X210781971Y-82577213D01*
X210864089Y-82464185D01*
X210902287Y-82411610D01*
X210995220Y-82229219D01*
X211058477Y-82034534D01*
X211090500Y-81832352D01*
X211090500Y-81627682D01*
X218650000Y-81627682D01*
X218650000Y-81832317D01*
X218682009Y-82034417D01*
X218745244Y-82229031D01*
X218838141Y-82411350D01*
X218838147Y-82411359D01*
X218870523Y-82455921D01*
X218870524Y-82455922D01*
X219550000Y-81776446D01*
X219550000Y-81782661D01*
X219577259Y-81884394D01*
X219629920Y-81975606D01*
X219704394Y-82050080D01*
X219795606Y-82102741D01*
X219897339Y-82130000D01*
X219903553Y-82130000D01*
X219224076Y-82809474D01*
X219268650Y-82841859D01*
X219450968Y-82934755D01*
X219645582Y-82997990D01*
X219847683Y-83030000D01*
X220052317Y-83030000D01*
X220254417Y-82997990D01*
X220449031Y-82934755D01*
X220631349Y-82841859D01*
X220675921Y-82809474D01*
X219996447Y-82130000D01*
X220002661Y-82130000D01*
X220104394Y-82102741D01*
X220195606Y-82050080D01*
X220270080Y-81975606D01*
X220322741Y-81884394D01*
X220350000Y-81782661D01*
X220350000Y-81776447D01*
X221029474Y-82455921D01*
X221061859Y-82411349D01*
X221154755Y-82229031D01*
X221217990Y-82034417D01*
X221250000Y-81832317D01*
X221250000Y-81627682D01*
X221217990Y-81425582D01*
X221154755Y-81230968D01*
X221061859Y-81048650D01*
X221029474Y-81004077D01*
X221029474Y-81004076D01*
X220350000Y-81683551D01*
X220350000Y-81677339D01*
X220322741Y-81575606D01*
X220270080Y-81484394D01*
X220195606Y-81409920D01*
X220104394Y-81357259D01*
X220002661Y-81330000D01*
X219996446Y-81330000D01*
X220675922Y-80650524D01*
X220675921Y-80650523D01*
X220631359Y-80618147D01*
X220631350Y-80618141D01*
X220449031Y-80525244D01*
X220254417Y-80462009D01*
X220052317Y-80430000D01*
X219847683Y-80430000D01*
X219645582Y-80462009D01*
X219450968Y-80525244D01*
X219268644Y-80618143D01*
X219224077Y-80650523D01*
X219224077Y-80650524D01*
X219903554Y-81330000D01*
X219897339Y-81330000D01*
X219795606Y-81357259D01*
X219704394Y-81409920D01*
X219629920Y-81484394D01*
X219577259Y-81575606D01*
X219550000Y-81677339D01*
X219550000Y-81683553D01*
X218870524Y-81004077D01*
X218870523Y-81004077D01*
X218838143Y-81048644D01*
X218745244Y-81230968D01*
X218682009Y-81425582D01*
X218650000Y-81627682D01*
X211090500Y-81627682D01*
X211090500Y-81627648D01*
X211069507Y-81495104D01*
X211058477Y-81425465D01*
X211012077Y-81282661D01*
X210995220Y-81230781D01*
X210995218Y-81230778D01*
X210995218Y-81230776D01*
X210961503Y-81164607D01*
X210902287Y-81048390D01*
X210870092Y-81004077D01*
X210781971Y-80882786D01*
X210637213Y-80738028D01*
X210471613Y-80617715D01*
X210471612Y-80617714D01*
X210471610Y-80617713D01*
X210414653Y-80588691D01*
X210289223Y-80524781D01*
X210094534Y-80461522D01*
X209919995Y-80433878D01*
X209892352Y-80429500D01*
X209687648Y-80429500D01*
X209663329Y-80433351D01*
X209485465Y-80461522D01*
X209290776Y-80524781D01*
X209108386Y-80617715D01*
X208942786Y-80738028D01*
X208798028Y-80882786D01*
X208677715Y-81048386D01*
X208584781Y-81230776D01*
X208521522Y-81425465D01*
X208489500Y-81627648D01*
X205848222Y-81627648D01*
X205878477Y-81534534D01*
X205910500Y-81332352D01*
X205910500Y-81127648D01*
X205890928Y-81004076D01*
X205878477Y-80925465D01*
X205841730Y-80812371D01*
X205815220Y-80730781D01*
X205815218Y-80730778D01*
X205815218Y-80730776D01*
X205757610Y-80617715D01*
X205722287Y-80548390D01*
X205705134Y-80524781D01*
X205601971Y-80382786D01*
X205457213Y-80238028D01*
X205291613Y-80117715D01*
X205291612Y-80117714D01*
X205291610Y-80117713D01*
X205234653Y-80088691D01*
X205109223Y-80024781D01*
X204914534Y-79961522D01*
X204739995Y-79933878D01*
X204712352Y-79929500D01*
X204507648Y-79929500D01*
X204483329Y-79933351D01*
X204305465Y-79961522D01*
X204110776Y-80024781D01*
X203928386Y-80117715D01*
X203762786Y-80238028D01*
X203618028Y-80382786D01*
X203497715Y-80548386D01*
X203404781Y-80730776D01*
X203341522Y-80925465D01*
X203309500Y-81127648D01*
X203309500Y-81332351D01*
X203318318Y-81388025D01*
X203309364Y-81457318D01*
X203283526Y-81495104D01*
X192087680Y-92690950D01*
X192026357Y-92724435D01*
X191956665Y-92719451D01*
X191912318Y-92690950D01*
X182453321Y-83231952D01*
X182453314Y-83231946D01*
X182379629Y-83182712D01*
X182379629Y-83182713D01*
X182330391Y-83149813D01*
X182193817Y-83093243D01*
X182193807Y-83093240D01*
X182048820Y-83064400D01*
X182048818Y-83064400D01*
X165237129Y-83064400D01*
X165170090Y-83044715D01*
X165149448Y-83028081D01*
X163616473Y-81495106D01*
X163582988Y-81433783D01*
X163581681Y-81388028D01*
X163590500Y-81332352D01*
X163590500Y-81127648D01*
X163558477Y-80925466D01*
X163558476Y-80925462D01*
X163558476Y-80925461D01*
X163532631Y-80845918D01*
X163530636Y-80776077D01*
X163566716Y-80716244D01*
X163629417Y-80685416D01*
X163650562Y-80683600D01*
X171089438Y-80683600D01*
X171156477Y-80703285D01*
X171202232Y-80756089D01*
X171212176Y-80825247D01*
X171207369Y-80845918D01*
X171181523Y-80925461D01*
X171181523Y-80925464D01*
X171149500Y-81127648D01*
X171149500Y-81332351D01*
X171181522Y-81534534D01*
X171244781Y-81729223D01*
X171272010Y-81782661D01*
X171337585Y-81911359D01*
X171337715Y-81911613D01*
X171458028Y-82077213D01*
X171602786Y-82221971D01*
X171723226Y-82309474D01*
X171768390Y-82342287D01*
X171883022Y-82400695D01*
X171950776Y-82435218D01*
X171950778Y-82435218D01*
X171950781Y-82435220D01*
X172033257Y-82462018D01*
X172145465Y-82498477D01*
X172229564Y-82511797D01*
X172347648Y-82530500D01*
X172347649Y-82530500D01*
X172552351Y-82530500D01*
X172552352Y-82530500D01*
X172754534Y-82498477D01*
X172949219Y-82435220D01*
X173131610Y-82342287D01*
X173240660Y-82263058D01*
X173297213Y-82221971D01*
X173297215Y-82221968D01*
X173297219Y-82221966D01*
X173441966Y-82077219D01*
X173441968Y-82077215D01*
X173441971Y-82077213D01*
X173494732Y-82004590D01*
X173562287Y-81911610D01*
X173655220Y-81729219D01*
X173718477Y-81534534D01*
X173750500Y-81332352D01*
X173750500Y-81127648D01*
X173718477Y-80925466D01*
X173718476Y-80925462D01*
X173718476Y-80925461D01*
X173692631Y-80845918D01*
X173690636Y-80776077D01*
X173726716Y-80716244D01*
X173789417Y-80685416D01*
X173810562Y-80683600D01*
X181288148Y-80683600D01*
X181355187Y-80703285D01*
X181375829Y-80719919D01*
X183056605Y-82400695D01*
X183090090Y-82462018D01*
X183090541Y-82464185D01*
X183112661Y-82575389D01*
X183112664Y-82575401D01*
X183173002Y-82721072D01*
X183173009Y-82721085D01*
X183260610Y-82852188D01*
X183260613Y-82852192D01*
X183372107Y-82963686D01*
X183372111Y-82963689D01*
X183503214Y-83051290D01*
X183503227Y-83051297D01*
X183648898Y-83111635D01*
X183648903Y-83111637D01*
X183803553Y-83142399D01*
X183803556Y-83142400D01*
X183803558Y-83142400D01*
X183961244Y-83142400D01*
X183961245Y-83142399D01*
X184115897Y-83111637D01*
X184261579Y-83051294D01*
X184392689Y-82963689D01*
X184504189Y-82852189D01*
X184591794Y-82721079D01*
X184652137Y-82575397D01*
X184682900Y-82420742D01*
X184682900Y-82263058D01*
X184682900Y-82263055D01*
X184682899Y-82263053D01*
X184676169Y-82229219D01*
X184652137Y-82108403D01*
X184639220Y-82077219D01*
X184591797Y-81962727D01*
X184591790Y-81962714D01*
X184504189Y-81831611D01*
X184504186Y-81831607D01*
X184392692Y-81720113D01*
X184392688Y-81720110D01*
X184261585Y-81632509D01*
X184261572Y-81632502D01*
X184115901Y-81572164D01*
X184115889Y-81572161D01*
X184004685Y-81550041D01*
X183942774Y-81517656D01*
X183941195Y-81516105D01*
X182269441Y-79844351D01*
X182235956Y-79783028D01*
X182240940Y-79713336D01*
X182282812Y-79657403D01*
X182312527Y-79640967D01*
X182322476Y-79637132D01*
X182327852Y-79636063D01*
X182361192Y-79622252D01*
X182441686Y-79588912D01*
X182492909Y-79554684D01*
X182544133Y-79520458D01*
X182631258Y-79433333D01*
X182631258Y-79433331D01*
X182641466Y-79423124D01*
X182641467Y-79423121D01*
X183321121Y-78743467D01*
X183382443Y-78709984D01*
X183452135Y-78714968D01*
X183477692Y-78728048D01*
X183605714Y-78813590D01*
X183605727Y-78813597D01*
X183751398Y-78873935D01*
X183751403Y-78873937D01*
X183906053Y-78904699D01*
X183906056Y-78904700D01*
X183906058Y-78904700D01*
X184063744Y-78904700D01*
X184063745Y-78904699D01*
X184218397Y-78873937D01*
X184364079Y-78813594D01*
X184458359Y-78750598D01*
X184525036Y-78729720D01*
X184527250Y-78729700D01*
X190370707Y-78729700D01*
X190431129Y-78717681D01*
X190491552Y-78705663D01*
X190524892Y-78691852D01*
X190605386Y-78658512D01*
X190671269Y-78614489D01*
X190707833Y-78590058D01*
X190794958Y-78502933D01*
X190794959Y-78502931D01*
X190802025Y-78495865D01*
X190802028Y-78495861D01*
X196904804Y-72393084D01*
X196966125Y-72359601D01*
X197035817Y-72364585D01*
X197091749Y-72406455D01*
X197152455Y-72487547D01*
X197267664Y-72573793D01*
X197267671Y-72573797D01*
X197402517Y-72624091D01*
X197402516Y-72624091D01*
X197409444Y-72624835D01*
X197462127Y-72630500D01*
X199357872Y-72630499D01*
X199417483Y-72624091D01*
X199552331Y-72573796D01*
X199667546Y-72487546D01*
X199753796Y-72372331D01*
X199781429Y-72298243D01*
X199783601Y-72292420D01*
X199825471Y-72236486D01*
X199890936Y-72212068D01*
X199959209Y-72226919D01*
X199987464Y-72248071D01*
X200037636Y-72298243D01*
X200037641Y-72298247D01*
X200215973Y-72427812D01*
X200215975Y-72427813D01*
X200215978Y-72427815D01*
X200256795Y-72448612D01*
X200307591Y-72496586D01*
X200324500Y-72559097D01*
X200324500Y-74419547D01*
X200304815Y-74486586D01*
X200288181Y-74507228D01*
X194867627Y-79927781D01*
X194806304Y-79961266D01*
X194759584Y-79960776D01*
X194759346Y-79962285D01*
X194655898Y-79945900D01*
X194552352Y-79929500D01*
X194347648Y-79929500D01*
X194323329Y-79933351D01*
X194145465Y-79961522D01*
X193950776Y-80024781D01*
X193768386Y-80117715D01*
X193602786Y-80238028D01*
X193458028Y-80382786D01*
X193337715Y-80548386D01*
X193244781Y-80730776D01*
X193181522Y-80925465D01*
X193149500Y-81127648D01*
X193149500Y-81332351D01*
X193181522Y-81534534D01*
X193244781Y-81729223D01*
X193272010Y-81782661D01*
X193337585Y-81911359D01*
X193337715Y-81911613D01*
X193458028Y-82077213D01*
X193602786Y-82221971D01*
X193723226Y-82309474D01*
X193768390Y-82342287D01*
X193883022Y-82400695D01*
X193950776Y-82435218D01*
X193950778Y-82435218D01*
X193950781Y-82435220D01*
X194033257Y-82462018D01*
X194145465Y-82498477D01*
X194229564Y-82511797D01*
X194347648Y-82530500D01*
X194347649Y-82530500D01*
X194552351Y-82530500D01*
X194552352Y-82530500D01*
X194754534Y-82498477D01*
X194949219Y-82435220D01*
X195131610Y-82342287D01*
X195240660Y-82263058D01*
X195297213Y-82221971D01*
X195297215Y-82221968D01*
X195297219Y-82221966D01*
X195441966Y-82077219D01*
X195441968Y-82077215D01*
X195441971Y-82077213D01*
X195494732Y-82004590D01*
X195562287Y-81911610D01*
X195655220Y-81729219D01*
X195718477Y-81534534D01*
X195750500Y-81332352D01*
X195750500Y-81127648D01*
X195730928Y-81004076D01*
X195717715Y-80920654D01*
X195719777Y-80920327D01*
X195722784Y-80859304D01*
X195752215Y-80812373D01*
X201348729Y-75215860D01*
X201348733Y-75215858D01*
X201435858Y-75128733D01*
X201470084Y-75077509D01*
X201504312Y-75026286D01*
X201551463Y-74912451D01*
X201575500Y-74791607D01*
X201575500Y-74668393D01*
X201575500Y-72627648D01*
X208149500Y-72627648D01*
X208149500Y-72832351D01*
X208181522Y-73034534D01*
X208244781Y-73229223D01*
X208337715Y-73411613D01*
X208458028Y-73577213D01*
X208602786Y-73721971D01*
X208757749Y-73834556D01*
X208768390Y-73842287D01*
X208884607Y-73901503D01*
X208950776Y-73935218D01*
X208950778Y-73935218D01*
X208950781Y-73935220D01*
X209055137Y-73969127D01*
X209145465Y-73998477D01*
X209246557Y-74014488D01*
X209347648Y-74030500D01*
X209347649Y-74030500D01*
X209552351Y-74030500D01*
X209552352Y-74030500D01*
X209754534Y-73998477D01*
X209949219Y-73935220D01*
X210131610Y-73842287D01*
X210224590Y-73774732D01*
X210297213Y-73721971D01*
X210297215Y-73721968D01*
X210297219Y-73721966D01*
X210441966Y-73577219D01*
X210441968Y-73577215D01*
X210441971Y-73577213D01*
X210494732Y-73504590D01*
X210562287Y-73411610D01*
X210655220Y-73229219D01*
X210718477Y-73034534D01*
X210750500Y-72832352D01*
X210750500Y-72627648D01*
X218309500Y-72627648D01*
X218309500Y-72832351D01*
X218341522Y-73034534D01*
X218404781Y-73229223D01*
X218497715Y-73411613D01*
X218618028Y-73577213D01*
X218762786Y-73721971D01*
X218917749Y-73834556D01*
X218928390Y-73842287D01*
X219044607Y-73901503D01*
X219110776Y-73935218D01*
X219110778Y-73935218D01*
X219110781Y-73935220D01*
X219215137Y-73969127D01*
X219305465Y-73998477D01*
X219406557Y-74014488D01*
X219507648Y-74030500D01*
X219507649Y-74030500D01*
X219712351Y-74030500D01*
X219712352Y-74030500D01*
X219914534Y-73998477D01*
X220109219Y-73935220D01*
X220291610Y-73842287D01*
X220384590Y-73774732D01*
X220457213Y-73721971D01*
X220457215Y-73721968D01*
X220457219Y-73721966D01*
X220601966Y-73577219D01*
X220601968Y-73577215D01*
X220601971Y-73577213D01*
X220654732Y-73504590D01*
X220722287Y-73411610D01*
X220815220Y-73229219D01*
X220878477Y-73034534D01*
X220910500Y-72832352D01*
X220910500Y-72627648D01*
X220899642Y-72559097D01*
X220878477Y-72425465D01*
X220820838Y-72248071D01*
X220815220Y-72230781D01*
X220815218Y-72230778D01*
X220815218Y-72230776D01*
X220749980Y-72102741D01*
X220722287Y-72048390D01*
X220660991Y-71964022D01*
X220601971Y-71882786D01*
X220457213Y-71738028D01*
X220291613Y-71617715D01*
X220291612Y-71617714D01*
X220291610Y-71617713D01*
X220234653Y-71588691D01*
X220109223Y-71524781D01*
X219914534Y-71461522D01*
X219739995Y-71433878D01*
X219712352Y-71429500D01*
X219507648Y-71429500D01*
X219483329Y-71433351D01*
X219305465Y-71461522D01*
X219110776Y-71524781D01*
X218928386Y-71617715D01*
X218762786Y-71738028D01*
X218618028Y-71882786D01*
X218497715Y-72048386D01*
X218404781Y-72230776D01*
X218341522Y-72425465D01*
X218309500Y-72627648D01*
X210750500Y-72627648D01*
X210739642Y-72559097D01*
X210718477Y-72425465D01*
X210660838Y-72248071D01*
X210655220Y-72230781D01*
X210655218Y-72230778D01*
X210655218Y-72230776D01*
X210589980Y-72102741D01*
X210562287Y-72048390D01*
X210500991Y-71964022D01*
X210441971Y-71882786D01*
X210297213Y-71738028D01*
X210131613Y-71617715D01*
X210131612Y-71617714D01*
X210131610Y-71617713D01*
X210074653Y-71588691D01*
X209949223Y-71524781D01*
X209754534Y-71461522D01*
X209579995Y-71433878D01*
X209552352Y-71429500D01*
X209347648Y-71429500D01*
X209323329Y-71433351D01*
X209145465Y-71461522D01*
X208950776Y-71524781D01*
X208768386Y-71617715D01*
X208602786Y-71738028D01*
X208458028Y-71882786D01*
X208337715Y-72048386D01*
X208244781Y-72230776D01*
X208181522Y-72425465D01*
X208149500Y-72627648D01*
X201575500Y-72627648D01*
X201575500Y-72559097D01*
X201595185Y-72492058D01*
X201643203Y-72448612D01*
X201684022Y-72427815D01*
X201862365Y-72298242D01*
X202018242Y-72142365D01*
X202147815Y-71964022D01*
X202247895Y-71767606D01*
X202316015Y-71557951D01*
X202350500Y-71340222D01*
X202350500Y-71119778D01*
X202316015Y-70902049D01*
X202247895Y-70692394D01*
X202247895Y-70692393D01*
X202205473Y-70609137D01*
X202147815Y-70495978D01*
X202122781Y-70461522D01*
X202018247Y-70317641D01*
X202018243Y-70317636D01*
X201862363Y-70161756D01*
X201862358Y-70161752D01*
X201684025Y-70032187D01*
X201684024Y-70032186D01*
X201684022Y-70032185D01*
X201566791Y-69972452D01*
X201487606Y-69932104D01*
X201487603Y-69932103D01*
X201277952Y-69863985D01*
X201169086Y-69846742D01*
X201060222Y-69829500D01*
X200839778Y-69829500D01*
X200767201Y-69840995D01*
X200622047Y-69863985D01*
X200412396Y-69932103D01*
X200412393Y-69932104D01*
X200215974Y-70032187D01*
X200037641Y-70161752D01*
X200037636Y-70161756D01*
X199987463Y-70211929D01*
X199926140Y-70245413D01*
X199856448Y-70240428D01*
X199800515Y-70198557D01*
X199783601Y-70167580D01*
X199753797Y-70087671D01*
X199753793Y-70087664D01*
X199667547Y-69972455D01*
X199667544Y-69972452D01*
X199552335Y-69886206D01*
X199552328Y-69886202D01*
X199417482Y-69835908D01*
X199417483Y-69835908D01*
X199357883Y-69829501D01*
X199357881Y-69829500D01*
X199357873Y-69829500D01*
X199357864Y-69829500D01*
X197462129Y-69829500D01*
X197462123Y-69829501D01*
X197402516Y-69835908D01*
X197267671Y-69886202D01*
X197267664Y-69886206D01*
X197152455Y-69972452D01*
X197152452Y-69972455D01*
X197066206Y-70087664D01*
X197066202Y-70087671D01*
X197015908Y-70222517D01*
X197009501Y-70282116D01*
X197009500Y-70282135D01*
X197009500Y-70542098D01*
X197004815Y-70558053D01*
X197005143Y-70574679D01*
X196995174Y-70590884D01*
X196989815Y-70609137D01*
X196976954Y-70620504D01*
X196968536Y-70634191D01*
X196943806Y-70649806D01*
X196939227Y-70653854D01*
X196936119Y-70655348D01*
X196887015Y-70675688D01*
X196887014Y-70675689D01*
X196869588Y-70687332D01*
X196869583Y-70687335D01*
X196784568Y-70744140D01*
X196741005Y-70787703D01*
X196697442Y-70831267D01*
X196697439Y-70831270D01*
X190086329Y-77442381D01*
X190025006Y-77475866D01*
X189998648Y-77478700D01*
X184885252Y-77478700D01*
X184818213Y-77459015D01*
X184772458Y-77406211D01*
X184762514Y-77337053D01*
X184791539Y-77273497D01*
X184797571Y-77267019D01*
X187645042Y-74419547D01*
X189032373Y-73032215D01*
X189093694Y-72998732D01*
X189140410Y-72999249D01*
X189140654Y-72997715D01*
X189244101Y-73014099D01*
X189347648Y-73030500D01*
X189347649Y-73030500D01*
X189552351Y-73030500D01*
X189552352Y-73030500D01*
X189754534Y-72998477D01*
X189949219Y-72935220D01*
X190131610Y-72842287D01*
X190224590Y-72774732D01*
X190297213Y-72721971D01*
X190297215Y-72721968D01*
X190297219Y-72721966D01*
X190441966Y-72577219D01*
X190441968Y-72577215D01*
X190441971Y-72577213D01*
X190500549Y-72496586D01*
X190562287Y-72411610D01*
X190655220Y-72229219D01*
X190718477Y-72034534D01*
X190750500Y-71832352D01*
X190750500Y-71627648D01*
X190734207Y-71524780D01*
X190718477Y-71425465D01*
X190687458Y-71330000D01*
X190655220Y-71230781D01*
X190655218Y-71230778D01*
X190655218Y-71230776D01*
X190562419Y-71048650D01*
X190562287Y-71048390D01*
X190530092Y-71004077D01*
X190441971Y-70882786D01*
X190297213Y-70738028D01*
X190131613Y-70617715D01*
X190131612Y-70617714D01*
X190131610Y-70617713D01*
X190074653Y-70588691D01*
X189949223Y-70524781D01*
X189754534Y-70461522D01*
X189579995Y-70433878D01*
X189552352Y-70429500D01*
X189347648Y-70429500D01*
X189323329Y-70433351D01*
X189145465Y-70461522D01*
X188950776Y-70524781D01*
X188768386Y-70617715D01*
X188602786Y-70738028D01*
X188458028Y-70882786D01*
X188337715Y-71048386D01*
X188244781Y-71230776D01*
X188181522Y-71425465D01*
X188149500Y-71627648D01*
X188149500Y-71832351D01*
X188182285Y-72039346D01*
X188180252Y-72039667D01*
X188177165Y-72100834D01*
X188147781Y-72147627D01*
X181922629Y-78372781D01*
X181861306Y-78406266D01*
X181834948Y-78409100D01*
X147923788Y-78409100D01*
X147802955Y-78433135D01*
X147802947Y-78433137D01*
X147689114Y-78480289D01*
X147689112Y-78480290D01*
X147684487Y-78483381D01*
X147684485Y-78483382D01*
X147586666Y-78548742D01*
X147586662Y-78548745D01*
X146207627Y-79927781D01*
X146146304Y-79961266D01*
X146099584Y-79960776D01*
X146099346Y-79962285D01*
X145995898Y-79945900D01*
X145892352Y-79929500D01*
X145687648Y-79929500D01*
X145663329Y-79933351D01*
X145485465Y-79961522D01*
X145290776Y-80024781D01*
X145108386Y-80117715D01*
X144942786Y-80238028D01*
X144798028Y-80382786D01*
X144677715Y-80548386D01*
X144584781Y-80730776D01*
X144521522Y-80925465D01*
X144489500Y-81127648D01*
X123500500Y-81127648D01*
X123500500Y-71627648D01*
X144989500Y-71627648D01*
X144989500Y-71832351D01*
X145021522Y-72034534D01*
X145084781Y-72229223D01*
X145148691Y-72354653D01*
X145177585Y-72411359D01*
X145177715Y-72411613D01*
X145298028Y-72577213D01*
X145442786Y-72721971D01*
X145597749Y-72834556D01*
X145608390Y-72842287D01*
X145724607Y-72901503D01*
X145790776Y-72935218D01*
X145790778Y-72935218D01*
X145790781Y-72935220D01*
X145895137Y-72969127D01*
X145985465Y-72998477D01*
X146086557Y-73014488D01*
X146187648Y-73030500D01*
X146187649Y-73030500D01*
X146392351Y-73030500D01*
X146392352Y-73030500D01*
X146594534Y-72998477D01*
X146789219Y-72935220D01*
X146971610Y-72842287D01*
X147064590Y-72774732D01*
X147137213Y-72721971D01*
X147137215Y-72721968D01*
X147137219Y-72721966D01*
X147281966Y-72577219D01*
X147281968Y-72577215D01*
X147281971Y-72577213D01*
X147340549Y-72496586D01*
X147402287Y-72411610D01*
X147495220Y-72229219D01*
X147558477Y-72034534D01*
X147590500Y-71832352D01*
X147590500Y-71627648D01*
X155149500Y-71627648D01*
X155149500Y-71832351D01*
X155181522Y-72034534D01*
X155244781Y-72229223D01*
X155308691Y-72354653D01*
X155337585Y-72411359D01*
X155337715Y-72411613D01*
X155458028Y-72577213D01*
X155602786Y-72721971D01*
X155757749Y-72834556D01*
X155768390Y-72842287D01*
X155884607Y-72901503D01*
X155950776Y-72935218D01*
X155950778Y-72935218D01*
X155950781Y-72935220D01*
X156055137Y-72969127D01*
X156145465Y-72998477D01*
X156246557Y-73014488D01*
X156347648Y-73030500D01*
X156347649Y-73030500D01*
X156552351Y-73030500D01*
X156552352Y-73030500D01*
X156754534Y-72998477D01*
X156949219Y-72935220D01*
X157131610Y-72842287D01*
X157224590Y-72774732D01*
X157297213Y-72721971D01*
X157297215Y-72721968D01*
X157297219Y-72721966D01*
X157441966Y-72577219D01*
X157441968Y-72577215D01*
X157441971Y-72577213D01*
X157500549Y-72496586D01*
X157562287Y-72411610D01*
X157655220Y-72229219D01*
X157718477Y-72034534D01*
X157750500Y-71832352D01*
X157750500Y-71627682D01*
X160990000Y-71627682D01*
X160990000Y-71832317D01*
X161022009Y-72034417D01*
X161085244Y-72229031D01*
X161178141Y-72411350D01*
X161178147Y-72411359D01*
X161210523Y-72455921D01*
X161210524Y-72455922D01*
X161890000Y-71776446D01*
X161890000Y-71782661D01*
X161917259Y-71884394D01*
X161969920Y-71975606D01*
X162044394Y-72050080D01*
X162135606Y-72102741D01*
X162237339Y-72130000D01*
X162243553Y-72130000D01*
X161564076Y-72809474D01*
X161608650Y-72841859D01*
X161790968Y-72934755D01*
X161985582Y-72997990D01*
X162187683Y-73030000D01*
X162392317Y-73030000D01*
X162594417Y-72997990D01*
X162789031Y-72934755D01*
X162971349Y-72841859D01*
X163015921Y-72809474D01*
X162336447Y-72130000D01*
X162342661Y-72130000D01*
X162444394Y-72102741D01*
X162535606Y-72050080D01*
X162610080Y-71975606D01*
X162662741Y-71884394D01*
X162690000Y-71782661D01*
X162690000Y-71776448D01*
X163369474Y-72455922D01*
X163369474Y-72455921D01*
X163401859Y-72411349D01*
X163494755Y-72229031D01*
X163557990Y-72034417D01*
X163590000Y-71832317D01*
X163590000Y-71627682D01*
X163589995Y-71627648D01*
X171149500Y-71627648D01*
X171149500Y-71832351D01*
X171181522Y-72034534D01*
X171244781Y-72229223D01*
X171308691Y-72354653D01*
X171337585Y-72411359D01*
X171337715Y-72411613D01*
X171458028Y-72577213D01*
X171602786Y-72721971D01*
X171757749Y-72834556D01*
X171768390Y-72842287D01*
X171884607Y-72901503D01*
X171950776Y-72935218D01*
X171950778Y-72935218D01*
X171950781Y-72935220D01*
X172055137Y-72969127D01*
X172145465Y-72998477D01*
X172246557Y-73014488D01*
X172347648Y-73030500D01*
X172347649Y-73030500D01*
X172552351Y-73030500D01*
X172552352Y-73030500D01*
X172754534Y-72998477D01*
X172949219Y-72935220D01*
X173131610Y-72842287D01*
X173224590Y-72774732D01*
X173297213Y-72721971D01*
X173297215Y-72721968D01*
X173297219Y-72721966D01*
X173441966Y-72577219D01*
X173441968Y-72577215D01*
X173441971Y-72577213D01*
X173500549Y-72496586D01*
X173562287Y-72411610D01*
X173655220Y-72229219D01*
X173718477Y-72034534D01*
X173750500Y-71832352D01*
X173750500Y-71627648D01*
X177989500Y-71627648D01*
X177989500Y-71832351D01*
X178021522Y-72034534D01*
X178084781Y-72229223D01*
X178148691Y-72354653D01*
X178177585Y-72411359D01*
X178177715Y-72411613D01*
X178298028Y-72577213D01*
X178442786Y-72721971D01*
X178597749Y-72834556D01*
X178608390Y-72842287D01*
X178724607Y-72901503D01*
X178790776Y-72935218D01*
X178790778Y-72935218D01*
X178790781Y-72935220D01*
X178895137Y-72969127D01*
X178985465Y-72998477D01*
X179086557Y-73014488D01*
X179187648Y-73030500D01*
X179187649Y-73030500D01*
X179392351Y-73030500D01*
X179392352Y-73030500D01*
X179594534Y-72998477D01*
X179789219Y-72935220D01*
X179971610Y-72842287D01*
X180064590Y-72774732D01*
X180137213Y-72721971D01*
X180137215Y-72721968D01*
X180137219Y-72721966D01*
X180281966Y-72577219D01*
X180281968Y-72577215D01*
X180281971Y-72577213D01*
X180340549Y-72496586D01*
X180402287Y-72411610D01*
X180495220Y-72229219D01*
X180558477Y-72034534D01*
X180590500Y-71832352D01*
X180590500Y-71627648D01*
X180574207Y-71524780D01*
X180558477Y-71425465D01*
X180527458Y-71330000D01*
X180495220Y-71230781D01*
X180495218Y-71230778D01*
X180495218Y-71230776D01*
X180402419Y-71048650D01*
X180402287Y-71048390D01*
X180370092Y-71004077D01*
X180281971Y-70882786D01*
X180137213Y-70738028D01*
X179971613Y-70617715D01*
X179971612Y-70617714D01*
X179971610Y-70617713D01*
X179914653Y-70588691D01*
X179789223Y-70524781D01*
X179594534Y-70461522D01*
X179419995Y-70433878D01*
X179392352Y-70429500D01*
X179187648Y-70429500D01*
X179163329Y-70433351D01*
X178985465Y-70461522D01*
X178790776Y-70524781D01*
X178608386Y-70617715D01*
X178442786Y-70738028D01*
X178298028Y-70882786D01*
X178177715Y-71048386D01*
X178084781Y-71230776D01*
X178021522Y-71425465D01*
X177989500Y-71627648D01*
X173750500Y-71627648D01*
X173734207Y-71524780D01*
X173718477Y-71425465D01*
X173687458Y-71330000D01*
X173655220Y-71230781D01*
X173655218Y-71230778D01*
X173655218Y-71230776D01*
X173562419Y-71048650D01*
X173562287Y-71048390D01*
X173530092Y-71004077D01*
X173441971Y-70882786D01*
X173297213Y-70738028D01*
X173131613Y-70617715D01*
X173131612Y-70617714D01*
X173131610Y-70617713D01*
X173074653Y-70588691D01*
X172949223Y-70524781D01*
X172754534Y-70461522D01*
X172579995Y-70433878D01*
X172552352Y-70429500D01*
X172347648Y-70429500D01*
X172323329Y-70433351D01*
X172145465Y-70461522D01*
X171950776Y-70524781D01*
X171768386Y-70617715D01*
X171602786Y-70738028D01*
X171458028Y-70882786D01*
X171337715Y-71048386D01*
X171244781Y-71230776D01*
X171181522Y-71425465D01*
X171149500Y-71627648D01*
X163589995Y-71627648D01*
X163557990Y-71425582D01*
X163494755Y-71230968D01*
X163401859Y-71048650D01*
X163369474Y-71004077D01*
X163369474Y-71004076D01*
X162690000Y-71683551D01*
X162690000Y-71677339D01*
X162662741Y-71575606D01*
X162610080Y-71484394D01*
X162535606Y-71409920D01*
X162444394Y-71357259D01*
X162342661Y-71330000D01*
X162336446Y-71330000D01*
X163015922Y-70650524D01*
X163015921Y-70650523D01*
X162971359Y-70618147D01*
X162971350Y-70618141D01*
X162789031Y-70525244D01*
X162594417Y-70462009D01*
X162392317Y-70430000D01*
X162187683Y-70430000D01*
X161985582Y-70462009D01*
X161790968Y-70525244D01*
X161608644Y-70618143D01*
X161564077Y-70650523D01*
X161564077Y-70650524D01*
X162243554Y-71330000D01*
X162237339Y-71330000D01*
X162135606Y-71357259D01*
X162044394Y-71409920D01*
X161969920Y-71484394D01*
X161917259Y-71575606D01*
X161890000Y-71677339D01*
X161890000Y-71683553D01*
X161210524Y-71004077D01*
X161210523Y-71004077D01*
X161178143Y-71048644D01*
X161085244Y-71230968D01*
X161022009Y-71425582D01*
X160990000Y-71627682D01*
X157750500Y-71627682D01*
X157750500Y-71627648D01*
X157734207Y-71524780D01*
X157718477Y-71425465D01*
X157687458Y-71330000D01*
X157655220Y-71230781D01*
X157655218Y-71230778D01*
X157655218Y-71230776D01*
X157562419Y-71048650D01*
X157562287Y-71048390D01*
X157530092Y-71004077D01*
X157441971Y-70882786D01*
X157297213Y-70738028D01*
X157131613Y-70617715D01*
X157131612Y-70617714D01*
X157131610Y-70617713D01*
X157074653Y-70588691D01*
X156949223Y-70524781D01*
X156754534Y-70461522D01*
X156579995Y-70433878D01*
X156552352Y-70429500D01*
X156347648Y-70429500D01*
X156323329Y-70433351D01*
X156145465Y-70461522D01*
X155950776Y-70524781D01*
X155768386Y-70617715D01*
X155602786Y-70738028D01*
X155458028Y-70882786D01*
X155337715Y-71048386D01*
X155244781Y-71230776D01*
X155181522Y-71425465D01*
X155149500Y-71627648D01*
X147590500Y-71627648D01*
X147574207Y-71524780D01*
X147558477Y-71425465D01*
X147527458Y-71330000D01*
X147495220Y-71230781D01*
X147495218Y-71230778D01*
X147495218Y-71230776D01*
X147402419Y-71048650D01*
X147402287Y-71048390D01*
X147370092Y-71004077D01*
X147281971Y-70882786D01*
X147137213Y-70738028D01*
X146971613Y-70617715D01*
X146971612Y-70617714D01*
X146971610Y-70617713D01*
X146914653Y-70588691D01*
X146789223Y-70524781D01*
X146594534Y-70461522D01*
X146419995Y-70433878D01*
X146392352Y-70429500D01*
X146187648Y-70429500D01*
X146163329Y-70433351D01*
X145985465Y-70461522D01*
X145790776Y-70524781D01*
X145608386Y-70617715D01*
X145442786Y-70738028D01*
X145298028Y-70882786D01*
X145177715Y-71048386D01*
X145084781Y-71230776D01*
X145021522Y-71425465D01*
X144989500Y-71627648D01*
X123500500Y-71627648D01*
X123500500Y-63381902D01*
X127499500Y-63381902D01*
X127499500Y-63618097D01*
X127536446Y-63851368D01*
X127609433Y-64075996D01*
X127716657Y-64286433D01*
X127855483Y-64477510D01*
X128022490Y-64644517D01*
X128213567Y-64783343D01*
X128312991Y-64834002D01*
X128424003Y-64890566D01*
X128424005Y-64890566D01*
X128424008Y-64890568D01*
X128544412Y-64929689D01*
X128648631Y-64963553D01*
X128881903Y-65000500D01*
X128881908Y-65000500D01*
X129118097Y-65000500D01*
X129351368Y-64963553D01*
X129575992Y-64890568D01*
X129786433Y-64783343D01*
X129977510Y-64644517D01*
X130144517Y-64477510D01*
X130283343Y-64286433D01*
X130390568Y-64075992D01*
X130463553Y-63851368D01*
X130500500Y-63618097D01*
X130500500Y-63381902D01*
X213499500Y-63381902D01*
X213499500Y-63618097D01*
X213536446Y-63851368D01*
X213609433Y-64075996D01*
X213716657Y-64286433D01*
X213855483Y-64477510D01*
X214022490Y-64644517D01*
X214213567Y-64783343D01*
X214312991Y-64834002D01*
X214424003Y-64890566D01*
X214424005Y-64890566D01*
X214424008Y-64890568D01*
X214544412Y-64929689D01*
X214648631Y-64963553D01*
X214881903Y-65000500D01*
X214881908Y-65000500D01*
X215118097Y-65000500D01*
X215351368Y-64963553D01*
X215575992Y-64890568D01*
X215786433Y-64783343D01*
X215977510Y-64644517D01*
X216144517Y-64477510D01*
X216283343Y-64286433D01*
X216390568Y-64075992D01*
X216463553Y-63851368D01*
X216500500Y-63618097D01*
X216500500Y-63381902D01*
X216463553Y-63148631D01*
X216390566Y-62924003D01*
X216283342Y-62713566D01*
X216144517Y-62522490D01*
X215977510Y-62355483D01*
X215786433Y-62216657D01*
X215575996Y-62109433D01*
X215351368Y-62036446D01*
X215118097Y-61999500D01*
X215118092Y-61999500D01*
X214881908Y-61999500D01*
X214881903Y-61999500D01*
X214648631Y-62036446D01*
X214424003Y-62109433D01*
X214213566Y-62216657D01*
X214104550Y-62295862D01*
X214022490Y-62355483D01*
X214022488Y-62355485D01*
X214022487Y-62355485D01*
X213855485Y-62522487D01*
X213855485Y-62522488D01*
X213855483Y-62522490D01*
X213795862Y-62604550D01*
X213716657Y-62713566D01*
X213609433Y-62924003D01*
X213536446Y-63148631D01*
X213499500Y-63381902D01*
X130500500Y-63381902D01*
X130463553Y-63148631D01*
X130390566Y-62924003D01*
X130283342Y-62713566D01*
X130144517Y-62522490D01*
X129977510Y-62355483D01*
X129786433Y-62216657D01*
X129575996Y-62109433D01*
X129351368Y-62036446D01*
X129118097Y-61999500D01*
X129118092Y-61999500D01*
X128881908Y-61999500D01*
X128881903Y-61999500D01*
X128648631Y-62036446D01*
X128424003Y-62109433D01*
X128213566Y-62216657D01*
X128104550Y-62295862D01*
X128022490Y-62355483D01*
X128022488Y-62355485D01*
X128022487Y-62355485D01*
X127855485Y-62522487D01*
X127855485Y-62522488D01*
X127855483Y-62522490D01*
X127795862Y-62604550D01*
X127716657Y-62713566D01*
X127609433Y-62924003D01*
X127536446Y-63148631D01*
X127499500Y-63381902D01*
X123500500Y-63381902D01*
X123500500Y-59624500D01*
X123520185Y-59557461D01*
X123572989Y-59511706D01*
X123624500Y-59500500D01*
X222375500Y-59500500D01*
X222442539Y-59520185D01*
G37*
%TD.AperFunction*%
%TD*%
M02*
