M48
; DRILL file KiCad 10.0.1 date 2026-06-01T10:25:02
; FORMAT={-:-/ absolute / metric / decimal}
; #@! TF.CreationDate,2026-06-01T10:25:02+02:00
; #@! TF.GenerationSoftware,Kicad,Pcbnew,10.0.1
; #@! TF.FileFunction,Plated,1,2,PTH
FMAT,2
METRIC
; #@! TA.AperFunction,Plated,PTH,ViaDrill
T1C0.300
; #@! TA.AperFunction,Plated,PTH,ComponentDrill
T2C0.600
; #@! TA.AperFunction,Plated,PTH,ComponentDrill
T3C0.750
; #@! TA.AperFunction,Plated,PTH,ComponentDrill
T4C0.800
; #@! TA.AperFunction,Plated,PTH,ComponentDrill
T5C0.900
; #@! TA.AperFunction,Plated,PTH,ComponentDrill
T6C0.991
; #@! TA.AperFunction,Plated,PTH,ComponentDrill
T7C1.000
; #@! TA.AperFunction,Plated,PTH,ComponentDrill
T8C1.100
%
G90
G05
T1
X183.882Y-82.342
X183.985Y-78.104
X202.132Y-110.825
X206.892Y-108.209
X209.108Y-107.762
T3
X150.46Y-109.0
X151.73Y-109.0
X153.0Y-109.0
T4
X145.79Y-81.23
X146.29Y-71.73
X147.34Y-118.0
X155.34Y-90.0
X155.34Y-98.5
X155.95Y-81.23
X156.45Y-71.73
X157.5Y-118.0
X162.29Y-71.73
X162.29Y-81.23
X165.5Y-90.0
X165.5Y-98.5
X172.45Y-71.73
X172.45Y-81.23
X179.29Y-71.73
X189.34Y-93.0
X189.45Y-71.73
X194.45Y-81.23
X199.5Y-93.0
X204.34Y-93.0
X204.61Y-81.23
X209.45Y-72.73
X209.79Y-81.73
X214.5Y-93.0
X219.61Y-72.73
X219.95Y-81.73
T5
X198.41Y-71.23
X200.95Y-71.23
T6
X132.5Y-84.5
X132.5Y-87.27
X132.5Y-90.04
X132.5Y-92.81
X132.5Y-95.58
X132.5Y-98.35
X132.5Y-101.12
X132.5Y-103.89
X135.34Y-85.885
X135.34Y-88.655
X135.34Y-91.425
X135.34Y-94.195
X135.34Y-96.965
X135.34Y-99.735
X135.34Y-102.505
T7
X148.5Y-93.225
X148.5Y-95.765
X192.0Y-101.38
X192.0Y-116.62
T8
X172.84Y-93.0
X174.0Y-111.0
X174.0Y-113.54
X174.0Y-116.08
X183.0Y-93.0
X183.5Y-109.0
X183.5Y-119.16
T2
G00X210.77Y-102.06
M15
G01X211.87Y-102.06
M16
G05
G00X210.77Y-110.7
M15
G01X211.87Y-110.7
M16
G05
G00X215.1Y-102.06
M15
G01X215.9Y-102.06
M16
G05
G00X215.1Y-110.7
M15
G01X215.9Y-110.7
M16
G05
M30
