%TF.GenerationSoftware,KiCad,Pcbnew,10.0.1*%
%TF.CreationDate,2026-06-01T10:24:52+02:00*%
%TF.ProjectId,powerBoardv1_routed5_copperPour1,706f7765-7242-46f6-9172-6476315f726f,rev?*%
%TF.SameCoordinates,Original*%
%TF.FileFunction,Copper,L1,Top*%
%TF.FilePolarity,Positive*%
%FSLAX46Y46*%
G04 Gerber Fmt 4.6, Leading zero omitted, Abs format (unit mm)*
G04 Created by KiCad (PCBNEW 10.0.1) date 2026-06-01 10:24:52*
%MOMM*%
%LPD*%
G01*
G04 APERTURE LIST*
G04 Aperture macros list*
%AMRoundRect*
0 Rectangle with rounded corners*
0 $1 Rounding radius*
0 $2 $3 $4 $5 $6 $7 $8 $9 X,Y pos of 4 corners*
0 Add a 4 corners polygon primitive as box body*
4,1,4,$2,$3,$4,$5,$6,$7,$8,$9,$2,$3,0*
0 Add four circle primitives for the rounded corners*
1,1,$1+$1,$2,$3*
1,1,$1+$1,$4,$5*
1,1,$1+$1,$6,$7*
1,1,$1+$1,$8,$9*
0 Add four rect primitives between the rounded corners*
20,1,$1+$1,$2,$3,$4,$5,0*
20,1,$1+$1,$4,$5,$6,$7,0*
20,1,$1+$1,$6,$7,$8,$9,0*
20,1,$1+$1,$8,$9,$2,$3,0*%
G04 Aperture macros list end*
%TA.AperFunction,ComponentPad*%
%ADD10C,1.600000*%
%TD*%
%TA.AperFunction,SMDPad,CuDef*%
%ADD11RoundRect,0.250000X-0.337500X-0.475000X0.337500X-0.475000X0.337500X0.475000X-0.337500X0.475000X0*%
%TD*%
%TA.AperFunction,SMDPad,CuDef*%
%ADD12RoundRect,0.250000X1.100000X-0.412500X1.100000X0.412500X-1.100000X0.412500X-1.100000X-0.412500X0*%
%TD*%
%TA.AperFunction,ComponentPad*%
%ADD13R,2.000000X1.905000*%
%TD*%
%TA.AperFunction,ComponentPad*%
%ADD14O,2.000000X1.905000*%
%TD*%
%TA.AperFunction,SMDPad,CuDef*%
%ADD15RoundRect,0.150000X-0.825000X-0.150000X0.825000X-0.150000X0.825000X0.150000X-0.825000X0.150000X0*%
%TD*%
%TA.AperFunction,ComponentPad*%
%ADD16RoundRect,0.249999X-0.850001X-0.850001X0.850001X-0.850001X0.850001X0.850001X-0.850001X0.850001X0*%
%TD*%
%TA.AperFunction,ComponentPad*%
%ADD17C,2.200000*%
%TD*%
%TA.AperFunction,ComponentPad*%
%ADD18RoundRect,0.249999X0.850001X-0.850001X0.850001X0.850001X-0.850001X0.850001X-0.850001X-0.850001X0*%
%TD*%
%TA.AperFunction,SMDPad,CuDef*%
%ADD19RoundRect,0.150000X0.425000X-0.150000X0.425000X0.150000X-0.425000X0.150000X-0.425000X-0.150000X0*%
%TD*%
%TA.AperFunction,SMDPad,CuDef*%
%ADD20RoundRect,0.075000X0.500000X-0.075000X0.500000X0.075000X-0.500000X0.075000X-0.500000X-0.075000X0*%
%TD*%
%TA.AperFunction,ComponentPad*%
%ADD21O,2.100000X1.000000*%
%TD*%
%TA.AperFunction,ComponentPad*%
%ADD22O,1.800000X1.000000*%
%TD*%
%TA.AperFunction,ComponentPad*%
%ADD23C,1.498600*%
%TD*%
%TA.AperFunction,ComponentPad*%
%ADD24C,2.000000*%
%TD*%
%TA.AperFunction,ComponentPad*%
%ADD25R,1.700000X1.700000*%
%TD*%
%TA.AperFunction,ComponentPad*%
%ADD26C,1.700000*%
%TD*%
%TA.AperFunction,SMDPad,CuDef*%
%ADD27RoundRect,0.162500X-0.617500X-0.162500X0.617500X-0.162500X0.617500X0.162500X-0.617500X0.162500X0*%
%TD*%
%TA.AperFunction,ComponentPad*%
%ADD28R,1.800000X1.800000*%
%TD*%
%TA.AperFunction,ComponentPad*%
%ADD29C,1.800000*%
%TD*%
%TA.AperFunction,ComponentPad*%
%ADD30R,1.050000X1.500000*%
%TD*%
%TA.AperFunction,ComponentPad*%
%ADD31O,1.050000X1.500000*%
%TD*%
%TA.AperFunction,SMDPad,CuDef*%
%ADD32RoundRect,0.250000X-0.412500X-0.650000X0.412500X-0.650000X0.412500X0.650000X-0.412500X0.650000X0*%
%TD*%
%TA.AperFunction,ViaPad*%
%ADD33C,0.600000*%
%TD*%
%TA.AperFunction,Conductor*%
%ADD34C,0.250000*%
%TD*%
%TA.AperFunction,Conductor*%
%ADD35C,0.500000*%
%TD*%
%TA.AperFunction,Conductor*%
%ADD36C,0.400000*%
%TD*%
%TA.AperFunction,Conductor*%
%ADD37C,0.300000*%
%TD*%
G04 APERTURE END LIST*
D10*
%TO.P,R8_NTC1,1*%
%TO.N,Net-(NTC_Head1-Pin_1)*%
X146290000Y-71730000D03*
%TO.P,R8_NTC1,2*%
%TO.N,Net-(U1-EN)*%
X156450000Y-71730000D03*
%TD*%
D11*
%TO.P,C3_Cff1,1*%
%TO.N,Net-(D1-K)*%
X201925000Y-100000000D03*
%TO.P,C3_Cff1,2*%
%TO.N,Net-(U1-FB)*%
X204000000Y-100000000D03*
%TD*%
D12*
%TO.P,C2_Cout1,1*%
%TO.N,Net-(D1-K)*%
X162000000Y-113125000D03*
%TO.P,C2_Cout1,2*%
%TO.N,GND*%
X162000000Y-110000000D03*
%TD*%
D11*
%TO.P,C_LM_out1,1*%
%TO.N,Net-(D_LM1-A)*%
X171000000Y-102500000D03*
%TO.P,C_LM_out1,2*%
%TO.N,GND*%
X173075000Y-102500000D03*
%TD*%
D13*
%TO.P,U_LM317,1,ADJ_1*%
%TO.N,Net-(U_LM317-ADJ)*%
X174000000Y-116080000D03*
D14*
%TO.P,U_LM317,2,VO_2*%
%TO.N,Net-(D_LM1-A)*%
X174000000Y-113540000D03*
%TO.P,U_LM317,3,VI_3*%
%TO.N,Net-(D1-K)*%
X174000000Y-111000000D03*
%TD*%
D10*
%TO.P,R_TM2,1*%
%TO.N,GND*%
X162290000Y-71730000D03*
%TO.P,R_TM2,2*%
%TO.N,Net-(U2-TM)*%
X172450000Y-71730000D03*
%TD*%
%TO.P,R4_Rfb_dwn1,1*%
%TO.N,Net-(U1-FB)*%
X189340000Y-93000000D03*
%TO.P,R4_Rfb_dwn1,2*%
%TO.N,GND*%
X199500000Y-93000000D03*
%TD*%
D15*
%TO.P,U2,1,TM_1*%
%TO.N,Net-(U2-TM)*%
X182000000Y-78460000D03*
%TO.P,U2,2,LED_2*%
%TO.N,Net-(D2_LED1-K)*%
X182000000Y-79730000D03*
%TO.P,U2,3,BAT_3*%
%TO.N,Net-(U2-BAT)*%
X182000000Y-81000000D03*
%TO.P,U2,4,VSS_4*%
%TO.N,GND*%
X182000000Y-82270000D03*
%TO.P,U2,5,TS_5*%
%TO.N,Net-(NTC_Head1-Pin_1)*%
X186950000Y-82270000D03*
%TO.P,U2,6,VCC_6*%
%TO.N,Net-(U1-EN)*%
X186950000Y-81000000D03*
%TO.P,U2,7,INH_7*%
%TO.N,Net-(U2-INH)*%
X186950000Y-79730000D03*
%TO.P,U2,8,CC_8*%
%TO.N,Net-(U2-CC)*%
X186950000Y-78460000D03*
%TD*%
D10*
%TO.P,R_CC1,1*%
%TO.N,Net-(Q1_PNP1-B)*%
X209450000Y-72730000D03*
%TO.P,R_CC1,2*%
%TO.N,Net-(U2-CC)*%
X219610000Y-72730000D03*
%TD*%
D16*
%TO.P,D_LM1,1,K_1*%
%TO.N,Net-(D1-K)*%
X172840000Y-93000000D03*
D17*
%TO.P,D_LM1,2,A_2*%
%TO.N,Net-(D_LM1-A)*%
X183000000Y-93000000D03*
%TD*%
D18*
%TO.P,D1,1,K_1*%
%TO.N,Net-(D1-K)*%
X183500000Y-119160000D03*
D17*
%TO.P,D1,2,A_2*%
%TO.N,Net-(D1-A)*%
X183500000Y-109000000D03*
%TD*%
D19*
%TO.P,J2,A1,GND_A1*%
%TO.N,GND*%
X210745000Y-109580000D03*
%TO.P,J2,A4,VBUS_A4*%
%TO.N,Net-(U1-EN)*%
X210745000Y-108780000D03*
D20*
%TO.P,J2,A5,CC1_A5*%
%TO.N,Net-(J2-CC1)*%
X210745000Y-107630000D03*
%TO.P,J2,A6,D+_A6*%
%TO.N,Net-(J2-D+-PadA6)*%
X210745000Y-106630000D03*
%TO.P,J2,A7,D-_A7*%
%TO.N,Net-(J2-D--PadA7)*%
X210745000Y-106130000D03*
%TO.P,J2,A8*%
%TO.N,N/C*%
X210745000Y-105130000D03*
D19*
%TO.P,J2,A9,VBUS_A9*%
%TO.N,Net-(U1-EN)*%
X210745000Y-103980000D03*
%TO.P,J2,A12,GND_A12*%
%TO.N,GND*%
X210745000Y-103180000D03*
%TO.P,J2,B1,GND_B1*%
X210745000Y-103180000D03*
%TO.P,J2,B4,VBUS_B4*%
%TO.N,Net-(U1-EN)*%
X210745000Y-103980000D03*
D20*
%TO.P,J2,B5,CC2_B5*%
%TO.N,Net-(J2-CC2)*%
X210745000Y-104630000D03*
%TO.P,J2,B6,D+_B6*%
%TO.N,Net-(J2-D+-PadA6)*%
X210745000Y-105630000D03*
%TO.P,J2,B7,D-_B7*%
%TO.N,Net-(J2-D--PadA7)*%
X210745000Y-107130000D03*
%TO.P,J2,B8*%
%TO.N,N/C*%
X210745000Y-108130000D03*
D19*
%TO.P,J2,B9,VBUS_B9*%
%TO.N,Net-(U1-EN)*%
X210745000Y-108780000D03*
%TO.P,J2,B12,GND_B12*%
%TO.N,GND*%
X210745000Y-109580000D03*
D21*
%TO.P,J2,SH,SHIELD_SH*%
X211320000Y-110700000D03*
D22*
X215500000Y-110700000D03*
D21*
X211320000Y-102060000D03*
D22*
X215500000Y-102060000D03*
%TD*%
D10*
%TO.P,R2_CC2,1*%
%TO.N,Net-(J2-CC2)*%
X155340000Y-98500000D03*
%TO.P,R2_CC2,2*%
%TO.N,GND*%
X165500000Y-98500000D03*
%TD*%
%TO.P,R9_INH1,1*%
%TO.N,Net-(U2-INH)*%
X209790000Y-81730000D03*
%TO.P,R9_INH1,2*%
%TO.N,GND*%
X219950000Y-81730000D03*
%TD*%
D23*
%TO.P,Dsub1,1,1_1*%
%TO.N,Net-(Q1_PNP1-C)*%
X135340000Y-85885000D03*
%TO.P,Dsub1,2,2_2*%
%TO.N,GND*%
X135340000Y-88655000D03*
%TO.P,Dsub1,3,3_3*%
%TO.N,unconnected-(Dsub1-Pad3)*%
X135340000Y-91424999D03*
%TO.P,Dsub1,4,4_4*%
%TO.N,unconnected-(Dsub1-Pad4)*%
X135340000Y-94194999D03*
%TO.P,Dsub1,5,5_5*%
%TO.N,unconnected-(Dsub1-Pad5)*%
X135340000Y-96964999D03*
%TO.P,Dsub1,6,6_6*%
%TO.N,unconnected-(Dsub1-Pad6)*%
X135340000Y-99734998D03*
%TO.P,Dsub1,7,7_7*%
%TO.N,unconnected-(Dsub1-Pad7)*%
X135340000Y-102504998D03*
%TO.P,Dsub1,8,8_8*%
%TO.N,unconnected-(Dsub1-Pad8)*%
X132500001Y-84500002D03*
%TO.P,Dsub1,9,P9_9*%
%TO.N,unconnected-(Dsub1-P9-Pad9)*%
X132500001Y-87270001D03*
%TO.P,Dsub1,10,P10_10*%
%TO.N,unconnected-(Dsub1-P10-Pad10)*%
X132500001Y-90040001D03*
%TO.P,Dsub1,11,P111_11*%
%TO.N,unconnected-(Dsub1-P111-Pad11)*%
X132500001Y-92810000D03*
%TO.P,Dsub1,12,P12_12*%
%TO.N,unconnected-(Dsub1-P12-Pad12)*%
X132500001Y-95580000D03*
%TO.P,Dsub1,13,P13_13*%
%TO.N,unconnected-(Dsub1-P13-Pad13)*%
X132500001Y-98350000D03*
%TO.P,Dsub1,14,P14_14*%
%TO.N,unconnected-(Dsub1-P14-Pad14)*%
X132500001Y-101119999D03*
%TO.P,Dsub1,15,P15_15*%
%TO.N,unconnected-(Dsub1-P15-Pad15)*%
X132500001Y-103889999D03*
%TD*%
D24*
%TO.P,L1,1*%
%TO.N,Net-(D1-A)*%
X192000000Y-116620000D03*
%TO.P,L1,2*%
%TO.N,Net-(U1-EN)*%
X192000000Y-101380000D03*
%TD*%
D10*
%TO.P,R_TM1,1*%
%TO.N,Net-(U1-EN)*%
X162290000Y-81230000D03*
%TO.P,R_TM1,2*%
%TO.N,Net-(U2-TM)*%
X172450000Y-81230000D03*
%TD*%
%TO.P,R7_bottom1,1*%
%TO.N,Net-(U2-BAT)*%
X145790000Y-81230000D03*
%TO.P,R7_bottom1,2*%
%TO.N,GND*%
X155950000Y-81230000D03*
%TD*%
%TO.P,R_SNS1,1*%
%TO.N,Net-(U_LM317-ADJ)*%
X157500000Y-118000000D03*
%TO.P,R_SNS1,2*%
%TO.N,Net-(D_LM1-A)*%
X147340000Y-118000000D03*
%TD*%
D25*
%TO.P,NTC_Head1,1,Pin_1_1*%
%TO.N,Net-(NTC_Head1-Pin_1)*%
X148500000Y-93225000D03*
D26*
%TO.P,NTC_Head1,2,Pin_2_2*%
%TO.N,GND*%
X148500000Y-95765000D03*
%TD*%
D27*
%TO.P,U1,1,SW_1*%
%TO.N,Net-(D1-A)*%
X201800000Y-107500000D03*
%TO.P,U1,2,GND_2*%
%TO.N,GND*%
X201800000Y-108450000D03*
%TO.P,U1,3,FB_3*%
%TO.N,Net-(U1-FB)*%
X201800000Y-109400000D03*
%TO.P,U1,4,EN_4*%
%TO.N,Net-(U1-EN)*%
X204500000Y-109400000D03*
%TO.P,U1,5,VIN_5*%
X204500000Y-107500000D03*
%TD*%
D10*
%TO.P,R1_CC1,1*%
%TO.N,GND*%
X155340000Y-90000000D03*
%TO.P,R1_CC1,2*%
%TO.N,Net-(J2-CC1)*%
X165500000Y-90000000D03*
%TD*%
D28*
%TO.P,D2_LED1,1,K_1*%
%TO.N,Net-(D2_LED1-K)*%
X198410000Y-71230000D03*
D29*
%TO.P,D2_LED1,2,A_2*%
%TO.N,Net-(D2_LED1-A)*%
X200950000Y-71230000D03*
%TD*%
D30*
%TO.P,Q1_PNP1,1,C_1*%
%TO.N,Net-(Q1_PNP1-C)*%
X150460000Y-109000000D03*
D31*
%TO.P,Q1_PNP1,2,B_2*%
%TO.N,Net-(Q1_PNP1-B)*%
X151730000Y-109000000D03*
%TO.P,Q1_PNP1,3,E_3*%
%TO.N,Net-(D_LM1-A)*%
X153000000Y-109000000D03*
%TD*%
D10*
%TO.P,R5_LED1,1*%
%TO.N,Net-(D2_LED1-A)*%
X194450000Y-81230000D03*
%TO.P,R5_LED1,2*%
%TO.N,Net-(U1-EN)*%
X204610000Y-81230000D03*
%TD*%
D32*
%TO.P,C1_Cin1,1*%
%TO.N,GND*%
X201375000Y-118000000D03*
%TO.P,C1_Cin1,2*%
%TO.N,Net-(U1-EN)*%
X204500000Y-118000000D03*
%TD*%
D10*
%TO.P,R6_top1,1*%
%TO.N,Net-(Q1_PNP1-C)*%
X179290000Y-71730000D03*
%TO.P,R6_top1,2*%
%TO.N,Net-(U2-BAT)*%
X189450000Y-71730000D03*
%TD*%
%TO.P,R3_Rfb_up1,1*%
%TO.N,Net-(D1-K)*%
X204340000Y-93000000D03*
%TO.P,R3_Rfb_up1,2*%
%TO.N,Net-(U1-FB)*%
X214500000Y-93000000D03*
%TD*%
D11*
%TO.P,C_LM_in1,1*%
%TO.N,GND*%
X179925000Y-102500000D03*
%TO.P,C_LM_in1,2*%
%TO.N,Net-(D1-K)*%
X182000000Y-102500000D03*
%TD*%
D33*
%TO.N,Net-(NTC_Head1-Pin_1)*%
X183882400Y-82341900D03*
%TO.N,Net-(U1-FB)*%
X202132100Y-110825100D03*
%TO.N,Net-(D2_LED1-K)*%
X183984900Y-78104200D03*
%TO.N,Net-(J2-CC1)*%
X209108200Y-107762400D03*
%TO.N,Net-(J2-CC2)*%
X206892400Y-108209300D03*
%TD*%
%TO.N,Net-(NTC_Head1-Pin_1)*%
D34*
X148500000Y-73940000D02*
X146290000Y-71730000D01*
X148500000Y-93225000D02*
X148500000Y-73940000D01*
X186878100Y-82341900D02*
X186950000Y-82270000D01*
X183882400Y-82341900D02*
X186878100Y-82341900D01*
%TO.N,Net-(U1-EN)*%
D35*
X198380000Y-101380000D02*
X204500000Y-107500000D01*
X162290000Y-81230000D02*
X163566000Y-79954000D01*
X204500000Y-108961000D02*
X206000000Y-108961000D01*
X206000000Y-108961000D02*
X207203800Y-108961000D01*
X203356700Y-82483300D02*
X204610000Y-81230000D01*
X207384800Y-108780000D02*
X210745000Y-108780000D01*
X204500000Y-118000000D02*
X204500000Y-109400000D01*
X163566000Y-79954000D02*
X163566000Y-71217300D01*
D36*
X210745000Y-103980000D02*
X209520000Y-103980000D01*
D35*
X163566000Y-71217300D02*
X162798800Y-70450100D01*
X193745100Y-82483300D02*
X203356700Y-82483300D01*
X204500000Y-107500000D02*
X204500000Y-108961000D01*
X192000000Y-101380000D02*
X198380000Y-101380000D01*
X157729900Y-70450100D02*
X156450000Y-71730000D01*
X192261800Y-81000000D02*
X193745100Y-82483300D01*
X207203800Y-108961000D02*
X207384800Y-108780000D01*
X162798800Y-70450100D02*
X157729900Y-70450100D01*
D36*
X206000000Y-107500000D02*
X206000000Y-108961000D01*
D35*
X204500000Y-108961000D02*
X204500000Y-109400000D01*
D36*
X209520000Y-103980000D02*
X206000000Y-107500000D01*
D35*
X186950000Y-81000000D02*
X192261800Y-81000000D01*
%TO.N,Net-(D1-K)*%
D37*
X167295200Y-98544800D02*
X172840000Y-93000000D01*
X162000000Y-113125000D02*
X167295200Y-107829800D01*
X184500000Y-100000000D02*
X201925000Y-100000000D01*
X167295200Y-107829800D02*
X167295200Y-98544800D01*
X183500000Y-119160000D02*
X175351700Y-111011700D01*
X174000000Y-111000000D02*
X175351700Y-111000000D01*
X182000000Y-102500000D02*
X184500000Y-100000000D01*
X182000000Y-104351700D02*
X182000000Y-102500000D01*
X204959500Y-100787100D02*
X204959500Y-93619500D01*
X201925000Y-100000000D02*
X203007700Y-101082700D01*
X204663900Y-101082700D02*
X204959500Y-100787100D01*
X203007700Y-101082700D02*
X204663900Y-101082700D01*
X204959500Y-93619500D02*
X204340000Y-93000000D01*
X175351700Y-111011700D02*
X175351700Y-111000000D01*
X175351700Y-111000000D02*
X182000000Y-104351700D01*
%TO.N,Net-(U1-FB)*%
D34*
X201800000Y-110493000D02*
X202132100Y-110825100D01*
X204000000Y-100000000D02*
X200927400Y-96927400D01*
X214500000Y-93000000D02*
X213328100Y-91828100D01*
X191124700Y-94784700D02*
X189340000Y-93000000D01*
X200927400Y-96927400D02*
X200927400Y-94784700D01*
X200927400Y-94784700D02*
X191124700Y-94784700D01*
X203884000Y-91828100D02*
X200927400Y-94784700D01*
X201800000Y-109400000D02*
X201800000Y-110493000D01*
X213328100Y-91828100D02*
X203884000Y-91828100D01*
%TO.N,GND*%
X210745000Y-110125000D02*
X210745000Y-109580000D01*
X203856500Y-119274700D02*
X205168000Y-119274700D01*
X211320000Y-102060000D02*
X210745000Y-102635000D01*
X210745000Y-102635000D02*
X210745000Y-103180000D01*
X192730000Y-93000000D02*
X199500000Y-93000000D01*
X181661900Y-82608100D02*
X182000000Y-82270000D01*
X165500000Y-97822800D02*
X180714600Y-82608200D01*
X190230900Y-90500900D02*
X192730000Y-93000000D01*
X155950000Y-89390000D02*
X155950000Y-81230000D01*
X165500000Y-106500000D02*
X165500000Y-98500000D01*
X179925000Y-102500000D02*
X179925000Y-100806800D01*
X201978400Y-117396600D02*
X202925600Y-116449400D01*
X182000000Y-82270000D02*
X190230900Y-90500900D01*
X215500000Y-102060000D02*
X216726700Y-102060000D01*
X215500000Y-102060000D02*
X211320000Y-102060000D01*
X148500000Y-95765000D02*
X149575000Y-95765000D01*
X201375000Y-118000000D02*
X201978400Y-117396600D01*
X155950000Y-81230000D02*
X162290000Y-74890000D01*
X201978400Y-117396600D02*
X203856500Y-119274700D01*
X179925000Y-102500000D02*
X173075000Y-102500000D01*
X202925600Y-116449400D02*
X202925600Y-109050200D01*
X211320000Y-113122700D02*
X211320000Y-110700000D01*
X219950000Y-98836700D02*
X216726700Y-102060000D01*
X155340000Y-90000000D02*
X155950000Y-89390000D01*
X149575000Y-95765000D02*
X155340000Y-90000000D01*
X205168000Y-119274700D02*
X211320000Y-113122700D01*
X202925600Y-109050200D02*
X202325400Y-108450000D01*
X219950000Y-81730000D02*
X219950000Y-98836700D01*
X181661900Y-82608200D02*
X181661900Y-82608100D01*
X202325400Y-108450000D02*
X201800000Y-108450000D01*
X165500000Y-98500000D02*
X165500000Y-97822800D01*
X179925000Y-100806800D02*
X190230900Y-90500900D01*
X162290000Y-74890000D02*
X162290000Y-71730000D01*
X211320000Y-110700000D02*
X210745000Y-110125000D01*
X215500000Y-110700000D02*
X211320000Y-110700000D01*
X180714600Y-82608200D02*
X181661900Y-82608200D01*
X162000000Y-110000000D02*
X165500000Y-106500000D01*
%TO.N,Net-(D_LM1-A)*%
D37*
X167399800Y-114140200D02*
X154800200Y-114140200D01*
X154800200Y-114140200D02*
X153000000Y-112340000D01*
X171000000Y-110540000D02*
X171000000Y-102500000D01*
X153000000Y-109000000D02*
X153000000Y-112340000D01*
X174000000Y-113540000D02*
X171000000Y-110540000D01*
X180500000Y-93000000D02*
X171000000Y-102500000D01*
X183000000Y-93000000D02*
X180500000Y-93000000D01*
X153000000Y-112340000D02*
X147340000Y-118000000D01*
X171000000Y-110540000D02*
X167399800Y-114140200D01*
%TO.N,Net-(U_LM317-ADJ)*%
D34*
X174000000Y-116080000D02*
X174000000Y-117359200D01*
X173359200Y-118000000D02*
X174000000Y-117359200D01*
X157500000Y-118000000D02*
X173359200Y-118000000D01*
%TO.N,Net-(U2-TM)*%
X182000000Y-78460000D02*
X180431300Y-78460000D01*
X180431300Y-78460000D02*
X175220000Y-78460000D01*
X180431300Y-71217700D02*
X179793400Y-70579800D01*
X175220000Y-78460000D02*
X172450000Y-81230000D01*
X173600200Y-70579800D02*
X172450000Y-71730000D01*
X180431300Y-78460000D02*
X180431300Y-71217700D01*
X179793400Y-70579800D02*
X173600200Y-70579800D01*
%TO.N,Net-(D2_LED1-K)*%
X183984900Y-78176200D02*
X182431100Y-79730000D01*
X183984900Y-78104200D02*
X183984900Y-78176200D01*
X182431100Y-79730000D02*
X182000000Y-79730000D01*
%TO.N,Net-(U2-BAT)*%
X182408600Y-81000000D02*
X182000000Y-81000000D01*
X189450000Y-71730000D02*
X189450000Y-73958600D01*
X189450000Y-73958600D02*
X182408600Y-81000000D01*
%TO.N,Net-(U2-INH)*%
X186950000Y-79730000D02*
X207790000Y-79730000D01*
X207790000Y-79730000D02*
X209790000Y-81730000D01*
%TO.N,Net-(U2-CC)*%
X195407000Y-70003000D02*
X216883000Y-70003000D01*
X216883000Y-70003000D02*
X219610000Y-72730000D01*
X186950000Y-78460000D02*
X195407000Y-70003000D01*
%TO.N,Net-(Q1_PNP1-B)*%
X183392100Y-81635000D02*
X178018300Y-81635000D01*
X209450000Y-72730000D02*
X203085000Y-79095000D01*
X203085000Y-79095000D02*
X185932100Y-79095000D01*
X151730000Y-109000000D02*
X151730000Y-107923300D01*
X178018300Y-81635000D02*
X151730000Y-107923300D01*
X185932100Y-79095000D02*
X183392100Y-81635000D01*
%TO.N,Net-(D1-A)*%
D36*
X191120000Y-116620000D02*
X183500000Y-109000000D01*
X192000000Y-116620000D02*
X191120000Y-116620000D01*
X201800000Y-107500000D02*
X201120000Y-107500000D01*
X201120000Y-107500000D02*
X192000000Y-116620000D01*
%TO.N,Net-(J2-CC1)*%
D34*
X209240600Y-107630000D02*
X210745000Y-107630000D01*
X209108200Y-107762400D02*
X209240600Y-107630000D01*
%TO.N,Net-(J2-D+-PadA6)*%
X211455400Y-105630000D02*
X211701500Y-105876100D01*
X211701500Y-105876100D02*
X211701500Y-106383400D01*
X210745000Y-105630000D02*
X211455400Y-105630000D01*
X211701500Y-106383400D02*
X211454900Y-106630000D01*
X211454900Y-106630000D02*
X210745000Y-106630000D01*
%TO.N,Net-(J2-D--PadA7)*%
X209788500Y-106883900D02*
X209788500Y-106376600D01*
X210035100Y-106130000D02*
X210745000Y-106130000D01*
X210034600Y-107130000D02*
X209788500Y-106883900D01*
X209788500Y-106376600D02*
X210035100Y-106130000D01*
X210745000Y-107130000D02*
X210034600Y-107130000D01*
%TO.N,Net-(J2-CC2)*%
X206892400Y-108209300D02*
X206892400Y-107771200D01*
X210033600Y-104630000D02*
X210745000Y-104630000D01*
X206892400Y-107771200D02*
X210033600Y-104630000D01*
%TO.N,Net-(Q1_PNP1-C)*%
D37*
X150237500Y-100782500D02*
X135340000Y-85885000D01*
X150460000Y-109000000D02*
X150460000Y-101005000D01*
X150460000Y-101005000D02*
X150237500Y-100782500D01*
X150237500Y-100782500D02*
X179290000Y-71730000D01*
%TD*%
%TA.AperFunction,Conductor*%
%TO.N,GND*%
G36*
X203203358Y-107845246D02*
G01*
X203255403Y-107891863D01*
X203268383Y-107920284D01*
X203273467Y-107936598D01*
X203273468Y-107936600D01*
X203273469Y-107936602D01*
X203329628Y-108029500D01*
X203356766Y-108074391D01*
X203470608Y-108188233D01*
X203470610Y-108188234D01*
X203470612Y-108188236D01*
X203608398Y-108271531D01*
X203662391Y-108288355D01*
X203683561Y-108302458D01*
X203706703Y-108313027D01*
X203712151Y-108321504D01*
X203720537Y-108327091D01*
X203730722Y-108350403D01*
X203744477Y-108371805D01*
X203746636Y-108386823D01*
X203748512Y-108391116D01*
X203749500Y-108406740D01*
X203749500Y-108493259D01*
X203729815Y-108560298D01*
X203677011Y-108606053D01*
X203662390Y-108611644D01*
X203608401Y-108628467D01*
X203470608Y-108711766D01*
X203356766Y-108825608D01*
X203273468Y-108963400D01*
X203268385Y-108979712D01*
X203250102Y-109007154D01*
X203232737Y-109035182D01*
X203230823Y-109036094D01*
X203229647Y-109037860D01*
X203199429Y-109051061D01*
X203169669Y-109065251D01*
X203167564Y-109064983D01*
X203165621Y-109065833D01*
X203133068Y-109060603D01*
X203100356Y-109056450D01*
X203098730Y-109055087D01*
X203096636Y-109054751D01*
X203072074Y-109032748D01*
X203046805Y-109011572D01*
X203045590Y-109009024D01*
X203044594Y-109008132D01*
X203031615Y-108979714D01*
X203026531Y-108963398D01*
X203026529Y-108963395D01*
X203025799Y-108961051D01*
X203024647Y-108891190D01*
X203025799Y-108887267D01*
X203073933Y-108732799D01*
X203073935Y-108732792D01*
X203076914Y-108700000D01*
X202844496Y-108700000D01*
X202780346Y-108682117D01*
X202691602Y-108628469D01*
X202637608Y-108611644D01*
X202537887Y-108580570D01*
X202537885Y-108580569D01*
X202537883Y-108580569D01*
X202491117Y-108576319D01*
X202471091Y-108574500D01*
X202471088Y-108574500D01*
X201924000Y-108574500D01*
X201915314Y-108571949D01*
X201906353Y-108573238D01*
X201882312Y-108562259D01*
X201856961Y-108554815D01*
X201851033Y-108547974D01*
X201842797Y-108544213D01*
X201828507Y-108521978D01*
X201811206Y-108502011D01*
X201808918Y-108491496D01*
X201805023Y-108485435D01*
X201800000Y-108450500D01*
X201800000Y-108449499D01*
X201819685Y-108382460D01*
X201872489Y-108336705D01*
X201924000Y-108325499D01*
X202471097Y-108325499D01*
X202537882Y-108319431D01*
X202537885Y-108319430D01*
X202537887Y-108319430D01*
X202691602Y-108271531D01*
X202780346Y-108217882D01*
X202844496Y-108200000D01*
X203076915Y-108200000D01*
X203076914Y-108199999D01*
X203073935Y-108167207D01*
X203073933Y-108167200D01*
X203025799Y-108012732D01*
X203025472Y-107992911D01*
X203020201Y-107973802D01*
X203024695Y-107945813D01*
X203024647Y-107942871D01*
X203025797Y-107938954D01*
X203026528Y-107936605D01*
X203026531Y-107936602D01*
X203031615Y-107920286D01*
X203070348Y-107862142D01*
X203134373Y-107834167D01*
X203203358Y-107845246D01*
G37*
%TD.AperFunction*%
%TA.AperFunction,Conductor*%
G36*
X222442539Y-59520185D02*
G01*
X222488294Y-59572989D01*
X222499500Y-59624500D01*
X222499500Y-128875500D01*
X222479815Y-128942539D01*
X222427011Y-128988294D01*
X222375500Y-128999500D01*
X123624500Y-128999500D01*
X123557461Y-128979815D01*
X123511706Y-128927011D01*
X123500500Y-128875500D01*
X123500500Y-124881902D01*
X127499500Y-124881902D01*
X127499500Y-125118097D01*
X127536446Y-125351368D01*
X127609433Y-125575996D01*
X127716657Y-125786433D01*
X127855483Y-125977510D01*
X128022490Y-126144517D01*
X128213567Y-126283343D01*
X128312991Y-126334002D01*
X128424003Y-126390566D01*
X128424005Y-126390566D01*
X128424008Y-126390568D01*
X128544412Y-126429689D01*
X128648631Y-126463553D01*
X128881903Y-126500500D01*
X128881908Y-126500500D01*
X129118097Y-126500500D01*
X129351368Y-126463553D01*
X129575992Y-126390568D01*
X129786433Y-126283343D01*
X129977510Y-126144517D01*
X130144517Y-125977510D01*
X130283343Y-125786433D01*
X130390568Y-125575992D01*
X130463553Y-125351368D01*
X130496315Y-125144517D01*
X130500500Y-125118097D01*
X130500500Y-124881902D01*
X130463553Y-124648631D01*
X130390566Y-124424003D01*
X130283342Y-124213566D01*
X130144517Y-124022490D01*
X130003929Y-123881902D01*
X213499500Y-123881902D01*
X213499500Y-124118097D01*
X213536446Y-124351368D01*
X213609433Y-124575996D01*
X213716657Y-124786433D01*
X213855483Y-124977510D01*
X214022490Y-125144517D01*
X214213567Y-125283343D01*
X214312991Y-125334002D01*
X214424003Y-125390566D01*
X214424005Y-125390566D01*
X214424008Y-125390568D01*
X214544412Y-125429689D01*
X214648631Y-125463553D01*
X214881903Y-125500500D01*
X214881908Y-125500500D01*
X215118097Y-125500500D01*
X215351368Y-125463553D01*
X215575992Y-125390568D01*
X215786433Y-125283343D01*
X215977510Y-125144517D01*
X216144517Y-124977510D01*
X216283343Y-124786433D01*
X216390568Y-124575992D01*
X216463553Y-124351368D01*
X216500500Y-124118097D01*
X216500500Y-123881902D01*
X216463553Y-123648631D01*
X216390566Y-123424003D01*
X216283342Y-123213566D01*
X216144517Y-123022490D01*
X215977510Y-122855483D01*
X215786433Y-122716657D01*
X215575996Y-122609433D01*
X215351368Y-122536446D01*
X215118097Y-122499500D01*
X215118092Y-122499500D01*
X214881908Y-122499500D01*
X214881903Y-122499500D01*
X214648631Y-122536446D01*
X214424003Y-122609433D01*
X214213566Y-122716657D01*
X214104550Y-122795862D01*
X214022490Y-122855483D01*
X214022488Y-122855485D01*
X214022487Y-122855485D01*
X213855485Y-123022487D01*
X213855485Y-123022488D01*
X213855483Y-123022490D01*
X213795862Y-123104550D01*
X213716657Y-123213566D01*
X213609433Y-123424003D01*
X213536446Y-123648631D01*
X213499500Y-123881902D01*
X130003929Y-123881902D01*
X129977510Y-123855483D01*
X129786433Y-123716657D01*
X129575996Y-123609433D01*
X129351368Y-123536446D01*
X129118097Y-123499500D01*
X129118092Y-123499500D01*
X128881908Y-123499500D01*
X128881903Y-123499500D01*
X128648631Y-123536446D01*
X128424003Y-123609433D01*
X128213566Y-123716657D01*
X128104550Y-123795862D01*
X128022490Y-123855483D01*
X128022488Y-123855485D01*
X128022487Y-123855485D01*
X127855485Y-124022487D01*
X127855485Y-124022488D01*
X127855483Y-124022490D01*
X127795862Y-124104550D01*
X127716657Y-124213566D01*
X127609433Y-124424003D01*
X127536446Y-124648631D01*
X127499500Y-124881902D01*
X123500500Y-124881902D01*
X123500500Y-103791632D01*
X131250201Y-103791632D01*
X131250201Y-103988365D01*
X131280974Y-104182661D01*
X131341767Y-104369760D01*
X131416928Y-104517270D01*
X131431076Y-104545037D01*
X131546707Y-104704189D01*
X131685811Y-104843293D01*
X131844963Y-104958924D01*
X131927775Y-105001119D01*
X132020239Y-105048232D01*
X132020241Y-105048232D01*
X132020244Y-105048234D01*
X132053828Y-105059146D01*
X132207338Y-105109025D01*
X132401635Y-105139799D01*
X132401640Y-105139799D01*
X132598367Y-105139799D01*
X132792663Y-105109025D01*
X132979758Y-105048234D01*
X133155039Y-104958924D01*
X133314191Y-104843293D01*
X133453295Y-104704189D01*
X133568926Y-104545037D01*
X133658236Y-104369756D01*
X133719027Y-104182661D01*
X133729178Y-104118572D01*
X133749801Y-103988365D01*
X133749801Y-103791632D01*
X133719027Y-103597336D01*
X133673847Y-103458289D01*
X133658236Y-103410242D01*
X133568926Y-103234961D01*
X133453295Y-103075809D01*
X133314191Y-102936705D01*
X133155039Y-102821074D01*
X132979762Y-102731765D01*
X132792663Y-102670972D01*
X132598367Y-102640199D01*
X132598362Y-102640199D01*
X132401640Y-102640199D01*
X132401635Y-102640199D01*
X132207338Y-102670972D01*
X132020239Y-102731765D01*
X131844962Y-102821074D01*
X131814023Y-102843553D01*
X131685811Y-102936705D01*
X131685809Y-102936707D01*
X131685808Y-102936707D01*
X131546709Y-103075806D01*
X131546709Y-103075807D01*
X131546707Y-103075809D01*
X131508934Y-103127799D01*
X131431076Y-103234960D01*
X131388159Y-103319190D01*
X131341766Y-103410242D01*
X131326155Y-103458289D01*
X131280974Y-103597336D01*
X131250201Y-103791632D01*
X123500500Y-103791632D01*
X123500500Y-102406631D01*
X134090200Y-102406631D01*
X134090200Y-102603364D01*
X134120973Y-102797660D01*
X134181766Y-102984759D01*
X134271075Y-103160036D01*
X134386706Y-103319188D01*
X134525810Y-103458292D01*
X134684962Y-103573923D01*
X134730913Y-103597336D01*
X134860238Y-103663231D01*
X134860240Y-103663231D01*
X134860243Y-103663233D01*
X134909800Y-103679335D01*
X135047337Y-103724024D01*
X135241634Y-103754798D01*
X135241639Y-103754798D01*
X135438366Y-103754798D01*
X135632662Y-103724024D01*
X135669252Y-103712135D01*
X135819757Y-103663233D01*
X135995038Y-103573923D01*
X136154190Y-103458292D01*
X136293294Y-103319188D01*
X136408925Y-103160036D01*
X136498235Y-102984755D01*
X136559026Y-102797660D01*
X136563317Y-102770566D01*
X136589800Y-102603364D01*
X136589800Y-102406631D01*
X136559026Y-102212335D01*
X136498233Y-102025236D01*
X136451120Y-101932772D01*
X136408925Y-101849960D01*
X136293294Y-101690808D01*
X136154190Y-101551704D01*
X135995038Y-101436073D01*
X135988387Y-101432684D01*
X135819761Y-101346764D01*
X135632662Y-101285971D01*
X135438366Y-101255198D01*
X135438361Y-101255198D01*
X135241639Y-101255198D01*
X135241634Y-101255198D01*
X135047337Y-101285971D01*
X134860238Y-101346764D01*
X134684961Y-101436073D01*
X134594159Y-101502045D01*
X134525810Y-101551704D01*
X134525808Y-101551706D01*
X134525807Y-101551706D01*
X134386708Y-101690805D01*
X134386708Y-101690806D01*
X134386706Y-101690808D01*
X134337047Y-101759157D01*
X134271075Y-101849959D01*
X134181766Y-102025236D01*
X134120973Y-102212335D01*
X134090200Y-102406631D01*
X123500500Y-102406631D01*
X123500500Y-101021632D01*
X131250201Y-101021632D01*
X131250201Y-101218365D01*
X131280974Y-101412661D01*
X131341767Y-101599760D01*
X131409759Y-101733200D01*
X131431076Y-101775037D01*
X131546707Y-101934189D01*
X131685811Y-102073293D01*
X131844963Y-102188924D01*
X131890910Y-102212335D01*
X132020239Y-102278232D01*
X132020241Y-102278232D01*
X132020244Y-102278234D01*
X132118009Y-102310000D01*
X132207338Y-102339025D01*
X132401635Y-102369799D01*
X132401640Y-102369799D01*
X132598367Y-102369799D01*
X132792663Y-102339025D01*
X132814450Y-102331946D01*
X132979758Y-102278234D01*
X133155039Y-102188924D01*
X133314191Y-102073293D01*
X133453295Y-101934189D01*
X133568926Y-101775037D01*
X133658236Y-101599756D01*
X133719027Y-101412661D01*
X133729464Y-101346763D01*
X133749801Y-101218365D01*
X133749801Y-101021632D01*
X133719027Y-100827336D01*
X133687779Y-100731166D01*
X133658236Y-100640242D01*
X133658234Y-100640239D01*
X133658234Y-100640237D01*
X133568925Y-100464960D01*
X133453295Y-100305809D01*
X133314191Y-100166705D01*
X133155039Y-100051074D01*
X132979762Y-99961765D01*
X132792663Y-99900972D01*
X132598367Y-99870199D01*
X132598362Y-99870199D01*
X132401640Y-99870199D01*
X132401635Y-99870199D01*
X132207338Y-99900972D01*
X132020239Y-99961765D01*
X131844962Y-100051074D01*
X131754160Y-100117046D01*
X131685811Y-100166705D01*
X131685809Y-100166707D01*
X131685808Y-100166707D01*
X131546709Y-100305806D01*
X131546709Y-100305807D01*
X131546707Y-100305809D01*
X131497048Y-100374158D01*
X131431076Y-100464960D01*
X131341767Y-100640237D01*
X131280974Y-100827336D01*
X131250201Y-101021632D01*
X123500500Y-101021632D01*
X123500500Y-99636631D01*
X134090200Y-99636631D01*
X134090200Y-99833364D01*
X134120973Y-100027660D01*
X134181766Y-100214759D01*
X134228158Y-100305807D01*
X134271075Y-100390036D01*
X134386706Y-100549188D01*
X134525810Y-100688292D01*
X134684962Y-100803923D01*
X134730913Y-100827336D01*
X134860238Y-100893231D01*
X134860240Y-100893231D01*
X134860243Y-100893233D01*
X134960530Y-100925818D01*
X135047337Y-100954024D01*
X135241634Y-100984798D01*
X135241639Y-100984798D01*
X135438366Y-100984798D01*
X135632662Y-100954024D01*
X135672967Y-100940928D01*
X135819757Y-100893233D01*
X135995038Y-100803923D01*
X136154190Y-100688292D01*
X136293294Y-100549188D01*
X136408925Y-100390036D01*
X136498235Y-100214755D01*
X136559026Y-100027660D01*
X136569463Y-99961764D01*
X136589800Y-99833364D01*
X136589800Y-99636631D01*
X136559026Y-99442335D01*
X136498233Y-99255236D01*
X136408924Y-99079959D01*
X136293294Y-98920808D01*
X136154190Y-98781704D01*
X135995038Y-98666073D01*
X135972117Y-98654394D01*
X135819761Y-98576764D01*
X135632662Y-98515971D01*
X135438366Y-98485198D01*
X135438361Y-98485198D01*
X135241639Y-98485198D01*
X135241634Y-98485198D01*
X135047337Y-98515971D01*
X134860238Y-98576764D01*
X134684961Y-98666073D01*
X134646752Y-98693834D01*
X134525810Y-98781704D01*
X134525808Y-98781706D01*
X134525807Y-98781706D01*
X134386708Y-98920805D01*
X134386708Y-98920806D01*
X134386706Y-98920808D01*
X134378365Y-98932289D01*
X134271075Y-99079959D01*
X134181766Y-99255236D01*
X134120973Y-99442335D01*
X134090200Y-99636631D01*
X123500500Y-99636631D01*
X123500500Y-98251633D01*
X131250201Y-98251633D01*
X131250201Y-98448366D01*
X131280974Y-98642662D01*
X131341767Y-98829761D01*
X131428015Y-98999031D01*
X131431076Y-99005038D01*
X131546707Y-99164190D01*
X131685811Y-99303294D01*
X131844963Y-99418925D01*
X131890908Y-99442335D01*
X132020239Y-99508233D01*
X132020241Y-99508233D01*
X132020244Y-99508235D01*
X132120531Y-99540820D01*
X132207338Y-99569026D01*
X132401635Y-99599800D01*
X132401640Y-99599800D01*
X132598367Y-99599800D01*
X132792663Y-99569026D01*
X132979758Y-99508235D01*
X133155039Y-99418925D01*
X133314191Y-99303294D01*
X133453295Y-99164190D01*
X133568926Y-99005038D01*
X133658236Y-98829757D01*
X133719027Y-98642662D01*
X133721960Y-98624142D01*
X133749801Y-98448366D01*
X133749801Y-98251633D01*
X133719027Y-98057337D01*
X133658234Y-97870238D01*
X133568925Y-97694961D01*
X133538283Y-97652786D01*
X133453295Y-97535810D01*
X133314191Y-97396706D01*
X133155039Y-97281075D01*
X132979762Y-97191766D01*
X132792663Y-97130973D01*
X132598367Y-97100200D01*
X132598362Y-97100200D01*
X132401640Y-97100200D01*
X132401635Y-97100200D01*
X132207338Y-97130973D01*
X132020239Y-97191766D01*
X131844962Y-97281075D01*
X131782946Y-97326133D01*
X131685811Y-97396706D01*
X131685809Y-97396708D01*
X131685808Y-97396708D01*
X131546709Y-97535807D01*
X131546709Y-97535808D01*
X131546707Y-97535810D01*
X131497048Y-97604159D01*
X131431076Y-97694961D01*
X131341767Y-97870238D01*
X131280974Y-98057337D01*
X131250201Y-98251633D01*
X123500500Y-98251633D01*
X123500500Y-97063363D01*
X134090199Y-97063363D01*
X134120973Y-97257661D01*
X134181766Y-97444760D01*
X134228158Y-97535808D01*
X134271075Y-97620037D01*
X134386706Y-97779189D01*
X134525810Y-97918293D01*
X134684962Y-98033924D01*
X134727808Y-98055755D01*
X134860238Y-98123232D01*
X134860240Y-98123232D01*
X134860243Y-98123234D01*
X134931682Y-98146446D01*
X135047337Y-98184025D01*
X135241634Y-98214799D01*
X135241639Y-98214799D01*
X135438366Y-98214799D01*
X135632662Y-98184025D01*
X135645296Y-98179920D01*
X135819757Y-98123234D01*
X135995038Y-98033924D01*
X136154190Y-97918293D01*
X136293294Y-97779189D01*
X136408925Y-97620037D01*
X136498235Y-97444756D01*
X136559026Y-97257661D01*
X136579091Y-97130974D01*
X136589800Y-97063363D01*
X136589800Y-96866632D01*
X136559026Y-96672336D01*
X136498233Y-96485237D01*
X136408924Y-96309960D01*
X136389494Y-96283217D01*
X136293294Y-96150809D01*
X136154190Y-96011705D01*
X135995038Y-95896074D01*
X135819761Y-95806765D01*
X135632662Y-95745972D01*
X135438366Y-95715199D01*
X135438361Y-95715199D01*
X135241639Y-95715199D01*
X135241634Y-95715199D01*
X135047337Y-95745972D01*
X134860238Y-95806765D01*
X134684961Y-95896074D01*
X134599738Y-95957993D01*
X134525810Y-96011705D01*
X134525808Y-96011707D01*
X134525807Y-96011707D01*
X134386708Y-96150806D01*
X134386708Y-96150807D01*
X134386706Y-96150809D01*
X134376324Y-96165099D01*
X134271075Y-96309960D01*
X134181766Y-96485237D01*
X134120973Y-96672336D01*
X134090200Y-96866632D01*
X134090200Y-97063361D01*
X134090199Y-97063363D01*
X123500500Y-97063363D01*
X123500500Y-95481633D01*
X131250201Y-95481633D01*
X131250201Y-95678366D01*
X131280974Y-95872662D01*
X131341767Y-96059761D01*
X131388158Y-96150807D01*
X131431076Y-96235038D01*
X131546707Y-96394190D01*
X131685811Y-96533294D01*
X131844963Y-96648925D01*
X131890910Y-96672336D01*
X132020239Y-96738233D01*
X132020241Y-96738233D01*
X132020244Y-96738235D01*
X132120531Y-96770820D01*
X132207338Y-96799026D01*
X132401635Y-96829800D01*
X132401640Y-96829800D01*
X132598367Y-96829800D01*
X132792663Y-96799026D01*
X132979758Y-96738235D01*
X133155039Y-96648925D01*
X133314191Y-96533294D01*
X133453295Y-96394190D01*
X133568926Y-96235038D01*
X133658236Y-96059757D01*
X133719027Y-95872662D01*
X133736079Y-95764999D01*
X133749801Y-95678366D01*
X133749801Y-95481633D01*
X133719027Y-95287337D01*
X133658234Y-95100238D01*
X133568925Y-94924961D01*
X133453295Y-94765810D01*
X133314191Y-94626706D01*
X133155039Y-94511075D01*
X132979762Y-94421766D01*
X132792663Y-94360973D01*
X132598367Y-94330200D01*
X132598362Y-94330200D01*
X132401640Y-94330200D01*
X132401635Y-94330200D01*
X132207338Y-94360973D01*
X132020239Y-94421766D01*
X131844962Y-94511075D01*
X131812289Y-94534814D01*
X131685811Y-94626706D01*
X131685809Y-94626708D01*
X131685808Y-94626708D01*
X131546709Y-94765807D01*
X131546709Y-94765808D01*
X131546707Y-94765810D01*
X131497048Y-94834159D01*
X131431076Y-94924961D01*
X131341767Y-95100238D01*
X131280974Y-95287337D01*
X131250201Y-95481633D01*
X123500500Y-95481633D01*
X123500500Y-94096632D01*
X134090200Y-94096632D01*
X134090200Y-94293365D01*
X134120973Y-94487661D01*
X134181766Y-94674760D01*
X134228158Y-94765808D01*
X134271075Y-94850037D01*
X134386706Y-95009189D01*
X134525810Y-95148293D01*
X134684962Y-95263924D01*
X134753950Y-95299075D01*
X134860238Y-95353232D01*
X134860240Y-95353232D01*
X134860243Y-95353234D01*
X134901478Y-95366632D01*
X135047337Y-95414025D01*
X135241634Y-95444799D01*
X135241639Y-95444799D01*
X135438366Y-95444799D01*
X135632662Y-95414025D01*
X135644434Y-95410200D01*
X135819757Y-95353234D01*
X135995038Y-95263924D01*
X136154190Y-95148293D01*
X136293294Y-95009189D01*
X136408925Y-94850037D01*
X136498235Y-94674756D01*
X136559026Y-94487661D01*
X136566145Y-94442712D01*
X136589800Y-94293365D01*
X136589800Y-94096632D01*
X136559026Y-93902336D01*
X136501705Y-93725922D01*
X136498235Y-93715242D01*
X136498233Y-93715239D01*
X136498233Y-93715237D01*
X136422541Y-93566684D01*
X136408925Y-93539961D01*
X136293294Y-93380809D01*
X136154190Y-93241705D01*
X135995038Y-93126074D01*
X135994816Y-93125961D01*
X135819761Y-93036765D01*
X135632662Y-92975972D01*
X135438366Y-92945199D01*
X135438361Y-92945199D01*
X135241639Y-92945199D01*
X135241634Y-92945199D01*
X135047337Y-92975972D01*
X134860238Y-93036765D01*
X134684961Y-93126074D01*
X134594159Y-93192046D01*
X134525810Y-93241705D01*
X134525808Y-93241707D01*
X134525807Y-93241707D01*
X134386708Y-93380806D01*
X134386708Y-93380807D01*
X134386706Y-93380809D01*
X134351959Y-93428634D01*
X134271075Y-93539960D01*
X134181766Y-93715237D01*
X134120973Y-93902336D01*
X134090200Y-94096632D01*
X123500500Y-94096632D01*
X123500500Y-92711633D01*
X131250201Y-92711633D01*
X131250201Y-92908366D01*
X131280974Y-93102662D01*
X131341767Y-93289761D01*
X131401234Y-93406470D01*
X131431076Y-93465038D01*
X131546707Y-93624190D01*
X131685811Y-93763294D01*
X131844963Y-93878925D01*
X131890910Y-93902336D01*
X132020239Y-93968233D01*
X132020241Y-93968233D01*
X132020244Y-93968235D01*
X132093296Y-93991971D01*
X132207338Y-94029026D01*
X132401635Y-94059800D01*
X132401640Y-94059800D01*
X132598367Y-94059800D01*
X132792663Y-94029026D01*
X132979758Y-93968235D01*
X133155039Y-93878925D01*
X133314191Y-93763294D01*
X133453295Y-93624190D01*
X133568926Y-93465038D01*
X133658236Y-93289757D01*
X133719027Y-93102662D01*
X133719082Y-93102317D01*
X133749801Y-92908366D01*
X133749801Y-92711633D01*
X133719027Y-92517337D01*
X133673847Y-92378290D01*
X133658236Y-92330243D01*
X133658234Y-92330240D01*
X133658234Y-92330238D01*
X133568925Y-92154961D01*
X133567341Y-92152781D01*
X133453295Y-91995810D01*
X133314191Y-91856706D01*
X133155039Y-91741075D01*
X133136290Y-91731522D01*
X132979762Y-91651766D01*
X132792663Y-91590973D01*
X132598367Y-91560200D01*
X132598362Y-91560200D01*
X132401640Y-91560200D01*
X132401635Y-91560200D01*
X132207338Y-91590973D01*
X132020239Y-91651766D01*
X131844962Y-91741075D01*
X131771043Y-91794781D01*
X131685811Y-91856706D01*
X131685809Y-91856708D01*
X131685808Y-91856708D01*
X131546709Y-91995807D01*
X131546709Y-91995808D01*
X131546707Y-91995810D01*
X131537826Y-92008034D01*
X131431076Y-92154961D01*
X131341767Y-92330238D01*
X131280974Y-92517337D01*
X131250201Y-92711633D01*
X123500500Y-92711633D01*
X123500500Y-91326632D01*
X134090200Y-91326632D01*
X134090200Y-91523365D01*
X134120973Y-91717661D01*
X134181766Y-91904760D01*
X134239186Y-92017452D01*
X134271075Y-92080037D01*
X134386706Y-92239189D01*
X134525810Y-92378293D01*
X134684962Y-92493924D01*
X134698420Y-92500781D01*
X134860238Y-92583232D01*
X134860240Y-92583232D01*
X134860243Y-92583234D01*
X134960530Y-92615819D01*
X135047337Y-92644025D01*
X135241634Y-92674799D01*
X135241639Y-92674799D01*
X135438366Y-92674799D01*
X135632662Y-92644025D01*
X135633681Y-92643694D01*
X135819757Y-92583234D01*
X135995038Y-92493924D01*
X136154190Y-92378293D01*
X136293294Y-92239189D01*
X136408925Y-92080037D01*
X136498235Y-91904756D01*
X136559026Y-91717661D01*
X136572731Y-91631130D01*
X136589800Y-91523365D01*
X136589800Y-91326632D01*
X136559026Y-91132336D01*
X136513418Y-90991971D01*
X136498235Y-90945242D01*
X136498233Y-90945239D01*
X136498233Y-90945237D01*
X136408924Y-90769960D01*
X136293294Y-90610809D01*
X136154190Y-90471705D01*
X135995038Y-90356074D01*
X135990090Y-90353553D01*
X135819761Y-90266765D01*
X135632662Y-90205972D01*
X135438366Y-90175199D01*
X135438361Y-90175199D01*
X135241639Y-90175199D01*
X135241634Y-90175199D01*
X135047337Y-90205972D01*
X134860238Y-90266765D01*
X134684961Y-90356074D01*
X134624503Y-90400000D01*
X134525810Y-90471705D01*
X134525808Y-90471707D01*
X134525807Y-90471707D01*
X134386708Y-90610806D01*
X134386708Y-90610807D01*
X134386706Y-90610809D01*
X134337047Y-90679158D01*
X134271075Y-90769960D01*
X134181766Y-90945237D01*
X134120973Y-91132336D01*
X134090200Y-91326632D01*
X123500500Y-91326632D01*
X123500500Y-89941634D01*
X131250201Y-89941634D01*
X131250201Y-90138367D01*
X131280974Y-90332663D01*
X131341767Y-90519762D01*
X131424101Y-90681349D01*
X131431076Y-90695039D01*
X131546707Y-90854191D01*
X131685811Y-90993295D01*
X131844963Y-91108926D01*
X131890908Y-91132336D01*
X132020239Y-91198234D01*
X132020241Y-91198234D01*
X132020244Y-91198236D01*
X132107653Y-91226637D01*
X132207338Y-91259027D01*
X132401635Y-91289801D01*
X132401640Y-91289801D01*
X132598367Y-91289801D01*
X132792663Y-91259027D01*
X132979758Y-91198236D01*
X133155039Y-91108926D01*
X133314191Y-90993295D01*
X133453295Y-90854191D01*
X133568926Y-90695039D01*
X133658236Y-90519758D01*
X133719027Y-90332663D01*
X133729464Y-90266765D01*
X133749801Y-90138367D01*
X133749801Y-89941634D01*
X133719027Y-89747338D01*
X133700148Y-89689236D01*
X133686245Y-89646446D01*
X133658236Y-89560244D01*
X133658234Y-89560241D01*
X133658234Y-89560239D01*
X133568925Y-89384962D01*
X133453295Y-89225811D01*
X133314191Y-89086707D01*
X133155039Y-88971076D01*
X133108859Y-88947546D01*
X132979762Y-88881767D01*
X132792663Y-88820974D01*
X132598367Y-88790201D01*
X132598362Y-88790201D01*
X132401640Y-88790201D01*
X132401635Y-88790201D01*
X132207338Y-88820974D01*
X132020239Y-88881767D01*
X131844962Y-88971076D01*
X131793380Y-89008553D01*
X131685811Y-89086707D01*
X131685809Y-89086709D01*
X131685808Y-89086709D01*
X131546709Y-89225808D01*
X131546709Y-89225809D01*
X131546707Y-89225811D01*
X131511640Y-89274076D01*
X131431076Y-89384962D01*
X131341767Y-89560239D01*
X131280974Y-89747338D01*
X131250201Y-89941634D01*
X123500500Y-89941634D01*
X123500500Y-87171634D01*
X131250201Y-87171634D01*
X131250201Y-87368367D01*
X131280974Y-87562663D01*
X131341767Y-87749762D01*
X131431076Y-87925039D01*
X131546707Y-88084191D01*
X131685811Y-88223295D01*
X131844963Y-88338926D01*
X131927775Y-88381121D01*
X132020239Y-88428234D01*
X132020241Y-88428234D01*
X132020244Y-88428236D01*
X132120531Y-88460821D01*
X132207338Y-88489027D01*
X132401635Y-88519801D01*
X132401640Y-88519801D01*
X132598367Y-88519801D01*
X132792663Y-88489027D01*
X132825914Y-88478223D01*
X132979758Y-88428236D01*
X133155039Y-88338926D01*
X133314191Y-88223295D01*
X133453295Y-88084191D01*
X133568926Y-87925039D01*
X133658236Y-87749758D01*
X133719027Y-87562663D01*
X133729391Y-87497226D01*
X133749801Y-87368367D01*
X133749801Y-87171634D01*
X133719027Y-86977338D01*
X133658234Y-86790239D01*
X133568925Y-86614962D01*
X133453295Y-86455811D01*
X133314191Y-86316707D01*
X133155039Y-86201076D01*
X132979762Y-86111767D01*
X132792663Y-86050974D01*
X132598367Y-86020201D01*
X132598362Y-86020201D01*
X132401640Y-86020201D01*
X132401635Y-86020201D01*
X132207338Y-86050974D01*
X132020239Y-86111767D01*
X131844962Y-86201076D01*
X131808073Y-86227878D01*
X131685811Y-86316707D01*
X131685809Y-86316709D01*
X131685808Y-86316709D01*
X131546709Y-86455808D01*
X131546709Y-86455809D01*
X131546707Y-86455811D01*
X131497048Y-86524160D01*
X131431076Y-86614962D01*
X131341767Y-86790239D01*
X131280974Y-86977338D01*
X131250201Y-87171634D01*
X123500500Y-87171634D01*
X123500500Y-85786633D01*
X134090200Y-85786633D01*
X134090200Y-85983366D01*
X134120973Y-86177662D01*
X134181766Y-86364761D01*
X134228158Y-86455809D01*
X134271075Y-86540038D01*
X134386706Y-86699190D01*
X134525810Y-86838294D01*
X134684962Y-86953925D01*
X134730913Y-86977338D01*
X134860238Y-87043233D01*
X134860240Y-87043233D01*
X134860243Y-87043235D01*
X134960530Y-87075820D01*
X135047337Y-87104026D01*
X135241634Y-87134800D01*
X135241639Y-87134800D01*
X135438365Y-87134800D01*
X135531818Y-87119997D01*
X135575799Y-87113032D01*
X135645092Y-87121986D01*
X135682878Y-87147824D01*
X135769445Y-87234391D01*
X135802930Y-87295714D01*
X135797946Y-87365406D01*
X135756074Y-87421339D01*
X135690610Y-87445756D01*
X135643450Y-87440004D01*
X135632549Y-87436462D01*
X135438321Y-87405700D01*
X135241679Y-87405700D01*
X135047453Y-87436462D01*
X134860437Y-87497226D01*
X134860434Y-87497227D01*
X134685220Y-87586505D01*
X134650375Y-87611821D01*
X134650375Y-87611823D01*
X135214428Y-88175874D01*
X135148821Y-88193454D01*
X135035879Y-88258661D01*
X134943661Y-88350879D01*
X134878454Y-88463821D01*
X134860874Y-88529427D01*
X134296823Y-87965375D01*
X134296821Y-87965375D01*
X134271505Y-88000220D01*
X134182227Y-88175434D01*
X134182226Y-88175437D01*
X134121462Y-88362453D01*
X134090700Y-88556678D01*
X134090700Y-88753321D01*
X134121462Y-88947546D01*
X134182226Y-89134562D01*
X134182227Y-89134565D01*
X134271502Y-89309775D01*
X134296822Y-89344623D01*
X134296822Y-89344624D01*
X134860874Y-88780572D01*
X134878454Y-88846179D01*
X134943661Y-88959121D01*
X135035879Y-89051339D01*
X135148821Y-89116546D01*
X135214427Y-89134125D01*
X134650375Y-89698176D01*
X134650375Y-89698177D01*
X134685223Y-89723496D01*
X134860434Y-89812772D01*
X134860437Y-89812773D01*
X135047453Y-89873537D01*
X135241679Y-89904300D01*
X135438321Y-89904300D01*
X135632546Y-89873537D01*
X135819562Y-89812773D01*
X135819575Y-89812767D01*
X135994769Y-89723500D01*
X135994774Y-89723497D01*
X136029624Y-89698176D01*
X135465573Y-89134125D01*
X135531179Y-89116546D01*
X135644121Y-89051339D01*
X135736339Y-88959121D01*
X135801546Y-88846179D01*
X135819125Y-88780571D01*
X136383176Y-89344623D01*
X136408497Y-89309774D01*
X136408500Y-89309769D01*
X136497767Y-89134575D01*
X136497773Y-89134562D01*
X136558537Y-88947546D01*
X136589300Y-88753321D01*
X136589300Y-88556678D01*
X136558537Y-88362453D01*
X136554996Y-88351553D01*
X136553001Y-88281712D01*
X136589081Y-88221879D01*
X136651782Y-88191051D01*
X136721196Y-88199016D01*
X136760608Y-88225554D01*
X149773181Y-101238127D01*
X149806666Y-101299450D01*
X149809500Y-101325808D01*
X149809500Y-107676533D01*
X149789815Y-107743572D01*
X149737011Y-107789327D01*
X149728836Y-107792714D01*
X149692665Y-107806205D01*
X149577455Y-107892452D01*
X149577452Y-107892455D01*
X149491206Y-108007664D01*
X149491202Y-108007671D01*
X149440908Y-108142517D01*
X149434501Y-108202116D01*
X149434500Y-108202135D01*
X149434500Y-109797870D01*
X149434501Y-109797876D01*
X149440908Y-109857483D01*
X149491202Y-109992328D01*
X149491206Y-109992335D01*
X149577452Y-110107544D01*
X149577455Y-110107547D01*
X149692664Y-110193793D01*
X149692671Y-110193797D01*
X149827517Y-110244091D01*
X149827516Y-110244091D01*
X149834444Y-110244835D01*
X149887127Y-110250500D01*
X151032872Y-110250499D01*
X151092483Y-110244091D01*
X151227331Y-110193796D01*
X151228430Y-110192972D01*
X151229717Y-110192492D01*
X151235112Y-110189547D01*
X151235535Y-110190322D01*
X151293887Y-110168552D01*
X151350198Y-110177673D01*
X151430873Y-110211091D01*
X151608184Y-110246360D01*
X151628992Y-110250499D01*
X151628996Y-110250500D01*
X151628997Y-110250500D01*
X151831004Y-110250500D01*
X151831005Y-110250499D01*
X152029127Y-110211091D01*
X152178049Y-110149404D01*
X152247516Y-110141936D01*
X152309995Y-110173211D01*
X152345648Y-110233299D01*
X152349500Y-110263966D01*
X152349500Y-112019191D01*
X152329815Y-112086230D01*
X152313181Y-112106872D01*
X147727190Y-116692862D01*
X147665867Y-116726347D01*
X147620111Y-116727654D01*
X147474611Y-116704609D01*
X147442352Y-116699500D01*
X147237648Y-116699500D01*
X147213329Y-116703351D01*
X147035465Y-116731522D01*
X146840776Y-116794781D01*
X146658386Y-116887715D01*
X146492786Y-117008028D01*
X146348028Y-117152786D01*
X146227715Y-117318386D01*
X146134781Y-117500776D01*
X146071522Y-117695465D01*
X146039500Y-117897648D01*
X146039500Y-118102351D01*
X146071522Y-118304534D01*
X146134781Y-118499223D01*
X146186876Y-118601463D01*
X146205406Y-118637831D01*
X146227715Y-118681613D01*
X146348028Y-118847213D01*
X146492786Y-118991971D01*
X146647749Y-119104556D01*
X146658390Y-119112287D01*
X146774607Y-119171503D01*
X146840776Y-119205218D01*
X146840778Y-119205218D01*
X146840781Y-119205220D01*
X146945137Y-119239127D01*
X147035465Y-119268477D01*
X147136557Y-119284488D01*
X147237648Y-119300500D01*
X147237649Y-119300500D01*
X147442351Y-119300500D01*
X147442352Y-119300500D01*
X147644534Y-119268477D01*
X147839219Y-119205220D01*
X148021610Y-119112287D01*
X148114590Y-119044732D01*
X148187213Y-118991971D01*
X148187215Y-118991968D01*
X148187219Y-118991966D01*
X148331966Y-118847219D01*
X148331968Y-118847215D01*
X148331971Y-118847213D01*
X148384732Y-118774590D01*
X148452287Y-118681610D01*
X148545220Y-118499219D01*
X148608477Y-118304534D01*
X148640500Y-118102352D01*
X148640500Y-117897648D01*
X148618371Y-117757933D01*
X148612345Y-117719886D01*
X148621300Y-117650593D01*
X148647134Y-117612810D01*
X152912322Y-113347623D01*
X152973641Y-113314141D01*
X153043333Y-113319125D01*
X153087680Y-113347626D01*
X154385530Y-114645476D01*
X154389736Y-114648286D01*
X154492073Y-114716665D01*
X154610456Y-114765701D01*
X154610460Y-114765701D01*
X154610461Y-114765702D01*
X154736128Y-114790700D01*
X154736131Y-114790700D01*
X167463871Y-114790700D01*
X167568173Y-114769952D01*
X167589544Y-114765701D01*
X167707927Y-114716665D01*
X167757257Y-114683704D01*
X167814469Y-114645477D01*
X170912319Y-111547627D01*
X170973642Y-111514142D01*
X171043334Y-111519126D01*
X171087681Y-111547627D01*
X172531704Y-112991650D01*
X172565189Y-113052973D01*
X172561955Y-113117647D01*
X172535277Y-113199755D01*
X172499500Y-113425646D01*
X172499500Y-113654353D01*
X172535278Y-113880246D01*
X172535278Y-113880249D01*
X172605950Y-114097755D01*
X172605952Y-114097758D01*
X172709783Y-114301538D01*
X172842525Y-114484242D01*
X172866005Y-114550046D01*
X172850180Y-114618100D01*
X172800074Y-114666795D01*
X172785541Y-114673308D01*
X172757670Y-114683703D01*
X172757664Y-114683706D01*
X172642455Y-114769952D01*
X172642452Y-114769955D01*
X172556206Y-114885164D01*
X172556202Y-114885171D01*
X172505908Y-115020017D01*
X172499501Y-115079616D01*
X172499501Y-115079623D01*
X172499500Y-115079635D01*
X172499500Y-117080370D01*
X172499501Y-117080376D01*
X172505908Y-117139983D01*
X172530967Y-117207167D01*
X172535951Y-117276858D01*
X172502466Y-117338181D01*
X172441143Y-117371666D01*
X172414785Y-117374500D01*
X158716115Y-117374500D01*
X158649076Y-117354815D01*
X158616393Y-117321428D01*
X158615151Y-117322331D01*
X158491971Y-117152786D01*
X158347213Y-117008028D01*
X158181613Y-116887715D01*
X158181612Y-116887714D01*
X158181610Y-116887713D01*
X158124653Y-116858691D01*
X157999223Y-116794781D01*
X157804534Y-116731522D01*
X157629995Y-116703878D01*
X157602352Y-116699500D01*
X157397648Y-116699500D01*
X157373329Y-116703351D01*
X157195465Y-116731522D01*
X157000776Y-116794781D01*
X156818386Y-116887715D01*
X156652786Y-117008028D01*
X156508028Y-117152786D01*
X156387715Y-117318386D01*
X156294781Y-117500776D01*
X156231522Y-117695465D01*
X156199500Y-117897648D01*
X156199500Y-118102351D01*
X156231522Y-118304534D01*
X156294781Y-118499223D01*
X156346876Y-118601463D01*
X156365406Y-118637831D01*
X156387715Y-118681613D01*
X156508028Y-118847213D01*
X156652786Y-118991971D01*
X156807749Y-119104556D01*
X156818390Y-119112287D01*
X156934607Y-119171503D01*
X157000776Y-119205218D01*
X157000778Y-119205218D01*
X157000781Y-119205220D01*
X157105137Y-119239127D01*
X157195465Y-119268477D01*
X157296557Y-119284488D01*
X157397648Y-119300500D01*
X157397649Y-119300500D01*
X157602351Y-119300500D01*
X157602352Y-119300500D01*
X157804534Y-119268477D01*
X157999219Y-119205220D01*
X158181610Y-119112287D01*
X158274590Y-119044732D01*
X158347213Y-118991971D01*
X158347215Y-118991968D01*
X158347219Y-118991966D01*
X158491966Y-118847219D01*
X158491968Y-118847215D01*
X158491971Y-118847213D01*
X158615151Y-118677669D01*
X158616823Y-118678884D01*
X158662208Y-118637831D01*
X158716115Y-118625500D01*
X173420807Y-118625500D01*
X173481229Y-118613481D01*
X173541652Y-118601463D01*
X173586344Y-118582951D01*
X173655486Y-118554312D01*
X173728870Y-118505277D01*
X173757933Y-118485858D01*
X173845058Y-118398733D01*
X173845059Y-118398731D01*
X173852125Y-118391665D01*
X173852128Y-118391661D01*
X174398729Y-117845060D01*
X174398733Y-117845058D01*
X174485858Y-117757933D01*
X174529998Y-117691873D01*
X174554312Y-117655486D01*
X174556339Y-117650593D01*
X174573341Y-117609547D01*
X174617182Y-117555143D01*
X174683476Y-117533078D01*
X174687902Y-117532999D01*
X175047871Y-117532999D01*
X175047872Y-117532999D01*
X175107483Y-117526591D01*
X175242331Y-117476296D01*
X175357546Y-117390046D01*
X175443796Y-117274831D01*
X175494091Y-117139983D01*
X175500500Y-117080373D01*
X175500499Y-115079628D01*
X175494091Y-115020017D01*
X175443796Y-114885169D01*
X175443795Y-114885168D01*
X175443793Y-114885164D01*
X175357547Y-114769955D01*
X175357544Y-114769952D01*
X175242335Y-114683706D01*
X175242328Y-114683702D01*
X175214459Y-114673308D01*
X175158525Y-114631437D01*
X175134108Y-114565973D01*
X175148960Y-114497700D01*
X175157460Y-114484260D01*
X175290217Y-114301538D01*
X175394048Y-114097758D01*
X175464722Y-113880245D01*
X175500500Y-113654354D01*
X175500500Y-113425646D01*
X175464722Y-113199755D01*
X175464721Y-113199751D01*
X175464721Y-113199750D01*
X175394049Y-112982244D01*
X175290216Y-112778461D01*
X175155786Y-112593434D01*
X174994066Y-112431714D01*
X174909559Y-112370316D01*
X174866896Y-112314988D01*
X174860917Y-112245375D01*
X174893523Y-112183580D01*
X174909556Y-112169685D01*
X174994066Y-112108286D01*
X175155786Y-111946566D01*
X175159169Y-111941908D01*
X175214498Y-111899244D01*
X175284111Y-111893265D01*
X175345907Y-111925870D01*
X175347168Y-111927114D01*
X181863181Y-118443127D01*
X181896666Y-118504450D01*
X181899500Y-118530808D01*
X181899500Y-120060017D01*
X181910000Y-120162796D01*
X181910001Y-120162798D01*
X181965186Y-120329335D01*
X182057288Y-120478656D01*
X182181344Y-120602712D01*
X182330665Y-120694814D01*
X182497202Y-120749999D01*
X182599990Y-120760500D01*
X182599995Y-120760500D01*
X184400005Y-120760500D01*
X184400010Y-120760500D01*
X184502798Y-120749999D01*
X184669335Y-120694814D01*
X184818656Y-120602712D01*
X184942712Y-120478656D01*
X185034814Y-120329335D01*
X185089999Y-120162798D01*
X185100500Y-120060010D01*
X185100500Y-118699986D01*
X200212501Y-118699986D01*
X200222994Y-118802697D01*
X200278141Y-118969119D01*
X200278143Y-118969124D01*
X200370184Y-119118345D01*
X200494154Y-119242315D01*
X200643375Y-119334356D01*
X200643380Y-119334358D01*
X200809802Y-119389505D01*
X200809809Y-119389506D01*
X200912519Y-119399999D01*
X201124999Y-119399999D01*
X201625000Y-119399999D01*
X201837472Y-119399999D01*
X201837486Y-119399998D01*
X201940197Y-119389505D01*
X202106619Y-119334358D01*
X202106624Y-119334356D01*
X202255845Y-119242315D01*
X202379815Y-119118345D01*
X202471856Y-118969124D01*
X202471858Y-118969119D01*
X202527005Y-118802697D01*
X202527006Y-118802690D01*
X202537499Y-118699986D01*
X202537500Y-118699973D01*
X202537500Y-118250000D01*
X201625000Y-118250000D01*
X201625000Y-119399999D01*
X201124999Y-119399999D01*
X201125000Y-119399998D01*
X201125000Y-118250000D01*
X200212501Y-118250000D01*
X200212501Y-118699986D01*
X185100500Y-118699986D01*
X185100500Y-118259990D01*
X185089999Y-118157202D01*
X185034814Y-117990665D01*
X184942712Y-117841344D01*
X184818656Y-117717288D01*
X184669335Y-117625186D01*
X184502798Y-117570001D01*
X184502796Y-117570000D01*
X184400017Y-117559500D01*
X184400010Y-117559500D01*
X182870808Y-117559500D01*
X182803769Y-117539815D01*
X182783127Y-117523181D01*
X176353477Y-111093531D01*
X176319992Y-111032208D01*
X176324976Y-110962516D01*
X176353477Y-110918169D01*
X182505273Y-104766373D01*
X182505277Y-104766369D01*
X182576465Y-104659827D01*
X182625501Y-104541444D01*
X182628948Y-104524114D01*
X182650500Y-104415769D01*
X182650500Y-103732927D01*
X182670185Y-103665888D01*
X182709401Y-103627390D01*
X182806156Y-103567712D01*
X182930212Y-103443656D01*
X183022314Y-103294334D01*
X183077499Y-103127797D01*
X183088000Y-103025009D01*
X183087999Y-102383306D01*
X183107683Y-102316268D01*
X183124313Y-102295631D01*
X184733127Y-100686819D01*
X184794450Y-100653334D01*
X184820808Y-100650500D01*
X190488639Y-100650500D01*
X190555678Y-100670185D01*
X190601433Y-100722989D01*
X190611377Y-100792147D01*
X190606572Y-100812809D01*
X190580442Y-100893231D01*
X190536446Y-101028631D01*
X190499500Y-101261902D01*
X190499500Y-101498097D01*
X190536446Y-101731368D01*
X190609433Y-101955996D01*
X190682551Y-102099496D01*
X190716657Y-102166433D01*
X190855483Y-102357510D01*
X191022490Y-102524517D01*
X191213567Y-102663343D01*
X191312991Y-102714002D01*
X191424003Y-102770566D01*
X191424005Y-102770566D01*
X191424008Y-102770568D01*
X191544412Y-102809689D01*
X191648631Y-102843553D01*
X191881903Y-102880500D01*
X191881908Y-102880500D01*
X192118097Y-102880500D01*
X192351368Y-102843553D01*
X192372302Y-102836751D01*
X192575992Y-102770568D01*
X192786433Y-102663343D01*
X192977510Y-102524517D01*
X193144517Y-102357510D01*
X193272313Y-102181613D01*
X193327643Y-102138949D01*
X193372631Y-102130500D01*
X198017770Y-102130500D01*
X198084809Y-102150185D01*
X198105451Y-102166819D01*
X202401451Y-106462819D01*
X202434936Y-106524142D01*
X202429952Y-106593834D01*
X202388080Y-106649767D01*
X202322616Y-106674184D01*
X202313770Y-106674500D01*
X201128901Y-106674500D01*
X201062117Y-106680568D01*
X201062106Y-106680571D01*
X200908401Y-106728467D01*
X200770608Y-106811766D01*
X200656767Y-106925607D01*
X200656764Y-106925611D01*
X200592758Y-107031488D01*
X200574323Y-107055018D01*
X192496823Y-115132518D01*
X192435500Y-115166003D01*
X192370824Y-115162768D01*
X192351370Y-115156447D01*
X192118097Y-115119500D01*
X192118092Y-115119500D01*
X191881908Y-115119500D01*
X191881903Y-115119500D01*
X191648631Y-115156446D01*
X191424003Y-115229433D01*
X191213562Y-115336659D01*
X191075530Y-115436945D01*
X191009723Y-115460425D01*
X190941670Y-115444599D01*
X190914964Y-115424308D01*
X185066840Y-109576183D01*
X185033355Y-109514860D01*
X185036589Y-109450187D01*
X185061090Y-109374785D01*
X185100500Y-109125962D01*
X185100500Y-108874038D01*
X185061090Y-108625215D01*
X184983241Y-108385621D01*
X184983239Y-108385618D01*
X184983239Y-108385616D01*
X184934136Y-108289247D01*
X184868870Y-108161155D01*
X184839900Y-108121281D01*
X184720798Y-107957350D01*
X184720794Y-107957345D01*
X184542654Y-107779205D01*
X184542649Y-107779201D01*
X184338848Y-107631132D01*
X184338847Y-107631131D01*
X184338845Y-107631130D01*
X184268747Y-107595413D01*
X184114383Y-107516760D01*
X183874785Y-107438910D01*
X183838424Y-107433151D01*
X183625962Y-107399500D01*
X183374038Y-107399500D01*
X183340803Y-107404764D01*
X183125214Y-107438910D01*
X182885616Y-107516760D01*
X182661151Y-107631132D01*
X182457350Y-107779201D01*
X182457345Y-107779205D01*
X182279205Y-107957345D01*
X182279201Y-107957350D01*
X182131132Y-108161151D01*
X182016760Y-108385616D01*
X181938910Y-108625214D01*
X181909724Y-108809485D01*
X181899500Y-108874038D01*
X181899500Y-109125962D01*
X181934314Y-109345765D01*
X181938910Y-109374785D01*
X182016760Y-109614383D01*
X182079966Y-109738430D01*
X182129987Y-109836602D01*
X182131132Y-109838848D01*
X182279201Y-110042649D01*
X182279205Y-110042654D01*
X182457345Y-110220794D01*
X182457350Y-110220798D01*
X182585580Y-110313962D01*
X182661155Y-110368870D01*
X182804184Y-110441747D01*
X182885616Y-110483239D01*
X182885618Y-110483239D01*
X182885621Y-110483241D01*
X183125215Y-110561090D01*
X183374038Y-110600500D01*
X183374039Y-110600500D01*
X183625961Y-110600500D01*
X183625962Y-110600500D01*
X183874785Y-110561090D01*
X183950186Y-110536589D01*
X184020024Y-110534594D01*
X184076183Y-110566840D01*
X190542221Y-117032877D01*
X190572471Y-117082239D01*
X190609433Y-117195996D01*
X190681881Y-117338181D01*
X190716657Y-117406433D01*
X190855483Y-117597510D01*
X191022490Y-117764517D01*
X191213567Y-117903343D01*
X191312991Y-117954002D01*
X191424003Y-118010566D01*
X191424005Y-118010566D01*
X191424008Y-118010568D01*
X191544412Y-118049689D01*
X191648631Y-118083553D01*
X191881903Y-118120500D01*
X191881908Y-118120500D01*
X192118097Y-118120500D01*
X192232681Y-118102351D01*
X192351368Y-118083553D01*
X192351371Y-118083552D01*
X192351372Y-118083552D01*
X192360127Y-118080707D01*
X192360128Y-118080707D01*
X192425743Y-118059386D01*
X192575992Y-118010568D01*
X192786433Y-117903343D01*
X192977510Y-117764517D01*
X193144517Y-117597510D01*
X193283343Y-117406433D01*
X193337567Y-117300013D01*
X200212500Y-117300013D01*
X200212500Y-117750000D01*
X201125000Y-117750000D01*
X201625000Y-117750000D01*
X202537499Y-117750000D01*
X202537499Y-117300028D01*
X202537498Y-117300013D01*
X202527005Y-117197302D01*
X202471858Y-117030880D01*
X202471856Y-117030875D01*
X202379815Y-116881654D01*
X202255845Y-116757684D01*
X202106624Y-116665643D01*
X202106619Y-116665641D01*
X201940197Y-116610494D01*
X201940190Y-116610493D01*
X201837486Y-116600000D01*
X201625000Y-116600000D01*
X201625000Y-117750000D01*
X201125000Y-117750000D01*
X201125000Y-116600000D01*
X200912529Y-116600000D01*
X200912512Y-116600001D01*
X200809802Y-116610494D01*
X200643380Y-116665641D01*
X200643375Y-116665643D01*
X200494154Y-116757684D01*
X200370184Y-116881654D01*
X200278143Y-117030875D01*
X200278141Y-117030880D01*
X200222994Y-117197302D01*
X200222993Y-117197309D01*
X200212500Y-117300013D01*
X193337567Y-117300013D01*
X193389953Y-117197200D01*
X193390566Y-117195996D01*
X193390566Y-117195995D01*
X193390568Y-117195992D01*
X193463553Y-116971368D01*
X193500500Y-116738097D01*
X193500500Y-116501902D01*
X193463553Y-116268635D01*
X193463553Y-116268632D01*
X193457230Y-116249175D01*
X193455234Y-116179335D01*
X193487478Y-116123177D01*
X200307821Y-109302834D01*
X200369142Y-109269351D01*
X200438834Y-109274335D01*
X200494767Y-109316207D01*
X200519184Y-109381671D01*
X200519500Y-109390516D01*
X200519500Y-109616098D01*
X200525568Y-109682882D01*
X200525571Y-109682893D01*
X200573467Y-109836598D01*
X200573468Y-109836600D01*
X200573469Y-109836602D01*
X200656764Y-109974388D01*
X200656766Y-109974391D01*
X200770608Y-110088233D01*
X200770610Y-110088234D01*
X200770612Y-110088236D01*
X200908398Y-110171531D01*
X201062113Y-110219430D01*
X201062119Y-110219430D01*
X201062121Y-110219431D01*
X201068548Y-110220710D01*
X201068293Y-110221990D01*
X201126701Y-110245062D01*
X201167492Y-110301788D01*
X201174500Y-110342885D01*
X201174500Y-110554611D01*
X201198535Y-110675444D01*
X201198540Y-110675461D01*
X201245685Y-110789281D01*
X201245687Y-110789284D01*
X201245688Y-110789286D01*
X201267518Y-110821956D01*
X201314142Y-110891733D01*
X201316166Y-110893757D01*
X201321080Y-110901010D01*
X201326305Y-110917330D01*
X201340038Y-110946368D01*
X201362361Y-111058591D01*
X201362364Y-111058601D01*
X201422702Y-111204272D01*
X201422709Y-111204285D01*
X201510310Y-111335388D01*
X201510313Y-111335392D01*
X201621807Y-111446886D01*
X201621811Y-111446889D01*
X201752914Y-111534490D01*
X201752927Y-111534497D01*
X201877715Y-111586185D01*
X201898603Y-111594837D01*
X202053253Y-111625599D01*
X202053256Y-111625600D01*
X202053258Y-111625600D01*
X202210944Y-111625600D01*
X202210945Y-111625599D01*
X202365597Y-111594837D01*
X202511279Y-111534494D01*
X202642389Y-111446889D01*
X202753889Y-111335389D01*
X202841494Y-111204279D01*
X202901837Y-111058597D01*
X202932600Y-110903942D01*
X202932600Y-110746258D01*
X202932600Y-110746255D01*
X202932599Y-110746253D01*
X202929688Y-110731619D01*
X202901837Y-110591603D01*
X202891580Y-110566840D01*
X202841497Y-110445927D01*
X202841490Y-110445914D01*
X202753889Y-110314811D01*
X202753886Y-110314807D01*
X202753041Y-110313962D01*
X202752739Y-110313410D01*
X202750024Y-110310101D01*
X202750651Y-110309586D01*
X202719556Y-110252639D01*
X202724540Y-110182947D01*
X202766412Y-110127014D01*
X202776563Y-110120169D01*
X202829388Y-110088236D01*
X202943236Y-109974388D01*
X203026531Y-109836602D01*
X203031613Y-109820290D01*
X203070347Y-109762143D01*
X203134371Y-109734167D01*
X203203357Y-109745245D01*
X203255402Y-109791862D01*
X203268383Y-109820284D01*
X203273467Y-109836598D01*
X203273468Y-109836600D01*
X203273469Y-109836602D01*
X203356764Y-109974388D01*
X203356766Y-109974391D01*
X203470608Y-110088233D01*
X203470610Y-110088234D01*
X203470612Y-110088236D01*
X203608398Y-110171531D01*
X203662391Y-110188355D01*
X203720537Y-110227091D01*
X203748512Y-110291116D01*
X203749500Y-110306740D01*
X203749500Y-116607491D01*
X203729815Y-116674530D01*
X203690598Y-116713029D01*
X203618844Y-116757287D01*
X203494789Y-116881342D01*
X203402687Y-117030663D01*
X203402685Y-117030668D01*
X203386218Y-117080364D01*
X203347501Y-117197203D01*
X203347501Y-117197204D01*
X203347500Y-117197204D01*
X203337000Y-117299983D01*
X203337000Y-118700001D01*
X203337001Y-118700018D01*
X203347500Y-118802796D01*
X203347501Y-118802799D01*
X203402685Y-118969331D01*
X203402687Y-118969336D01*
X203437569Y-119025888D01*
X203494788Y-119118656D01*
X203618844Y-119242712D01*
X203768166Y-119334814D01*
X203934703Y-119389999D01*
X204037491Y-119400500D01*
X204962508Y-119400499D01*
X204962516Y-119400498D01*
X204962519Y-119400498D01*
X205018802Y-119394748D01*
X205065297Y-119389999D01*
X205231834Y-119334814D01*
X205381156Y-119242712D01*
X205505212Y-119118656D01*
X205597314Y-118969334D01*
X205652499Y-118802797D01*
X205663000Y-118700009D01*
X205662999Y-117299992D01*
X205660428Y-117274828D01*
X205652499Y-117197203D01*
X205652498Y-117197200D01*
X205652098Y-117195992D01*
X205597314Y-117030666D01*
X205505212Y-116881344D01*
X205381156Y-116757288D01*
X205381155Y-116757287D01*
X205309402Y-116713029D01*
X205262678Y-116661081D01*
X205250500Y-116607491D01*
X205250500Y-110306740D01*
X205270185Y-110239701D01*
X205322989Y-110193946D01*
X205337599Y-110188358D01*
X205391602Y-110171531D01*
X205529388Y-110088236D01*
X205643236Y-109974388D01*
X205726531Y-109836602D01*
X205738370Y-109798608D01*
X205777107Y-109740462D01*
X205841132Y-109712488D01*
X205856755Y-109711500D01*
X207277720Y-109711500D01*
X207375262Y-109692096D01*
X207422713Y-109682658D01*
X207559295Y-109626084D01*
X207624107Y-109582778D01*
X207671076Y-109551394D01*
X207737755Y-109530520D01*
X207739963Y-109530500D01*
X210037672Y-109530500D01*
X210072267Y-109535424D01*
X210217426Y-109577597D01*
X210217429Y-109577597D01*
X210217431Y-109577598D01*
X210254306Y-109580500D01*
X210254314Y-109580500D01*
X210621000Y-109580500D01*
X210629685Y-109583050D01*
X210638647Y-109581762D01*
X210662687Y-109592740D01*
X210688039Y-109600185D01*
X210693966Y-109607025D01*
X210702203Y-109610787D01*
X210716492Y-109633021D01*
X210733794Y-109652989D01*
X210736081Y-109663503D01*
X210739977Y-109669565D01*
X210745000Y-109704500D01*
X210745000Y-109706000D01*
X210725315Y-109773039D01*
X210672511Y-109818794D01*
X210621000Y-109830000D01*
X209672705Y-109830000D01*
X209672704Y-109830001D01*
X209672899Y-109832486D01*
X209718718Y-109990198D01*
X209802314Y-110131552D01*
X209802321Y-110131561D01*
X209829111Y-110158351D01*
X209862596Y-110219674D01*
X209857612Y-110289366D01*
X209855991Y-110293484D01*
X209808430Y-110408307D01*
X209808430Y-110408309D01*
X209800138Y-110450000D01*
X210603012Y-110450000D01*
X210585795Y-110459940D01*
X210529940Y-110515795D01*
X210490444Y-110584204D01*
X210470000Y-110660504D01*
X210470000Y-110739496D01*
X210490444Y-110815796D01*
X210529940Y-110884205D01*
X210585795Y-110940060D01*
X210603012Y-110950000D01*
X209800138Y-110950000D01*
X209808430Y-110991690D01*
X209808430Y-110991692D01*
X209883807Y-111173671D01*
X209883814Y-111173684D01*
X209993248Y-111337462D01*
X209993251Y-111337466D01*
X210132533Y-111476748D01*
X210132537Y-111476751D01*
X210296315Y-111586185D01*
X210296328Y-111586192D01*
X210478306Y-111661569D01*
X210478318Y-111661572D01*
X210671504Y-111699999D01*
X210671508Y-111700000D01*
X211070000Y-111700000D01*
X211070000Y-111000000D01*
X211570000Y-111000000D01*
X211570000Y-111700000D01*
X211968492Y-111700000D01*
X211968495Y-111699999D01*
X212161681Y-111661572D01*
X212161693Y-111661569D01*
X212343671Y-111586192D01*
X212343684Y-111586185D01*
X212507462Y-111476751D01*
X212507466Y-111476748D01*
X212646748Y-111337466D01*
X212646751Y-111337462D01*
X212756185Y-111173684D01*
X212756192Y-111173671D01*
X212831569Y-110991692D01*
X212831569Y-110991690D01*
X212839862Y-110950000D01*
X212036988Y-110950000D01*
X212054205Y-110940060D01*
X212110060Y-110884205D01*
X212149556Y-110815796D01*
X212170000Y-110739496D01*
X212170000Y-110660504D01*
X212149556Y-110584204D01*
X212110060Y-110515795D01*
X212054205Y-110459940D01*
X212036988Y-110450000D01*
X212839862Y-110450000D01*
X214130138Y-110450000D01*
X214933012Y-110450000D01*
X214915795Y-110459940D01*
X214859940Y-110515795D01*
X214820444Y-110584204D01*
X214800000Y-110660504D01*
X214800000Y-110739496D01*
X214820444Y-110815796D01*
X214859940Y-110884205D01*
X214915795Y-110940060D01*
X214933012Y-110950000D01*
X214130138Y-110950000D01*
X214138430Y-110991690D01*
X214138430Y-110991692D01*
X214213807Y-111173671D01*
X214213814Y-111173684D01*
X214323248Y-111337462D01*
X214323251Y-111337466D01*
X214462533Y-111476748D01*
X214462537Y-111476751D01*
X214626315Y-111586185D01*
X214626328Y-111586192D01*
X214808306Y-111661569D01*
X214808318Y-111661572D01*
X215001504Y-111699999D01*
X215001508Y-111700000D01*
X215250000Y-111700000D01*
X215250000Y-111000000D01*
X215750000Y-111000000D01*
X215750000Y-111700000D01*
X215998492Y-111700000D01*
X215998495Y-111699999D01*
X216191681Y-111661572D01*
X216191693Y-111661569D01*
X216373671Y-111586192D01*
X216373684Y-111586185D01*
X216537462Y-111476751D01*
X216537466Y-111476748D01*
X216676748Y-111337466D01*
X216676751Y-111337462D01*
X216786185Y-111173684D01*
X216786192Y-111173671D01*
X216861569Y-110991692D01*
X216861569Y-110991690D01*
X216869862Y-110950000D01*
X216066988Y-110950000D01*
X216084205Y-110940060D01*
X216140060Y-110884205D01*
X216179556Y-110815796D01*
X216200000Y-110739496D01*
X216200000Y-110660504D01*
X216179556Y-110584204D01*
X216140060Y-110515795D01*
X216084205Y-110459940D01*
X216066988Y-110450000D01*
X216869862Y-110450000D01*
X216861569Y-110408309D01*
X216861569Y-110408307D01*
X216786192Y-110226328D01*
X216786185Y-110226315D01*
X216676751Y-110062537D01*
X216676748Y-110062533D01*
X216537466Y-109923251D01*
X216537462Y-109923248D01*
X216373684Y-109813814D01*
X216373671Y-109813807D01*
X216191693Y-109738430D01*
X216191681Y-109738427D01*
X215998495Y-109700000D01*
X215750000Y-109700000D01*
X215750000Y-110400000D01*
X215250000Y-110400000D01*
X215250000Y-109700000D01*
X215001504Y-109700000D01*
X214808318Y-109738427D01*
X214808306Y-109738430D01*
X214626328Y-109813807D01*
X214626315Y-109813814D01*
X214462537Y-109923248D01*
X214462533Y-109923251D01*
X214323251Y-110062533D01*
X214323248Y-110062537D01*
X214213814Y-110226315D01*
X214213807Y-110226328D01*
X214138430Y-110408307D01*
X214138430Y-110408309D01*
X214130138Y-110450000D01*
X212839862Y-110450000D01*
X212831569Y-110408309D01*
X212831569Y-110408307D01*
X212756192Y-110226328D01*
X212756185Y-110226315D01*
X212646751Y-110062537D01*
X212646748Y-110062533D01*
X212507466Y-109923251D01*
X212507462Y-109923248D01*
X212343684Y-109813814D01*
X212343674Y-109813809D01*
X212334157Y-109809867D01*
X212279754Y-109766026D01*
X212257689Y-109699731D01*
X212274969Y-109632032D01*
X212278648Y-109626597D01*
X212280512Y-109623367D01*
X212280515Y-109623365D01*
X212356281Y-109492135D01*
X212395500Y-109345766D01*
X212395500Y-109194234D01*
X212356281Y-109047865D01*
X212280515Y-108916635D01*
X212173365Y-108809485D01*
X212107750Y-108771602D01*
X212042136Y-108733719D01*
X211949983Y-108709027D01*
X211912406Y-108698958D01*
X211852746Y-108662594D01*
X211822556Y-108601671D01*
X211820500Y-108590521D01*
X211820500Y-108564306D01*
X211817598Y-108527431D01*
X211793692Y-108445148D01*
X211792564Y-108439031D01*
X211795548Y-108410227D01*
X211795631Y-108381272D01*
X211799754Y-108369635D01*
X211799765Y-108369534D01*
X211799810Y-108369476D01*
X211799945Y-108369095D01*
X211805687Y-108355236D01*
X211820500Y-108242720D01*
X211820500Y-108017280D01*
X211805687Y-107904764D01*
X211805686Y-107904763D01*
X211804626Y-107896705D01*
X211807689Y-107896301D01*
X211807689Y-107863698D01*
X211804626Y-107863295D01*
X211814419Y-107788907D01*
X211820500Y-107742720D01*
X211820500Y-107517280D01*
X211805687Y-107404764D01*
X211805686Y-107404763D01*
X211804626Y-107396705D01*
X211806359Y-107396476D01*
X211803981Y-107368267D01*
X211805080Y-107356700D01*
X211805687Y-107355236D01*
X211820500Y-107242720D01*
X211820500Y-107194469D01*
X211821056Y-107188620D01*
X211831933Y-107161415D01*
X211840185Y-107133314D01*
X211846108Y-107125962D01*
X211846996Y-107123744D01*
X211849112Y-107122235D01*
X211856819Y-107112672D01*
X211870502Y-107098989D01*
X211940758Y-107028733D01*
X211940758Y-107028731D01*
X211947819Y-107021671D01*
X211947825Y-107021664D01*
X212100229Y-106869260D01*
X212100233Y-106869258D01*
X212187358Y-106782133D01*
X212237094Y-106707698D01*
X212255812Y-106679686D01*
X212302963Y-106565851D01*
X212327000Y-106445007D01*
X212327000Y-106321793D01*
X212327000Y-105814494D01*
X212302963Y-105693648D01*
X212282457Y-105644142D01*
X212255812Y-105579815D01*
X212252351Y-105574636D01*
X212241344Y-105558161D01*
X212241338Y-105558155D01*
X212237428Y-105552302D01*
X212187358Y-105477367D01*
X212100233Y-105390242D01*
X212100229Y-105390239D01*
X211945598Y-105235608D01*
X211945578Y-105235586D01*
X211856819Y-105146827D01*
X211823334Y-105085504D01*
X211820500Y-105059146D01*
X211820500Y-105017286D01*
X211820500Y-105017280D01*
X211805687Y-104904764D01*
X211805686Y-104904763D01*
X211804626Y-104896705D01*
X211807689Y-104896301D01*
X211807689Y-104863698D01*
X211804626Y-104863295D01*
X211807260Y-104843290D01*
X211820500Y-104742720D01*
X211820500Y-104517280D01*
X211805687Y-104404764D01*
X211799948Y-104390910D01*
X211798017Y-104372952D01*
X211791168Y-104356235D01*
X211793469Y-104330668D01*
X211792477Y-104321445D01*
X211792564Y-104320969D01*
X211793692Y-104314849D01*
X211817598Y-104232569D01*
X211820500Y-104195694D01*
X211820500Y-104169477D01*
X211822556Y-104158328D01*
X211833407Y-104136856D01*
X211840185Y-104113776D01*
X211848881Y-104106240D01*
X211854072Y-104095970D01*
X211874809Y-104083773D01*
X211892989Y-104068021D01*
X211912394Y-104061044D01*
X212042135Y-104026281D01*
X212173365Y-103950515D01*
X212280515Y-103843365D01*
X212356281Y-103712135D01*
X212395500Y-103565766D01*
X212395500Y-103414234D01*
X212356281Y-103267865D01*
X212280515Y-103136635D01*
X212280513Y-103136633D01*
X212276451Y-103129597D01*
X212278654Y-103128325D01*
X212258041Y-103075022D01*
X212272073Y-103006576D01*
X212320882Y-102956582D01*
X212334163Y-102950129D01*
X212343682Y-102946186D01*
X212343684Y-102946185D01*
X212507462Y-102836751D01*
X212507466Y-102836748D01*
X212646748Y-102697466D01*
X212646751Y-102697462D01*
X212756185Y-102533684D01*
X212756192Y-102533671D01*
X212831569Y-102351692D01*
X212831569Y-102351690D01*
X212839862Y-102310000D01*
X212036988Y-102310000D01*
X212054205Y-102300060D01*
X212110060Y-102244205D01*
X212149556Y-102175796D01*
X212170000Y-102099496D01*
X212170000Y-102020504D01*
X212149556Y-101944204D01*
X212110060Y-101875795D01*
X212054205Y-101819940D01*
X212036988Y-101810000D01*
X212839862Y-101810000D01*
X214130138Y-101810000D01*
X214933012Y-101810000D01*
X214915795Y-101819940D01*
X214859940Y-101875795D01*
X214820444Y-101944204D01*
X214800000Y-102020504D01*
X214800000Y-102099496D01*
X214820444Y-102175796D01*
X214859940Y-102244205D01*
X214915795Y-102300060D01*
X214933012Y-102310000D01*
X214130138Y-102310000D01*
X214138430Y-102351690D01*
X214138430Y-102351692D01*
X214213807Y-102533671D01*
X214213814Y-102533684D01*
X214323248Y-102697462D01*
X214323251Y-102697466D01*
X214462533Y-102836748D01*
X214462537Y-102836751D01*
X214626315Y-102946185D01*
X214626328Y-102946192D01*
X214808306Y-103021569D01*
X214808318Y-103021572D01*
X215001504Y-103059999D01*
X215001508Y-103060000D01*
X215250000Y-103060000D01*
X215250000Y-102360000D01*
X215750000Y-102360000D01*
X215750000Y-103060000D01*
X215998492Y-103060000D01*
X215998495Y-103059999D01*
X216191681Y-103021572D01*
X216191693Y-103021569D01*
X216373671Y-102946192D01*
X216373684Y-102946185D01*
X216537462Y-102836751D01*
X216537466Y-102836748D01*
X216676748Y-102697466D01*
X216676751Y-102697462D01*
X216786185Y-102533684D01*
X216786192Y-102533671D01*
X216861569Y-102351692D01*
X216861569Y-102351690D01*
X216869862Y-102310000D01*
X216066988Y-102310000D01*
X216084205Y-102300060D01*
X216140060Y-102244205D01*
X216179556Y-102175796D01*
X216200000Y-102099496D01*
X216200000Y-102020504D01*
X216179556Y-101944204D01*
X216140060Y-101875795D01*
X216084205Y-101819940D01*
X216066988Y-101810000D01*
X216869862Y-101810000D01*
X216861569Y-101768309D01*
X216861569Y-101768307D01*
X216786192Y-101586328D01*
X216786185Y-101586315D01*
X216676751Y-101422537D01*
X216676748Y-101422533D01*
X216537466Y-101283251D01*
X216537462Y-101283248D01*
X216373684Y-101173814D01*
X216373671Y-101173807D01*
X216191693Y-101098430D01*
X216191681Y-101098427D01*
X215998495Y-101060000D01*
X215750000Y-101060000D01*
X215750000Y-101760000D01*
X215250000Y-101760000D01*
X215250000Y-101060000D01*
X215001504Y-101060000D01*
X214808318Y-101098427D01*
X214808306Y-101098430D01*
X214626328Y-101173807D01*
X214626315Y-101173814D01*
X214462537Y-101283248D01*
X214462533Y-101283251D01*
X214323251Y-101422533D01*
X214323248Y-101422537D01*
X214213814Y-101586315D01*
X214213807Y-101586328D01*
X214138430Y-101768307D01*
X214138430Y-101768309D01*
X214130138Y-101810000D01*
X212839862Y-101810000D01*
X212831569Y-101768309D01*
X212831569Y-101768307D01*
X212756192Y-101586328D01*
X212756185Y-101586315D01*
X212646751Y-101422537D01*
X212646748Y-101422533D01*
X212507466Y-101283251D01*
X212507462Y-101283248D01*
X212343684Y-101173814D01*
X212343671Y-101173807D01*
X212161693Y-101098430D01*
X212161681Y-101098427D01*
X211968495Y-101060000D01*
X211570000Y-101060000D01*
X211570000Y-101760000D01*
X211070000Y-101760000D01*
X211070000Y-101060000D01*
X210671504Y-101060000D01*
X210478318Y-101098427D01*
X210478306Y-101098430D01*
X210296328Y-101173807D01*
X210296315Y-101173814D01*
X210132537Y-101283248D01*
X210132533Y-101283251D01*
X209993251Y-101422533D01*
X209993248Y-101422537D01*
X209883814Y-101586315D01*
X209883807Y-101586328D01*
X209808430Y-101768307D01*
X209808430Y-101768309D01*
X209800138Y-101810000D01*
X210603012Y-101810000D01*
X210585795Y-101819940D01*
X210529940Y-101875795D01*
X210490444Y-101944204D01*
X210470000Y-102020504D01*
X210470000Y-102099496D01*
X210490444Y-102175796D01*
X210529940Y-102244205D01*
X210585795Y-102300060D01*
X210603012Y-102310000D01*
X209800138Y-102310000D01*
X209808430Y-102351690D01*
X209808430Y-102351692D01*
X209855991Y-102466515D01*
X209863460Y-102535984D01*
X209832185Y-102598463D01*
X209829114Y-102601646D01*
X209802318Y-102628443D01*
X209802313Y-102628449D01*
X209718718Y-102769801D01*
X209672899Y-102927513D01*
X209672704Y-102929998D01*
X209672705Y-102930000D01*
X210621000Y-102930000D01*
X210629685Y-102932550D01*
X210638647Y-102931262D01*
X210662687Y-102942240D01*
X210688039Y-102949685D01*
X210693966Y-102956525D01*
X210702203Y-102960287D01*
X210716492Y-102982521D01*
X210733794Y-103002489D01*
X210736081Y-103013003D01*
X210739977Y-103019065D01*
X210745000Y-103054000D01*
X210745000Y-103055500D01*
X210725315Y-103122539D01*
X210672511Y-103168294D01*
X210621000Y-103179500D01*
X210254298Y-103179500D01*
X210217432Y-103182401D01*
X210217426Y-103182402D01*
X210059606Y-103228254D01*
X210059603Y-103228255D01*
X210002152Y-103262232D01*
X209939031Y-103279500D01*
X209451004Y-103279500D01*
X209315677Y-103306418D01*
X209315667Y-103306421D01*
X209188192Y-103359222D01*
X209073454Y-103435887D01*
X205701164Y-106808177D01*
X205639841Y-106841662D01*
X205570149Y-106836678D01*
X205536398Y-106814987D01*
X205535297Y-106816393D01*
X205529391Y-106811766D01*
X205480372Y-106782133D01*
X205391602Y-106728469D01*
X205237887Y-106680570D01*
X205237885Y-106680569D01*
X205237883Y-106680569D01*
X205191117Y-106676319D01*
X205171091Y-106674500D01*
X205171088Y-106674500D01*
X204787230Y-106674500D01*
X204720191Y-106654815D01*
X204699549Y-106638181D01*
X198923550Y-100862181D01*
X198890065Y-100800858D01*
X198895049Y-100731166D01*
X198936921Y-100675233D01*
X199002385Y-100650816D01*
X199011231Y-100650500D01*
X200765483Y-100650500D01*
X200832522Y-100670185D01*
X200878277Y-100722989D01*
X200883186Y-100735489D01*
X200902686Y-100794333D01*
X200902687Y-100794336D01*
X200923042Y-100827336D01*
X200994788Y-100943656D01*
X201118844Y-101067712D01*
X201268166Y-101159814D01*
X201434703Y-101214999D01*
X201537491Y-101225500D01*
X202179190Y-101225499D01*
X202246229Y-101245183D01*
X202266871Y-101261818D01*
X202593025Y-101587972D01*
X202593032Y-101587978D01*
X202656669Y-101630498D01*
X202656671Y-101630499D01*
X202656674Y-101630501D01*
X202699573Y-101659165D01*
X202817956Y-101708201D01*
X202817960Y-101708201D01*
X202817961Y-101708202D01*
X202943628Y-101733200D01*
X202943631Y-101733200D01*
X204727971Y-101733200D01*
X204785713Y-101721714D01*
X204827634Y-101713374D01*
X204853644Y-101708201D01*
X204972027Y-101659165D01*
X205014926Y-101630501D01*
X205014926Y-101630500D01*
X205014928Y-101630500D01*
X205075908Y-101589755D01*
X205078569Y-101587977D01*
X205464777Y-101201769D01*
X205535966Y-101095226D01*
X205585001Y-100976843D01*
X205591603Y-100943656D01*
X205610000Y-100851169D01*
X205610000Y-93555431D01*
X205610000Y-93555428D01*
X205584778Y-93428634D01*
X205588463Y-93366126D01*
X205608477Y-93304534D01*
X205640500Y-93102352D01*
X205640500Y-92897648D01*
X205608477Y-92695466D01*
X205608476Y-92695462D01*
X205608476Y-92695461D01*
X205582631Y-92615918D01*
X205580636Y-92546077D01*
X205616716Y-92486244D01*
X205679417Y-92455416D01*
X205700562Y-92453600D01*
X213017648Y-92453600D01*
X213047088Y-92462244D01*
X213077075Y-92468768D01*
X213082090Y-92472522D01*
X213084687Y-92473285D01*
X213105329Y-92489919D01*
X213197781Y-92582371D01*
X213231266Y-92643694D01*
X213230785Y-92690416D01*
X213232285Y-92690654D01*
X213199500Y-92897648D01*
X213199500Y-93102351D01*
X213231522Y-93304534D01*
X213294781Y-93499223D01*
X213329155Y-93566684D01*
X213387585Y-93681359D01*
X213387715Y-93681613D01*
X213508028Y-93847213D01*
X213652786Y-93991971D01*
X213796851Y-94096638D01*
X213818390Y-94112287D01*
X213904900Y-94156366D01*
X214000776Y-94205218D01*
X214000778Y-94205218D01*
X214000781Y-94205220D01*
X214105137Y-94239127D01*
X214195465Y-94268477D01*
X214296557Y-94284488D01*
X214397648Y-94300500D01*
X214397649Y-94300500D01*
X214602351Y-94300500D01*
X214602352Y-94300500D01*
X214804534Y-94268477D01*
X214999219Y-94205220D01*
X215181610Y-94112287D01*
X215296210Y-94029026D01*
X215347213Y-93991971D01*
X215347215Y-93991968D01*
X215347219Y-93991966D01*
X215491966Y-93847219D01*
X215491968Y-93847215D01*
X215491971Y-93847213D01*
X215544732Y-93774590D01*
X215612287Y-93681610D01*
X215705220Y-93499219D01*
X215768477Y-93304534D01*
X215800500Y-93102352D01*
X215800500Y-92897648D01*
X215768477Y-92695465D01*
X215731730Y-92582371D01*
X215705220Y-92500781D01*
X215705218Y-92500778D01*
X215705218Y-92500776D01*
X215642809Y-92378293D01*
X215612287Y-92318390D01*
X215604556Y-92307749D01*
X215491971Y-92152786D01*
X215347213Y-92008028D01*
X215181613Y-91887715D01*
X215181612Y-91887714D01*
X215181610Y-91887713D01*
X215117044Y-91854815D01*
X214999223Y-91794781D01*
X214804534Y-91731522D01*
X214629995Y-91703878D01*
X214602352Y-91699500D01*
X214397648Y-91699500D01*
X214294101Y-91715900D01*
X214190654Y-91732285D01*
X214190333Y-91730262D01*
X214129120Y-91727149D01*
X214082371Y-91697781D01*
X213821999Y-91437409D01*
X213813960Y-91429370D01*
X213813958Y-91429367D01*
X213726833Y-91342242D01*
X213648350Y-91289801D01*
X213642567Y-91285936D01*
X213642565Y-91285935D01*
X213624385Y-91273787D01*
X213584922Y-91257442D01*
X213543892Y-91240447D01*
X213510552Y-91226637D01*
X213450129Y-91214618D01*
X213445406Y-91213678D01*
X213445404Y-91213678D01*
X213389710Y-91202600D01*
X213389707Y-91202600D01*
X213389706Y-91202600D01*
X203945607Y-91202600D01*
X203822393Y-91202600D01*
X203822389Y-91202600D01*
X203771535Y-91212715D01*
X203771530Y-91212716D01*
X203761971Y-91214618D01*
X203701548Y-91226637D01*
X203654397Y-91246167D01*
X203587715Y-91273788D01*
X203587714Y-91273789D01*
X203565347Y-91288733D01*
X203565344Y-91288735D01*
X203485268Y-91342240D01*
X203441705Y-91385803D01*
X203398142Y-91429367D01*
X203398139Y-91429370D01*
X200704629Y-94122881D01*
X200643306Y-94156366D01*
X200616948Y-94159200D01*
X200353790Y-94159200D01*
X200286751Y-94139515D01*
X200268169Y-94118070D01*
X200266344Y-94119896D01*
X199546447Y-93400000D01*
X199552661Y-93400000D01*
X199654394Y-93372741D01*
X199745606Y-93320080D01*
X199820080Y-93245606D01*
X199872741Y-93154394D01*
X199900000Y-93052661D01*
X199900000Y-93046447D01*
X200579474Y-93725921D01*
X200611859Y-93681349D01*
X200704755Y-93499031D01*
X200767990Y-93304417D01*
X200800000Y-93102317D01*
X200800000Y-92897682D01*
X200767990Y-92695582D01*
X200704755Y-92500968D01*
X200611859Y-92318650D01*
X200579474Y-92274077D01*
X200579474Y-92274076D01*
X199900000Y-92953551D01*
X199900000Y-92947339D01*
X199872741Y-92845606D01*
X199820080Y-92754394D01*
X199745606Y-92679920D01*
X199654394Y-92627259D01*
X199552661Y-92600000D01*
X199546446Y-92600000D01*
X200225922Y-91920524D01*
X200225921Y-91920523D01*
X200181359Y-91888147D01*
X200181350Y-91888141D01*
X199999031Y-91795244D01*
X199804417Y-91732009D01*
X199602317Y-91700000D01*
X199397683Y-91700000D01*
X199195582Y-91732009D01*
X199000968Y-91795244D01*
X198818644Y-91888143D01*
X198774077Y-91920523D01*
X198774077Y-91920524D01*
X199453554Y-92600000D01*
X199447339Y-92600000D01*
X199345606Y-92627259D01*
X199254394Y-92679920D01*
X199179920Y-92754394D01*
X199127259Y-92845606D01*
X199100000Y-92947339D01*
X199100000Y-92953553D01*
X198420524Y-92274077D01*
X198420523Y-92274077D01*
X198388143Y-92318644D01*
X198295244Y-92500968D01*
X198232009Y-92695582D01*
X198200000Y-92897682D01*
X198200000Y-93102317D01*
X198232009Y-93304417D01*
X198295244Y-93499031D01*
X198388141Y-93681350D01*
X198388147Y-93681359D01*
X198420523Y-93725921D01*
X198420524Y-93725922D01*
X199100000Y-93046446D01*
X199100000Y-93052661D01*
X199127259Y-93154394D01*
X199179920Y-93245606D01*
X199254394Y-93320080D01*
X199345606Y-93372741D01*
X199447339Y-93400000D01*
X199453553Y-93400000D01*
X198733655Y-94119896D01*
X198731705Y-94117946D01*
X198706414Y-94143604D01*
X198646209Y-94159200D01*
X191435152Y-94159200D01*
X191368113Y-94139515D01*
X191347471Y-94122881D01*
X190642218Y-93417628D01*
X190608733Y-93356305D01*
X190609241Y-93309588D01*
X190607715Y-93309347D01*
X190640500Y-93102351D01*
X190640500Y-92897648D01*
X190608477Y-92695465D01*
X190571730Y-92582371D01*
X190545220Y-92500781D01*
X190545218Y-92500778D01*
X190545218Y-92500776D01*
X190482809Y-92378293D01*
X190452287Y-92318390D01*
X190444556Y-92307749D01*
X190331971Y-92152786D01*
X190187213Y-92008028D01*
X190021613Y-91887715D01*
X190021612Y-91887714D01*
X190021610Y-91887713D01*
X189957044Y-91854815D01*
X189839223Y-91794781D01*
X189644534Y-91731522D01*
X189469995Y-91703878D01*
X189442352Y-91699500D01*
X189237648Y-91699500D01*
X189213329Y-91703351D01*
X189035465Y-91731522D01*
X188840776Y-91794781D01*
X188658386Y-91887715D01*
X188492786Y-92008028D01*
X188348028Y-92152786D01*
X188227715Y-92318386D01*
X188134781Y-92500776D01*
X188071522Y-92695465D01*
X188039500Y-92897648D01*
X188039500Y-93102351D01*
X188071522Y-93304534D01*
X188134781Y-93499223D01*
X188169155Y-93566684D01*
X188227585Y-93681359D01*
X188227715Y-93681613D01*
X188348028Y-93847213D01*
X188492786Y-93991971D01*
X188636851Y-94096638D01*
X188658390Y-94112287D01*
X188744900Y-94156366D01*
X188840776Y-94205218D01*
X188840778Y-94205218D01*
X188840781Y-94205220D01*
X188945137Y-94239127D01*
X189035465Y-94268477D01*
X189136557Y-94284488D01*
X189237648Y-94300500D01*
X189237649Y-94300500D01*
X189442351Y-94300500D01*
X189442352Y-94300500D01*
X189511371Y-94289568D01*
X189649347Y-94267715D01*
X189649672Y-94269767D01*
X189710743Y-94272802D01*
X189757628Y-94302218D01*
X190635716Y-95180306D01*
X190635745Y-95180337D01*
X190725961Y-95270553D01*
X190725964Y-95270555D01*
X190725967Y-95270558D01*
X190754370Y-95289536D01*
X190828415Y-95339012D01*
X190895097Y-95366632D01*
X190942248Y-95386163D01*
X191002671Y-95398181D01*
X191063093Y-95410200D01*
X191063094Y-95410200D01*
X200177900Y-95410200D01*
X200244939Y-95429885D01*
X200290694Y-95482689D01*
X200301900Y-95534200D01*
X200301900Y-96989006D01*
X200316689Y-97063360D01*
X200316689Y-97063361D01*
X200325934Y-97109843D01*
X200325936Y-97109847D01*
X200325937Y-97109851D01*
X200350859Y-97170019D01*
X200373087Y-97223685D01*
X200373088Y-97223686D01*
X200395790Y-97257661D01*
X200441542Y-97326133D01*
X200528667Y-97413258D01*
X200528669Y-97413259D01*
X200539126Y-97423716D01*
X201678229Y-98562819D01*
X201711714Y-98624142D01*
X201706730Y-98693834D01*
X201664858Y-98749767D01*
X201599394Y-98774184D01*
X201590550Y-98774500D01*
X201537499Y-98774500D01*
X201537480Y-98774501D01*
X201434703Y-98785000D01*
X201434700Y-98785001D01*
X201268168Y-98840185D01*
X201268163Y-98840187D01*
X201118842Y-98932289D01*
X200994789Y-99056342D01*
X200902687Y-99205663D01*
X200902686Y-99205666D01*
X200886259Y-99255241D01*
X200883189Y-99264505D01*
X200843416Y-99321949D01*
X200778900Y-99348772D01*
X200765483Y-99349500D01*
X184435929Y-99349500D01*
X184310261Y-99374497D01*
X184310255Y-99374499D01*
X184191874Y-99423534D01*
X184085326Y-99494726D01*
X182341871Y-101238181D01*
X182280548Y-101271666D01*
X182254190Y-101274500D01*
X181612498Y-101274500D01*
X181612480Y-101274501D01*
X181509703Y-101285000D01*
X181509700Y-101285001D01*
X181343168Y-101340185D01*
X181343163Y-101340187D01*
X181193842Y-101432289D01*
X181069788Y-101556343D01*
X181069783Y-101556349D01*
X181067741Y-101559661D01*
X181065747Y-101561453D01*
X181065307Y-101562011D01*
X181065211Y-101561935D01*
X181015791Y-101606383D01*
X180946828Y-101617602D01*
X180882747Y-101589755D01*
X180856668Y-101559656D01*
X180854819Y-101556659D01*
X180854816Y-101556655D01*
X180730845Y-101432684D01*
X180581624Y-101340643D01*
X180581619Y-101340641D01*
X180415197Y-101285494D01*
X180415190Y-101285493D01*
X180312486Y-101275000D01*
X180175000Y-101275000D01*
X180175000Y-103724999D01*
X180312472Y-103724999D01*
X180312486Y-103724998D01*
X180415197Y-103714505D01*
X180581619Y-103659358D01*
X180581624Y-103659356D01*
X180730845Y-103567315D01*
X180854818Y-103443342D01*
X180856665Y-103440348D01*
X180858469Y-103438724D01*
X180859298Y-103437677D01*
X180859476Y-103437818D01*
X180908610Y-103393621D01*
X180977573Y-103382396D01*
X181041656Y-103410236D01*
X181067742Y-103440339D01*
X181069788Y-103443656D01*
X181193844Y-103567712D01*
X181290597Y-103627389D01*
X181337321Y-103679335D01*
X181349500Y-103732927D01*
X181349500Y-104030891D01*
X181329815Y-104097930D01*
X181313181Y-104118572D01*
X175352091Y-110079661D01*
X175290768Y-110113146D01*
X175221076Y-110108162D01*
X175165143Y-110066290D01*
X175164095Y-110064869D01*
X175155790Y-110053440D01*
X175155786Y-110053434D01*
X174994066Y-109891714D01*
X174809038Y-109757283D01*
X174719184Y-109711500D01*
X174605255Y-109653450D01*
X174387749Y-109582778D01*
X174387746Y-109582778D01*
X174260013Y-109562547D01*
X174161854Y-109547000D01*
X173838146Y-109547000D01*
X173762849Y-109558926D01*
X173612253Y-109582778D01*
X173612250Y-109582778D01*
X173394744Y-109653450D01*
X173190961Y-109757283D01*
X173104249Y-109820284D01*
X173005934Y-109891714D01*
X173005932Y-109891716D01*
X173005931Y-109891716D01*
X172844216Y-110053431D01*
X172844216Y-110053432D01*
X172844214Y-110053434D01*
X172835906Y-110064869D01*
X172709783Y-110238461D01*
X172605950Y-110442244D01*
X172535278Y-110659750D01*
X172535278Y-110659753D01*
X172505588Y-110847205D01*
X172475659Y-110910340D01*
X172416347Y-110947271D01*
X172346484Y-110946273D01*
X172295434Y-110915488D01*
X171686819Y-110306873D01*
X171653334Y-110245550D01*
X171650500Y-110219192D01*
X171650500Y-103732927D01*
X171670185Y-103665888D01*
X171709401Y-103627390D01*
X171806156Y-103567712D01*
X171930212Y-103443656D01*
X171932252Y-103440347D01*
X171934245Y-103438555D01*
X171934693Y-103437989D01*
X171934789Y-103438065D01*
X171984194Y-103393623D01*
X172053156Y-103382395D01*
X172117240Y-103410234D01*
X172143329Y-103440339D01*
X172145181Y-103443341D01*
X172145183Y-103443344D01*
X172269154Y-103567315D01*
X172418375Y-103659356D01*
X172418380Y-103659358D01*
X172584802Y-103714505D01*
X172584809Y-103714506D01*
X172687519Y-103724999D01*
X172824999Y-103724999D01*
X173325000Y-103724999D01*
X173462472Y-103724999D01*
X173462486Y-103724998D01*
X173565197Y-103714505D01*
X173731619Y-103659358D01*
X173731624Y-103659356D01*
X173880845Y-103567315D01*
X174004815Y-103443345D01*
X174096856Y-103294124D01*
X174096858Y-103294119D01*
X174152005Y-103127697D01*
X174152006Y-103127690D01*
X174162499Y-103024986D01*
X178837501Y-103024986D01*
X178847994Y-103127697D01*
X178903141Y-103294119D01*
X178903143Y-103294124D01*
X178995184Y-103443345D01*
X179119154Y-103567315D01*
X179268375Y-103659356D01*
X179268380Y-103659358D01*
X179434802Y-103714505D01*
X179434809Y-103714506D01*
X179537519Y-103724999D01*
X179674999Y-103724999D01*
X179675000Y-103724998D01*
X179675000Y-102750000D01*
X178837501Y-102750000D01*
X178837501Y-103024986D01*
X174162499Y-103024986D01*
X174162500Y-103024973D01*
X174162500Y-102750000D01*
X173325000Y-102750000D01*
X173325000Y-103724999D01*
X172824999Y-103724999D01*
X172825000Y-103724998D01*
X172825000Y-102624000D01*
X172844685Y-102556961D01*
X172897489Y-102511206D01*
X172949000Y-102500000D01*
X173075000Y-102500000D01*
X173075000Y-102374000D01*
X173094685Y-102306961D01*
X173147489Y-102261206D01*
X173199000Y-102250000D01*
X174162499Y-102250000D01*
X174162499Y-101975029D01*
X174162498Y-101975013D01*
X178837500Y-101975013D01*
X178837500Y-102250000D01*
X179675000Y-102250000D01*
X179675000Y-101275000D01*
X179537527Y-101275000D01*
X179537512Y-101275001D01*
X179434802Y-101285494D01*
X179268380Y-101340641D01*
X179268375Y-101340643D01*
X179119154Y-101432684D01*
X178995184Y-101556654D01*
X178903143Y-101705875D01*
X178903141Y-101705880D01*
X178847994Y-101872302D01*
X178847993Y-101872309D01*
X178837500Y-101975013D01*
X174162498Y-101975013D01*
X174162498Y-101975012D01*
X174152005Y-101872302D01*
X174096858Y-101705880D01*
X174096856Y-101705875D01*
X174004815Y-101556654D01*
X173880845Y-101432684D01*
X173731624Y-101340643D01*
X173731619Y-101340641D01*
X173565197Y-101285494D01*
X173565190Y-101285493D01*
X173462486Y-101275000D01*
X173444306Y-101275000D01*
X173377267Y-101255315D01*
X173331512Y-101202511D01*
X173321568Y-101133353D01*
X173350593Y-101069797D01*
X173356609Y-101063335D01*
X180733127Y-93686819D01*
X180794450Y-93653334D01*
X180820808Y-93650500D01*
X181459176Y-93650500D01*
X181526215Y-93670185D01*
X181569661Y-93718205D01*
X181631132Y-93838848D01*
X181779201Y-94042649D01*
X181779205Y-94042654D01*
X181957345Y-94220794D01*
X181957350Y-94220798D01*
X182100996Y-94325162D01*
X182161155Y-94368870D01*
X182304184Y-94441747D01*
X182385616Y-94483239D01*
X182385618Y-94483239D01*
X182385621Y-94483241D01*
X182625215Y-94561090D01*
X182874038Y-94600500D01*
X182874039Y-94600500D01*
X183125961Y-94600500D01*
X183125962Y-94600500D01*
X183374785Y-94561090D01*
X183614379Y-94483241D01*
X183838845Y-94368870D01*
X184042656Y-94220793D01*
X184220793Y-94042656D01*
X184368870Y-93838845D01*
X184483241Y-93614379D01*
X184561090Y-93374785D01*
X184600500Y-93125962D01*
X184600500Y-92874038D01*
X184561090Y-92625215D01*
X184483241Y-92385621D01*
X184483239Y-92385618D01*
X184483239Y-92385616D01*
X184430339Y-92281795D01*
X184368870Y-92161155D01*
X184324425Y-92099982D01*
X184220798Y-91957350D01*
X184220794Y-91957345D01*
X184042654Y-91779205D01*
X184042649Y-91779201D01*
X183838848Y-91631132D01*
X183838847Y-91631131D01*
X183838845Y-91631130D01*
X183760032Y-91590973D01*
X183614383Y-91516760D01*
X183374785Y-91438910D01*
X183314533Y-91429367D01*
X183125962Y-91399500D01*
X182874038Y-91399500D01*
X182807738Y-91410001D01*
X182625214Y-91438910D01*
X182385616Y-91516760D01*
X182161151Y-91631132D01*
X181957350Y-91779201D01*
X181957345Y-91779205D01*
X181779205Y-91957345D01*
X181779201Y-91957350D01*
X181631132Y-92161151D01*
X181569661Y-92281795D01*
X181521686Y-92332591D01*
X181459176Y-92349500D01*
X180435929Y-92349500D01*
X180310261Y-92374497D01*
X180310255Y-92374499D01*
X180191874Y-92423534D01*
X180085326Y-92494726D01*
X171341871Y-101238181D01*
X171280548Y-101271666D01*
X171254190Y-101274500D01*
X170612498Y-101274500D01*
X170612480Y-101274501D01*
X170509703Y-101285000D01*
X170509700Y-101285001D01*
X170343168Y-101340185D01*
X170343163Y-101340187D01*
X170193842Y-101432289D01*
X170069789Y-101556342D01*
X169977687Y-101705663D01*
X169977685Y-101705668D01*
X169972368Y-101721714D01*
X169922501Y-101872203D01*
X169922501Y-101872204D01*
X169922500Y-101872204D01*
X169912000Y-101974983D01*
X169912000Y-103025001D01*
X169912001Y-103025019D01*
X169922500Y-103127796D01*
X169922501Y-103127799D01*
X169977685Y-103294331D01*
X169977687Y-103294336D01*
X169993017Y-103319190D01*
X170069788Y-103443656D01*
X170193844Y-103567712D01*
X170290597Y-103627389D01*
X170337321Y-103679335D01*
X170349500Y-103732927D01*
X170349500Y-110219192D01*
X170329815Y-110286231D01*
X170313181Y-110306873D01*
X167166673Y-113453381D01*
X167105350Y-113486866D01*
X167078992Y-113489700D01*
X163974500Y-113489700D01*
X163907461Y-113470015D01*
X163861706Y-113417211D01*
X163850500Y-113365700D01*
X163850499Y-112662498D01*
X163850498Y-112662480D01*
X163839999Y-112559703D01*
X163839998Y-112559700D01*
X163797588Y-112431716D01*
X163784814Y-112393166D01*
X163784810Y-112393159D01*
X163781760Y-112386618D01*
X163783236Y-112385929D01*
X163767092Y-112326952D01*
X163788008Y-112260286D01*
X163803385Y-112241559D01*
X167800477Y-108244469D01*
X167871666Y-108137926D01*
X167916577Y-108029500D01*
X167920701Y-108019544D01*
X167929800Y-107973802D01*
X167945700Y-107893871D01*
X167945700Y-98865608D01*
X167965385Y-98798569D01*
X167982019Y-98777927D01*
X172123127Y-94636819D01*
X172184450Y-94603334D01*
X172210808Y-94600500D01*
X173740005Y-94600500D01*
X173740010Y-94600500D01*
X173842798Y-94589999D01*
X174009335Y-94534814D01*
X174158656Y-94442712D01*
X174282712Y-94318656D01*
X174374814Y-94169335D01*
X174429999Y-94002798D01*
X174440500Y-93900010D01*
X174440500Y-92099990D01*
X174429999Y-91997202D01*
X174374814Y-91830665D01*
X174282712Y-91681344D01*
X174158656Y-91557288D01*
X174009335Y-91465186D01*
X173842798Y-91410001D01*
X173842796Y-91410000D01*
X173740017Y-91399500D01*
X173740010Y-91399500D01*
X171939990Y-91399500D01*
X171939982Y-91399500D01*
X171837203Y-91410000D01*
X171837202Y-91410001D01*
X171754669Y-91437349D01*
X171670667Y-91465185D01*
X171670662Y-91465187D01*
X171521342Y-91557289D01*
X171397289Y-91681342D01*
X171305187Y-91830662D01*
X171305186Y-91830665D01*
X171250001Y-91997202D01*
X171250001Y-91997203D01*
X171250000Y-91997203D01*
X171239500Y-92099982D01*
X171239500Y-93629191D01*
X171219815Y-93696230D01*
X171203181Y-93716872D01*
X166897782Y-98022270D01*
X166836459Y-98055755D01*
X166766767Y-98050771D01*
X166710834Y-98008899D01*
X166699616Y-97990883D01*
X166611861Y-97818652D01*
X166579474Y-97774077D01*
X166579474Y-97774076D01*
X165900000Y-98453551D01*
X165900000Y-98447339D01*
X165872741Y-98345606D01*
X165820080Y-98254394D01*
X165745606Y-98179920D01*
X165654394Y-98127259D01*
X165552661Y-98100000D01*
X165546446Y-98100000D01*
X166225922Y-97420524D01*
X166225921Y-97420523D01*
X166181359Y-97388147D01*
X166181350Y-97388141D01*
X165999031Y-97295244D01*
X165804417Y-97232009D01*
X165602317Y-97200000D01*
X165397683Y-97200000D01*
X165195582Y-97232009D01*
X165000968Y-97295244D01*
X164818644Y-97388143D01*
X164774077Y-97420523D01*
X164774077Y-97420524D01*
X165453554Y-98100000D01*
X165447339Y-98100000D01*
X165345606Y-98127259D01*
X165254394Y-98179920D01*
X165179920Y-98254394D01*
X165127259Y-98345606D01*
X165100000Y-98447339D01*
X165100000Y-98453553D01*
X164420524Y-97774077D01*
X164420523Y-97774077D01*
X164388143Y-97818644D01*
X164295244Y-98000968D01*
X164232009Y-98195582D01*
X164200000Y-98397682D01*
X164200000Y-98602317D01*
X164232009Y-98804417D01*
X164295244Y-98999031D01*
X164388141Y-99181350D01*
X164388147Y-99181359D01*
X164420523Y-99225921D01*
X164420524Y-99225922D01*
X165100000Y-98546446D01*
X165100000Y-98552661D01*
X165127259Y-98654394D01*
X165179920Y-98745606D01*
X165254394Y-98820080D01*
X165345606Y-98872741D01*
X165447339Y-98900000D01*
X165453553Y-98900000D01*
X164774076Y-99579474D01*
X164818650Y-99611859D01*
X165000968Y-99704755D01*
X165195582Y-99767990D01*
X165397683Y-99800000D01*
X165602317Y-99800000D01*
X165804417Y-99767990D01*
X165999031Y-99704755D01*
X166181349Y-99611859D01*
X166225921Y-99579474D01*
X165546447Y-98900000D01*
X165552661Y-98900000D01*
X165654394Y-98872741D01*
X165745606Y-98820080D01*
X165820080Y-98745606D01*
X165872741Y-98654394D01*
X165900000Y-98552661D01*
X165900000Y-98546447D01*
X166608381Y-99254828D01*
X166641866Y-99316151D01*
X166644700Y-99342509D01*
X166644700Y-107508991D01*
X166625015Y-107576030D01*
X166608381Y-107596672D01*
X163990207Y-110214844D01*
X163928884Y-110248329D01*
X163901363Y-110246360D01*
X163901363Y-110250000D01*
X162250000Y-110250000D01*
X162250000Y-111162499D01*
X162743192Y-111162499D01*
X162810231Y-111182184D01*
X162855986Y-111234988D01*
X162865930Y-111304146D01*
X162836905Y-111367702D01*
X162830873Y-111374180D01*
X162279371Y-111925681D01*
X162218048Y-111959166D01*
X162191690Y-111962000D01*
X160849998Y-111962000D01*
X160849981Y-111962001D01*
X160747203Y-111972500D01*
X160747200Y-111972501D01*
X160580668Y-112027685D01*
X160580663Y-112027687D01*
X160431342Y-112119789D01*
X160307289Y-112243842D01*
X160215187Y-112393163D01*
X160215186Y-112393166D01*
X160160001Y-112559703D01*
X160160001Y-112559704D01*
X160160000Y-112559704D01*
X160149500Y-112662483D01*
X160149500Y-112662491D01*
X160149500Y-113052973D01*
X160149501Y-113365700D01*
X160129817Y-113432739D01*
X160077013Y-113478494D01*
X160025501Y-113489700D01*
X155121008Y-113489700D01*
X155053969Y-113470015D01*
X155033327Y-113453381D01*
X153686819Y-112106873D01*
X153653334Y-112045550D01*
X153650500Y-112019192D01*
X153650500Y-110462486D01*
X160150001Y-110462486D01*
X160160494Y-110565197D01*
X160215641Y-110731619D01*
X160215643Y-110731624D01*
X160307684Y-110880845D01*
X160431654Y-111004815D01*
X160580875Y-111096856D01*
X160580880Y-111096858D01*
X160747302Y-111152005D01*
X160747309Y-111152006D01*
X160850019Y-111162499D01*
X161749999Y-111162499D01*
X161750000Y-111162498D01*
X161750000Y-110250000D01*
X160150001Y-110250000D01*
X160150001Y-110462486D01*
X153650500Y-110462486D01*
X153650500Y-110076139D01*
X153670185Y-110009100D01*
X153686819Y-109988458D01*
X153796555Y-109878721D01*
X153796558Y-109878718D01*
X153908782Y-109710762D01*
X153908782Y-109710761D01*
X153908786Y-109710756D01*
X153980546Y-109537513D01*
X160150000Y-109537513D01*
X160150000Y-109750000D01*
X161750000Y-109750000D01*
X162250000Y-109750000D01*
X163849999Y-109750000D01*
X163849999Y-109537528D01*
X163849998Y-109537513D01*
X163839505Y-109434802D01*
X163784358Y-109268380D01*
X163784356Y-109268375D01*
X163692315Y-109119154D01*
X163568345Y-108995184D01*
X163419124Y-108903143D01*
X163419119Y-108903141D01*
X163252697Y-108847994D01*
X163252690Y-108847993D01*
X163149986Y-108837500D01*
X162250000Y-108837500D01*
X162250000Y-109750000D01*
X161750000Y-109750000D01*
X161750000Y-108837500D01*
X160850028Y-108837500D01*
X160850012Y-108837501D01*
X160747302Y-108847994D01*
X160580880Y-108903141D01*
X160580875Y-108903143D01*
X160431654Y-108995184D01*
X160307684Y-109119154D01*
X160215643Y-109268375D01*
X160215641Y-109268380D01*
X160160494Y-109434802D01*
X160160493Y-109434809D01*
X160150000Y-109537513D01*
X153980546Y-109537513D01*
X153986091Y-109524127D01*
X154025500Y-109326003D01*
X154025500Y-108673997D01*
X153986091Y-108475873D01*
X153908786Y-108289244D01*
X153908784Y-108289241D01*
X153908782Y-108289237D01*
X153796558Y-108121281D01*
X153653718Y-107978441D01*
X153485762Y-107866217D01*
X153485752Y-107866212D01*
X153299127Y-107788909D01*
X153299119Y-107788907D01*
X153101007Y-107749500D01*
X153101003Y-107749500D01*
X153087751Y-107749500D01*
X153020712Y-107729815D01*
X152974957Y-107677011D01*
X152965013Y-107607853D01*
X152994038Y-107544297D01*
X153000070Y-107537819D01*
X161093356Y-99444534D01*
X163157788Y-97380102D01*
X178017890Y-82520001D01*
X180527704Y-82520001D01*
X180527899Y-82522486D01*
X180573718Y-82680198D01*
X180657314Y-82821552D01*
X180657321Y-82821561D01*
X180773438Y-82937678D01*
X180773447Y-82937685D01*
X180914803Y-83021282D01*
X180914806Y-83021283D01*
X181072504Y-83067099D01*
X181072510Y-83067100D01*
X181109350Y-83069999D01*
X181109366Y-83070000D01*
X181750000Y-83070000D01*
X181750000Y-82520000D01*
X180527705Y-82520000D01*
X180527704Y-82520001D01*
X178017890Y-82520001D01*
X178149916Y-82387975D01*
X178241072Y-82296819D01*
X178302395Y-82263334D01*
X178328753Y-82260500D01*
X181939138Y-82260500D01*
X181945434Y-82260660D01*
X182132296Y-82270160D01*
X182162425Y-82280695D01*
X182193039Y-82289685D01*
X182195172Y-82292146D01*
X182198250Y-82293223D01*
X182217904Y-82318381D01*
X182238794Y-82342489D01*
X182239587Y-82346135D01*
X182241264Y-82348282D01*
X182242155Y-82357939D01*
X182250000Y-82394000D01*
X182250000Y-83070000D01*
X182890634Y-83070000D01*
X182890649Y-83069999D01*
X182927489Y-83067100D01*
X182927495Y-83067099D01*
X183085193Y-83021283D01*
X183085196Y-83021282D01*
X183218888Y-82942218D01*
X183286612Y-82925035D01*
X183352875Y-82947195D01*
X183369690Y-82961269D01*
X183372107Y-82963686D01*
X183372111Y-82963689D01*
X183503214Y-83051290D01*
X183503227Y-83051297D01*
X183648898Y-83111635D01*
X183648903Y-83111637D01*
X183803553Y-83142399D01*
X183803556Y-83142400D01*
X183803558Y-83142400D01*
X183961244Y-83142400D01*
X183961245Y-83142399D01*
X184115897Y-83111637D01*
X184261579Y-83051294D01*
X184355859Y-82988298D01*
X184422536Y-82967420D01*
X184424750Y-82967400D01*
X185738789Y-82967400D01*
X185801909Y-82984667D01*
X185864602Y-83021744D01*
X185893019Y-83030000D01*
X186022426Y-83067597D01*
X186022429Y-83067597D01*
X186022431Y-83067598D01*
X186059306Y-83070500D01*
X186059314Y-83070500D01*
X187840686Y-83070500D01*
X187840694Y-83070500D01*
X187877569Y-83067598D01*
X187877571Y-83067597D01*
X187877573Y-83067597D01*
X187933701Y-83051290D01*
X188035398Y-83021744D01*
X188176865Y-82938081D01*
X188293081Y-82821865D01*
X188376744Y-82680398D01*
X188422598Y-82522569D01*
X188425500Y-82485694D01*
X188425500Y-82054306D01*
X188422598Y-82017431D01*
X188404728Y-81955921D01*
X188391124Y-81909095D01*
X188391323Y-81839225D01*
X188429265Y-81780555D01*
X188492904Y-81751712D01*
X188510200Y-81750500D01*
X191899570Y-81750500D01*
X191966609Y-81770185D01*
X191987251Y-81786819D01*
X193266678Y-83066247D01*
X193266685Y-83066253D01*
X193334608Y-83111637D01*
X193334609Y-83111637D01*
X193389608Y-83148386D01*
X193526182Y-83204956D01*
X193526187Y-83204958D01*
X193526191Y-83204958D01*
X193526192Y-83204959D01*
X193671179Y-83233800D01*
X193671182Y-83233800D01*
X203430620Y-83233800D01*
X203528162Y-83214396D01*
X203575613Y-83204958D01*
X203643904Y-83176671D01*
X203712191Y-83148386D01*
X203712192Y-83148385D01*
X203712195Y-83148384D01*
X203767191Y-83111637D01*
X203835116Y-83066252D01*
X204344895Y-82556471D01*
X204406216Y-82522988D01*
X204451971Y-82521681D01*
X204507648Y-82530500D01*
X204507649Y-82530500D01*
X204712351Y-82530500D01*
X204712352Y-82530500D01*
X204914534Y-82498477D01*
X205109219Y-82435220D01*
X205291610Y-82342287D01*
X205390885Y-82270160D01*
X205457213Y-82221971D01*
X205457215Y-82221968D01*
X205457219Y-82221966D01*
X205601966Y-82077219D01*
X205601968Y-82077215D01*
X205601971Y-82077213D01*
X205654732Y-82004590D01*
X205722287Y-81911610D01*
X205815220Y-81729219D01*
X205878477Y-81534534D01*
X205910500Y-81332352D01*
X205910500Y-81127648D01*
X205889782Y-80996840D01*
X205878477Y-80925465D01*
X205828847Y-80772720D01*
X205815220Y-80730781D01*
X205815218Y-80730778D01*
X205815218Y-80730776D01*
X205754557Y-80611723D01*
X205722287Y-80548390D01*
X205722284Y-80548386D01*
X205719774Y-80544289D01*
X205701530Y-80476843D01*
X205722647Y-80410241D01*
X205776419Y-80365628D01*
X205825502Y-80355500D01*
X207479548Y-80355500D01*
X207546587Y-80375185D01*
X207567229Y-80391819D01*
X208487781Y-81312371D01*
X208521266Y-81373694D01*
X208520785Y-81420416D01*
X208522285Y-81420654D01*
X208489500Y-81627648D01*
X208489500Y-81832351D01*
X208521522Y-82034534D01*
X208584781Y-82229223D01*
X208642391Y-82342287D01*
X208677585Y-82411359D01*
X208677715Y-82411613D01*
X208798028Y-82577213D01*
X208942786Y-82721971D01*
X209063226Y-82809474D01*
X209108390Y-82842287D01*
X209224607Y-82901503D01*
X209290776Y-82935218D01*
X209290778Y-82935218D01*
X209290781Y-82935220D01*
X209378400Y-82963689D01*
X209485465Y-82998477D01*
X209586557Y-83014488D01*
X209687648Y-83030500D01*
X209687649Y-83030500D01*
X209892351Y-83030500D01*
X209892352Y-83030500D01*
X210094534Y-82998477D01*
X210289219Y-82935220D01*
X210471610Y-82842287D01*
X210564590Y-82774732D01*
X210637213Y-82721971D01*
X210637215Y-82721968D01*
X210637219Y-82721966D01*
X210781966Y-82577219D01*
X210781968Y-82577215D01*
X210781971Y-82577213D01*
X210848468Y-82485686D01*
X210902287Y-82411610D01*
X210995220Y-82229219D01*
X211058477Y-82034534D01*
X211090500Y-81832352D01*
X211090500Y-81627682D01*
X218650000Y-81627682D01*
X218650000Y-81832317D01*
X218682009Y-82034417D01*
X218745244Y-82229031D01*
X218838141Y-82411350D01*
X218838147Y-82411359D01*
X218870523Y-82455921D01*
X218870524Y-82455922D01*
X219550000Y-81776446D01*
X219550000Y-81782661D01*
X219577259Y-81884394D01*
X219629920Y-81975606D01*
X219704394Y-82050080D01*
X219795606Y-82102741D01*
X219897339Y-82130000D01*
X219903553Y-82130000D01*
X219224076Y-82809474D01*
X219268650Y-82841859D01*
X219450968Y-82934755D01*
X219645582Y-82997990D01*
X219847683Y-83030000D01*
X220052317Y-83030000D01*
X220254417Y-82997990D01*
X220449031Y-82934755D01*
X220631349Y-82841859D01*
X220675921Y-82809474D01*
X219996447Y-82130000D01*
X220002661Y-82130000D01*
X220104394Y-82102741D01*
X220195606Y-82050080D01*
X220270080Y-81975606D01*
X220322741Y-81884394D01*
X220350000Y-81782661D01*
X220350000Y-81776447D01*
X221029474Y-82455921D01*
X221061859Y-82411349D01*
X221154755Y-82229031D01*
X221217990Y-82034417D01*
X221250000Y-81832317D01*
X221250000Y-81627682D01*
X221217990Y-81425582D01*
X221154755Y-81230968D01*
X221061859Y-81048650D01*
X221029474Y-81004077D01*
X221029474Y-81004076D01*
X220350000Y-81683551D01*
X220350000Y-81677339D01*
X220322741Y-81575606D01*
X220270080Y-81484394D01*
X220195606Y-81409920D01*
X220104394Y-81357259D01*
X220002661Y-81330000D01*
X219996446Y-81330000D01*
X220675922Y-80650524D01*
X220675921Y-80650523D01*
X220631359Y-80618147D01*
X220631350Y-80618141D01*
X220449031Y-80525244D01*
X220254417Y-80462009D01*
X220052317Y-80430000D01*
X219847683Y-80430000D01*
X219645582Y-80462009D01*
X219450968Y-80525244D01*
X219268644Y-80618143D01*
X219224077Y-80650523D01*
X219224077Y-80650524D01*
X219903554Y-81330000D01*
X219897339Y-81330000D01*
X219795606Y-81357259D01*
X219704394Y-81409920D01*
X219629920Y-81484394D01*
X219577259Y-81575606D01*
X219550000Y-81677339D01*
X219550000Y-81683553D01*
X218870524Y-81004077D01*
X218870523Y-81004077D01*
X218838143Y-81048644D01*
X218745244Y-81230968D01*
X218682009Y-81425582D01*
X218650000Y-81627682D01*
X211090500Y-81627682D01*
X211090500Y-81627648D01*
X211082122Y-81574753D01*
X211058477Y-81425465D01*
X211012077Y-81282661D01*
X210995220Y-81230781D01*
X210995218Y-81230778D01*
X210995218Y-81230776D01*
X210942673Y-81127652D01*
X210902287Y-81048390D01*
X210870092Y-81004077D01*
X210781971Y-80882786D01*
X210637213Y-80738028D01*
X210471613Y-80617715D01*
X210471612Y-80617714D01*
X210471610Y-80617713D01*
X210372436Y-80567181D01*
X210289223Y-80524781D01*
X210094534Y-80461522D01*
X209910756Y-80432415D01*
X209892352Y-80429500D01*
X209687648Y-80429500D01*
X209608923Y-80441969D01*
X209480654Y-80462285D01*
X209480333Y-80460262D01*
X209419120Y-80457149D01*
X209372371Y-80427781D01*
X208283434Y-79338844D01*
X208275860Y-79331270D01*
X208275858Y-79331267D01*
X208188733Y-79244142D01*
X208127908Y-79203500D01*
X208121578Y-79199270D01*
X208086290Y-79175690D01*
X208086286Y-79175688D01*
X208005792Y-79142347D01*
X207972452Y-79128537D01*
X207912029Y-79116518D01*
X207907306Y-79115578D01*
X207907304Y-79115578D01*
X207851610Y-79104500D01*
X207851607Y-79104500D01*
X207851606Y-79104500D01*
X204259452Y-79104500D01*
X204192413Y-79084815D01*
X204146658Y-79032011D01*
X204136714Y-78962853D01*
X204165739Y-78899297D01*
X204171771Y-78892819D01*
X205383650Y-77680940D01*
X209032373Y-74032215D01*
X209093694Y-73998732D01*
X209140410Y-73999249D01*
X209140654Y-73997715D01*
X209244101Y-74014099D01*
X209347648Y-74030500D01*
X209347649Y-74030500D01*
X209552351Y-74030500D01*
X209552352Y-74030500D01*
X209754534Y-73998477D01*
X209949219Y-73935220D01*
X210131610Y-73842287D01*
X210248250Y-73757544D01*
X210297213Y-73721971D01*
X210297220Y-73721965D01*
X210319676Y-73699509D01*
X210441966Y-73577219D01*
X210441968Y-73577215D01*
X210441971Y-73577213D01*
X210533657Y-73451016D01*
X210562287Y-73411610D01*
X210655220Y-73229219D01*
X210718477Y-73034534D01*
X210750500Y-72832352D01*
X210750500Y-72627648D01*
X210718477Y-72425466D01*
X210716913Y-72420654D01*
X210660838Y-72248071D01*
X210655220Y-72230781D01*
X210655218Y-72230778D01*
X210655218Y-72230776D01*
X210589980Y-72102741D01*
X210562287Y-72048390D01*
X210500991Y-71964022D01*
X210441971Y-71882786D01*
X210297213Y-71738028D01*
X210131613Y-71617715D01*
X210131612Y-71617714D01*
X210131610Y-71617713D01*
X210074653Y-71588691D01*
X209949223Y-71524781D01*
X209754534Y-71461522D01*
X209579995Y-71433878D01*
X209552352Y-71429500D01*
X209347648Y-71429500D01*
X209323329Y-71433351D01*
X209145465Y-71461522D01*
X208950776Y-71524781D01*
X208768386Y-71617715D01*
X208602786Y-71738028D01*
X208458028Y-71882786D01*
X208337715Y-72048386D01*
X208244781Y-72230776D01*
X208181522Y-72425465D01*
X208149500Y-72627648D01*
X208149500Y-72832351D01*
X208182285Y-73039346D01*
X208180252Y-73039667D01*
X208177165Y-73100834D01*
X208147781Y-73147627D01*
X202862229Y-78433181D01*
X202800906Y-78466666D01*
X202774548Y-78469500D01*
X188549500Y-78469500D01*
X188482461Y-78449815D01*
X188436706Y-78397011D01*
X188425500Y-78345500D01*
X188425500Y-78244313D01*
X188425499Y-78244298D01*
X188422598Y-78207432D01*
X188422597Y-78207426D01*
X188376745Y-78049606D01*
X188376744Y-78049602D01*
X188376741Y-78049597D01*
X188373647Y-78042446D01*
X188374801Y-78041946D01*
X188359558Y-77981880D01*
X188381715Y-77915616D01*
X188395786Y-77898802D01*
X195629771Y-70664819D01*
X195691094Y-70631334D01*
X195717452Y-70628500D01*
X196885500Y-70628500D01*
X196952539Y-70648185D01*
X196998294Y-70700989D01*
X197009500Y-70752500D01*
X197009500Y-72177870D01*
X197009501Y-72177876D01*
X197015908Y-72237483D01*
X197066202Y-72372328D01*
X197066206Y-72372335D01*
X197152452Y-72487544D01*
X197152455Y-72487547D01*
X197267664Y-72573793D01*
X197267671Y-72573797D01*
X197402517Y-72624091D01*
X197402516Y-72624091D01*
X197409444Y-72624835D01*
X197462127Y-72630500D01*
X199357872Y-72630499D01*
X199417483Y-72624091D01*
X199552331Y-72573796D01*
X199667546Y-72487546D01*
X199753796Y-72372331D01*
X199781429Y-72298243D01*
X199783601Y-72292420D01*
X199825471Y-72236486D01*
X199890936Y-72212068D01*
X199959209Y-72226919D01*
X199987464Y-72248071D01*
X200037636Y-72298243D01*
X200037641Y-72298247D01*
X200139603Y-72372326D01*
X200215978Y-72427815D01*
X200344375Y-72493237D01*
X200412393Y-72527895D01*
X200412396Y-72527896D01*
X200517221Y-72561955D01*
X200622049Y-72596015D01*
X200839778Y-72630500D01*
X200839779Y-72630500D01*
X201060221Y-72630500D01*
X201060222Y-72630500D01*
X201277951Y-72596015D01*
X201487606Y-72527895D01*
X201684022Y-72427815D01*
X201862365Y-72298242D01*
X202018242Y-72142365D01*
X202147815Y-71964022D01*
X202247895Y-71767606D01*
X202316015Y-71557951D01*
X202350500Y-71340222D01*
X202350500Y-71119778D01*
X202316015Y-70902049D01*
X202316014Y-70902045D01*
X202279875Y-70790817D01*
X202277880Y-70720976D01*
X202313961Y-70661144D01*
X202376662Y-70630316D01*
X202397806Y-70628500D01*
X216572548Y-70628500D01*
X216639587Y-70648185D01*
X216660229Y-70664819D01*
X218307781Y-72312371D01*
X218341266Y-72373694D01*
X218340785Y-72420416D01*
X218342285Y-72420654D01*
X218309500Y-72627648D01*
X218309500Y-72832351D01*
X218341522Y-73034534D01*
X218404781Y-73229223D01*
X218497715Y-73411613D01*
X218618028Y-73577213D01*
X218762786Y-73721971D01*
X218917749Y-73834556D01*
X218928390Y-73842287D01*
X219044607Y-73901503D01*
X219110776Y-73935218D01*
X219110778Y-73935218D01*
X219110781Y-73935220D01*
X219215137Y-73969127D01*
X219305465Y-73998477D01*
X219406557Y-74014488D01*
X219507648Y-74030500D01*
X219507649Y-74030500D01*
X219712351Y-74030500D01*
X219712352Y-74030500D01*
X219914534Y-73998477D01*
X220109219Y-73935220D01*
X220291610Y-73842287D01*
X220408250Y-73757544D01*
X220457213Y-73721971D01*
X220457220Y-73721965D01*
X220479676Y-73699509D01*
X220601966Y-73577219D01*
X220601968Y-73577215D01*
X220601971Y-73577213D01*
X220693657Y-73451016D01*
X220722287Y-73411610D01*
X220815220Y-73229219D01*
X220878477Y-73034534D01*
X220910500Y-72832352D01*
X220910500Y-72627648D01*
X220878477Y-72425466D01*
X220876913Y-72420654D01*
X220820838Y-72248071D01*
X220815220Y-72230781D01*
X220815218Y-72230778D01*
X220815218Y-72230776D01*
X220749980Y-72102741D01*
X220722287Y-72048390D01*
X220660991Y-71964022D01*
X220601971Y-71882786D01*
X220457213Y-71738028D01*
X220291613Y-71617715D01*
X220291612Y-71617714D01*
X220291610Y-71617713D01*
X220234653Y-71588691D01*
X220109223Y-71524781D01*
X219914534Y-71461522D01*
X219739995Y-71433878D01*
X219712352Y-71429500D01*
X219507648Y-71429500D01*
X219404101Y-71445900D01*
X219300654Y-71462285D01*
X219300333Y-71460262D01*
X219239120Y-71457149D01*
X219192371Y-71427781D01*
X217378822Y-69614232D01*
X217368859Y-69604269D01*
X217368858Y-69604267D01*
X217281733Y-69517142D01*
X217230509Y-69482915D01*
X217179286Y-69448688D01*
X217179283Y-69448686D01*
X217179280Y-69448685D01*
X217105603Y-69418168D01*
X217105601Y-69418167D01*
X217098792Y-69415347D01*
X217065452Y-69401537D01*
X217005029Y-69389518D01*
X217000306Y-69388578D01*
X217000304Y-69388578D01*
X216944610Y-69377500D01*
X216944607Y-69377500D01*
X216944606Y-69377500D01*
X195468607Y-69377500D01*
X195345393Y-69377500D01*
X195345389Y-69377500D01*
X195289697Y-69388578D01*
X195284971Y-69389518D01*
X195247259Y-69397019D01*
X195224550Y-69401536D01*
X195224548Y-69401537D01*
X195191207Y-69415347D01*
X195110719Y-69448684D01*
X195110705Y-69448692D01*
X195008272Y-69517138D01*
X195008264Y-69517144D01*
X190256551Y-74268858D01*
X190195228Y-74302343D01*
X190125536Y-74297359D01*
X190069603Y-74255487D01*
X190045186Y-74190023D01*
X190050212Y-74145174D01*
X190051461Y-74141055D01*
X190051463Y-74141051D01*
X190075500Y-74020207D01*
X190075500Y-73896994D01*
X190075500Y-72946114D01*
X190095185Y-72879075D01*
X190128575Y-72846398D01*
X190127668Y-72845150D01*
X190131605Y-72842289D01*
X190131610Y-72842287D01*
X190297219Y-72721966D01*
X190441966Y-72577219D01*
X190441968Y-72577215D01*
X190441971Y-72577213D01*
X190507118Y-72487544D01*
X190562287Y-72411610D01*
X190655220Y-72229219D01*
X190718477Y-72034534D01*
X190750500Y-71832352D01*
X190750500Y-71627648D01*
X190730707Y-71502680D01*
X190718477Y-71425465D01*
X190670494Y-71277789D01*
X190655220Y-71230781D01*
X190655218Y-71230778D01*
X190655218Y-71230776D01*
X190598661Y-71119778D01*
X190562287Y-71048390D01*
X190511535Y-70978535D01*
X190441971Y-70882786D01*
X190297213Y-70738028D01*
X190131613Y-70617715D01*
X190131612Y-70617714D01*
X190131610Y-70617713D01*
X190074653Y-70588691D01*
X189949223Y-70524781D01*
X189754534Y-70461522D01*
X189579995Y-70433878D01*
X189552352Y-70429500D01*
X189347648Y-70429500D01*
X189323329Y-70433351D01*
X189145465Y-70461522D01*
X188950776Y-70524781D01*
X188768386Y-70617715D01*
X188602786Y-70738028D01*
X188458028Y-70882786D01*
X188337715Y-71048386D01*
X188244781Y-71230776D01*
X188181522Y-71425465D01*
X188149500Y-71627648D01*
X188149500Y-71832351D01*
X188181522Y-72034534D01*
X188244781Y-72229223D01*
X188287148Y-72312371D01*
X188337585Y-72411359D01*
X188337715Y-72411613D01*
X188458028Y-72577213D01*
X188458034Y-72577219D01*
X188602781Y-72721966D01*
X188768390Y-72842287D01*
X188768394Y-72842289D01*
X188772332Y-72845150D01*
X188771111Y-72846829D01*
X188812155Y-72892177D01*
X188824500Y-72946114D01*
X188824500Y-73648147D01*
X188804815Y-73715186D01*
X188788181Y-73735828D01*
X184843068Y-77680940D01*
X184781745Y-77714425D01*
X184712053Y-77709441D01*
X184656120Y-77667569D01*
X184652285Y-77662150D01*
X184606689Y-77593910D01*
X184495192Y-77482413D01*
X184495188Y-77482410D01*
X184364085Y-77394809D01*
X184364072Y-77394802D01*
X184218401Y-77334464D01*
X184218389Y-77334461D01*
X184063745Y-77303700D01*
X184063742Y-77303700D01*
X183906058Y-77303700D01*
X183906055Y-77303700D01*
X183751410Y-77334461D01*
X183751398Y-77334464D01*
X183605727Y-77394802D01*
X183605714Y-77394809D01*
X183474611Y-77482410D01*
X183474607Y-77482413D01*
X183363113Y-77593907D01*
X183363110Y-77593911D01*
X183294893Y-77696006D01*
X183241281Y-77740811D01*
X183171956Y-77749518D01*
X183128670Y-77733847D01*
X183089192Y-77710500D01*
X183085398Y-77708256D01*
X183085397Y-77708255D01*
X183085396Y-77708255D01*
X183085393Y-77708254D01*
X182927573Y-77662402D01*
X182927567Y-77662401D01*
X182890701Y-77659500D01*
X182890694Y-77659500D01*
X181180800Y-77659500D01*
X181113761Y-77639815D01*
X181068006Y-77587011D01*
X181056800Y-77535500D01*
X181056800Y-71156741D01*
X181056800Y-71156094D01*
X181056774Y-71155965D01*
X181032763Y-71035249D01*
X181017494Y-70998387D01*
X181009271Y-70978533D01*
X180985612Y-70921415D01*
X180959797Y-70882781D01*
X180917158Y-70818967D01*
X180917156Y-70818964D01*
X180826937Y-70728745D01*
X180826906Y-70728716D01*
X180286550Y-70188360D01*
X180279260Y-70181070D01*
X180279258Y-70181067D01*
X180192133Y-70093942D01*
X180140909Y-70059715D01*
X180089686Y-70025488D01*
X180089683Y-70025486D01*
X180089680Y-70025485D01*
X180016003Y-69994968D01*
X180016001Y-69994967D01*
X180009192Y-69992147D01*
X179975852Y-69978337D01*
X179915429Y-69966318D01*
X179910706Y-69965378D01*
X179910704Y-69965378D01*
X179855010Y-69954300D01*
X179855007Y-69954300D01*
X179855006Y-69954300D01*
X173661806Y-69954300D01*
X173538593Y-69954300D01*
X173451196Y-69971684D01*
X173451195Y-69971683D01*
X173417754Y-69978335D01*
X173417745Y-69978338D01*
X173303916Y-70025487D01*
X173210856Y-70087669D01*
X173210851Y-70087672D01*
X173201470Y-70093939D01*
X173201466Y-70093942D01*
X172867627Y-70427781D01*
X172806304Y-70461266D01*
X172759584Y-70460776D01*
X172759346Y-70462285D01*
X172655898Y-70445900D01*
X172552352Y-70429500D01*
X172347648Y-70429500D01*
X172323329Y-70433351D01*
X172145465Y-70461522D01*
X171950776Y-70524781D01*
X171768386Y-70617715D01*
X171602786Y-70738028D01*
X171458028Y-70882786D01*
X171337715Y-71048386D01*
X171244781Y-71230776D01*
X171181522Y-71425465D01*
X171149500Y-71627648D01*
X171149500Y-71832351D01*
X171181522Y-72034534D01*
X171244781Y-72229223D01*
X171287148Y-72312371D01*
X171337585Y-72411359D01*
X171337715Y-72411613D01*
X171458028Y-72577213D01*
X171602786Y-72721971D01*
X171757749Y-72834556D01*
X171768390Y-72842287D01*
X171884607Y-72901503D01*
X171950776Y-72935218D01*
X171950778Y-72935218D01*
X171950781Y-72935220D01*
X172055137Y-72969127D01*
X172145465Y-72998477D01*
X172237033Y-73012980D01*
X172347648Y-73030500D01*
X172347649Y-73030500D01*
X172552351Y-73030500D01*
X172552352Y-73030500D01*
X172754534Y-72998477D01*
X172949219Y-72935220D01*
X173131610Y-72842287D01*
X173224590Y-72774732D01*
X173297213Y-72721971D01*
X173297215Y-72721968D01*
X173297219Y-72721966D01*
X173441966Y-72577219D01*
X173441968Y-72577215D01*
X173441971Y-72577213D01*
X173507118Y-72487544D01*
X173562287Y-72411610D01*
X173655220Y-72229219D01*
X173718477Y-72034534D01*
X173750500Y-71832352D01*
X173750500Y-71627648D01*
X173730707Y-71502680D01*
X173717715Y-71420654D01*
X173719762Y-71420329D01*
X173719846Y-71418635D01*
X173716215Y-71408897D01*
X173721557Y-71384339D01*
X173722810Y-71359235D01*
X173729252Y-71348968D01*
X173731068Y-71340625D01*
X173752219Y-71312371D01*
X173822974Y-71241618D01*
X173884298Y-71208133D01*
X173910654Y-71205300D01*
X177922387Y-71205300D01*
X177989426Y-71224985D01*
X178035181Y-71277789D01*
X178045125Y-71346947D01*
X178040318Y-71367618D01*
X178021523Y-71425461D01*
X178021523Y-71425464D01*
X177989500Y-71627648D01*
X177989500Y-71832351D01*
X178017654Y-72010111D01*
X178008699Y-72079405D01*
X177982862Y-72117190D01*
X150325180Y-99774872D01*
X150263857Y-99808357D01*
X150194165Y-99803373D01*
X150149818Y-99774872D01*
X136602824Y-86227878D01*
X136569339Y-86166555D01*
X136568032Y-86120798D01*
X136569463Y-86111767D01*
X136579091Y-86050974D01*
X136589800Y-85983365D01*
X136589800Y-85786633D01*
X136559026Y-85592337D01*
X136498233Y-85405238D01*
X136408924Y-85229961D01*
X136293294Y-85070810D01*
X136154190Y-84931706D01*
X135995038Y-84816075D01*
X135819761Y-84726766D01*
X135632662Y-84665973D01*
X135438366Y-84635200D01*
X135438361Y-84635200D01*
X135241639Y-84635200D01*
X135241634Y-84635200D01*
X135047337Y-84665973D01*
X134860238Y-84726766D01*
X134684961Y-84816075D01*
X134594159Y-84882047D01*
X134525810Y-84931706D01*
X134525808Y-84931708D01*
X134525807Y-84931708D01*
X134386708Y-85070807D01*
X134386708Y-85070808D01*
X134386706Y-85070810D01*
X134337047Y-85139159D01*
X134271075Y-85229961D01*
X134181766Y-85405238D01*
X134120973Y-85592337D01*
X134090200Y-85786633D01*
X123500500Y-85786633D01*
X123500500Y-84401635D01*
X131250201Y-84401635D01*
X131250201Y-84598368D01*
X131280974Y-84792664D01*
X131341767Y-84979763D01*
X131431076Y-85155040D01*
X131546707Y-85314192D01*
X131685811Y-85453296D01*
X131844963Y-85568927D01*
X131890908Y-85592337D01*
X132020239Y-85658235D01*
X132020241Y-85658235D01*
X132020244Y-85658237D01*
X132120531Y-85690822D01*
X132207338Y-85719028D01*
X132401635Y-85749802D01*
X132401640Y-85749802D01*
X132598367Y-85749802D01*
X132792663Y-85719028D01*
X132979758Y-85658237D01*
X133155039Y-85568927D01*
X133314191Y-85453296D01*
X133453295Y-85314192D01*
X133568926Y-85155040D01*
X133658236Y-84979759D01*
X133719027Y-84792664D01*
X133729464Y-84726766D01*
X133749801Y-84598368D01*
X133749801Y-84401635D01*
X133719027Y-84207339D01*
X133658234Y-84020240D01*
X133568925Y-83844963D01*
X133453295Y-83685812D01*
X133314191Y-83546708D01*
X133155039Y-83431077D01*
X132979762Y-83341768D01*
X132792663Y-83280975D01*
X132598367Y-83250202D01*
X132598362Y-83250202D01*
X132401640Y-83250202D01*
X132401635Y-83250202D01*
X132207338Y-83280975D01*
X132020239Y-83341768D01*
X131844962Y-83431077D01*
X131754160Y-83497049D01*
X131685811Y-83546708D01*
X131685809Y-83546710D01*
X131685808Y-83546710D01*
X131546709Y-83685809D01*
X131546709Y-83685810D01*
X131546707Y-83685812D01*
X131497048Y-83754161D01*
X131431076Y-83844963D01*
X131341767Y-84020240D01*
X131280974Y-84207339D01*
X131250201Y-84401635D01*
X123500500Y-84401635D01*
X123500500Y-81127648D01*
X144489500Y-81127648D01*
X144489500Y-81332351D01*
X144521522Y-81534534D01*
X144584781Y-81729223D01*
X144637311Y-81832317D01*
X144677585Y-81911359D01*
X144677715Y-81911613D01*
X144798028Y-82077213D01*
X144942786Y-82221971D01*
X145045808Y-82296819D01*
X145108390Y-82342287D01*
X145224607Y-82401503D01*
X145290776Y-82435218D01*
X145290778Y-82435218D01*
X145290781Y-82435220D01*
X145395137Y-82469127D01*
X145485465Y-82498477D01*
X145569564Y-82511797D01*
X145687648Y-82530500D01*
X145687649Y-82530500D01*
X145892351Y-82530500D01*
X145892352Y-82530500D01*
X146094534Y-82498477D01*
X146289219Y-82435220D01*
X146471610Y-82342287D01*
X146570885Y-82270160D01*
X146637213Y-82221971D01*
X146637215Y-82221968D01*
X146637219Y-82221966D01*
X146781966Y-82077219D01*
X146781968Y-82077215D01*
X146781971Y-82077213D01*
X146834732Y-82004590D01*
X146902287Y-81911610D01*
X146995220Y-81729219D01*
X147058477Y-81534534D01*
X147090500Y-81332352D01*
X147090500Y-81127648D01*
X147069782Y-80996840D01*
X147058477Y-80925465D01*
X147008847Y-80772720D01*
X146995220Y-80730781D01*
X146995218Y-80730778D01*
X146995218Y-80730776D01*
X146937610Y-80617715D01*
X146902287Y-80548390D01*
X146885134Y-80524781D01*
X146781971Y-80382786D01*
X146637213Y-80238028D01*
X146471613Y-80117715D01*
X146471612Y-80117714D01*
X146471610Y-80117713D01*
X146361832Y-80061778D01*
X146289223Y-80024781D01*
X146094534Y-79961522D01*
X145916085Y-79933259D01*
X145892352Y-79929500D01*
X145687648Y-79929500D01*
X145663915Y-79933259D01*
X145485465Y-79961522D01*
X145290776Y-80024781D01*
X145108386Y-80117715D01*
X144942786Y-80238028D01*
X144798028Y-80382786D01*
X144677715Y-80548386D01*
X144584781Y-80730776D01*
X144521522Y-80925465D01*
X144489500Y-81127648D01*
X123500500Y-81127648D01*
X123500500Y-71627648D01*
X144989500Y-71627648D01*
X144989500Y-71832351D01*
X145021522Y-72034534D01*
X145084781Y-72229223D01*
X145127148Y-72312371D01*
X145177585Y-72411359D01*
X145177715Y-72411613D01*
X145298028Y-72577213D01*
X145442786Y-72721971D01*
X145597749Y-72834556D01*
X145608390Y-72842287D01*
X145724607Y-72901503D01*
X145790776Y-72935218D01*
X145790778Y-72935218D01*
X145790781Y-72935220D01*
X145895137Y-72969127D01*
X145985465Y-72998477D01*
X146077033Y-73012980D01*
X146187648Y-73030500D01*
X146187649Y-73030500D01*
X146392351Y-73030500D01*
X146392352Y-73030500D01*
X146479746Y-73016658D01*
X146599347Y-72997715D01*
X146599672Y-72999767D01*
X146660743Y-73002802D01*
X146707628Y-73032218D01*
X147838181Y-74162771D01*
X147871666Y-74224094D01*
X147874500Y-74250452D01*
X147874500Y-91750500D01*
X147854815Y-91817539D01*
X147802011Y-91863294D01*
X147750501Y-91874500D01*
X147602130Y-91874500D01*
X147602123Y-91874501D01*
X147542516Y-91880908D01*
X147407671Y-91931202D01*
X147407664Y-91931206D01*
X147292455Y-92017452D01*
X147292452Y-92017455D01*
X147206206Y-92132664D01*
X147206202Y-92132671D01*
X147155908Y-92267517D01*
X147150439Y-92318390D01*
X147149501Y-92327123D01*
X147149500Y-92327135D01*
X147149500Y-94122870D01*
X147149501Y-94122876D01*
X147155908Y-94182483D01*
X147206202Y-94317328D01*
X147206206Y-94317335D01*
X147292452Y-94432544D01*
X147292455Y-94432547D01*
X147407664Y-94518793D01*
X147407671Y-94518797D01*
X147452618Y-94535561D01*
X147542517Y-94569091D01*
X147602127Y-94575500D01*
X147612685Y-94575499D01*
X147679723Y-94595179D01*
X147700372Y-94611818D01*
X148370591Y-95282037D01*
X148307007Y-95299075D01*
X148192993Y-95364901D01*
X148099901Y-95457993D01*
X148034075Y-95572007D01*
X148017037Y-95635591D01*
X147384728Y-95003282D01*
X147384727Y-95003282D01*
X147345380Y-95057439D01*
X147248904Y-95246782D01*
X147183242Y-95448869D01*
X147183242Y-95448872D01*
X147150000Y-95658753D01*
X147150000Y-95871246D01*
X147183242Y-96081127D01*
X147183242Y-96081130D01*
X147248904Y-96283217D01*
X147345375Y-96472550D01*
X147384728Y-96526716D01*
X148017037Y-95894408D01*
X148034075Y-95957993D01*
X148099901Y-96072007D01*
X148192993Y-96165099D01*
X148307007Y-96230925D01*
X148370590Y-96247962D01*
X147738282Y-96880269D01*
X147738282Y-96880270D01*
X147792449Y-96919624D01*
X147981782Y-97016095D01*
X148183870Y-97081757D01*
X148393754Y-97115000D01*
X148606246Y-97115000D01*
X148816127Y-97081757D01*
X148816130Y-97081757D01*
X149018217Y-97016095D01*
X149207554Y-96919622D01*
X149261716Y-96880270D01*
X149261717Y-96880270D01*
X148629408Y-96247962D01*
X148692993Y-96230925D01*
X148807007Y-96165099D01*
X148900099Y-96072007D01*
X148965925Y-95957993D01*
X148982962Y-95894408D01*
X149615270Y-96526717D01*
X149615270Y-96526716D01*
X149654622Y-96472554D01*
X149751095Y-96283217D01*
X149816757Y-96081130D01*
X149816757Y-96081127D01*
X149850000Y-95871246D01*
X149850000Y-95658753D01*
X149816757Y-95448872D01*
X149816757Y-95448869D01*
X149751095Y-95246782D01*
X149654624Y-95057449D01*
X149615270Y-95003282D01*
X149615269Y-95003282D01*
X148982962Y-95635590D01*
X148965925Y-95572007D01*
X148900099Y-95457993D01*
X148807007Y-95364901D01*
X148692993Y-95299075D01*
X148629409Y-95282037D01*
X149299627Y-94611818D01*
X149360950Y-94578333D01*
X149387307Y-94575499D01*
X149397872Y-94575499D01*
X149457483Y-94569091D01*
X149592331Y-94518796D01*
X149707546Y-94432546D01*
X149793796Y-94317331D01*
X149844091Y-94182483D01*
X149850500Y-94122873D01*
X149850499Y-92327128D01*
X149844091Y-92267517D01*
X149833525Y-92239189D01*
X149793797Y-92132671D01*
X149793793Y-92132664D01*
X149707547Y-92017455D01*
X149707544Y-92017452D01*
X149592335Y-91931206D01*
X149592328Y-91931202D01*
X149457482Y-91880908D01*
X149457483Y-91880908D01*
X149397883Y-91874501D01*
X149397881Y-91874500D01*
X149397873Y-91874500D01*
X149397865Y-91874500D01*
X149249500Y-91874500D01*
X149182461Y-91854815D01*
X149136706Y-91802011D01*
X149125500Y-91750500D01*
X149125500Y-89897682D01*
X154040000Y-89897682D01*
X154040000Y-90102317D01*
X154072009Y-90304417D01*
X154135244Y-90499031D01*
X154228141Y-90681350D01*
X154228147Y-90681359D01*
X154260523Y-90725921D01*
X154260524Y-90725922D01*
X154940000Y-90046446D01*
X154940000Y-90052661D01*
X154967259Y-90154394D01*
X155019920Y-90245606D01*
X155094394Y-90320080D01*
X155185606Y-90372741D01*
X155287339Y-90400000D01*
X155293553Y-90400000D01*
X154614076Y-91079474D01*
X154658650Y-91111859D01*
X154840968Y-91204755D01*
X155035582Y-91267990D01*
X155237683Y-91300000D01*
X155442317Y-91300000D01*
X155644417Y-91267990D01*
X155839031Y-91204755D01*
X156021349Y-91111859D01*
X156065921Y-91079474D01*
X155386447Y-90400000D01*
X155392661Y-90400000D01*
X155494394Y-90372741D01*
X155585606Y-90320080D01*
X155660080Y-90245606D01*
X155712741Y-90154394D01*
X155740000Y-90052661D01*
X155740000Y-90046448D01*
X156419474Y-90725922D01*
X156419474Y-90725921D01*
X156451859Y-90681349D01*
X156544755Y-90499031D01*
X156607990Y-90304417D01*
X156640000Y-90102317D01*
X156640000Y-89897682D01*
X156607990Y-89695582D01*
X156544755Y-89500968D01*
X156451859Y-89318650D01*
X156419474Y-89274077D01*
X156419474Y-89274076D01*
X155740000Y-89953551D01*
X155740000Y-89947339D01*
X155712741Y-89845606D01*
X155660080Y-89754394D01*
X155585606Y-89679920D01*
X155494394Y-89627259D01*
X155392661Y-89600000D01*
X155386446Y-89600000D01*
X156065922Y-88920524D01*
X156065921Y-88920523D01*
X156021359Y-88888147D01*
X156021350Y-88888141D01*
X155839031Y-88795244D01*
X155644417Y-88732009D01*
X155442317Y-88700000D01*
X155237683Y-88700000D01*
X155035582Y-88732009D01*
X154840968Y-88795244D01*
X154658644Y-88888143D01*
X154614077Y-88920523D01*
X154614077Y-88920524D01*
X155293554Y-89600000D01*
X155287339Y-89600000D01*
X155185606Y-89627259D01*
X155094394Y-89679920D01*
X155019920Y-89754394D01*
X154967259Y-89845606D01*
X154940000Y-89947339D01*
X154940000Y-89953553D01*
X154260524Y-89274077D01*
X154260523Y-89274077D01*
X154228143Y-89318644D01*
X154135244Y-89500968D01*
X154072009Y-89695582D01*
X154040000Y-89897682D01*
X149125500Y-89897682D01*
X149125500Y-81127682D01*
X154650000Y-81127682D01*
X154650000Y-81332317D01*
X154682009Y-81534417D01*
X154745244Y-81729031D01*
X154838141Y-81911350D01*
X154838147Y-81911359D01*
X154870523Y-81955921D01*
X154870524Y-81955922D01*
X155550000Y-81276446D01*
X155550000Y-81282661D01*
X155577259Y-81384394D01*
X155629920Y-81475606D01*
X155704394Y-81550080D01*
X155795606Y-81602741D01*
X155897339Y-81630000D01*
X155903553Y-81630000D01*
X155224076Y-82309474D01*
X155268650Y-82341859D01*
X155450968Y-82434755D01*
X155645582Y-82497990D01*
X155847683Y-82530000D01*
X156052317Y-82530000D01*
X156254417Y-82497990D01*
X156449031Y-82434755D01*
X156631349Y-82341859D01*
X156675921Y-82309474D01*
X155996447Y-81630000D01*
X156002661Y-81630000D01*
X156104394Y-81602741D01*
X156195606Y-81550080D01*
X156270080Y-81475606D01*
X156322741Y-81384394D01*
X156350000Y-81282661D01*
X156350000Y-81276448D01*
X157029474Y-81955922D01*
X157029474Y-81955921D01*
X157061859Y-81911349D01*
X157154755Y-81729031D01*
X157217990Y-81534417D01*
X157250000Y-81332317D01*
X157250000Y-81127682D01*
X157217990Y-80925582D01*
X157154755Y-80730968D01*
X157061859Y-80548650D01*
X157029474Y-80504077D01*
X157029474Y-80504076D01*
X156350000Y-81183551D01*
X156350000Y-81177339D01*
X156322741Y-81075606D01*
X156270080Y-80984394D01*
X156195606Y-80909920D01*
X156104394Y-80857259D01*
X156002661Y-80830000D01*
X155996446Y-80830000D01*
X156675922Y-80150524D01*
X156675921Y-80150523D01*
X156631359Y-80118147D01*
X156631350Y-80118141D01*
X156449031Y-80025244D01*
X156254417Y-79962009D01*
X156052317Y-79930000D01*
X155847683Y-79930000D01*
X155645582Y-79962009D01*
X155450968Y-80025244D01*
X155268644Y-80118143D01*
X155224077Y-80150523D01*
X155224077Y-80150524D01*
X155903554Y-80830000D01*
X155897339Y-80830000D01*
X155795606Y-80857259D01*
X155704394Y-80909920D01*
X155629920Y-80984394D01*
X155577259Y-81075606D01*
X155550000Y-81177339D01*
X155550000Y-81183553D01*
X154870524Y-80504077D01*
X154870523Y-80504077D01*
X154838143Y-80548644D01*
X154745244Y-80730968D01*
X154682009Y-80925582D01*
X154650000Y-81127682D01*
X149125500Y-81127682D01*
X149125500Y-73878396D01*
X149125500Y-73878394D01*
X149101463Y-73757548D01*
X149086724Y-73721966D01*
X149086724Y-73721965D01*
X149086724Y-73721964D01*
X149054314Y-73643719D01*
X149054312Y-73643714D01*
X149026394Y-73601933D01*
X148998286Y-73559866D01*
X148998286Y-73559865D01*
X148985860Y-73541270D01*
X148985853Y-73541261D01*
X148895637Y-73451045D01*
X148895606Y-73451016D01*
X147592218Y-72147628D01*
X147558733Y-72086305D01*
X147559241Y-72039588D01*
X147557715Y-72039347D01*
X147590500Y-71832351D01*
X147590500Y-71627648D01*
X155149500Y-71627648D01*
X155149500Y-71832351D01*
X155181522Y-72034534D01*
X155244781Y-72229223D01*
X155287148Y-72312371D01*
X155337585Y-72411359D01*
X155337715Y-72411613D01*
X155458028Y-72577213D01*
X155602786Y-72721971D01*
X155757749Y-72834556D01*
X155768390Y-72842287D01*
X155884607Y-72901503D01*
X155950776Y-72935218D01*
X155950778Y-72935218D01*
X155950781Y-72935220D01*
X156055137Y-72969127D01*
X156145465Y-72998477D01*
X156237033Y-73012980D01*
X156347648Y-73030500D01*
X156347649Y-73030500D01*
X156552351Y-73030500D01*
X156552352Y-73030500D01*
X156754534Y-72998477D01*
X156949219Y-72935220D01*
X157131610Y-72842287D01*
X157224590Y-72774732D01*
X157297213Y-72721971D01*
X157297215Y-72721968D01*
X157297219Y-72721966D01*
X157441966Y-72577219D01*
X157441968Y-72577215D01*
X157441971Y-72577213D01*
X157507118Y-72487544D01*
X157562287Y-72411610D01*
X157655220Y-72229219D01*
X157718477Y-72034534D01*
X157750500Y-71832352D01*
X157750500Y-71627648D01*
X157741681Y-71571971D01*
X157750635Y-71502680D01*
X157776468Y-71464898D01*
X158004450Y-71236916D01*
X158065772Y-71203434D01*
X158092130Y-71200600D01*
X160924440Y-71200600D01*
X160991479Y-71220285D01*
X161037234Y-71273089D01*
X161047178Y-71342247D01*
X161042371Y-71362919D01*
X161022009Y-71425582D01*
X160990000Y-71627682D01*
X160990000Y-71832317D01*
X161022009Y-72034417D01*
X161085244Y-72229031D01*
X161178141Y-72411350D01*
X161178147Y-72411359D01*
X161210523Y-72455921D01*
X161210524Y-72455922D01*
X161890000Y-71776446D01*
X161890000Y-71782661D01*
X161917259Y-71884394D01*
X161969920Y-71975606D01*
X162044394Y-72050080D01*
X162135606Y-72102741D01*
X162237339Y-72130000D01*
X162243552Y-72130000D01*
X161564076Y-72809474D01*
X161608650Y-72841859D01*
X161790968Y-72934755D01*
X161985582Y-72997990D01*
X162187683Y-73030000D01*
X162392317Y-73030000D01*
X162594417Y-72997990D01*
X162653181Y-72978896D01*
X162723022Y-72976900D01*
X162782855Y-73012980D01*
X162813684Y-73075681D01*
X162815500Y-73096827D01*
X162815500Y-79591770D01*
X162795815Y-79658809D01*
X162779181Y-79679451D01*
X162555105Y-79903526D01*
X162493782Y-79937011D01*
X162448026Y-79938318D01*
X162392352Y-79929500D01*
X162187648Y-79929500D01*
X162163915Y-79933259D01*
X161985465Y-79961522D01*
X161790776Y-80024781D01*
X161608386Y-80117715D01*
X161442786Y-80238028D01*
X161298028Y-80382786D01*
X161177715Y-80548386D01*
X161084781Y-80730776D01*
X161021522Y-80925465D01*
X160989500Y-81127648D01*
X160989500Y-81332351D01*
X161021522Y-81534534D01*
X161084781Y-81729223D01*
X161137311Y-81832317D01*
X161177585Y-81911359D01*
X161177715Y-81911613D01*
X161298028Y-82077213D01*
X161442786Y-82221971D01*
X161545808Y-82296819D01*
X161608390Y-82342287D01*
X161724607Y-82401503D01*
X161790776Y-82435218D01*
X161790778Y-82435218D01*
X161790781Y-82435220D01*
X161895137Y-82469127D01*
X161985465Y-82498477D01*
X162069564Y-82511797D01*
X162187648Y-82530500D01*
X162187649Y-82530500D01*
X162392351Y-82530500D01*
X162392352Y-82530500D01*
X162594534Y-82498477D01*
X162789219Y-82435220D01*
X162971610Y-82342287D01*
X163070885Y-82270160D01*
X163137213Y-82221971D01*
X163137215Y-82221968D01*
X163137219Y-82221966D01*
X163281966Y-82077219D01*
X163281968Y-82077215D01*
X163281971Y-82077213D01*
X163334732Y-82004590D01*
X163402287Y-81911610D01*
X163495220Y-81729219D01*
X163558477Y-81534534D01*
X163590500Y-81332352D01*
X163590500Y-81127648D01*
X163581681Y-81071971D01*
X163590635Y-81002679D01*
X163616470Y-80964895D01*
X164148952Y-80432415D01*
X164194594Y-80364106D01*
X164231084Y-80309495D01*
X164269870Y-80215857D01*
X164287659Y-80172912D01*
X164316500Y-80027917D01*
X164316500Y-79880082D01*
X164316500Y-71143382D01*
X164303793Y-71079500D01*
X164287659Y-70998388D01*
X164254518Y-70918380D01*
X164239775Y-70882786D01*
X164231085Y-70861806D01*
X164231083Y-70861803D01*
X164148954Y-70738888D01*
X164148953Y-70738887D01*
X164148951Y-70738884D01*
X164044416Y-70634349D01*
X163858269Y-70448202D01*
X163277221Y-69867152D01*
X163277214Y-69867146D01*
X163203529Y-69817912D01*
X163203529Y-69817913D01*
X163154291Y-69785013D01*
X163017717Y-69728443D01*
X163017707Y-69728440D01*
X162872720Y-69699600D01*
X162872718Y-69699600D01*
X157655982Y-69699600D01*
X157655980Y-69699600D01*
X157510992Y-69728440D01*
X157510986Y-69728442D01*
X157374408Y-69785014D01*
X157374396Y-69785021D01*
X157325170Y-69817911D01*
X157325171Y-69817912D01*
X157251481Y-69867149D01*
X156715104Y-70403526D01*
X156653781Y-70437011D01*
X156608025Y-70438318D01*
X156552352Y-70429500D01*
X156347648Y-70429500D01*
X156323329Y-70433351D01*
X156145465Y-70461522D01*
X155950776Y-70524781D01*
X155768386Y-70617715D01*
X155602786Y-70738028D01*
X155458028Y-70882786D01*
X155337715Y-71048386D01*
X155244781Y-71230776D01*
X155181522Y-71425465D01*
X155149500Y-71627648D01*
X147590500Y-71627648D01*
X147558477Y-71425465D01*
X147510494Y-71277789D01*
X147495220Y-71230781D01*
X147495218Y-71230778D01*
X147495218Y-71230776D01*
X147438661Y-71119778D01*
X147402287Y-71048390D01*
X147351535Y-70978535D01*
X147281971Y-70882786D01*
X147137213Y-70738028D01*
X146971613Y-70617715D01*
X146971612Y-70617714D01*
X146971610Y-70617713D01*
X146914653Y-70588691D01*
X146789223Y-70524781D01*
X146594534Y-70461522D01*
X146419995Y-70433878D01*
X146392352Y-70429500D01*
X146187648Y-70429500D01*
X146163329Y-70433351D01*
X145985465Y-70461522D01*
X145790776Y-70524781D01*
X145608386Y-70617715D01*
X145442786Y-70738028D01*
X145298028Y-70882786D01*
X145177715Y-71048386D01*
X145084781Y-71230776D01*
X145021522Y-71425465D01*
X144989500Y-71627648D01*
X123500500Y-71627648D01*
X123500500Y-63381902D01*
X127499500Y-63381902D01*
X127499500Y-63618097D01*
X127536446Y-63851368D01*
X127609433Y-64075996D01*
X127716657Y-64286433D01*
X127855483Y-64477510D01*
X128022490Y-64644517D01*
X128213567Y-64783343D01*
X128312991Y-64834002D01*
X128424003Y-64890566D01*
X128424005Y-64890566D01*
X128424008Y-64890568D01*
X128544412Y-64929689D01*
X128648631Y-64963553D01*
X128881903Y-65000500D01*
X128881908Y-65000500D01*
X129118097Y-65000500D01*
X129351368Y-64963553D01*
X129575992Y-64890568D01*
X129786433Y-64783343D01*
X129977510Y-64644517D01*
X130144517Y-64477510D01*
X130283343Y-64286433D01*
X130390568Y-64075992D01*
X130463553Y-63851368D01*
X130500500Y-63618097D01*
X130500500Y-63381902D01*
X213499500Y-63381902D01*
X213499500Y-63618097D01*
X213536446Y-63851368D01*
X213609433Y-64075996D01*
X213716657Y-64286433D01*
X213855483Y-64477510D01*
X214022490Y-64644517D01*
X214213567Y-64783343D01*
X214312991Y-64834002D01*
X214424003Y-64890566D01*
X214424005Y-64890566D01*
X214424008Y-64890568D01*
X214544412Y-64929689D01*
X214648631Y-64963553D01*
X214881903Y-65000500D01*
X214881908Y-65000500D01*
X215118097Y-65000500D01*
X215351368Y-64963553D01*
X215575992Y-64890568D01*
X215786433Y-64783343D01*
X215977510Y-64644517D01*
X216144517Y-64477510D01*
X216283343Y-64286433D01*
X216390568Y-64075992D01*
X216463553Y-63851368D01*
X216500500Y-63618097D01*
X216500500Y-63381902D01*
X216463553Y-63148631D01*
X216390566Y-62924003D01*
X216283342Y-62713566D01*
X216144517Y-62522490D01*
X215977510Y-62355483D01*
X215786433Y-62216657D01*
X215575996Y-62109433D01*
X215351368Y-62036446D01*
X215118097Y-61999500D01*
X215118092Y-61999500D01*
X214881908Y-61999500D01*
X214881903Y-61999500D01*
X214648631Y-62036446D01*
X214424003Y-62109433D01*
X214213566Y-62216657D01*
X214104550Y-62295862D01*
X214022490Y-62355483D01*
X214022488Y-62355485D01*
X214022487Y-62355485D01*
X213855485Y-62522487D01*
X213855485Y-62522488D01*
X213855483Y-62522490D01*
X213795862Y-62604550D01*
X213716657Y-62713566D01*
X213609433Y-62924003D01*
X213536446Y-63148631D01*
X213499500Y-63381902D01*
X130500500Y-63381902D01*
X130463553Y-63148631D01*
X130390566Y-62924003D01*
X130283342Y-62713566D01*
X130144517Y-62522490D01*
X129977510Y-62355483D01*
X129786433Y-62216657D01*
X129575996Y-62109433D01*
X129351368Y-62036446D01*
X129118097Y-61999500D01*
X129118092Y-61999500D01*
X128881908Y-61999500D01*
X128881903Y-61999500D01*
X128648631Y-62036446D01*
X128424003Y-62109433D01*
X128213566Y-62216657D01*
X128104550Y-62295862D01*
X128022490Y-62355483D01*
X128022488Y-62355485D01*
X128022487Y-62355485D01*
X127855485Y-62522487D01*
X127855485Y-62522488D01*
X127855483Y-62522490D01*
X127795862Y-62604550D01*
X127716657Y-62713566D01*
X127609433Y-62924003D01*
X127536446Y-63148631D01*
X127499500Y-63381902D01*
X123500500Y-63381902D01*
X123500500Y-59624500D01*
X123520185Y-59557461D01*
X123572989Y-59511706D01*
X123624500Y-59500500D01*
X222375500Y-59500500D01*
X222442539Y-59520185D01*
G37*
%TD.AperFunction*%
%TD*%
M02*
