%TF.GenerationSoftware,KiCad,Pcbnew,10.0.1*%
%TF.CreationDate,2026-06-01T10:24:52+02:00*%
%TF.ProjectId,powerBoardv1_routed5_copperPour1,706f7765-7242-46f6-9172-6476315f726f,rev?*%
%TF.SameCoordinates,Original*%
%TF.FileFunction,Soldermask,Bot*%
%TF.FilePolarity,Negative*%
%FSLAX46Y46*%
G04 Gerber Fmt 4.6, Leading zero omitted, Abs format (unit mm)*
G04 Created by KiCad (PCBNEW 10.0.1) date 2026-06-01 10:24:52*
%MOMM*%
%LPD*%
G01*
G04 APERTURE LIST*
G04 Aperture macros list*
%AMRoundRect*
0 Rectangle with rounded corners*
0 $1 Rounding radius*
0 $2 $3 $4 $5 $6 $7 $8 $9 X,Y pos of 4 corners*
0 Add a 4 corners polygon primitive as box body*
4,1,4,$2,$3,$4,$5,$6,$7,$8,$9,$2,$3,0*
0 Add four circle primitives for the rounded corners*
1,1,$1+$1,$2,$3*
1,1,$1+$1,$4,$5*
1,1,$1+$1,$6,$7*
1,1,$1+$1,$8,$9*
0 Add four rect primitives between the rounded corners*
20,1,$1+$1,$2,$3,$4,$5,0*
20,1,$1+$1,$4,$5,$6,$7,0*
20,1,$1+$1,$6,$7,$8,$9,0*
20,1,$1+$1,$8,$9,$2,$3,0*%
G04 Aperture macros list end*
%ADD10C,1.600000*%
%ADD11C,2.500000*%
%ADD12R,2.000000X1.905000*%
%ADD13O,2.000000X1.905000*%
%ADD14RoundRect,0.249999X-0.850001X-0.850001X0.850001X-0.850001X0.850001X0.850001X-0.850001X0.850001X0*%
%ADD15C,2.200000*%
%ADD16RoundRect,0.249999X0.850001X-0.850001X0.850001X0.850001X-0.850001X0.850001X-0.850001X-0.850001X0*%
%ADD17C,0.650000*%
%ADD18O,2.100000X1.000000*%
%ADD19O,1.800000X1.000000*%
%ADD20C,1.498600*%
%ADD21C,2.000000*%
%ADD22R,1.700000X1.700000*%
%ADD23C,1.700000*%
%ADD24R,1.800000X1.800000*%
%ADD25C,1.800000*%
%ADD26R,1.050000X1.500000*%
%ADD27O,1.050000X1.500000*%
G04 APERTURE END LIST*
D10*
%TO.C,R8_NTC1*%
X146290000Y-71730000D03*
X156450000Y-71730000D03*
%TD*%
D11*
%TO.C,Mount4*%
X129000000Y-125000000D03*
%TD*%
D12*
%TO.C,U_LM317*%
X174000000Y-116080000D03*
D13*
X174000000Y-113540000D03*
X174000000Y-111000000D03*
%TD*%
D10*
%TO.C,R_TM2*%
X162290000Y-71730000D03*
X172450000Y-71730000D03*
%TD*%
%TO.C,R4_Rfb_dwn1*%
X189340000Y-93000000D03*
X199500000Y-93000000D03*
%TD*%
D11*
%TO.C,Mount3*%
X215000000Y-124000000D03*
%TD*%
%TO.C,Mount2*%
X215000000Y-63500000D03*
%TD*%
%TO.C,Mount1*%
X129000000Y-63500000D03*
%TD*%
D10*
%TO.C,R_CC1*%
X209450000Y-72730000D03*
X219610000Y-72730000D03*
%TD*%
D14*
%TO.C,D_LM1*%
X172840000Y-93000000D03*
D15*
X183000000Y-93000000D03*
%TD*%
D16*
%TO.C,D1*%
X183500000Y-119160000D03*
D15*
X183500000Y-109000000D03*
%TD*%
D17*
%TO.C,J2*%
X211820000Y-109270000D03*
X211820000Y-103490000D03*
D18*
X211320000Y-110700000D03*
D19*
X215500000Y-110700000D03*
D18*
X211320000Y-102060000D03*
D19*
X215500000Y-102060000D03*
%TD*%
D10*
%TO.C,R2_CC2*%
X155340000Y-98500000D03*
X165500000Y-98500000D03*
%TD*%
%TO.C,R9_INH1*%
X209790000Y-81730000D03*
X219950000Y-81730000D03*
%TD*%
D20*
%TO.C,Dsub1*%
X135340000Y-85885000D03*
X135340000Y-88655000D03*
X135340000Y-91424999D03*
X135340000Y-94194999D03*
X135340000Y-96964999D03*
X135340000Y-99734998D03*
X135340000Y-102504998D03*
X132500001Y-84500002D03*
X132500001Y-87270001D03*
X132500001Y-90040001D03*
X132500001Y-92810000D03*
X132500001Y-95580000D03*
X132500001Y-98350000D03*
X132500001Y-101119999D03*
X132500001Y-103889999D03*
%TD*%
D21*
%TO.C,L1*%
X192000000Y-116620000D03*
X192000000Y-101380000D03*
%TD*%
D10*
%TO.C,R_TM1*%
X162290000Y-81230000D03*
X172450000Y-81230000D03*
%TD*%
%TO.C,R7_bottom1*%
X145790000Y-81230000D03*
X155950000Y-81230000D03*
%TD*%
%TO.C,R_SNS1*%
X157500000Y-118000000D03*
X147340000Y-118000000D03*
%TD*%
D22*
%TO.C,NTC_Head1*%
X148500000Y-93225000D03*
D23*
X148500000Y-95765000D03*
%TD*%
D10*
%TO.C,R1_CC1*%
X155340000Y-90000000D03*
X165500000Y-90000000D03*
%TD*%
D24*
%TO.C,D2_LED1*%
X198410000Y-71230000D03*
D25*
X200950000Y-71230000D03*
%TD*%
D26*
%TO.C,Q1_PNP1*%
X150460000Y-109000000D03*
D27*
X151730000Y-109000000D03*
X153000000Y-109000000D03*
%TD*%
D10*
%TO.C,R5_LED1*%
X194450000Y-81230000D03*
X204610000Y-81230000D03*
%TD*%
%TO.C,R6_top1*%
X179290000Y-71730000D03*
X189450000Y-71730000D03*
%TD*%
%TO.C,R3_Rfb_up1*%
X204340000Y-93000000D03*
X214500000Y-93000000D03*
%TD*%
M02*
